<svg xmlns="http://www.w3.org/2000/svg" viewBox="0 0 183 27.5"><g fill="#FFF"><path d="M8.4 19.1s0-.1-.1-.2c0-.1-.1-.2-.1-.2s-.1-.1-.1-.2-.1-.1-.1-.2v.1h-.1s-.1 0-.1.1c-.1 0-.1.1-.1.1s-.1 0-.1.1-.1.1-.1.1l-.2-.2-.1.1c-.2 0-.2.1-.2.1h-.1s-.1-.1-.2-.1c-.1-.1-.2-.1-.2-.1l-.1-.1c0-.1 0-.1-.1-.1 0-.1-.1-.1-.1-.1l-.1.1H6l-.2-.2c-.1-.1-.1-.2-.2-.2 0 0-.1 0-.1.1-.1 0-.1.1-.1.1H5s-.1 0-.3-.1c-.1 0-.2-.1-.2-.1s-.1-.1-.2-.1c-.1-.1-.1-.1-.2-.1v-.1-.2-.2-.1s-.1-.1-.2-.3c-.1-.2-.2-.3-.3-.3l-.1.1s-.1 0-.1.1c0 0 0 .1-.1.2s-.1.2-.1.2-.1-.1-.2-.1c-.1-.1-.1-.1-.2-.1h-.2c-.1 0-.1-.1-.2-.1 0 0 0-.1-.1-.2 0-.1-.1-.3-.1-.3v-.2-.1-.1l.1-.1h.1-.3l-.2-.8h-.2v.2c0 .1-.1.2-.1.2h-.1-.1-.1-.1c0-.1 0-.2-.1-.4 0-.2-.1-.4-.1-.4s0-.1-.1-.3c0-.1 0-.2-.1-.2 0 0 0-.1-.1-.1H.6v-1.6l-.1-.1-.1-.1v-.1-.1-.2-.1s0-.1.1-.2c0-.1.1-.2.1-.2v-.3c0-.2 0-.3.1-.3v-.1s0-.1.1-.2v-.2-.1-.2-.2-.1s0-.1.1-.3c0-.1.1-.2.1-.2l.1-.1V9s.1-.1.1-.2c.1-.1.1-.2.1-.2v-.2-.2h.1l.1-.1V8c.4-1 .4-1.1.5-1.1 0-.1.1-.2.2-.3.1-.1.2-.2.2-.3H2.7s.1-.1.1-.2c.2.1.2 0 .2 0s.1 0 .1-.1h.2l.1-.1.1-.1h.2s.1-.1.1-.2v-.2c.1 0 .2 0 .4-.1s.3-.1.4-.2c0 0 .1-.1.1-.3v-.3h.1l.1.1c.1.1.2.1.2.2V5l.1.1v.2s0 .1-.1.1H5 4.7v.7c0 .1.1.1.1.1h.1s0-.1.1-.1c0 .1 0 0 .1-.1s.1-.1.1-.2v.3c0 .1.1.2.1.2s.1 0 .2.1c.1 0 .1.1.2.1v.7l-.2.1h-.1v-.1s0-.1-.1-.2v-.2h-.1-.1V7s0 .1.1.2c0 .1.1.1.1.2h-.1-.1s-.1.1-.1.2v.2s-.1.1-.1.2c-.2.1-.3.2-.3.2l-.1.2h-.2v.5h-.2c-.1 0-.1 0-.1-.1 0 0-.1-.1-.2-.1s-.1-.1-.2-.1c0 0 .1.1.1.2.1.1.1.2.1.2v.1H3.5c-.1 0-.2-.1-.2-.1h-.2s0 .1-.1.2v.5l.1.1.1.1v.4s0 .1-.1.3c-.1.1-.1.2-.1.3V11.8s0 .2-.1.4c0 .2-.1.4-.1.5v.1l.5-.2.1.2h-.1-.1l-.1.1h.3s0 .1-.1.1 0 .1 0 .1.1 0 .1.1.1.1.1.1V14.2s0-.1.1-.1h.1s0 .1.1.1c0 .1 0 .1.1.1v.1h.2c.1 0 .1.1.1.1s.1 0 .1.1c.1.1.1.2.1.2v.1c0 .1 0 .1.1.1v.1h.1V15c0-.1.1-.1.1-.1h.1l.2.2.1.1v.5h.1v-.1l.1-.1h.1s.1.1.3.2c.2.1.3.2.3.2s.1 0 .2.1h.7c.1 0 .1 0 .2-.1H7.4l.2.2s.1.2.2.2h.1s.1-.1.2-.1c.1-.1.2-.1.2-.1s.1 0 .2-.1h1l.1.1.1.1s.1.1.2.1h1l.1.1c0 .1.1.1.1.1h.3c.1 0 .2-.1.2-.1v-.2-.2s.1 0 .1-.1c.1 0 .1-.1.1-.1H12.9c.1 0 .2 0 .3-.1.1 0 .2-.1.3-.1h1.4s.1 0 .1-.1l.1-.1s.1-.1.4-.1c.2-.1.4-.1.4-.1H16.2v.4c0 .2 0 .3.1.4v.2h-.4v.3c0 .1-.1.3-.1.4 0 .1-.1.3-.1.4 0 .1-.1.2-.1.3l-.2.2-.3.3-.3.3c-.1.1-.2.1-.2.2 0 0-.1 0-.2-.1-.1 0-.2 0-.2-.1h-.5s-.1.1-.2.1c-.1.1-.2.1-.4.2-.1.1-.2.1-.4.2-.1.1-.2.1-.2.1v-.3c0-.2-.1-.3-.1-.3s-.1-.1-.2-.1H12l-.1-.1-.1-.1h-.1c-.1 0-.1 0-.1-.1h.4-.1v.4h-.1l-.1-.1s0-.1-.1-.2 0-.1 0-.2-.1-.1-.1-.1l-.5.2v.8h-.1-.1s0 .1-.1.1c0 .1-.1.1-.1.1l-.2.2-.2.2s-.1.1-.3.1c-.2.1-.3.1-.3.1l-.1.1h-.1s-.1 0-.2-.1c-.1 0-.1-.1-.2-.1 0 0-.1 0-.1-.1l-.1-.1s0-.1-.1-.2c0-.1-.1-.2-.1-.2l-.2.2zm-6.2-7.9s0 .1 0 0l.1.1h.1l.1-.1v-.1l-.2-.4-.1.1c0 .1-.1.2-.1.2v.2h.1zM6 6.3s0-.1.1-.2V5.8v-.2L6 5.5l-.2-.2c0-.1-.1-.2-.1-.2s0-.1-.1-.1l-.1-.1h.1l.1-.1v.1l.3.2h.2v-.7l.1.1.1.1h.5v-.1s.1-.1.1-.3v-.3s.1.1.2.1.1.1.2.1h.2l.2-.2c.1 0 .2 0 .3-.1l.1-.1s0-.1.1-.1v-.1l.3.4V3H9.5s0 .1.1.2c0 .1 0 .2.1.2 0 0 0 .1.1.1 0 .1 0 .1.1.1l.2.4h.1l.2-.2c.1-.1.1-.2.1-.3 0 0 0-.1-.1-.1s-.1-.1-.1-.1v-.1-.1h1.3s0 .1.1.2c0 .1 0 .1.1.2 0 0 .1.1.1.2.1.1.1.1.1.2v-.2-.5s.1 0 .2-.1c.1 0 .2 0 .2-.1v-.1c0-.1.1-.1.1-.1h.1l.1.1c.2.1.3.2.3.2s.1 0 .1-.1H13.4v.6h.1c.1 0 .1 0 .1.1v.1h.2s.1 0 .1.1c.1 0 .1.1.1.1h.1s0 .1.1.2c0 .1 0 .2.1.2V4.7l-.5-.2s-.1 0-.1.1v.1s0 .1.1.2c.2.1.2.2.3.2v.8s0 .1-.1.1h-.2s-.1 0-.1-.1h-.5v.4h-.1l-.2-.3-.1.1h-.1s-.1 0-.2-.1-.2-.1-.2-.1v-.2-.2l-.2-.2c-.3-.2-.4-.3-.5-.3 0 0-.1 0-.1-.1-.1 0-.1-.1-.1-.1h-.2c-.1 0-.2-.1-.3-.1h-.1s-.1 0-.1.1h-.1-.1c-.1 0-.1-.1-.1-.1s-.1.1-.3.2l-.2.2s-.1.1-.2.1c-.2.1-.3.1-.3.1s-.1 0-.2.1c-.2.1-.3.1-.3.1s-.1 0-.1.1h-.1-.4-.2l-.1.1-.1.1-.1.1h-.1s-.1.1-.3.2c-.3.1-.4.2-.4.2s-.1.1-.2.1c-.1.1-.2.1-.2.1l-.1.1H6.2h-.1V6.3zm2.5 10.2v.1c.1 0 .1 0 0-.1.1 0 .1 0 0 0zm.1 1.9s.1.1.1.2c.1.1.1.1.1.2h.1v-.1l-.1-.1c-.1 0-.1-.1-.1-.1h.1-.2zm.5-14.7V4h.4s0-.1-.1-.1l-.1-.2h-.2zm.2 12.7h.1l-.1-.1v.1zm.7 2.2s-.1 0-.1.1c0 0 0 .1-.1.2 0 .1 0 .1-.1.2v.2h.1s0-.1.1-.2c0-.1 0-.2.1-.3v-.2zm-.3-1.1v.1c0 .1.1.1.1.1l.1-.1.1-.1v-.1-.1H9.7c.1.1 0 .1 0 .2zm.4-13.3c-.1 0-.1 0-.1.1s0 .1.1.1c0 0 .1 0 .1-.1s0-.1-.1-.1zm.7 13.5c-.1 0-.1 0-.1.1s0 .1.1.1.1 0 .1-.1 0-.1-.1-.1zm1.8-14.2l.1.1v-.1c0-.1-.1-.1-.1-.1v.1zm.7 14.3c-.1 0-.1 0 0 0h-.2s0 .1-.1.1v.5H13.3v-.1-.3c-.1-.1 0-.2 0-.2zm-.3-.6l.1-.1V17l-.1.2zm.3-.3c-.1 0-.1 0-.1.1s0 .1.1.1.1 0 .1-.1 0-.1-.1-.1zm.2-12.6c-.1 0-.1 0 0 0-.1.1 0 .1 0 .1v-.1zm.1.7s-.1 0-.1.1 0 .1.1.1.1 0 .1-.1l-.1-.1zm.1 11.6s-.1 0 0 0c-.1.1 0 .1 0 .1.1 0 .1 0 0-.1zm1.3 1.3c-.1 0-.1 0-.1.1s0 .1.1.1.1 0 .1-.1c0 0 0-.1-.1-.1zm.5-.9c0 .1 0 .1 0 0 0 .1 0 .1.1.1h.2V17v-.1h-.2-.1v.1zM23.7 18.2h-.4v.1h-.6l-.1.2c0-.3-.1-.4-.4-.5s-.4 0-.6 0h-.2s-.1 0-.2.1v-.7-.1s-.1 0-.2-.1c-.1 0-.2-.1-.3-.1-.1 0-.2-.1-.3-.1-.1 0-.1-.1-.1-.1-.1 0-.2-.1-.2-.2s-.1-.2-.2-.3c-.1 0-.1.1-.1.1v.4c0 .1-.1.1-.1.1s-.1 0-.3-.1c-.2 0-.2-.1-.2-.2s.1-.1.1-.1-.1-.1-.2-.1-.1-.1-.2-.1-.2 0-.2.1v.2s0 .1-.1.1h-.2l-.2-.2c.1 0 .1-.1.1-.1v-.2c0-.2-.1-.4-.2-.5l-.4-.4v-.1c.2 0 .3-.1.4-.2.1-.1.1-.3.1-.4v-.2-.4-.4-.2c0-.2 0-.3.1-.4.1-.1.1-.3.1-.4 0 0 0-.1-.1-.2s-.1-.1-.1-.2c.1-.1.1-.3.2-.5s.1-.4.2-.5c.2-.1.3-.3.4-.4s.2-.4.2-.6c0 .1 0 .1.1.1h.2l-.3-.5 1.1-.3c0-.2.1-.4.2-.5.1-.1.2-.1.4-.2.1 0 .3-.1.4-.1.2 0 .3-.1.4-.3h.9v-.7h-.1-.1l-.1-.1.1-.1h1l.1-.2V8c0 .2.1.3.1.4 0 .1.1.3.1.4 0 .1.1.3.1.5v.2l-.7.6c-.1 0-.1 0-.1-.1s-.1-.1-.2-.1c-.2 0-.3.1-.3.2v.4c-.1 0-.2 0-.2.1-.1 0-.1.1-.1.2s-.1.1-.1.2-.1.1-.2.2l-.3.1s-.1.1-.1.2c-.1.1-.1.2-.2.3 0 .1-.1.1-.2.2h-.2c-.1 0-.1 0-.2.1 0 0-.1.1-.1.2s0 .2.1.3c0 .1.1.2.1.3 0 .3 0 .4-.1.5l-.3.3v.1c0 .3 0 .4.1.5 0 .1.1.2.2.2l.2.2c.1 0 .1.1.2.2 0 .1.1.3.1.5s.1.3.3.4c.3.1.5.2.8.3.3.1.5.2.8.3.4.1.8.2 1.3.2h1.8c.1 0 .2-.1.3-.2.1-.1.1-.2.2-.3.1-.1.1-.2.2-.4.1.2.2.3.2.2h.2v-.3s0-.3.1-.4c0-.1.1-.2.2-.3.1-.1.2-.1.3-.1 0 .1 0 .2.1.2h.2v-.4c0-.1 0-.2-.1-.3.2 0 .3 0 .4.1.1.1.1.2.2.3s.1.2.1.3c0 .1.1.1.2.1 0-.2.1-.3.1-.4v-.4c0-.1 0-.2-.1-.2 0-.1-.1-.1-.1-.2s-.1-.1-.1-.2-.1-.1-.1-.2 0-.2.1-.3c.1-.1.1-.3.1-.4 0-.2 0-.3-.1-.4-.1-.1-.2-.3-.3-.5 0 0-.1 0-.2-.1l-.3-.3-.3-.3c-.1-.1-.2-.2-.3-.2-.1 0-.2 0-.4-.1-.2 0-.4-.1-.7-.1-.2 0-.4-.1-.6-.2-.2-.1-.3-.2-.3-.3v-.9s0-.1-.1-.1-.1-.1-.1-.1v.2s0 .1.1.1c.1.1.1.1.1.2 0 0 0 .1-.1.1s-.1.1-.1.2l-.2.3v-.2c0-.1-.1-.1-.1-.1v.2c0 .1-.1.2-.1.2-.1 0-.2-.2-.2-.4-.1-.2-.1-.4-.1-.6v-.6-.3c.3 0 .4 0 .5-.1.1-.1.1-.2.3-.4.1 0 .1.1.1.2s0 .2-.1.3c-.3-.1-.3 0-.3.1v.2s.1.1.2.1c.1-.1.2-.1.2-.2s.1-.2.2-.3c0 .1.1.1.1.2V9h.7v-.4c0-.1-.1-.2-.3-.2h.5s.1.1.1.3c.1.2.1.2.3.2.1 0 .1 0 .2-.1 0-.1.1-.2.1-.2h.1c.1 0 .2.1.3.2.1.1.1.2.2.3l.1-.5.3.3c0 .1.1.2.3.3.1 0 .3.1.5.2l.6.3s.3.2.4.3c.1.1.2.3.2.5v1.7h.1l.7-.6-.3-.3c-.1-.2-.2-.3-.2-.4v-.1s0-.1.1-.1c0 0 0-.1.1-.1 0 0 .1 0 .1.1s.1.2.1.2c0 .1.1.2.1.3v.2c.1 0 .1 0 .1-.1v-.2h.3c.1.3.1.6.2.8.3.1.3.3.3.6v.4c0 .1 0 .2-.1.3 0 .1-.1.2-.2.3-.1.1-.1.2-.3.4 0 .1.1.1.2.1s.1.1.1.2 0 .1-.1.2c-.1 0-.2 0-.3.1-.1 0-.2.1-.3.2-.1.1-.1.2-.1.4 0 .1 0 .1.1.1h.2l.1.1c-.2 0-.3.1-.3.1h-.7v.8s0 .1-.1.1c0 .1-.1.1-.1.1v.4c0-.1 0-.2-.1-.3s-.1-.2-.2-.2h-.2v.2c0 .1 0 .2.1.3s.1.2.1.2c0 .1 0 .2-.1.3l-.2.2c-.1 0-.2.1-.2.1s-.1.1-.1.2l-.2-.6v.7h-.4v-.6h-.2s0 .1-.1.2-.1.2-.2.4-.1.2-.2.3c-.1.1-.2.1-.2.1-.1 0-.2 0-.2-.1s-.1-.2-.1-.3c-.1 0-.2 0-.3.1-.1 0-.1.1-.2.2 0 .1-.1.1-.1.2s-.1.1-.2.2c-.1 0-.1-.1-.1-.2s0-.2-.1-.4c0-.1-.1-.2-.1-.4-.1-.1-.2-.2-.3-.2v1.1c0 .1-.1.2-.1.3-.1 0-.1 0-.1-.1v-.2s0-.1.1-.2c0-.1-.1-.2-.1-.4s-.1-.2-.1-.2h-.1s-.1.1-.3.2l-.4.4c0 .1-.1.2-.1.3-.1.2-.2.3-.2.3-.1 0-.2 0-.2-.1s0-.1-.1-.2c0-.1-.1-.2-.2-.2s-.2-.2-.4-.2zm-5.1-6.6c0 .1 0 .1 0 0 0 .1.1.1 0 0 .1.1 0 0 0 0zm.7-.2c.2-.2.3-.3.4-.5.1-.2.1-.4.1-.5 0 0-.1 0-.2.1s-.2.2-.2.3c-.1.1-.2.2-.3.4 0 .1.1.2.2.2zm1.9 5.6v-.1.1zm.8-8.2v-.4.4zm.4 0h.2v-.1l-.1-.1v.2zm.5 8.9v-.2.2zm1-.4c-.2 0-.2.1-.3.2v.5c.2 0 .2-.1.3-.3v-.4zm.6-8.4zm0 .2s.1.1 0 0c.1.1.1.2.1.2V9l-.1.1zm.3.7h.2v-.2c0-.1-.1-.1-.1-.1v.3zm0 7.9s0 .1 0 0l.1.1h.1c.2 0 .4-.1.5-.2.1-.2.2-.3.2-.5-.2 0-.4 0-.6.1-.2.1-.3.2-.3.5zm1.8.4s-.1 0-.1.1 0 .1.1.1.1 0 .1-.1 0-.1-.1-.1zm2.7-6s-.1 0-.1.1 0 .1.1.1.1 0 .1-.1-.1-.1-.1-.1zm.1.2c-.1 0-.1 0-.1.1s0 .1.1.1c0 0 .1 0 .1-.1s-.1-.1-.1-.1zm.1.2v.5c.1 0 .1-.1.2-.2 0-.1.1-.2.1-.2-.2-.1-.2-.1-.3-.1zm-.1.8zm.1-1.7h.1v-.1h-.1v.1zm.1 4.2h.3c0-.1-.1-.1-.1-.1h-.1v.1zm.2-5.4s-.1 0 0 0c-.1.2-.1.2 0 .2s.1-.1 0-.2c.1 0 .1 0 0 0zm0 .3c-.1 0-.1 0-.1.1s0 .1.1.1.1 0 .1-.1 0-.1-.1-.1zm.1 1.3zm.1 3.8s0 .1 0 0v.2c.1 0 .1 0 0-.2.1.1.1 0 0 0zm.1-3.5c-.1 0-.1 0-.1.1s0 .1.1.1c0 0 .1 0 .1-.1s0-.1-.1-.1zm.1 1.3c0 .1.1.1.1.1h.1v-.1h-.2c.1-.1 0-.1 0 0zm1-1.2h.1v-.1l-.1.1zM35.3 17.6v-.3-.3s0-.1-.1-.2-.1-.1-.1-.2 0-.1.1-.1l.1-.1v-.2c0-.4-.1-.8-.3-1.1s-.3-.8-.3-1.1c-.1-.6-.1-1.1-.2-1.6 0-.5-.1-1.1-.1-1.6V9.2c0-.2.1-.4.1-.5.1-.2.1-.3.2-.4.1.1.2.2.3.4s.2.3.4.2c0 0 .1 0 .2-.1s.2-.1.2-.1h.2c.2 0 .3 0 .4.1.1.1.2.2.4.3v1c0 .2 0 .4.1.7 0 .2.1.4.2.5H37.4s.1-.1.1-.2c0-.2-.1-.3-.2-.5s-.2-.3-.2-.5c0 0 0-.1.1-.2s.1-.2.2-.3l.2-.2c.1-.1.1-.1.2-.1h.2c.1 0 .2 0 .2-.1s.1-.1.1-.2v-.3-.2l.2-.2c.1-.1.2-.2.3-.2h.1c.1 0 .1.1.2.2 0 .1.1.2.3.2.2 0 .4-.1.5-.2.1-.2.3-.3.4-.5s.2-.4.3-.5c.1-.2.2-.3.3-.3.1 0 .2 0 .3.1.1.1.2.1.4.2l.4.2s.2.1.3.1h.6s.1 0 .2.1l.3.3.3.3.3.3.1 1.6-.1.1.4.4c.1.1.1.2.1.4s0 .3-.1.3c0 .1-.1.2-.1.4s0 .4.1.5c0 .2.1.3.1.5v.2l-.1.1h-.1v.2c0 .1.1.1.1.1.2 0 .3-.1.4-.1.1 0 .1-.1.1-.3 0-.1 0-.2-.1-.2s-.1-.1-.1-.2l.2-.2.4-.4.4-.4c.1-.1.2-.2.2-.3.1-.1.2-.2.4-.5l.6-.6c.2-.2.4-.4.6-.5.2-.2.4-.2.5-.2h.1s.1 0 .1.1c.1 0 .1.1.1.1.1 0 .2 0 .3-.1l.3-.3c.1-.1.2-.2.2-.3s.1-.2.1-.4c0 0 .1.1.3.1.1.1.2.1.3.1v.1s.1 0 .1-.1l.1-.1h-.1c0-.4.1-.7.2-.8.1-.1.4-.2.8-.3.1 0 .2.1.4.3.1.1.2.3.3.4.1.1.2.3.3.4.1.1.2.2.3.2 0 0 .1 0 .1-.1.1 0 .1-.1.1-.1h.1c.1 0 .2.1.2.2.1.1.1.3.2.4 0 .2.1.3.1.5v.3c0 .4-.1.8-.2 1.2-.1.4-.2.8-.2 1.2 0 .1.1.1.2.2l.2.1s-.1.1-.1.2c-.1.1-.1.1-.1.2l.1.1.1.1s0 .1-.1.2c0 .1-.1.1-.1.2v1.5s0 .2.1.4c0 .1.1.3.1.5 0 0 0 .1.1.2s.1.2.1.2 0 .1-.1.2c0 .1-.1.1-.2.1v.5c0 .2 0 .3.1.5.1.1.2.2.2.3.1.1.2.2.2.3.1.1.1.2.1.3h.5s-.1-.1-.2-.1c-.1-.1-.2-.1-.3-.1 0 0-.1 0-.2.1s-.3-.1-.3 0h-.1c-.3 0-.5-.2-.7-.5-.2-.3-.4-.8-.5-1.3-.1-.5-.3-1.1-.4-1.7-.1-.6-.2-1.2-.3-1.7-.1-.5-.2-1-.2-1.3-.1-.3-.2-.5-.3-.5h-.1c0 .1-.2.2-.3.3l-.4.4-.2.2c-.1.1-.2.2-.2.3H49c-.1 0-.2 0-.2-.1 0 0-.1-.1-.3-.1v.9c0 .1 0 .3-.1.4 0 .1-.1.3-.3.4H48s0-.1-.1-.2.1-.2.1-.2v-.1c0-.1 0-.1-.1-.1h-.1c-.1 0-.1.1-.1.1v.6l.2.2v.1h-.1c-.1 0-.1 0-.2-.1-.1 0-.1 0-.2-.1-.1 0-.2 0-.3.1-.1.1-.2.1-.2.2h.2c.1 0 .2.1.2.1 0 .3-.1.5-.3.6-.2.1-.4.1-.7.1 0-.1 0-.2-.1-.4s-.1-.2-.2-.2c-.2 0-.3.1-.4.3-.1.2-.1.4-.1.5 0 .2.1.3.2.4.3.4.3.5.3.7 0 .4-.1.6-.3.8l-.6.3c-.2.1-.5.1-.7.2-.2.1-.4.3-.5.5h-.2l-.1-.1s-.1-.1-.2-.1h-.1l-.1.1c-.1 0-.1.1-.1.1H43l-.1-.1v-.1-.2s0-.1.1-.1v-.1-.1-.8s0-.6-.1-.9c0-.3-.1-.6-.1-.9 0-.3-.1-.5-.2-.7-.1-.2-.1-.3-.2-.4-.1-.1-.1-.2-.2-.3 0-.1-.1-.2-.1-.4v-1.1s0-.1.1-.1c0-.1.1-.1.1-.1 0-.1 0-.2-.1-.4s-.1-.3-.1-.3h-.4c.1-.1.1-.2.1-.2v-.6s-.1 0-.1.1c-.1 0-.1.1-.1.1-.1 0-.1 0-.1-.1s-.1-.2-.1-.2c0-.1-.1-.2-.1-.3 0-.1-.1-.1-.2-.2-.1 0-.2 0-.4.2-.1.1-.3.3-.4.5s-.2.4-.4.6-.2.3-.2.4l-.2.2c-.1.1-.1.1-.1.2 0 0-.1 0-.2.1-.1 0-.2.1-.2.1v.1s.1 0 .1.1c.1 0 .1.1.1.1l-.3.1h.2s.1.1.1.2 0 .2-.1.2-.1.1-.1.2 0 .2.1.2.1 0 .1.1-.2.2-.3.3c-.2.1-.3.2-.3.4 0 .1 0 .2.1.2 0 .1.1.2.1.2 0 .5-.1.8-.4 1-.2.2-.6.3-1 .3V18c0 .1-.1.1-.1.2s-.1.1-.2.1H36.8c-.1 0-.3 0-.4.1-.1.1-.2.2-.3.2H36c-.3 0-.5-.1-.6-.3-.1-.2-.2-.4-.2-.7zm.2-7.3v1s0 .4.1.4c0 0 .1-.1.1-.2V11c0-.2 0-.4-.1-.5l-.1-.2zm.2 7.7v.2l.1-.1s0-.1-.1-.1zm.3-.7c0 .1 0 .2.1.3.1.1.2.2.3.2.1 0 .1-.1.1-.2v-.3-.2-.2s-.1.1-.2.1-.2 0-.2.1 0 .1-.1.2zm1.7-3.6h.1v-.2h-.1v.2zm.3-3.4c0 .2 0 .3.1.6.1.2.1.4.3.4l.2-.2.2-.2h-.2c0-.1-.1-.3-.2-.4s-.2-.2-.4-.2zm.7-1.1v.2c0 .1.1.1.1.2l.1-.1.1-.1s0-.1-.1-.3c0-.1-.1-.2-.1-.3-.1 0-.1.1-.2.2.1.1.1.1.1.2zm1 0c-.1.1 0 .2 0 .2l.1.1.1.1v-.2c-.1-.2-.1-.2-.2-.2zm.1-.2h.2v-.2h-.1V9zm4.2 5s0 .1-.1.2c0 .1-.1.1-.1.2.2 0 .4.1.5.1s.3.1.5.1l-.5-.8h-.2c-.1.1-.1.1-.1.2zm0-1.4c-.1 0-.1.1 0 0v0zm.8.7c.1 0 .1 0 .1.1s0 .1-.1.1-.1 0-.1-.1 0-.1.1-.1zm2.1-2.3s-.1 0-.1.1 0 .1.1.1.1 0 .1-.1 0-.1-.1-.1zm.2 1.3c0 .1 0 .1 0 0 .1.1.1.1 0 0 .1 0 .1 0 0 0zm.3-1.9s0 .1 0 0c0 .2 0 .2.1.3 0 .1.1.2.1.2l.1.1c.1-.1.2-.2.2-.3 0-.1 0-.2-.1-.2 0-.1-.1-.1-.2-.2 0 .1-.1.1-.2.1zm.3 2.4c0-.1 0-.1 0 0-.2-.1-.2-.1-.2 0 0 0 .1.1.2 0 0 .1 0 0 0 0zm1.6-1.4c-.1 0-.1 0-.1.1s0 .1.1.1.1 0 .1-.1-.1-.1-.1-.1zm1.1-.1H49.8s-.1 0 0 0H50.1c.1.1.2.1.3 0zm2-.2h.4c.1 0 .2-.1.2-.2s0-.1-.1-.2-.2-.1-.4-.1V10.9l-.1.2c.1-.1.1 0 0 0zm.3 2.9s0 .1.1.1c0 .1.1.1.1.1v-.5l-.1.1c-.1.1-.1.1-.1.2zm.7 4.2v-.1h-.1l.1.1zM60 18.9c0-.1-.1-.2-.2-.4-.1-.1-.2-.2-.3-.1s-.2.1-.3.1c-.1.1-.2.1-.3.1h-.4l-.2-.2c0-.1-.1-.2-.1-.4v-.4c-.1 0-.2.1-.3.1s-.2.1-.2.3c-.1-.2-.2-.3-.5-.5-.2-.2-.4-.2-.6-.2 0-.1 0-.2-.1-.5 0-.3-.1-.4-.1-.5V16v-.3-.4-.7-1.1-1.1-.7-.7s0-.5.1-.6c0 0 0-.1.1-.2l.1-.1v-.5-.4s0-.2.1-.4c.1-.1.2-.3.3-.4h.1s.1 0 .1.1.1.1.1.1h.4l.4.7h.2v.2c.1 0 .2-.1.3-.1.1 0 .3 0 .4.1.1 0 .2.1.3.2s.1.2.2.3c0 .1 0 .2-.1.3-.1.1-.2.2-.4.2-.1.1-.3.2-.4.2-.1.1-.2.1-.2.2v.2c.1.1.2.1.3.2.1.1.2.1.3.2.1.1.2.1.2.2s0 .2-.1.2-.1.1-.2.1-.2 0-.3.1c-.1 0-.2.1-.2.2v.2c.1.1.1.2.2.2.1.1.1.2.2.2 0 .1.1.1 0 .2 0 .1-.1.2-.1.2-.1 0-.1 0-.2.1-.1 0-.1 0-.2.1 0 0-.1.1 0 .3 0 .1 0 .2.1.2.1.1.1.1.2.1s.1-.1.1-.1v-.3.5c0 .1-.1.1-.1.1-.1 0-.1.1-.1.2v.4h.3s.1 0 .2-.1v.6c-.1.2-.1.4 0 .5 0 .2 0 .3.1.3 0 .1.2.1.4.2.1-.1.3-.1.4-.2.2 0 .3-.1.5-.1s.3-.1.4-.2l.3-.3s.1 0 .1.1h.1c.1 0 .2 0 .3-.1.1 0 .1-.1.2-.1H62.2s.1-.1.3-.1h-.2.2s0-.1.1-.2c0-.1.1-.2.1-.2s.1 0 .2-.1c.1 0 .1-.1.1-.1s0-.1.1-.2v-.2c.2 0 .2.1.2.2v.1s-.1.1-.1.2c-.1.1-.1.1-.1.2V16c0 .1-.1.2-.2.2s-.1 0-.2.1c-.1 0-.1 0-.2.1 0 0-.1.1 0 .2 0 .1.1.2.2.1.1 0 .2-.1.3-.2.1-.1.2-.2.3-.2l.1.1s-.1.1-.2.3c-.1.1-.2.3-.3.5-.1.2-.2.3-.3.4l-.2.2h-.1c-.1 0-.1 0-.1-.1v-.1-.1-.1c0-.1 0-.2-.1-.2l-.2-.2-.3.4.3.2c0 .1-.1.1-.2.2-.1 0-.2.1-.2.2-.1.2-.1.3-.2.4 0 .1 0 .2-.1.2 0 .1-.1.1-.2.2-.1 0-.2.1-.4.1h-.4c.2.1 0 .1-.2 0zM57.9 6.8s-.1 0-.1.1c-.1 0-.1.1-.1.1h-.1c-.2-.3-.3-.6-.5-1-.1-.4-.2-.7-.2-1 0 0 0-.1.1-.3.1-.1.1-.3.2-.5s.2-.3.3-.4l.2-.2h.2c.1 0 .3.1.4.1.1 0 .3.1.4.1h.3l.1.1.1.1.1.1c0-.1.1-.1.1-.1.1 0 .1 0 .2-.1.1 0 .1 0 .1.1l.1.1c0 .1 0 .1.1.1l.1.1.1-.1.1-.1v.5h.2v.5s.1.1.1.2c.1.1.1.2.1.2s0 .1-.1.2c0 .1-.1.2-.1.3 0 .1-.1.2-.2.3-.1.1-.1.2-.2.2h-.4-.1c-.1 0-.2.1-.3.2l-.2.2c-.1.1-.1.1-.2.1h-.3c-.1 0-.2 0-.3-.1-.1-.1-.1-.2-.3-.1zm-.3-2.5v.1c0 .1 0 .1.1.1 0-.1 0-.1-.1-.2.1 0 .1 0 0 0zm1.1 4.8s.1 0 .1.1 0 .1-.1.1-.1 0-.1-.1.1-.1.1-.1zm1.2-4.3c-.1 0-.1 0 0 0-.1 0 0 .1 0 0 0 .1 0 0 0 0zm0 13.2s0 .1 0 0v.1c.1 0 .1 0 0-.1zm.2-1.3v-.1H60l.1.1zm.6 1.9h-.1c.1.1.1.1.1 0zm.6-1.3c-.1 0-.3.1-.4.1l-.2.2c0 .1 0 .2.1.2.1.1.2.1.4.2l.1-.1v-.3-.3zm2.1-2.7c0-.1.1-.1 0 0 .1 0 .1 0 0 0 0 .1 0 .1 0 0zM79.1 18.3s-.1.1-.3.1-.2.1-.3.1c-.1 0-.1.1-.2.2s0 .3-.1.3c0-.3 0-.5-.1-.6-.1-.1-.2-.1-.3-.1-.1 0-.3 0-.4.1-.1 0-.3 0-.4-.1l-.2-.2v-.2-.2s-.1-.1-.2-.1-.2.1-.3.2-.3.2-.5.2c0-.1 0-.2.1-.3.1-.1.1-.2.1-.3 0-.1 0-.2-.1-.2H75.3l-.2-.2c-.1-.1-.1-.2-.2-.2s-.2 0-.3.1c-.1.1-.1.1-.3.1 0 0-.1 0-.1-.1-.1-.1-.1-.2-.2-.3-.1-.1-.1-.2-.2-.3 0-.1-.1-.2-.1-.2V16l.1-.1c0-.1.1-.1 0-.1l-.2-.2c-.1-.1-.2-.1-.2-.2 0 0-.1-.1-.1-.2s0-.2-.1-.2l-.3-2.8c0-.1-.1-.2-.1-.3-.1-.1-.1-.2-.2-.3h-.2c-.1 0-.2.1-.2.1s-.1.1-.1.2 0 .2-.1.2h-.1c.2-.1.2-.1.1-.1v.4l-.1.1H71l-.2.2-.2.2h-.1-.1v.3s0 .1.1.3c-.1 0-.2.1-.3.1-.1 0-.1.1-.2.2 0 .1-.1.1-.1.2s-.1.2-.1.3c0 0-.1 0-.1-.1h-.1c0 .2 0 .3.1.3h.1s.1 0 .1.1c0 0 .1.2.1.4-.2 0-.3 0-.4.1l-.2.2s-.1.2-.2.3c-.1.1-.1.2-.2.3 0 0-.1.1-.2.1h-.4l-.1.1c0 .1-.1.3-.1.6s-.1.5-.2.6c-.2 0-.4 0-.5.1-.1.1-.2.1-.3.2-.1.1-.2.2-.2.3-.1.1-.2.3-.3.4-.1-.1-.1-.2-.1-.3 0-.1 0-.2-.1-.3 0-.1-.1-.1-.1-.2H66l-.1.1-.1.1.1.1s.1 0 .1.1h.1l.1-.1h.2v.1l-.1.1-.3.3s-.1.2-.1.3c0 .2-.1.3-.1.4-.1-.1-.3-.3-.4-.6-.1-.3-.2-.7-.3-1.1-.1-.4-.2-.8-.2-1.2-.1-.4-.1-.6-.1-.8v-.2s.1 0 .1.1c.1 0 .1 0 .1.1l.1-.1.1-.1c-.1-.1-.3-.1-.4-.2-.2-.1-.3-.2-.4-.2 0-.3-.1-.5-.1-.6v-.6c0-.2 0-.4.1-.6 0-.2.1-.4.1-.6 0-.3 0-.5-.1-.7 0-.2-.1-.5-.1-.8 0 0 0-.1.1-.1l.1-.1c-.1-.2-.1-.3-.2-.4 0-.1-.1-.3-.1-.4 0-.1-.1-.3-.1-.4 0-.1 0-.2.1-.3 0-.1.1-.2.1-.2s0-.1-.1-.2c0-.1-.1-.1-.1-.2s0-.1.1-.1h.2c.1 0 .1 0 .2-.1.3-.4.4-.6.4-.8v-.2-.2h-.3c-.1 0-.2 0-.2.2l.3.3v.1s-.1 0-.2.1h-.2v-.9c.2 0 .3-.1.4-.2.2-.2.2-.3.2-.5 0 0 .1 0 .2.1s.2.1.4.2c.1.1.3.2.4.2l.2.2c-.1.1-.2.1-.3.2-.1.1-.2.1-.2.1h-.1-.2v.2h.5c.1 0 .2.1.3.1.1 0 .1.1.1.2 0 .2-.1.4-.2.5s-.1.3-.1.5c0 .1 0 .2.1.2s.2.1.2.1c.1 0 .2.1.2.2.1.1.1.2.1.3v.4s0 .1-.1.2c0 .1-.1.1-.1.2 0 .2.1.3.2.3s.3.1.4.1v.7c0 .3.1.5.1.6 0 0 .1.1.1.2s.1.2.1.2v.1s-.1.1-.2.1c-.1.1-.2.1-.2.1v.1c.1.4.2.6.3.7l.2.2h.2c.1 0 .2.1.3.3l.1-.1v-1s.2-.3.3-.4c.1-.1.3-.1.4-.2.2-.1.3-.2.4-.4.2-.3.3-.6.4-.8.1-.2.3-.4.6-.7 0 .1 0 .1.1.3 0 .1.1.2.2.2l.1-.1.1-.1h.1l.1.1h.4s0-.1-.1-.2c0-.1-.1-.2 0-.2l.1-.1h.1l.1-.1v-.1-.2c0-.1-.1-.2-.1-.3 0-.1-.1-.2-.1-.3v-.2c0-.1 0-.2.1-.4s.2-.3.2-.3c.1 0 .1.1.1.1v.2c.4.2.4.3.4.3 0 .1.1.1.1.1s0-.1.1-.1v-.1-.5V8v-.1h.2l.3.1v.5s.1-.1.1-.2c.1-.1.1-.2.1-.2h.1c.1 0 .2 0 .3.1.1.1.2.1.3.2.1.1.2.1.3.2s.2.1.3.1h.4s0 .1.1.2c0 .1 0 .2.1.2 0 .1.1.2.2.3.1.1.2.1.3.2l.2.2c.1.1.1.2.1.4 0 .1 0 .2-.1.2s-.1.1-.1.2 0 .2.1.2.1.1.1.2v.4c0 .2-.1.3-.1.3v.2l.1.1s.1 0 .2.1c.1 0 .1.1.2.1v.4s.1 0 .1.1c.1.1.1.2.1.2s0 .1.1.2c0 .1.1.2.1.4 0 .1 0 .2.1.4v.2l.2.3.3 1.2.6.5.6.4.5.3.4.6.2.1v.8zM65 9.1l.4-.4v-.1H65v.5zm.2 0c-.1 0-.1 0-.1.1s0 .1.1.1.1 0 .1-.1-.1-.1-.1-.1zm0 5.1h.1v-.1l-.1.1zm.2 1.3zm.2-7.2c.1 0 0 0 0 0h-.1c0 .1.1.1.1 0 0 .1 0 .1 0 0zm0-.4V8c.1 0 .1 0 0-.1.1 0 .1 0 0 0zm.3 9.3l.1-.2h-.1v.2zm.2-3.2c0 .2.1.4.2.6l.2.4c.1 0 .2-.1.2-.3 0-.2.1-.4.3-.5v-.1l-.1-.1H66.1zm.1-1c0 .1 0 .3.1.4 0 .1.1.2.3.2.1 0 .2 0 .2-.1.1 0 .2-.1.2-.1v-.1h-.4V13v-.2V12.5v-.1h.1s.1 0 .1-.1v-.2-.2c0-.1-.1-.2-.2-.2 0 .2-.1.4-.2.6-.1.3-.2.5-.2.7zm.4-1.6h.4c0-.1-.1-.1-.1-.1h-.1-.1-.1v.1zm1.8 2.8h.1v-.1h-.1v.1zm2-2.3s0-.1.1-.2c0-.1 0-.1.1-.2 0 0 0-.1.1-.1v-.1s0-.1-.1-.1h-.1s0 .1-.1.1v.6zm1.2.1c-.1 0-.1 0-.1.1s0 .1.1.1.1 0 .1-.1 0-.1-.1-.1zm.1-1.2c.1 0 .1-.1.1-.2h-.1v.2zm.4.8l.1-.1-.1.1zm.1-1.4v.2s.1.1.2.1c0-.2-.1-.4-.3-.5v.2zm.5.7c0 .1 0 .1.1.2h.2c0-.1 0-.1-.1-.2-.1 0-.1-.1-.2 0zm2.2.4c-.1 0-.1 0-.1.1s0 .1.1.1.1 0 .1-.1 0-.1-.1-.1zm.3 3.6c-.1 0-.1 0 0 0-.1.1-.1.1 0 0 0 .1 0 .1 0 0 0 .1 0 0 0 0zm.2-1.2l.2.2c.1.1.2.2.2.3l.1-.1c0-.1-.1-.2-.2-.4-.1-.1-.2-.2-.4-.3l-.1-.1-.1-.1v.5h.3zm0-.9h.1v-.1h-.1v.1zm.5-.1c-.1 0-.1 0-.1.1s0 .1.1.1.1 0 .1-.1-.1-.1-.1-.1zm-.1 2.6l.1.1.1-.1s.1-.1.1-.2V15H76h-.1s-.1 0-.1.1l-.1.1v.1h.1zm.4.5s-.1 0-.1.1 0 .1.1.1.1 0 .1-.1 0-.1-.1-.1zm.1.6c-.1 0-.1 0-.1.1s0 .1.1.1.1 0 .1-.1 0-.1-.1-.1zm.6.5c0 .2.1.3.3.3v-.3s-.1-.1-.3 0zm.1 1h.2c.1 0 .2 0 .4-.1.1 0 .2 0 .2-.1v-.1c-.1 0-.2-.1-.3-.1-.1 0-.2-.1-.2-.1-.1 0-.2 0-.2-.1v.1H77h-.1v.5zM84.2 24.8h-.3v.4c0 .1-.1.1-.3.1-.1 0-.2 0-.4-.1s-.4-.2-.7-.2l-.6-.3c-.2-.1-.3-.2-.3-.3l-.1.1c-.1 0-.1 0-.1.1 0 0 0-.1-.1-.1v-.1s.1-.1.1-.3c.1-.1.1-.2.2-.2.1-.2.3-.3.4-.4.2-.1.3-.2.4-.4-.1 0-.2 0-.3.1 0-.2.1-.3.2-.5.1-.1.3-.3.4-.3.1 0 .1.1.2.1.1.1.1.1.2.1 0 0-.1 0-.1.1V23.5l.1.1.2-.2c0 .1 0 .2.1.2 0 .1.1.1.2.2.1-.1.1-.1.1-.2s0-.2.1-.3h.2v.5h.1s0-.1.1-.2.1-.1.2-.1h.2c.1 0 .2 0 .2.1v.4c0 .1.1.1.2.1l.1.3s.1-.1.1-.3c0-.1.1-.2.1-.3v-.2c0-.1 0-.1.1-.2 0 0 0 .1.1.1 0 .1 0 .1.1.1h.1s0-.1.1-.1 0-.1 0-.1c0 .1.1.1.2.1 0 0 0-.1.1-.1 0-.1.1-.1.1-.1.1 0 .1 0 .2.1s0 .1 0 .2v.3c0 .1 0 .2.1.2h.1c.1 0 .1 0 .2-.1l.2-.2s.1-.2.2-.2c.1-.1.2-.1.2-.1s.1.1.1.2.1.1.1.2c0 0 .1.1.2.3l.3.3c0-.1.1-.2.1-.3v-.3h.4c.2 0 .3 0 .4-.1s.3-.1.4-.2c.1-.1.2-.2.2-.3v-.1-.1-.7c0-.3.1-.5.1-.8 0 .1.1.1.1.2v.2c0 .1.1.1.1.2s.1.1.2.1h.1v-.2c0-.1-.1-.2-.1-.3 0-.1-.1-.2-.1-.2v-.2s0-.1-.1-.2c0-.1-.1-.1-.1-.1 0-.1 0-.1.1-.1s.1-.1.1-.2c0 0 0-.1-.1-.1 0-.1-.1-.2-.1-.3-.1-.1-.1-.2-.2-.3s-.1-.2-.1-.2v-2.6h-.1-.1s-.1-.1-.1-.3v-.2-.1s0-.1.1-.1v-.2c0-.1 0-.1-.1-.2l-.1-.1-.1-.1s-.1-.1-.1-.2c.1 0 .2 0 .2.1s.1.1.2.1h.1s0-.1-.1-.2c0-.1-.1-.2-.1-.2 0-.2 0-.3.1-.5 0-.2.2-.2.4-.2-.3 0-.5-.1-.6-.3-.1-.1-.2-.3-.2-.4 0-.1-.1-.3-.1-.4 0-.1-.1-.2-.2-.2v-.4c0-.2-.1-.4-.1-.6-.1-.2-.1-.4-.2-.6-.1-.2-.1-.3-.2-.4h-.3l-.1-.1s-.1 0-.1-.1h-.1c-.1 0-.1 0-.2.1 0 0-.1.1-.2.1-.2 0-.3 0-.5-.1s-.3-.1-.5-.2h-.4c-.2 0-.4 0-.5-.1 0 0-.1.1-.3.2-.2.1-.3.2-.3.2s-.1.1-.2.1h-.1c-.2 0-.3-.2-.3-.4v-.2-.2c-.1 0-.2.1-.2.2s0 .3-.1.4c0 .1-.1.2-.2.3s-.1.2-.2.2h-.1v-.5c-.1 0-.1.1-.2.2s-.1.3-.2.4c-.1.1-.1.3-.2.4s-.1.2-.3.2h-.2-.2c-.1.1-.2.3-.2.3 0 .1-.1.2-.1.2 0 .1-.1.1-.1.1 0 .1 0 .2.1.4l.3.6s.3.4.4.6c.1.2.3.3.3.4.2.1.3.1.5.2.2 0 .3.1.5.2 0 0 0 .1.1.2s.1.1.2.1h.1c.1 0 .2 0 .3-.1s.2-.1.3-.1h.4c.2 0 .3.1.4.1V16.2c.1 0 .2 0 .3-.1s.2-.1.3-.2c.1-.1.2-.1.3-.2.1 0 .2-.1.3-.1v.6s0 .1.1.1c0 .1.1.1.1.1 0 .1 0 .2-.1.3l-.2.2h-.6v-.1-.2-.3s0-.1.1-.1c0-.1.1-.1.1-.1V16H86v.1c0 .1 0 .2.1.3 0 .1.1.1.3.2 0 0-.1 0-.1.1l-.1.1v.2s.1 0 .1.1c0 0 0 .1.1.1l.1.1v.2c-.3-.1-.5-.2-.6-.3l-.2-.2v-.2c0-.1.1-.2.1-.3h-.1l-.6.3c-.2 0-.4.1-.7.1-.1 0-.3 0-.4-.1-.1-.1-.3-.1-.4-.2-.1-.1-.2-.1-.3-.2s-.2-.1-.3-.1h-.2s-.1 0-.2.1c0 0 0-.1.1-.2 0-.1.1-.2.1-.2v-.1c-.1 0-.2 0-.3.1-.1 0-.2.1-.3.1v-.3c-.1 0-.2.1-.3.1h-.2c-.1 0-.1-.1-.1-.1v-.1s0-.1.1-.1c0-.1.1-.1.1-.2 0 0-.1 0-.2-.1s-.1-.1-.2-.1-.4-.3-.4-.2v.2c0-.1-.1-.2-.1-.2v-.2-.2-.3h-.2v.5c-.2-.1-.3-.2-.4-.4-.1-.2-.1-.3-.2-.5H80s-.1 0-.1-.1c-.1 0-.1-.1-.1-.1v-.3-.2-.4-.7c0-.2.1-.4.1-.6.1-.2.1-.3.2-.3h.3c.1 0 .1-.1.1-.3v-.2-.2s0-.1.1-.1l.2-.2h.1s0 .1.1.1c0 .1.1.1.1.1v-.2c0-.1.1-.1.1-.2H81.5c.1-.1.2-.2.2-.4s.1-.3.2-.4c0-.1.1-.2.2-.3-.1.1-.1 0-.1 0v-.1s-.1-.1-.1-.2c.2 0 .3-.1.4-.1.1 0 .2-.1.2-.3h.6V8.5c.1 0 .1-.1.2-.2 0-.1.1-.1.1-.2l.1.1.1.1h.1s0-.1.1-.1h.1s-.1 0-.1-.1l-.1-.1s0-.1.1-.1.1-.1.2-.1v.8c.1 0 .2 0 .2-.1s.1-.1.1-.2 0-.2.1-.2c0-.1.1-.1.2-.1h.3l.1.1c0 .1.1.1.1.2 0 0 .1.1.2.1v-.1-.1l.1.1.1.1s0 .1.1.1c0 0 0-.1.1-.1H86v.4h.1v-.1c.1 0 .1.1.2.2s.1.2.1.2c.1 0 .1-.1.1-.2s.1-.1.2-.2c0 0 .1 0 .2-.1.1 0 .2 0 .2-.1 0 0 0-.1.1-.1 0 0 0-.1.1-.1s.2.1.2.2v.1l-.1.1v.2c0 .1 0 .1.1.2 0 0 .1.1.1.2v.2c.1 0 .2 0 .2-.1.1-.1.1-.2.1-.2v-.1c0-.1 0-.1-.1-.1.3 0 .4.1.4.3v.6c.2-.2.3-.3.5-.3V9.9c0 .1 0 .1.1.2h.2c.1 0 .1 0 .2-.1 0 0 .1-.1.1-.2s0-.1.1-.2c0 0 0-.1.1-.1s.1.1.2.2.1.2.1.4v.7c.1 0 .3-.1.5-.1s.4.1.5.2c0 .3.1.7.2 1 .1.3.1.6.1 1 0 .2 0 .3-.1.4-.1.1-.1.2-.1.3V14.2h.1l.1-.1h.1v.5h.3c0 .2 0 .3-.1.5s-.1.3-.1.5 0 .3.1.3.1.1.2.1.1 0 .2.1c.1 0 .1.1.1.2s0 .2-.1.2-.1 0-.1.1.1.2.3.4.3.4.3.6c0 .2 0 .4-.1.5-.1.1-.2.2-.3.2.2-.3.1-.3 0-.2-.1.1-.1.2-.1.3v.1s.1.1.2.1c-.1.1-.1.1-.1.3V20s-.1 0-.1.1c-.1 0-.1.1-.1.1V20.5s0 .1.1.1v1c0 .4 0 .7-.1 1l-.2.4s-.2.3-.2.4c0 .1-.1.2-.2.4-.1.1-.2.3-.2.3 0-.1-.1-.1-.2-.1s-.2 0-.3.1c0 0 0 .1-.1.2 0 .1-.1.2-.1.2h-.1l-.1.1h-.1s-.1 0-.1.1l-.1.1c-.1 0-.1-.1-.2-.3 0 0-.1 0-.1.1l-.2.2-.2.2s-.1.1-.2.1c0 0-.1.1-.3.1s-.3.1-.3.1v.2s-.1.1-.2.1-.2.1-.3.1c-.1 0-.2.1-.3.1H87.1v-.1-.1c0 .1-.1.2-.2.2H86c-.3 0-.5 0-.6-.1-.1 0-.2-.1-.3-.2l-.2-.2s-.1-.1-.3-.2c-.1 0-.3-.1-.5-.1v-.2zm-3.9-12.3c-.1 0-.1 0-.1.1s0 .1.1.1c0 0 .1 0 .1-.1s0-.1-.1-.1zm0 11.5c0-.1 0-.2.1-.3 0-.1.1-.2.2-.3h.4c.1-.1.2-.2.2-.3s.1-.2.2-.3c.1-.1.2-.1.3-.1v.1c0 .1-.1.2-.2.3l-.3.3c-.1.1-.2.2-.3.2s-.2.1-.2.2h.1v.2c0 .1 0 .2-.1.2-.1.1-.2.1-.3.1-.1 0-.2 0-.2-.1s.1-.1.1-.2zm1.7 0c0 .2 0 .3.1.5l.1-.1v-.1c0-.1 0-.2-.1-.2 0-.1 0-.1-.1-.1zm.6-12.9v.2l.1.1s.1 0 .1-.1v-.1s-.1-.1-.2-.1zm.4-1.2l.1.1c.1-.2.2-.4.2-.6-.1 0-.2 0-.3.1.1.1 0 .2 0 .4zm.2 6.1c-.1 0-.1.1 0 0v.2c.1 0 .1 0 .1-.1l-.1-.1zm0-7.2c.1 0 .2.1.4.2.1.1.2.3.2.4l.1-.1v-.2s-.1-.1-.2-.3c-.1-.1-.2-.2-.3-.2 0 0-.1 0-.1.1l-.1.1zm.5 16c.1 0 .1 0 .2-.1v-.1s0-.1.1-.1c0 0 .1-.1.2-.1 0-.1 0-.1-.1-.2s-.1-.1-.2-.1-.1 0-.2.1l-.2.2c0 .1-.1.2-.2.3.2 0 .2.1.4.1zm.6-15.7c-.1 0-.1 0-.2.1l.2-.1zm0 15.5c0 .1 0 .2.1.3v-.3h-.1zm.2-16.3v.2c0 .1 0 .1.1.2v-.3-.2c0-.1 0-.1-.1-.1v.2zm.4 7.7c-.1 0-.2 0-.2.1l.2-.1zm.5-7.1c-.1 0-.2.1-.2.2v.5c.1-.1.1-.2.2-.3-.1-.2 0-.3 0-.4zm-.1.6s-.1 0-.1.1 0 .1.1.1.1 0 .1-.1 0-.1-.1-.1zm.6 6.1c-.1 0-.1 0-.1.1s0 .1.1.1c0 0 .1 0 .1-.1l-.1-.1zm.1-5.8c-.2.1-.3.2-.3.4.1 0 .2 0 .2-.1.1-.1.1-.1.1-.2s.1-.1 0-.1zm-.1-.7c0 .1 0 .2.1.2 0 .1.1.1.2.1l.1-.1c0-.1 0-.1.1-.1v-.1h-.5zm.4 7.2c.2.1.5.1.7 0 .2-.1.4-.2.6-.2.1 0 .1 0 .2.1 0 .1-.1.2-.2.3-.1.1-.2.2-.3.2v.4s-.1.1-.3.1h-.2c-.1-.1-.1-.2-.2-.4-.3-.2-.3-.4-.3-.5zm.1-6V10l-.1.1.1.2zm.1-.6v-.1h-.1l.1.1zm-.1 14.9l.1-.3h-.1v.3zm.4-15.5c-.1 0-.1 0 0 0v0zm.1.5c0-.1 0 0 0 0v.1s.1 0 0-.1c.1 0 0 0 0 0zm.6-.1c-.1 0-.2 0-.2.1s-.1.2-.1.2c.2.1.3 0 .3-.3zm.1.5c-.1 0-.2.1-.2.2-.1.1-.1.2-.1.3.1 0 .2 0 .3-.1.1-.1.2-.1.2-.2-.1-.1-.1-.2-.2-.2zm-.2-1.2V9c0 .1.1.1.2.1 0-.2-.1-.3-.2-.3zm1 .8l-.1.1v.1h.1v-.2zm-.1.9c0 .1.1.1.2.2s.2.1.3.1c0-.1 0-.2-.1-.4s-.2-.3-.2-.3 0 .1-.1.2v.2h-.1zm.8-.6c0-.1 0 0 0 0 0 .1 0 .1 0 0 .1.1.1 0 0 0 .1 0 .1 0 0 0zm0 .9l.1-.2h-.1v.2zm.3 3.1zm.1 3.7c-.1.2 0 .2 0 .2.1 0 .1-.1 0-.2.1 0 .1 0 0 0zm0-6s0 .1.1.1h.1v-.3h-.1l-.1.2zm.3-1c-.1 0-.1 0 0 0-.1.1 0 .2 0 .2v-.2zm.3 12.1c-.1 0-.2.1-.3.1-.1 0-.1.1-.1.2 0 0 .1 0 .2-.1s.1-.1.2-.1v-.1zm-.2-5.3c0-.1 0-.1 0 0h-.1.1zm.7-6.8l.1-.1-.1.1zm0 1.5zm.5-1.3s-.1 0-.1.1 0 .1.1.1.1 0 .1-.1c0 0 0-.1-.1-.1zm.2 7.3v.2c.1-.1.1-.1 0-.2.1 0 .1 0 0 0zm0-.3h.1v-.1l-.1.1zm.3-2v.5h.1v-.1-.1-.2c0-.1-.1-.1-.1-.1zm.2.8s0 .1 0 0c0 .1 0 .2.1.2 0 .1.1.1.1.1s.1 0 .2-.1c.1 0 .1-.1.2-.2 0 0-.1-.1-.2-.1-.2 0-.3 0-.4.1zm0 1h.1v-.2h-.1v.2zm.1-1.7s.1 0 0 0c.1 0 .1.1.1.1v-.1-.1-.1-.1l-.1.3zM106.5 19.5c-.1-.1-.1-.3-.1-.4 0-.1 0-.2.1-.2s.1-.1.1-.2 0-.2-.1-.3c0-.1-.1-.2-.2-.2h.1c.1 0 .2 0 .2.1s0 .1.1.1h.1c0-.2 0-.4.1-.6.1-.2.1-.3.2-.5s.1-.3.2-.5.1-.4.1-.6c.1 0 .1 0 .1.1l.1.1c.2 0 .4 0 .7-.1s.5-.1.7-.2l.2.7.1-.1c0-.1.1-.1.1-.2v-.2-.2c.2-.1.3-.2.4-.3.1-.1.3-.1.4-.1h.2l-.2.2c0 .1.1.2.1.3 0 .1.1.2.1.2.1 0 .2 0 .3-.1s.1-.2.2-.3c0-.1.1-.2.1-.3 0-.1.1-.2.2-.3s.1-.1.2-.1.1 0 .2-.1c.1 0 .1-.1.2-.1 0 0 .1-.1.1-.2s-.1-.2-.2-.3-.2-.1-.4-.1c-.1 0-.1 0-.2.1l-.1.1c0-.2-.1-.4-.1-.6 0-.2-.1-.4-.1-.6h-.1s-.1 0-.1.1v-.3c0-.2-.1-.3-.1-.3-.1-.2-.2-.3-.4-.2-.2 0-.3.1-.5.1v.2c-.2 0-.4-.1-.6-.3-.2-.2-.3-.4-.3-.6l-.1.1h-.1v-.1c-.1-.1-.1-.2-.1-.3v-.4c-.1.1-.2.1-.2.2-.1 0-.2.1-.3.1-.2 0-.2-.1-.2-.3v-.4h-.3c-.1 0-.2 0-.2.2 0 0 0 .1.1.2s.1.1.1.2c0 0 0 .1-.1.1-.1.1-.1.1-.1.2 0 0-.1-.1-.1-.2v-.1H106.8c-.2-.1-.4-.3-.4-.5-.1-.2-.2-.4-.2-.6v-.5-.2h-.3s0 .1-.1.1c0 .1 0 .1-.1.1 0-.2 0-.4-.1-.5-.1-.1-.1-.2-.2-.3l-.3-.3c-.1-.1-.2-.2-.2-.4v-.3V8c0-.5.1-.8.2-1.1.2-.3.3-.6.5-.8s.4-.5.5-.7c.2-.2.2-.5.2-.8h.8v-.2-.2V4s.1-.1.2-.1.2.1.3.2c.1.2.2.2.4.2v.2h.1l.1-.1v-1-.1l.1-.1c.1 0 .2 0 .3.1.1.1.1.2.2.3 0 .1.1.2.1.3 0 .1.1.2.1.3.1 0 .1-.1.1-.2v-.2c0-.3-.1-.4-.2-.5s-.3-.2-.6-.3v-.4h.8c.1 0 .1 0 .2.1 0 .1.1.1.1.2v.4h.3l.2-.5.6.3c.1-.2.2-.2.3-.2.1 0 .2 0 .2.1s0 .2.1.2h.1v-.5h.1c.1 0 .1.1.1.2s0 .1-.1.2c0 0-.1.1-.1.2l.1.1c.1 0 .2-.1.2-.2v-.3c.1 0 .2.1.4.2s.2.2.3.3l.1-.1.2-.2c.1 0 .1-.1.2-.1s.1-.1.1-.1c.1 0 .2.1.3.2.1.1.1.2.1.4v.7l.2.2.2.2V5c0 .1 0 .2-.1.2s-.1 0-.2-.1c0 0 0-.1-.1-.1s-.1-.1-.1-.1c-.1 0-.2-.1-.4-.1V5h.4c-.1 0-.1 0-.1.1v.2c0 .1 0 .1.1.1 0 0 .1.1.2.1 0 .1 0 .1-.1.2s-.1.1-.2.1-.2.1-.2.2-.1.1-.1.2 0 .2.1.3.1.1.1.3V7s-.1-.1-.1-.2l-.2-.2c-.1-.1-.2-.1-.3-.2-.1 0-.2-.1-.2-.1-.1 0-.1 0-.1.1l-.1.1-.1-.1-.2-.2-.2-.2-.1-.1s-.1-.1-.1-.2v-.2-.1H110.6c-.2 0-.4 0-.6.1-.2 0-.4 0-.6.1s-.3 0-.4 0c-.2 0-.4.1-.5.1-.1.1-.2.1-.2.2s-.1.2-.1.4c0 .1-.1.3-.2.4-.1 0-.1-.1-.1-.1l.1-.1h-.5c-.1 0-.1 0-.1.1V7c0 .2.1.3.2.3s.2-.1.2-.2.1-.2.2-.2v.4c0 .2.1.3.1.5.1.2.1.3.2.4s.2.2.3.2h-.1v.1c0 .1.1.2.2.2s.2.1.3.1c.1 0 .2.1.3.2.1.1.1.2 0 .4 0-.1.1-.1.2-.1s.2 0 .2.1.1.2.1.3c0 .1.1.2.1.3 0 .1.1.1.3.1h.1c-.1-.1-.1-.2-.1-.3v-.3s0-.2-.1-.2-.1-.1-.3-.2h.2c.1 0 .2 0 .4.1s.2.2.3.3l.3.3c.1.1.2.2.3.2.1 0 .2.1.4.1s.2.1.2.1l.5 1V11c0-.1 0-.1.1-.2.1.2.3.5.3.7l.2-.1c-.1.2-.1.3 0 .5 0 .2.1.4.2.5.1.2.2.3.3.4s.3.2.4.2c.1.1.2.3.3.5.1.2.1.3.1.5 0 .1-.1.2-.2.4s-.3.2-.4.2c.1.2.2.4.2.6 0 .1 0 .2-.1.4 0 .2-.1.3-.3.3h-.1s-.1 0-.1-.1v.1c0 .1 0 .2.1.3v.2l.1.1s-.1.1-.1.2-.1.1-.1.2c-.1.2-.1.3-.2.3l-.2.2c0 .1.1.1.2.1v.3c-.1 0-.3-.1-.4-.2s-.2-.2-.3-.2l-.2 1.1s0 .1-.1.1-.1 0-.1-.1v-.1-.1l-.1-.1c-.1 0-.2.1-.3.2 0 .1-.1.2-.1.4h-.1c-.1 0-.2-.1-.3-.2-.1-.1-.1-.2-.2-.3-.1 0-.1 0-.1.1v.2c0 .1 0 .1.1.2 0 0 .1.1.1.2v.2c0 .1-.1.1-.2.1h-.1v-.2c0-.1-.1-.2-.1-.2h-.8c-.1 0-.1.1-.1.2 0 0 .1 0 .1.1.1 0 .1 0 .1.1h-.3V19.6c0 .1 0 .1-.1.2h-.4s-.1 0-.1.1v.1h-.1c-.1 0-.2 0-.3-.1 0-.1-.1-.1-.3-.1h-.2l-.1.1c0 .1-.1.1-.1.1s-.1 0-.2-.1-.1-.1-.2-.1c0 0-.1 0-.2-.1-.1 0-.2-.1-.3-.1-.1 0-.2-.1-.3-.1-.1.1-.1.1-.2 0zM105.2 6c-.1 0-.1 0 0 0-.1.2-.1.2 0 .2 0 0 .1-.1 0-.2.1 0 0 0 0 0zm.5 1.7c0 .1 0 .1.1.2h.2c.1 0 .2 0 .3-.1.1 0 .1-.1.1-.2v-.2c0-.1-.1-.1-.1-.1 0 .1.1.1 0 .2 0 .1-.1.1-.2.1s-.1.1-.2.1h-.2zm.2.6c0 .1.1.1.2.1v-.1h-.2zm.4-.2c.2 0 .2.1.3.3s0 .3 0 .4c.2-.1.3-.3.3-.5v-.6-.1s0-.1-.1-.1c0 .2 0 .3-.1.4-.1.1-.2.1-.4.2zm.3 1.9s-.1 0-.1.1 0 .1.1.1.1 0 .1-.1 0-.1-.1-.1zm0-.3v.1c.1 0 .1-.1 0-.1.1 0 .1 0 0 0zm.2 9.5h.1v-.1l-.1.1zm.3-14.8c-.1.1-.1.1-.1.2h.1v-.2zm.2 14h-.1s0 .1.1 0c-.1.1 0 0 0 0zm0-8.3l.1-.1-.1.1zm.4 8.8c-.2 0-.3 0-.4.1s0 .1 0 .2c.1.1.2.1.3.2.2.1.4.1.6.1v-.1c0-.1-.1-.1-.2-.2s-.2-.1-.2-.2c-.1 0-.1-.1-.1-.1zm-.4-13c0 .2.1.2.2.2v-.2h-.2zm.1 13.5s-.1 0-.1.1 0 .1.1.1.1 0 .1-.1 0-.1-.1-.1zm.2-13.8h.2v-.1l-.2.1zm.1-.9s-.1 0-.1.1 0 .1.1.1c0 0 .1 0 .1-.1-.1 0-.1-.1-.1-.1zm.2 5.8v.2c0 .1 0 .1.1.2.1 0 .1-.1.1-.2v-.2c0-.1-.1-.1-.2 0 0-.1 0-.1 0 0zm0 8.1c0 .1 0 .2.1.2v-.1-.1h-.1zm.1-8.8c-.1 0-.1 0 0 0-.1.2 0 .2 0 .2v-.2zm.6 6.8s-.1.1-.3.2c-.2.1-.2.2-.2.2l.7.2-.2-.6zm-.3-12.1c-.1 0-.1 0 0 0-.1.1-.1.1 0 0 0 .1 0 .1 0 0 0 .1 0 0 0 0zm.3 6.9h.1c0-.1 0-.1-.1-.2v.2zm.8-.6v.1c.1-.1.1-.1 0-.1zm.5-7.4c-.1 0-.2 0-.2.1v.4c.1 0 .1-.1.2-.2s.2-.2.2-.3h-.2zm-.2 7.4zm.3-1c-.1.2 0 .2 0 .2s.1-.1 0-.2c.1 0 .1 0 0 0zm0 1.9c0 .1.1.1.2.2h.2s.1 0 .1-.1v-.1h-.5zm0 6.2l.1-.1h-.1v.1zm.1-7.8h.1l-.1-.1v.1zm.1 1.2l-.1-.1.1.1zm.1-.7c-.1.2 0 .2 0 .2.1 0 .1 0 0-.2.1 0 .1 0 0 0zm.1 1.4c-.1.1-.1.1-.1.2h.1V12zm.4 5.8c-.1 0-.2 0-.2.1h.3l-.1-.1zm-.2-6.4h.2v-.2l-.1-.1v.3zm.3-1.2s-.1 0-.1.1 0 .1-.1.2V10.8c.1 0 .2 0 .3-.1.1-.1.1-.1.1-.2v-.2c-.1-.1-.1-.1-.2-.1zm-.1 2v-.3.3zm.1-8.9c-.1.2 0 .2 0 .2.1 0 .1 0 0-.2.1 0 .1 0 0 0zm.5 7.1c-.1 0-.1 0 0 0v0zm-.1 2.7c0 .1 0 .3.1.4.1.1.2.2.3.2H112.3c0-.1 0-.1-.1-.1h-.1s-.1 0-.1-.1c0 0-.1-.1-.1-.2-.1.1-.2.1-.2.1h-.2c0-.1 0-.2.1-.3 0-.1 0-.1-.2-.2v.2c-.1-.1-.1-.1-.1 0zm.2 2.4c-.1 0-.1 0 0 0v0zm.1-3.8c-.1 0-.1 0 0 0-.1.1-.1.1 0 0-.1.1 0 .1 0 0zm0 3.4s-.1 0-.1.1 0 .1.1.1.1 0 .1-.1-.1-.1-.1-.1zm.1-3.1c0 .1.1.3.2.3v-.5c-.2 0-.2.1-.2.2zm.1-8.4c-.1 0-.1.1 0 0-.1.2 0 .2 0 .2v-.2c0 .1 0 0 0 0zm0 7.8c0 .1.1.1.2.1v-.1h-.2zm.7.9c-.2 0-.3 0-.5.1-.1.1-.2.2-.2.4.1 0 .3 0 .4-.1.2-.1.3-.3.3-.4zm-.3-7.8h.1c0-.1 0-.2-.1-.2v.2zm.1 7.5zm.1 2.5h.1v-.2h-.1v.2zm.9.6c-.1 0-.2 0-.2.1-.1 0-.1.1-.2.2h.1c.2-.1.3-.1.3-.3zm-.2-.5c.1 0 .1-.1.1-.2h-.1v.2zm.1-1.1v.1s.1 0 0-.1c.1 0 0 0 0 0zm.1.4s-.1 0 0 0c-.1.2 0 .2 0 .2.1 0 .1 0 0-.2.1 0 .1 0 0 0zM121 18.2h-.4v.1h-.6l-.1.2c0-.3-.1-.4-.4-.5s-.5 0-.6 0h-.2s-.1 0-.2.1v-.7-.1s-.1 0-.2-.1c-.1 0-.2-.1-.3-.1-.1 0-.2-.1-.3-.1-.1 0-.1-.1-.1-.1-.1 0-.2-.1-.2-.2s-.1-.2-.2-.3c-.1 0-.1.1-.1.1v.4c0 .1-.1.1-.1.1s-.1 0-.3-.1c-.2 0-.2-.1-.2-.2s.1-.1.1-.1-.1-.1-.2-.1-.1-.1-.2-.1-.2 0-.2.1v.2s0 .1-.1.1h-.2l-.2-.2c.1 0 .1-.1.1-.1v-.2c0-.2-.1-.4-.2-.5l-.4-.4v-.1c.2 0 .3-.1.4-.2.1-.1.1-.3.1-.4v-.2-.4-.4-.2c0-.2 0-.3.1-.4.1-.1.1-.3.1-.4 0 0 0-.1-.1-.2s-.1-.1-.1-.2c.1-.1.1-.3.2-.5s.1-.4.2-.5c.2-.1.3-.3.4-.4s.2-.4.2-.6c0 .1 0 .1.1.1h.2l-.3-.5 1.1-.3c0-.2.1-.4.2-.5.1-.1.2-.1.4-.2.1 0 .3-.1.4-.1.2 0 .3-.1.4-.3h.9v-.7h-.1-.1l-.1-.1.1-.1h1l.1-.2V8c0 .2.1.3.1.4 0 .1.1.3.1.4 0 .1.1.3.1.5v.2l-.7.6c-.1 0-.1 0-.1-.1s-.1-.1-.2-.1c-.2 0-.3.1-.3.2v.4c-.1 0-.2 0-.2.1-.1 0-.1.1-.1.2s-.1.1-.1.2-.1.1-.2.2l-.3.1s-.1.1-.1.2c-.1.1-.1.2-.2.3 0 .1-.1.1-.2.2h-.2c-.1 0-.1 0-.2.1 0 0-.1.1-.1.2s0 .2.1.3c0 .1.1.2.1.3 0 .3 0 .4-.1.5l-.3.3v.1c0 .3 0 .4.1.5 0 .1.1.2.2.2l.2.2c.1 0 .1.1.2.2 0 .1.1.3.1.5s.1.3.3.4c.3.1.5.2.8.3.3.1.5.2.8.3.4.1.8.2 1.3.2h1.8c.1 0 .2-.1.3-.2.1-.1.1-.2.2-.3.1-.1.1-.2.2-.4.1.2.2.3.2.2h.2v-.3s0-.3.1-.4c0-.1.1-.2.2-.3.1-.1.2-.1.3-.1 0 .1 0 .2.1.2h.2v-.4c0-.1 0-.2-.1-.3.2 0 .3 0 .4.1.1.1.1.2.2.3s.1.2.1.3c0 .1.1.1.2.1 0-.2.1-.3.1-.4v-.4c0-.1 0-.2-.1-.2 0-.1-.1-.1-.1-.2s-.1-.1-.1-.2-.1-.1-.1-.2 0-.2.1-.3c.1-.1.1-.3.1-.4 0-.2 0-.3-.1-.4-.1-.1-.2-.3-.3-.5 0 0-.1 0-.2-.1l-.3-.3-.3-.3c-.1-.1-.2-.2-.3-.2-.1 0-.2 0-.4-.1-.2 0-.4-.1-.7-.1-.2 0-.4-.1-.6-.2-.2-.1-.3-.2-.3-.3v-.9s0-.1-.1-.1-.1-.1-.1-.1v.2s0 .1.1.1c.1.1.1.1.1.2 0 0 0 .1-.1.1s-.1.1-.1.2l-.1.1v-.2c0-.1-.1-.1-.1-.1v.2c0 .1-.1.2-.1.2-.1 0-.2-.2-.2-.4-.1-.2-.1-.4-.1-.6v-.6-.3c.3 0 .4 0 .5-.1.1-.1.1-.2.3-.4.1 0 .1.1.1.2s0 .2-.1.3c0 .1-.1.2-.1.3v.2s.1.1.2.1c.1-.1.2-.1.2-.2s.1-.2.2-.3c0 .1.1.1.1.2V9h.7v-.4c0-.1-.1-.2-.3-.2h.5s.1.1.1.3c.1.2.1.2.3.2.1 0 .1 0 .2-.1 0-.1.1-.2.1-.2h.1c.1 0 .2.1.3.2.1.1.1.2.2.3l.3-.3.3.3c0 .1.1.2.3.3.1 0 .3.1.5.2l.6.3s.4.2.5.4c.1.1.2.3.2.5v1.7h.1l.7-.6-.3-.3c-.1-.2-.2-.3-.2-.4v-.1s0-.1.1-.1c0 0 0-.1.1-.1 0 0 .1 0 .1.1s.1.2.1.2c0 .1.1.2.1.3v.2c.1 0 .1 0 .1-.1v-.2h.3c.1.3.1.6.2.8.1.2.1.5.1.7v.4c0 .1 0 .2-.1.3 0 .1-.1.2-.2.3-.1.1-.1.2-.3.4 0 .1.1.1.2.1s.1.1.1.2 0 .1-.1.2c-.1 0-.2 0-.3.1-.1 0-.2.1-.3.2-.1.1-.1.2-.1.4 0 .1 0 .1.1.1h.2l.1.1c-.2 0-.3.1-.3.1h-.7v.8s0 .1-.1.1c0 .1-.1.1-.1.1v.4c0-.1 0-.2-.1-.3s-.1-.2-.2-.2h-.2v.2c0 .1 0 .2.1.3s.1.2.1.2c0 .1 0 .2-.1.3l-.2.2c-.1 0-.2.1-.2.1s-.1.1-.1.2l-.2-.4v.7h-.4v-.6h-.2s0 .1-.1.2-.1.2-.2.4-.1.2-.2.3c-.1.1-.2.1-.2.1-.1 0-.2 0-.2-.1s-.1-.2-.1-.3c-.1 0-.2 0-.3.1-.1 0-.1.1-.2.2 0 .1-.1.1-.1.2s-.1.1-.2.2c-.1 0-.1-.1-.1-.2s0-.2-.1-.4c0-.1-.1-.2-.1-.4-.1-.1-.2-.2-.3-.2v1.1c0 .1-.1.2-.1.3-.1 0-.1 0-.1-.1v-.2s0-.1.1-.2c0-.1-.1-.2-.1-.4s-.1-.2-.1-.2h-.1s-.1.1-.3.2l-.4.4c0 .1-.1.2-.1.3-.1.2-.2.3-.2.3-.1 0-.2 0-.2-.1s0-.1-.1-.2c0-.1-.1-.2-.2-.2s-.6-.8-.8-.8zm-5.1-6.6c0 .1 0 .1 0 0 0 .1.1.1 0 0 .1.1 0 0 0 0zm.7-.2c.2-.2.3-.3.4-.5.1-.2.1-.4.1-.5 0 0-.1 0-.2.1s-.2.2-.2.3c-.1.1-.2.2-.3.4 0 .1.1.2.2.2zm1.9 5.6v-.1.1zm.8-8.2l.1-.4h-.1v.4zm.4 0h.2v-.1l-.1-.1v.2zm.5 8.9v-.2.2zm1-.4c-.2 0-.2.1-.3.2v.5c.2 0 .2-.1.3-.3v-.4zm.6-8.4zm0 .2s0 .1 0 0c.1.1.1.2.1.2V9l-.1.1zm.2.7h.2v-.2c0-.1-.1-.1-.1-.1v.3zm0 7.9s.1.1 0 0l.1.1h.1c.2 0 .4-.1.5-.2.1-.2.2-.3.2-.5-.2 0-.4 0-.6.1-.2.1-.3.2-.3.5zm1.9.4s-.1 0-.1.1 0 .1.1.1.1 0 .1-.1 0-.1-.1-.1zm2.7-6s-.1 0-.1.1 0 .1.1.1.1 0 .1-.1-.1-.1-.1-.1zm.1.2c-.1 0-.1 0-.1.1s0 .1.1.1c0 0 .1 0 .1-.1s-.1-.1-.1-.1zm.1.2v.5c.1 0 .1-.1.2-.2 0-.1.1-.2.1-.2-.2-.1-.3-.1-.3-.1zm-.1.8zm.1-1.7h.1v-.1h-.1v.1zm.1 4.2h.3c0-.1-.1-.1-.1-.1h-.1v.1zm.2-5.4c-.1 0-.1 0 0 0-.1.2-.1.2 0 .2s.1-.1 0-.2c.1 0 .1 0 0 0zm0 .3c-.1 0-.1 0-.1.1s0 .1.1.1.1 0 .1-.1 0-.1-.1-.1zm.1 1.3zm.1 3.8s-.1.1 0 0v.2c.1 0 .1 0 0-.2.1.1.1 0 0 0zm.1-3.5c-.1 0-.1 0-.1.1s0 .1.1.1c0 0 .1 0 .1-.1s0-.1-.1-.1zm.1 1.3c0 .1.1.1.1.1h.1v-.1h-.2c.1-.1 0-.1 0 0zm.9-1.2h.1v-.1l-.1.1zM137.1 18.2h-.4v.1h-.6l-.1.2c0-.3-.1-.4-.4-.5s-.4 0-.6 0h-.2s-.1 0-.2.1v-.7-.1s-.1 0-.2-.1c-.1 0-.2-.1-.3-.1-.1 0-.2-.1-.3-.1-.1 0-.1-.1-.1-.1-.1 0-.2-.1-.2-.2s-.1-.2-.2-.3c-.1 0-.1.1-.1.1v.4c0 .1-.1.1-.1.1s-.1 0-.3-.1c-.2 0-.2-.1-.2-.2s.1-.1.1-.1-.1-.1-.2-.1-.1-.1-.2-.1-.2 0-.2.1v.2s0 .1-.1.1h-.2l-.2-.2c.1 0 .1-.1.1-.1v-.2c0-.2-.1-.4-.2-.5l-.4-.4v-.1c.2 0 .3-.1.4-.2.1-.1.1-.3.1-.4v-.2-.4-.4-.2c0-.2 0-.3.1-.4.1-.1.1-.3.1-.4 0 0 0-.1-.1-.2s-.1-.1-.1-.2c.1-.1.1-.3.2-.5s.1-.4.2-.5c.2-.1.3-.3.4-.4s.2-.4.2-.6c0 .1 0 .1.1.1h.2l.1-.9 1.1-.3c0-.2.1-.4.2-.5.1-.1.2-.1.4-.2.1 0 .3-.1.4-.1.2 0 .3-.1.4-.3h.9v-.3h-.1-.1l-.1-.1.1-.1h1l.1-.2V8c0 .2.1.3.1.4 0 .1.1.3.1.4 0 .1.1.3.1.5v.2l-.7.6c-.1 0-.1 0-.1-.1s-.1-.1-.2-.1c-.2 0-.3.1-.3.2v.4c-.1 0-.2 0-.2.1-.1 0-.1.1-.1.2s-.1.1-.1.2-.1.1-.2.2l-.3.1s-.1.1-.1.2c-.1.1-.1.2-.2.3 0 .1-.1.1-.2.2h-.2c-.1 0-.1 0-.2.1 0 0-.1.1-.1.2s0 .2.1.3c0 .1.1.2.1.3 0 .3 0 .4-.1.5l-.3.3v.1c0 .3 0 .4.1.5 0 .1.1.2.2.2l.2.2c.1 0 .1.1.2.2 0 .1.1.3.1.5s.1.3.3.4c.3.1.5.2.8.3.3.1.5.2.8.3.4.1.8.2 1.3.2h1.8c.1 0 .2-.1.3-.2.1-.1.1-.2.2-.3.1-.1.1-.2.2-.4.1.2.2.3.2.2h.2v-.3s0-.3.1-.4c0-.1.1-.2.2-.3.1-.1.2-.1.3-.1 0 .1 0 .2.1.2h.2v-.4c0-.1 0-.2-.1-.3.2 0 .3 0 .4.1.1.1.1.2.2.3s.1.2.1.3c0 .1.1.1.2.1 0-.2.1-.3.1-.4v-.4c0-.1 0-.2-.1-.2 0-.1-.1-.1-.1-.2s-.1-.1-.1-.2-.1-.1-.1-.2 0-.2.1-.3c.1-.1.1-.3.1-.4 0-.2 0-.3-.1-.4-.1-.1-.2-.3-.3-.5 0 0-.1 0-.2-.1l-.3-.3-.3-.3c-.1-.1-.2-.2-.3-.2-.1 0-.2 0-.4-.1-.2 0-.4-.1-.7-.1-.2 0-.4-.1-.6-.2-.2-.1-.3-.2-.3-.3v-.9s0-.1-.1-.1-.1-.1-.1-.1v.2s0 .1.1.1c.1.1.1.1.1.2 0 0 0 .1-.1.1s-.1.1-.1.2l-.1.1v-.2c0-.1-.1-.1-.1-.1v.2c0 .1-.1.2-.1.2-.1 0-.2-.2-.2-.4-.1-.2-.1-.4-.1-.6v-.6-.3c.3 0 .4 0 .5-.1.1-.1.1-.2.3-.4.1 0 .1.1.1.2s0 .2-.1.3c0 .1-.1.2-.1.3v.2s.1.1.2.1c.1-.1.2-.1.2-.2s.1-.2.2-.3c0 .1.1.1.1.2V9h.7v-.4c0-.1-.1-.2-.3-.2h.5s.1.1.1.3c.1.2.1.2.3.2.1 0 .1 0 .2-.1 0-.1.1-.2.1-.2h.1c.1 0 .2.1.3.2.1.1.1.2.2.3l.3-.3.3.3c0 .1.1.2.3.3.1 0 .3.1.5.2l.6.3s.4.2.5.4c.1.1.2.3.2.5v1.7h.1l.7-.6-.3-.3c-.1-.2-.2-.3-.2-.4v-.1s0-.1.1-.1c0 0 0-.1.1-.1 0 0 .1 0 .1.1s.1.2.1.2c0 .1.1.2.1.3v.2c.1 0 .1 0 .1-.1v-.2h.3c.1.3.1.6.2.8.1.2.1.5.1.7v.4c0 .1 0 .2-.1.3 0 .1-.1.2-.2.3-.1.1-.1.2-.3.4 0 .1.1.1.2.1s.1.1.1.2 0 .1-.1.2c-.1 0-.2 0-.3.1-.1 0-.2.1-.3.2-.1.1-.1.2-.1.4 0 .1 0 .1.1.1h.2l.1.1c-.2 0-.3.1-.3.1h-.7v.8s0 .1-.1.1c0 .1-.1.1-.1.1v.4c0-.1 0-.2-.1-.3s-.1-.2-.2-.2h-.2v.2c0 .1 0 .2.1.3s.1.2.1.2c0 .1 0 .2-.1.3l-.2.2c-.1 0-.2.1-.2.1s-.1.1-.1.2l-.2-.4v.7h-.4v-.6h-.2s0 .1-.1.2-.1.2-.2.4-.1.2-.2.3c-.1.1-.2.1-.2.1-.1 0-.2 0-.2-.1s-.1-.2-.1-.3c-.1 0-.2 0-.3.1-.1 0-.1.1-.2.2 0 .1-.1.1-.1.2s-.1.1-.2.2c-.1 0-.1-.1-.1-.2s0-.2-.1-.4c0-.1-.1-.2-.1-.4-.1-.1-.2-.2-.3-.2v1.1c0 .1-.1.2-.1.3-.1 0-.1 0-.1-.1v-.2s0-.1.1-.2c0-.1-.1-.2-.1-.4s-.1-.2-.1-.2h-.9s-.1.1-.3.2l-.4.4c0 .1-.1.2-.1.3-.1.2-.2.3-.2.3-.1 0-.2 0-.2-.1s0-.1-.1-.2c0-.1-.1-.2-.2-.2s-.1-.8-.4-.8zm-5-6.6s-.1 0 0 0c-.1.1 0 .1 0 0 0 .1 0 .1 0 0 0 .1 0 0 0 0zm.7-.2c.2-.2.3-.3.4-.5.1-.2.1-.4.1-.5 0 0-.1 0-.2.1s-.2.2-.2.3c-.1.1-.2.2-.3.4 0 .1.1.2.2.2zm1.9 5.6v-.1.1zm.7-8.2l.1-.4h-.1v.4zm.5 0h.2v-.1l-.1-.1v.2zm.5 8.9v-.2.2zm1-.4c-.2 0-.2.1-.3.2v.5c.2 0 .2-.1.3-.3v-.4zm.5-8.4zm.1.2s0 .1 0 0c.1.1.1.2.1.2V9l-.1.1zm.2.7h.2v-.2c0-.1-.1-.1-.1-.1v.3zm0 7.9s0 .1 0 0l.1.1h.1c.2 0 .4-.1.5-.2.1-.2.2-.3.2-.5-.2 0-.4 0-.6.1-.2.1-.3.2-.3.5zm1.9.4s-.1 0-.1.1 0 .1.1.1.1 0 .1-.1 0-.1-.1-.1zm2.6-6s-.1 0-.1.1 0 .1.1.1.1 0 .1-.1 0-.1-.1-.1zm.2.2c-.1 0-.1 0-.1.1s0 .1.1.1c0 0 .1 0 .1-.1s-.1-.1-.1-.1zm.1.2v.5c.1 0 .1-.1.2-.2 0-.1.1-.2.1-.2-.2-.1-.3-.1-.3-.1zm-.1.8zm.1-1.7h.1v-.1h-.1v.1zm.1 4.2h.3c0-.1-.1-.1-.1-.1h-.1v.1zm.2-5.4c-.1 0-.1 0 0 0-.1.2-.1.2 0 .2 0 0 .1-.1 0-.2.1 0 0 0 0 0zm0 .3c-.1 0-.1 0-.1.1s0 .1.1.1.1 0 .1-.1-.1-.1-.1-.1zm.1 1.3zm.1 3.8c-.1 0-.1.1 0 0v.2s.1 0 0-.2c.1.1 0 0 0 0zm.1-3.5c-.1 0-.1 0-.1.1s0 .1.1.1c0 0 .1 0 .1-.1s-.1-.1-.1-.1zm.1 1.3c0 .1.1.1.1.1h.1v-.1h-.2c0-.1 0-.1 0 0zm.9-1.2h.1v-.1l-.1.1zM162.1 18.3s-.1.1-.3.1-.2.1-.3.1c-.1 0-.1.1-.2.2s-.1.2-.2.2c0-.3 0-.5-.1-.6-.1-.1-.2-.1-.3-.1-.1 0-.3 0-.4.1-.1 0-.3 0-.4-.1l-.2-.2v-.2-.2s-.1-.1-.2-.1-.2.1-.3.2-.2.2-.4.2c0-.1 0-.2.1-.3.1-.1.1-.2.1-.3 0-.1 0-.2-.1-.2H158.3l-.2-.2c-.1-.1-.1-.2-.2-.2s-.2 0-.3.1c-.1.1-.1.1-.3.1 0 0-.1 0-.1-.1-.1-.1-.1-.2-.2-.3-.1-.1-.1-.2-.2-.3 0-.1-.1-.2-.1-.2l.1-.1c0-.1.1-.1 0-.1l-.2-.2c-.1-.1-.2-.1-.2-.2 0 0-.1-.1-.1-.2s0-.2-.1-.2l-.3-2.8c0-.1-.1-.2-.1-.3-.1-.1-.1-.2-.2-.3h-.2c-.1 0-.2.1-.2.1s-.1.1-.1.2 0 .2-.1.2h-.1c-.1 0-.1-.1-.2-.1v.4l-.1.1h-.6l-.2.2-.2.2h-.1-.1v.3s0 .1.1.3c-.1 0-.2.1-.3.1-.1 0-.1.1-.2.2 0 .1-.1.1-.1.2s-.1.2-.1.3c0 0-.1 0-.1-.1h-.1c0 .2 0 .3.1.3h.1s.1 0 .1.1c0 0 .1.2.1.4-.2 0-.3 0-.4.1l-.2.2s-.1.2-.2.3c-.1.1-.1.2-.2.3 0 0-.1.1-.2.1h-.4l-.1.1c0 .1-.1.3-.1.6s-.1.5-.2.6c-.2 0-.4 0-.5.1-.1.1-.2.1-.3.2-.1.1-.2.2-.2.3-.1.1-.2.3-.3.4-.1-.1-.1-.2-.1-.3 0-.1 0-.2-.1-.3 0-.1-.1-.1-.1-.2h-.4l-.1.1-.1.1.1.1s.1 0 .1.1h.1l.1-.1h.2v.1l-.1.1-.1.1s-.1.2-.1.3c0 .2-.1.3-.1.4-.1-.1-.3-.3-.4-.6-.1-.3-.2-.7-.3-1.1-.1-.4-.2-.8-.2-1.2-.1-.4-.1-.6-.1-.8v-.2s.1 0 .1.1c.1 0 .1 0 .1.1l.1-.1.1-.1c-.1-.1-.3-.1-.4-.2-.2-.1-.3-.2-.4-.2 0-.3-.1-.5-.1-.6v-.6c0-.2 0-.4.1-.6 0-.2.1-.4.1-.6 0-.3 0-.5-.1-.7 0-.2-.1-.5-.1-.8 0 0 0-.1.1-.1l.1-.1c-.1-.2-.1-.3-.2-.4 0-.1-.1-.3-.1-.4 0-.1-.1-.3-.1-.4 0-.1 0-.2.1-.3 0-.1.1-.2.1-.2s0-.1-.1-.2c0-.1-.1-.1-.1-.2s0-.1.1-.1h.2c.1 0 .1 0 .2-.1s.1-.2.2-.4v-.2-.2h-.3c-.1 0-.2 0-.2.2l.3.3v.1s-.1 0-.2.1h-.2V6.9c.2 0 .3-.1.4-.2.1-.1.1-.3.1-.5 0 0 .1 0 .2.1s.2.1.4.2c.1.1.3.2.4.2l.2.2c-.1 0-.2.1-.3.2-.1.1-.2.1-.2.1h-.1-.2v.2h.5c.1 0 .2.1.3.1.1 0 .1.1.1.2 0 .2-.1.4-.2.5s-.2.3-.2.5c0 .1 0 .2.1.2s.2.1.2.1c.1 0 .2.1.2.2.1.1.1.2.1.3v.4s0 .1-.1.2c0 .1-.1.1-.1.2 0 .2.1.3.2.3s.3.1.4.1v.7c0 .3.1.5.1.6 0 0 .1.1.1.2s.1.2.1.2v.1s-.1.1-.2.1c-.1.1-.2.1-.2.1v.1c.1.4.2.6.3.7l.2.2h.2c.1 0 .2.1.3.3l.1-.1v-1s.2-.3.3-.4c.1-.1.3-.1.4-.2.2-.1.3-.2.4-.4.2-.3.3-.6.4-.8.1-.2.3-.4.6-.7 0 .1 0 .1.1.3 0 .1.1.2.2.2l.1-.1.1-.1h.1l.1.1h.4s0-.1-.1-.2c0-.1-.1-.2 0-.2l.1-.1h.1l.1-.1v-.1-.2c0-.1-.1-.2-.1-.3 0-.1-.1-.2-.1-.3v-.2c0-.1 0-.2.1-.4s.2-.3.2-.3c.1 0 .1.1.1.1v.4c0 .1.1.1.1.1s0-.1.1-.1v-.1-.5-.4-.1h.2l.1.1v.5s.1-.1.1-.2c.1-.1.1-.2.1-.2h.1c.1 0 .2 0 .3.1.1.1.2.1.3.2.1.1.2.1.3.2s.2.1.3.1h.4s0 .1.1.2c0 .1 0 .2.1.2 0 .1.1.2.2.3.1.1.2.1.3.2l.2.2c.1.1.1.2.1.4 0 .1 0 .2-.1.2s-.1.1-.1.2 0 .2.1.2.1.1.1.2v.4c0 .2-.1.3-.1.3v.2l.1.1s.1 0 .2.1c.1 0 .1.1.2.1v.4s.1 0 .1.1c.1.1.1.2.1.2s0 .1.1.2c0 .1.1.2.1.4 0 .1 0 .2.1.4v.2l.2.3.3 1.2.6.5.6.4.5.3.4.6.2.1v.9zM148 9.1l.4-.4v-.1h-.4v.5zm.1 0c-.1 0-.1 0-.1.1s0 .1.1.1.1 0 .1-.1 0-.1-.1-.1zm0 5.1h.1v-.1l-.1.1zm.3 1.3zm.2-7.2h-.1c0 .1 0 .1.1 0 0 .1 0 .1 0 0zm0-.4c-.1 0-.1 0 0 0v0zm.2 9.3l.1-.1h-.1v.1zm.2-3.2c0 .2.1.4.2.6l.2.4c.1 0 .2-.1.2-.3 0-.2.1-.4.3-.5v-.1l-.1-.1H149zm.2-1c0 .1 0 .3.1.4 0 .1.1.2.3.2.1 0 .2 0 .2-.1.1 0 .2-.1.2-.1v-.1h-.4V13v-.2V12.5v-.1h.1s.1 0 .1-.1v-.2-.2c0-.1-.1-.2-.2-.2 0 .2-.1.4-.2.6-.2.3-.2.5-.2.7zm.3-1.6h.4c0-.1-.1-.1-.1-.1h-.1-.1-.1v.1zm1.9 2.8h.1v-.1h-.1v.1zm2-2.3s0-.1.1-.2c0-.1 0-.1.1-.2 0 0 0-.1.1-.1v-.1s0-.1-.1-.1h-.1s0 .1-.1.1v.6zm1.2.1c-.1 0-.1 0-.1.1s0 .1.1.1.1 0 .1-.1-.1-.1-.1-.1zm.1-1.2c.1 0 .1-.1.1-.2h-.1v.2zm.3.8l.1-.1-.1.1zm.2-1.4v.2s.1.1.2.1c0-.2-.1-.4-.3-.5v.2zm.4.7c0 .1 0 .1.1.2h.2c0-.1 0-.1-.1-.2 0 0-.1-.1-.2 0zm2.3.4c-.1 0-.1 0-.1.1s0 .1.1.1.1 0 .1-.1-.1-.1-.1-.1zm.2 3.6s-.1 0 0 0c-.1.1 0 .1 0 0 0 .1 0 .1 0 0 0 .1 0 0 0 0zm.2-1.2l.2.2c.1.1.2.2.2.3l.1-.1c0-.1-.1-.2-.2-.4-.1-.1-.2-.2-.4-.3l-.1-.1-.1-.1v.5h.3zm0-.9h.1v-.1h-.1v.1zm.5-.1c-.1 0-.1 0-.1.1s0 .1.1.1.1 0 .1-.1 0-.1-.1-.1zm-.1 2.6l.1.1.1-.1s.1-.1.1-.2V15h-.1-.1s-.1 0-.1.1l-.1.1v.1h.1zm.4.5s-.1 0-.1.1 0 .1.1.1.1 0 .1-.1 0-.1-.1-.1zm.2.6c-.1 0-.1 0-.1.1s0 .1.1.1.1 0 .1-.1-.1-.1-.1-.1zm.6.5c0 .2.1.3.3.3v-.3s-.2-.1-.3 0zm.1 1h.2c.1 0 .2 0 .4-.1.1 0 .2 0 .2-.1v-.1c-.1 0-.2-.1-.3-.1-.1 0-.2-.1-.2-.1-.1 0-.2 0-.2-.1v.1h-.1-.1v.5zM167.4 19.6c.2 0 .2-.1.2-.2v-.1c-.1.1-.2.2-.2.3h-.2-.2v-.3h-.1v.2h-.1-.2v-.2-.1c-.1 0-.1 0-.3.1l-.2.2c0-.2 0-.4-.1-.5-.1-.1-.2-.3-.3-.4s-.3-.2-.4-.3c-.1-.1-.2-.2-.2-.3v-.2-.2c-.1 0-.2 0-.1.1 0 .1 0 .1-.1.2 0 0 0-.1-.1-.3 0-.2-.1-.4-.1-.6 0-.2-.1-.4-.1-.6v-.3-.2c0-.1 0-.1.1-.1v.2l.7-.6c.2-.1.3-.3.5-.4s.1 0 .1 0v.5c.1 0 .2 0 .3-.1.1 0 .2-.1.2-.2 0 0 .1.1.2.3.1.2.2.3.2.3v.4h.1c0-.1 0-.2.1-.3 0-.1.1-.2.1-.3 0-.2 0-.3-.1-.3s-.1-.1-.2-.2V15s.1-.1 0-.1c0-.1 0-.1.1-.1h.1c.1 0 .1.1.1.1v.2c.2 0 .3.1.4.2.1.1.1.3.2.5 0 .2.1.4.1.6V17.5c0 .1 0 .2.1.3s.1.2.1.4v.2c0 .1-.1.1-.1.1s-.1 0-.1-.1c-.1 0-.1-.1-.1-.1v.2c0 .1.1.1.2.2s.2.1.2.2v.2s0 .1.1.1h.1v.2c0 .1 0 .1.1.1s.1 0 .1.1h-.2c-.1 0-.2.1-.1.2 0-.1-.1-.1-.3-.1s-.6 0-.6-.1zm-2.1-3.7zm.3-.2c0 .1.1.1.2.1s.1 0 .1-.1v-.2c-.1 0-.1 0-.2.1s-.1 0-.1.1zm.6-1.1v-.2-.2s.1 0 .2.1l.1.1s0 .1-.1.1-.1.1-.2.2v.2h-.1c-.1 0-.1 0-.1-.1v-.2zm.3 1.2c.1 0 .1-.1.1-.2s0-.1-.1-.2v.4zm.3 1.5c0-.1 0-.1 0 0 0 0 .1 0 0 0 .1 0 0 0 0 0zm.3-.9c-.1 0-.1.1-.1.1h.1v-.1zm.2.3v.2c0-.1.1-.1 0-.2.1 0 0 0 0 0zm.2-.8c-.1 0-.1 0 0 0-.1.1-.1.1 0 0 0 .1 0 0 0 0zm-.1.2s0 .1.1.2v-.2h-.1zm.4 1.9c-.1 0-.1.1 0 0v0c0 .1 0 0 0 0zm0 1c-.1 0-.1 0 0 0v0zM172.8 19.6c.2 0 .2-.1.2-.2v-.1c-.1.1-.2.2-.2.3h-.2-.2v-.3h-.1v.2h-.1-.2v-.2-.1c-.1 0-.1 0-.3.1l-.2.2c0-.2 0-.4-.1-.5-.1-.1-.2-.3-.3-.4s-.3-.2-.4-.3c-.1-.1-.2-.2-.2-.3v-.2-.2c-.1 0-.2 0-.1.1 0 .1 0 .1-.1.2 0 0 0-.1-.1-.3 0-.2-.1-.4-.1-.6 0-.2-.1-.4-.1-.6v-.3-.2c0-.1 0-.1.1-.1v.2l.7-.6c.2-.1.3-.3.5-.4s.2-.2.3-.2v.5c.1 0 .2 0 .3-.1.1 0 .2-.1.2-.2 0 0 .1.1.2.3.1.2.2.3.2.3v.4h.1c0-.1 0-.2.1-.3 0-.1.1-.2.1-.3 0-.2 0-.3-.1-.3s-.1-.1-.2-.2v-.1s.1-.1 0-.1c0-.1 0-.1.1-.1h.1c.1 0 .1.1.1.1v.2c.2 0 .3.1.4.2.1.1.1.3.2.5 0 .2.1.4.1.6V17.3c0 .1 0 .2.1.3s.1.2.1.4v.2c0 .1-.1.1-.1.1s-.1 0-.1-.1c-.1 0-.1-.1-.1-.1v.2c0 .1.1.1.2.2s.2.1.2.2v.2s0 .1.1.1h.1v.2c0 .1 0 .1.1.1s.1 0 .1.1h-.2c-.1 0-.2.1-.1.2 0-.1-.1-.1-.3-.1s-.8.2-.8.1zm-2.1-3.7zm.3-.2c0 .1.1.1.2.1s.1 0 .1-.1v-.2c-.1 0-.1 0-.2.1s-.1 0-.1.1zm.6-1.1v-.2-.2s.1 0 .2.1l.1.1s0 .1-.1.1-.1.1-.2.2v.2h-.1c-.1 0-.1 0-.1-.1v-.2zm.3 1.2c.1 0 .1-.1.1-.2s0-.1-.1-.2v.4zm.3 1.5c0-.1 0-.1 0 0 .1 0 .1 0 0 0 .1 0 .1 0 0 0zm.4-.9c-.1 0-.1.1-.1.1h.1v-.1zm.1.3v.2c.1-.1.1-.1 0-.2.1 0 .1 0 0 0zm.2-.8c-.1 0-.1 0 0 0-.1.1-.1.1 0 0 0 .1 0 0 0 0zm-.1.2s0 .1.1.2v-.2h-.1zm.4 1.9c-.1 0-.1.1 0 0v0c0 .1 0 0 0 0zm0 1c-.1 0-.1 0 0 0v0zM178.2 19.6c.2 0 .2-.1.2-.2v-.1c-.1.1-.2.2-.2.3h-.2-.2v-.3h-.1v.2h-.1-.2v-.2-.1c-.1 0-.1 0-.3.1l-.2.2c0-.2 0-.4-.1-.5-.1-.1-.2-.3-.3-.4s-.3-.2-.4-.3c-.1-.1-.2-.2-.2-.3v-.2-.2c-.1 0-.2 0-.1.1 0 .1 0 .1-.1.2 0 0 0-.1-.1-.3 0-.2-.1-.4-.1-.6 0-.2-.1-.4-.1-.6v-.3-.2c0-.1 0-.1.1-.1v.2l.7-.6c.2-.1.3-.3.5-.4s.2-.2.3-.2v.5c.1 0 .2 0 .3-.1.1 0 .2-.1.2-.2 0 0 .1.1.2.3.1.2.2.3.2.3v.4h.1c0-.1 0-.2.1-.3 0-.1.1-.2.1-.3 0-.2 0-.3-.1-.3s-.1-.1-.2-.2v-.1s.1-.1 0-.1c0-.1 0-.1.1-.1h.1c.1 0 .1.1.1.1v.2c.2 0 .3.1.4.2.1.1.1.3.2.5 0 .2.1.4.1.6V17.3c0 .1 0 .2.1.3s.1.2.1.4v.2c0 .1-.1.1-.1.1s-.1 0-.1-.1c-.1 0-.1-.1-.1-.1v.2c0 .1.1.1.2.2s.2.1.2.2v.2s0 .1.1.1h.1v.2c0 .1 0 .1.1.1s.1 0 .1.1h-.2c-.1 0-.2.1-.1.2 0-.1-.1-.1-.3-.1s-.8.2-.8.1zm-2.1-3.7zm.3-.2c0 .1.1.1.2.1s.1 0 .1-.1v-.2c-.1 0-.1 0-.2.1s-.1 0-.1.1zm.6-1.1v-.2-.2s.1 0 .2.1l.1.1s0 .1-.1.1-.1.1-.2.2v.2h-.1c-.1 0-.1 0-.1-.1v-.2zm.3 1.2c.1 0 .1-.1.1-.2s0-.1-.1-.2v.4zm.3 1.5c0-.1 0-.1 0 0 .1 0 .1 0 0 0 .1 0 .1 0 0 0zm.4-.9c-.1 0-.1.1-.1.1h.1v-.1zm.1.3v.2c.1-.1.1-.1 0-.2.1 0 .1 0 0 0zm.2-.8c-.1 0-.1 0 0 0-.1.1-.1.1 0 0 0 .1 0 0 0 0zm-.1.2s0 .1.1.2v-.2h-.1zm.4 1.9c-.1 0-.1.1 0 0v0c0 .1 0 0 0 0zm0 1c-.1 0-.1 0 0 0v0z"/></g></svg>