<svg xmlns="http://www.w3.org/2000/svg" viewBox="0 0 48.6 333.5" enable-background="new 0 0 48.6 333.5"><g><circle cx="9.2" cy="9.1" r="8.9"/><circle cx="39.2" cy="9.1" r="8.9"/><circle cx="39.2" cy="44.1" r="8.9"/><circle cx="9.2" cy="44.1" r="8.9"/><circle cx="39.2" cy="79.1" r="8.9"/><circle cx="9.2" cy="79.1" r="8.9"/><circle cx="39.2" cy="114.1" r="8.9"/><circle cx="9.2" cy="114.1" r="8.9"/><circle cx="39.2" cy="149.1" r="8.9"/><circle cx="9.2" cy="149.1" r="8.9"/><circle cx="39.2" cy="184.1" r="8.9"/><circle cx="9.2" cy="184.1" r="8.9"/><circle cx="39.2" cy="219.1" r="8.9"/><circle cx="9.2" cy="219.1" r="8.9"/><circle cx="39.2" cy="254.1" r="8.9"/><circle cx="9.2" cy="254.1" r="8.9"/><circle cx="39.2" cy="289.1" r="8.9"/><circle cx="9.2" cy="289.1" r="8.9"/><circle cx="39.2" cy="324.1" r="8.9"/><circle cx="9.2" cy="324.1" r="8.9"/></g></svg>
