<svg xmlns="http://www.w3.org/2000/svg" viewBox="46.8 0 16.5 156"><circle cx="50" cy="3" r="2.9"/><circle cx="59.9" cy="3" r="2.9"/><circle cx="59.9" cy="14.5" r="2.9"/><circle cx="50" cy="14.5" r="2.9"/><circle cx="59.9" cy="26.1" r="2.9"/><circle cx="50" cy="26.1" r="2.9"/><circle cx="59.9" cy="37.6" r="2.9"/><circle cx="50" cy="37.6" r="2.9"/><circle cx="59.9" cy="49.2" r="2.9"/><circle cx="50" cy="49.2" r="2.9"/><circle cx="59.9" cy="60.7" r="2.9"/><circle cx="50" cy="60.7" r="2.9"/><circle cx="59.9" cy="72.3" r="2.9"/><circle cx="50" cy="72.3" r="2.9"/><circle cx="59.9" cy="83.8" r="2.9"/><circle cx="50" cy="83.8" r="2.9"/><circle cx="59.9" cy="95.4" r="2.9"/><circle cx="50" cy="95.4" r="2.9"/><circle cx="59.9" cy="106.9" r="2.9"/><circle cx="50" cy="106.9" r="2.9"/><circle cx="59.9" cy="118.4" r="2.9"/><circle cx="50" cy="118.4" r="2.9"/><circle cx="59.9" cy="130" r="2.9"/><circle cx="50" cy="130" r="2.9"/><circle cx="59.9" cy="141.5" r="2.9"/><circle cx="50" cy="141.5" r="2.9"/><circle cx="59.9" cy="153.1" r="2.9"/><circle cx="50" cy="153.1" r="2.9"/></svg>