<svg xmlns="http://www.w3.org/2000/svg" viewBox="0 0 403.3 45.3"><path fill="#FFF" d="M74.7 27.2c-.1 0-.2 0-.3.1-.1 0-.2.1-.4.1-.1 0-.2-.1-.3-.2-.1-.1-.1-.3-.1-.5s-.1-.4-.1-.6v-.6-1s.1-.6.1-1.1c.2-.2.3-.3.3-.4l-.2-.2-.2-.2v-.1h.3c.1 0 .2-.1.3-.1-.2-.2-.4-.4-.4-.7-.1-.3-.1-.6-.1-.8 0-.5 0-.9.1-1.3s.3-.8.6-1.2c0 0 0-.1-.1-.1s-.1-.1-.1-.1c-.1 0-.2.1-.3.2 0-.1-.1-.3-.2-.7-.1-.3-.1-.6-.1-.9 0-.2 0-.4.1-.5.1-.1.2-.2.3-.2.1 0 .2-.1.3-.1.1 0 .1-.1.1-.2s-.1-.1-.2-.1-.2-.1-.2-.2v-.2l.1-.1s.1 0 .1-.1v-.2c0-.3 0-.5.1-.6 0 0 .1-.1.1-.2-.2-.2-.4-.3-.5-.5-.1-.1-.2-.3-.3-.5s-.1-.4-.1-.6v-.7-.4-.4c0-.2 0-.3-.1-.4-.1-.1-.2-.2-.3-.2H72.4c-.1 0-.3 0-.6.1-.3 0-.6.1-1 .1s-.7.1-1 .1h-.6c-.1 0-.3-.1-.5-.2l-.4-.4v.9c-.2 0-.5.1-.8.1h-1.7l.5-.2c-.2 0-.4 0-.6-.1-.2-.1-.3-.2-.3-.5 0-.1.1-.2.2-.2h.2c.1 0 .2 0 .3-.1.1-.1.1-.2.1-.5V9c0-.1-.1-.3-.1-.5l-.3.1v-.5l-.2-.2c-.1 0-.1-.1-.2-.1l.3-.1v-.1-.1c0-.2 0-.3-.1-.4-.1-.1-.1-.2-.1-.4 0 0 0-.1.1-.2s.1-.1.2-.1l1.1-.1c0 .2.1.3.2.4.1.1.2.1.4.1v-.2-.1c0-.1.1-.2.3-.3 0 0 .1.1.1.2s.1.1.2.1.2 0 .2-.1v-.2h.7l-.1.3c0 .1-.1.1-.1.2s-.1.1-.1.2c.2 0 .4 0 .4-.1l.3-.3c.1 0 .2.1.2.3 0 .1 0 .2-.1.2-.1.1-.1.1-.1.3 0 0 0 .1.1.2 0 .1.1.2.1.2.1 0 .2 0 .2-.1v-.2-.2s0-.2-.1-.2c.2 0 .3 0 .3-.1s.1-.1.1-.2v-.1-.1c0-.1.1-.2.2-.2l.2.2.3.3H71.1s.1 0 .1.1v.6c0 .1.1.1.1.1l.6-.6c.2-.1.3-.3.5-.4s.2-.2.3-.2c.1 0 .2.1.2.2V7s0 .3-.1.4 0 .2 0 .2c.2-.1.3-.3.4-.4.1-.1.3-.2.4-.4l.3-.3c.1 0 .1-.1.1-.2.1 0 .1.1.2.2 0 .1.1.2.1.3 0 .1 0 .2.1.3 0 .1.1.1.2.1h.3c.1 0 .2 0 .3-.1-.2 0-.2-.1-.2-.1 0-.1 0-.1-.1-.1 0 0 0-.1.1-.3.1-.2.2-.3.2-.4h.1c.1 0 .1 0 .1.1V7c.1 0 .2-.1.3-.2.1-.1.2-.2.3-.2h.2c-.2.3-.2.5-.2.5V7.4c.2 0 .3-.1.4-.2.1-.1.2-.2.3-.4.1-.1.1-.3.1-.4V6c0-.4 0-.7-.1-.9 0-.1-.3-.1-.8-.1v-.1h.2c.1 0 .2 0 .4-.1.1 0 .3-.1.6-.2h.1s.1 0 .1.1l-.1.2v1.4c0 .1 0 .1.1.1.3 0 .4-.1.5-.3 0-.2.1-.4.1-.5 0-.2-.1-.3-.2-.4-.1-.1-.2-.2-.2-.3.2 0 .4.1.7.2.2.1.4.2.5.3v.8c0 .2 0 .4.1.5s.1.2.2.3c.1.1.1.2.2.2s.2 0 .4-.1c.1-.1.2-.2.2-.3v-1h-.1-.1c-.2 0-.3-.1-.3-.2.2-.1.4-.2.5-.4.1-.1.1-.2.2-.3v-.3c0-.1.1-.1.1-.1.1 0 .2 0 .4.1.1 0 .2.1.2.3h-.3l.1.5.2-.2c0-.1.1-.2.3-.4.1-.1.3-.2.4-.3.1-.1.2-.1.2-.1v1c.1 0 .3-.1.6-.3.2-.2.5-.3.7-.3.1 0 .2 0 .4.1.1.1.2.2.2.3 0 .1-.1.3-.3.4-.2.1-.4.2-.5.2h-.1c-.1 0-.1-.1-.1-.1V6c0 .2.1.3.2.3h.1c.1 0 .1-.1.1-.1 0 .1-.1.2-.1.3 0 .2.1.3.4.3.2 0 .3-.1.3-.3 0-.1 0-.2-.1-.1s-.1 0-.1-.1 0-.1.1-.2.2-.1.3-.2c.1-.1.2-.1.3-.2v-.5c0-.1 0-.1-.1-.2s0 0 0-.1.1-.1.2-.1h.3c0 .3-.1.5-.2.8-.1.2-.3.4-.6.5.1 0 .2.1.3.2.1.1.2.1.3.1 0 0 .1 0 .2-.1s.1-.1.2-.1c.2 0 .3.1.3.3.1.2.1.4.1.6 0 .1.1.2.2.3.1.1.2.1.4.1.1 0 .3.1.4.2.1.1.2.2.2.4v.4s-.2.1-.5.1c-.1 0-.2 0-.3-.1-.1 0-.1-.1-.2-.1-.2 0-.4.1-.5.2-.2.1-.4.2-.6.2v-.2h-.3c-.2 0-.4.1-.6.1-.2 0-.4.1-.6.1-.5.1-.6.1-.6.2 0 0-.1 0-.1.1-.1 0-.1.1-.1.1-.1 0-.3 0-.4-.1-.1-.1-.2-.1-.4-.1s-.3.1-.3.3c0 .2-.1.3-.3.3-.1 0-.1-.1-.1-.2-.1-.3-.2-.4-.3-.4-.2.1-.3.3-.4.6h-1.1s-.1-.1-.2-.1l-.1-.1c-.1 0-.3.1-.4.4-.2.3-.3.4-.3.6 0 .2 0 .4.1.5.1.2.1.4.1.6 0 .3 0 .5-.1.7-.1.2-.1.4-.1.7v.3s-.1.1-.2.1c-.1.1-.2.1-.3.2-.1.1-.2.1-.4.3 0 0 0 .1.1.2 0 .1.1.1.1.1s.1 0 .1-.1c.1 0 .1-.1.1-.1v.2c0 .1 0 .2-.1.3l-.3.3c.1 0 .1.1.2.1.1.1.2.1.2.2s-.1.2-.1.3-.1.2-.1.3c0 .1 0 .2-.1.3 0 0 0 .1.1.1l.1.1c.1 0 .1 0 .2-.1 0-.1.1-.2.1-.3v-.4c.1 0 .1.1.1.2v.7c0 .1.1.2.2.3l-.1 1.1h-.1c-.1 0-.2-.1-.3-.2-.1-.1-.2-.2-.3-.2 0 .3.1.6.2.9.1.3.4.5.8.6 0 0 .1 0 .2-.1s.1-.1.2-.1c-.1.1-.1.2-.3.3-.1.1-.2.3-.3.5-.1.2-.2.3-.3.4l-.2.2v.9s-.1 0-.2.1l-.1.1c0 .2.1.4.3.6.2.2.3.3.5.3 0 0 .1 0 .2-.1.1 0 .1-.1.2-.1l-.9.7h-.2c-.1 0-.2 0-.2.1s-.1.2-.1.3c0 .1 0 .2-.1.3 0 .1-.1.2-.1.3v2.2l.1.1s.1 0 .1.1v.2c0 .1 0 .2-.1.3-.1.1-.2.3-.3.5-.1.2-.2.3-.4.5l-.3.3c.1 0 .2.1.3.2 0 0 0 .1-.1.1s-.1.1-.1.1c-.1 0-.2 0-.3-.1l-.2-.2c-.1-.1-.2-.1-.2-.2.2-.2.1-.3-.1-.3zM65.8 6.6c0 .2.1.3.2.3s.2-.1.2-.3h-.4zm.4 1.5l1 .1L67 7l-.8 1.1zm.3 1.3l.1-.2-.3-.6.2.8zm.5.5c-.1 0-.2.1-.3.3-.1.2-.2.3-.2.4.3.1.5.1.7 0 .1-.1.1-.4-.2-.7zm-.1-1.6c-.1 0-.1 0-.1.1 0 0 0 .2.1.3.1.3.1.4.2.4l.2-.2c.1-.2.1-.3.1-.3s-.1-.1-.2-.1c-.2-.1-.3-.2-.3-.2zm.8-.8h.2c.1 0 .2-.1.3-.1.1-.1.2-.1.3-.1.1 0 .1-.1.2-.1l-.1-.1c-.1 0-.2-.1-.3-.1-.1 0-.2-.1-.4-.1h-.1l-.1.6zm.2.4c-.1 0-.1 0-.1.1s0 .1.1.1.1 0 .1-.1 0-.1-.1-.1zm.1.1c-.1 0-.1 0-.1.1 0 0 0 .1.1.2s.1.2.1.2v-.2-.2s0-.1-.1-.1zm.5 2.1h.1V10h-.1v.1zm.3-1.8c.1 0 .1 0 .1.1v-.1c0-.1-.1-.2-.1-.2l-.1.1.1.1zm.1 1.2l.1-.1h-.1v.1zM70 8.2l-.3.3c-.1.2-.2.3-.2.3.3 0 .4 0 .5-.1.1-.1.1-.2.1-.4.1 0 .1 0-.1-.1.1 0 .1 0 0 0zm.3-.7c-.1 0-.1 0-.1.1s0 .1.1.1.1 0 .1-.1 0-.1-.1-.1zm.2 1v.1c.1 0 .1.1.1.1v-.1-.1h-.1zm1.3-.3c-.1 0-.1 0-.1.1s0 .1.1.1.1 0 .1-.1l-.1-.1zM72 7h.1l-.1.1V7zm2.5 13.3c-.2 0-.4 0-.5.1-.2.1-.2.3-.2.5.2 0 .4-.1.5-.2.1 0 .2-.2.2-.4zm-.6-9.5h-.1c0 .1 0 .1.1 0 0 .1 0 .1 0 0zm0 10.6c0 .1 0 .1 0 0 0 .1.1.1 0 0 .1 0 0 0 0 0zm.1-1.7c-.1 0-.1 0-.1.1s0 .1.1.1.1 0 .1-.1 0-.1-.1-.1zm.4-5.9c-.1.1 0 .2 0 .2s.1-.1 0-.2c.1 0 0 0 0 0zm.2.8c-.1 0-.1 0-.1.1s0 .1.1.1.1 0 .1-.1-.1-.1-.1-.1zm0-6.9h.1v-.1l-.1.1zm.1 11c.1 0 .1 0 .2-.1 0-.1.1-.1.1-.2h-.3v.3zm1.9-11l-.3.3c-.1.2-.2.3-.2.3.3 0 .4 0 .5-.1.1-.1.1-.2.1-.4 0 .1 0 .1-.1-.1.1.1 0 0 0 0zm-.1.9c-.1 0-.1 0-.1.1s0 .1.1.1.1 0 .1-.1-.1-.1-.1-.1zm0 11.7h.1v-.1l-.1.1zm.1-1.4c-.1 0-.1 0 0 0-.1.1 0 .1 0 .1v-.1zm.4-.2c-.1 0-.1 0-.1.1s0 .1.1.1.1 0 .1-.1-.1-.1-.1-.1zm.1-7.7h.2c0-.1-.1-.2-.2-.3v.3zm.1-.9h.1l-.1-.1v.1zm.3-2c-.1 0-.1.1-.1.3v.4c.3 0 .5-.1.5-.4v-.2c-.2-.1-.3-.1-.4-.1zm-.1-1.7c0 .2.1.3.3.3.1 0 .2-.1.3-.2 0-.1-.1-.2-.3-.2-.1.1-.2.1-.3.1zm.8 2.1c-.1 0-.1.1-.1.2s0 .1.1.1.1 0 .1-.1c0-.2 0-.2-.1-.2zm0-1.3s.1.1 0 0c.1.1.1.2.1.2.1-.1.2-.1.2-.2s.1-.1.1-.2-.1-.3-.2-.4c0 .1-.1.2-.2.3.1.2 0 .3 0 .3zm.5 1h-.3c-.1.1-.1.1-.1.2v.1c0-.1 0-.2.1-.2h.1s.1 0 .2-.1c-.1.1 0 0 0 0zm-.1-.7c-.1 0-.1.1-.1.2v.2h.3c0-.2-.1-.3-.2-.4zm2.6-.6v.6c0 .2.1.5.1.6.1 0 .3-.1.4-.2.1-.1.2-.3.2-.4h-.5v-.6h-.2zm.1 1.4s0 .1 0 0c-.1.1 0 .1 0 .1 0 .1.1 0 0-.1.1.1 0 0 0 0zm.3-2.3s0-.1 0 0c-.1-.1-.1 0-.1 0 0 .1 0 .1.1 0 0 .1 0 .1 0 0zm.2 1c-.1 0-.1 0-.1.1s0 .1.1.1.1 0 .1-.1 0-.1-.1-.1zm.3-.5H82s0 .1.1 0c0 .1 0 0 0 0zm.8-1.5c-.1 0-.1 0-.1.1s0 .1.1.1.1 0 .1-.1c-.1 0-.1-.1-.1-.1zm.6 1.9c-.1 0-.1.1-.1.2v.2h.3l-.2-.4zm.9 0c0 .1 0 .2.1.3 0 .1.1.1.1.1s.1 0 .1-.1.1-.1.1-.2 0-.1-.1-.1h-.2c0-.1 0-.1-.1 0zm.7.7c-.2 0-.3.1-.3.3 0 .2-.1.3-.1.5h.3s0-.1.1-.3v-.5zm.2.1c-.1 0-.1.1-.1.2s0 .1.1.1.1 0 .1-.1-.1-.2-.1-.2zm3.6 19.7h-.2s-.1 0-.2.1c0-.1 0-.2-.1-.5s-.1-.4-.2-.5V25c0-.1-.1-.2-.1-.3 0-.1-.1-.2-.1-.4 0-.1.1-.2.2-.3.2-.1.2-.2.2-.4v-.5c0-.3-.1-.4-.1-.5l-.2-.2c-.1-.1-.2-.2-.2-.3v-.3c0-.1 0-.3.1-.4v-.1s0-.1.1-.1v-.1c-.1-.3-.2-.6-.3-1-.1-.3-.1-.6-.1-1 0-.1 0-.1.1-.2 0 0 0-.1.1-.1v-.5-.5c0-.2-.1-.4-.1-.7-.1-.2-.1-.4-.2-.6-.1-.2-.2-.3-.4-.4 0 0-.1 0-.1.1H87h-.1l-.1-.1h-.1c-.1 0-.3 0-.3.1 0-.2-.1-.4-.2-.6-.1-.2-.3-.3-.5-.2 0-.1-.1-.3-.2-.5s-.2-.4-.4-.4c.3-.2.5-.4.5-.7v-.9h-.2c-.1 0-.1 0-.1-.1v-.3-.3-.4c0-.2 0-.3.1-.4.1 0 .1.1.1.2v.6s.1.1.2.1.2 0 .3-.1l.1.4s.1 0 .2-.1l.1-.1v-.2s0-.1-.1-.2v-.4l.2-.2c.1-.1.2-.2.3-.2v.1s0 .1-.1.1 0 .1 0 .1.1.1.1.2.1.2.1.2c.3 0 .6-.1.8-.1.2-.1.4-.2.5-.6.1 0 .3 0 .3.1.1.1.1.2.2.3 0 .1.1.2.1.3s.1.1.2.1.2-.1.3-.2c0-.1.1-.2.2-.2 0 .4.1.7.2.8s.3.2.5.3c.2 0 .4.1.5.1.2 0 .3.1.3.3 0-.1.2-.2.4-.3.2-.1.3-.2.4-.2h.6c.2-.1.5-.3.7-.6.3-.3.5-.5.6-.7h.7l.2-.2c.1-.1.2-.2.2-.3H95.1s.1 0 .2-.1c.1 0 .2-.1.2 0l.2.2c.1.1.1.2.2.2s.2.1.4.1h.4c0 .1 0 .2.1.3.1.1.1.2.1.4H97.6c.1 0 .2 0 .2.1.1.1.1.2.2.3.1.1.1.3.2.4l.3.3h.2s0 .1-.1.2-.1.2-.1.2v.2l.1.1.1-.1h.2l.2.2c.1.1.2.1.2.2v1l-.1.1c-.1.1-.2 0-.4-.1l-.3-.3v1.1s0 .1-.1.2l-.3.3-.3.3c-.1.1-.2.1-.2.1-.1 0-.3 0-.3-.1-.1-.1-.1-.2-.2-.3-.1-.1-.1-.2-.2-.3-.1-.1-.1-.2-.2-.2 0 0-.2 0-.4.1s-.3.1-.4.1c-.1-.1-.2-.3-.2-.3v-.3-.3c0-.1.1-.2.2-.3h-.3c-.1 0-.2 0-.3.1 0 0-.1.1-.2.1s-.2 0-.3-.1c0 0-.1-.1-.4-.1-.3 0-.6.1-.7.3-.2.2-.3.5-.3.8l.1.1s0 .1.1.1v.1l-.1.1c-.1 0-.1 0-.2-.1 0-.1 0-.1-.1-.2l-.2-.2c-.1-.1-.2-.1-.4-.1 0 0-.1.1-.3.2-.2.1-.3.3-.3.4v.1l.2.2v.2H92s-.1 0-.1-.1-.1-.1-.1-.1h-.1c-.2 0-.3.1-.4.2-.1.2-.1.3-.1.5 0 .1.1.2.3.2h.4c-.1.2-.1.4-.2.5v1.3l.1.1.1.1-.1.1s0 .1-.1.1v.1c0 .1.1.3.2.6s.2.5.2.7v.3c0 .1 0 .2-.1.3s-.1.2-.1.3-.1.1-.2.1v.9c0 .3.1.7.2 1.2s.2.8.2 1.2c0 .3 0 .4-.1.5-.1.1-.2.2-.3.2-.1 0-.2.1-.3.1-.1 0-.1.1-.1.1 0 .1 0 .2.1.3.1.1.1.1.1.2 0 .2-.1.4-.2.5-.1.1-.3.2-.4.2-.2.1-.3.1-.5.2s-.3.1-.5.3c0 0 0 .1-.1.1s0 .1 0 .1h-.2L89 28h-.1-.1s-.1.1-.2.1l-.2.2v-.1-.1c0-.2.1-.3.2-.4.2 0 .3-.1.3-.3zM86 13.6s-.1 0-.1.1 0 .1.1.1.1 0 .1-.1 0-.1-.1-.1zm.5-.6c-.1.1 0 .1 0 .1.1.1.1.1 0-.1.1.1.1.1 0 0zm1.8.8c-.1 0-.2.1-.3.2v.3h.2l.1-.5zm.1 8.3l.1-.2h-.1v.2zm.7 4.3c-.2 0-.3 0-.3.2v.3h.2v-.2-.1-.2h.1zm-.3-5.5h.2v-.2h-.1v.2zm.6 5.3c0 .1 0 .2.1.3v-.3h-.1zm.5-4s-.1 0-.1.1 0 .1.1.1c0 0 .1 0 .1-.1s0-.1-.1-.1zm1.2.3c-.1 0-.1.1-.1.2v.2h.2v-.4zm.1 3.2c-.1 0-.1 0 0 0-.1.1-.1.1 0 0 0 .1 0 .1 0 0zm.2-3.5zm.2-7c-.1 0-.1 0-.1.1s0 .1.1.1c0 0 .1 0 .1-.1l-.1-.1zm2.9-.1v-.2l-.2.1.2.1zm.5-.3s0 .1 0 0c.1.1.2.1.2.1v-.1H95zm2 .1s-.1 0 0 0c-.1.2 0 .2 0 .2.1 0 .1-.1 0-.2.1 0 .1 0 0 0zm.2.8zm.3-.3h.2l-.2-.1v.1zm18 10.9h-.6c-.2 0-.5-.1-.7-.2-.3-.1-.5-.2-.7-.3-.2-.1-.4-.3-.4-.4v-.2c-.1-.3-.2-.6-.3-.7-.1-.2-.3-.3-.4-.4-.1-.1-.3-.2-.4-.3-.1-.1-.2-.2-.3-.4v-.2-.2c0-.1 0-.1-.1-.2h-.3s0 .1-.1.2-.1.2-.1.2c0 .1-.1.3-.3.4l-.4.4c-.2.1-.3.3-.4.4-.1.1-.2.3-.2.4v.2s.1-.1.2-.1.2-.1.2-.1l.1.1.1.1v.1c0 .1 0 .2-.1.2h-.2s-.1.1-.1.2c0 0-.1.1-.1.2-.1.1-.1.2-.1.2s-.1-.1-.2 0h-.3c-.1-.2-.2-.2-.2-.2h-.3c-.1.1-.2.2-.4.3-.2.1-.3.1-.5.2s-.3.1-.5.2c-.1.1-.2.2-.2.3h-1.8c0 .1-.1.2-.1.2h-.2c-.5 0-1-.1-1.5-.3-.5-.2-.7-.6-.7-1.1V25c0-.1.1-.3.2-.5 0 0-.1-.1-.2-.1h-.2-.2c-.1 0-.2.1-.2.1s.1.1.1.2v.4c-.3 0-.4-.1-.6-.2-.1-.1-.2-.3-.3-.5-.1-.2-.1-.4-.1-.7s0-.4-.1-.6c0 0 0-.1-.1-.2 0-.1-.1-.2-.2-.3-.1-.1-.1-.2-.2-.3-.1-.1-.1-.1-.1-.2s0-.2-.1-.3c0-.1-.1-.3-.1-.5s-.1-.3-.1-.5v-.3s.1-.1.2-.1.1-.1.1-.2 0-.3-.1-.4c-.1-.1-.1-.2-.1-.3 0-.1 0-.2.1-.4.1-.1.2-.2.3-.2h.1l.1.1v.2l.3-.1-.3-.3c-.1 0-.2-.1-.4-.1-.1 0-.2-.1-.3-.1s-.1-.1-.1-.3c0-.1 0-.1.1-.2.1 0 .1-.1.2-.1s.2 0 .2-.1c.1 0 .1-.1.1-.2h1v-.3l-.8-.3V17c0-.4.1-.7.2-.9.1-.2.3-.3.5-.3.2-.1.4-.1.5-.1.2 0 .3-.1.4-.2h-.1c-.1 0-.1-.1-.1-.1v-.1c0-.2.1-.3.2-.4.1-.1.3-.1.4-.2.2 0 .3-.1.5-.1s.3-.1.4-.1v-.2-.2s.1-.1.3-.2l.2-.2v-.2l-.3-.4v-.2s.1-.1.1-.2.1-.1.2-.1h.2l.1.1.1.1h1.2s0 .1.1.2l.1.1c.3 0 .5 0 .7-.2l.4-.4c.1-.2.3-.3.5-.4.2-.1.4-.2.8-.2.1 0 .2.1.4.2.2.2.5.3.8.5.3.2.5.4.8.6.3.2.4.3.5.4l.3.3c.1.1.2.3.2.5.1.2.1.3.1.5v.4c.1 0 .2.1.3.2.1.1.1.2.2.3s.1.2.2.3c.1.1.2.1.3.1v.3c0 .1.1.3.1.4.1.1.1.3.2.4.1.1.1.2.1.3v.2l.1.1h.1v.2c-.2 0-.4 0-.6-.1-.2-.1-.4-.1-.5-.1 0 0 0 .1.1.4s.1.3.2.3h1.2s.1 0 0 .1c0 .1-.1.2-.1.3-.1.1-.1.2-.1.3 0 .1-.1.2 0 .2l.3 1c0 .2.1.2.3.2.1 0 .2.1.3.3 0 0 0 .1-.1.3-.1.1-.1.2-.1.3 0 .1.1.2.2.3.1.1.2.1.3.2.1.1.2.1.2.2s.1.2.1.2l-.1.7s0 .1.1.2.2.1.3.2c.1.1.2.1.3.2.1.1.2.1.2.2v.1c0 .1.1.3.1.5s.1.3.1.4c0 0 .1.1.4.2.2.1.4.2.7.3.3.1.5.2.8.3s.4.2.5.3c-.2 0-.3.1-.3.2v.3c0 .1 0 .2.1.3 0 .1 0 .2-.1.3-.1.1-.3.2-.5.2-.3.1-.7.1-1.2.1-.1 0-.2 0-.3-.1l-.2-.2c0-.1-.1-.2-.1-.3-.3-.4-.3-.5-.4-.6zm-12.2-4.5c.1.1.2.3.3.6.1.3.2.4.3.5.2.1.4.1.5.2.1 0 .2.1.3.1h1.1c.1 0 .2-.1.2-.1l.2-.2c.1-.1.2-.1.4-.2 0 0 .2 0 .4-.1.2 0 .4-.1.4-.1.3-.1.5-.3.7-.7.2-.4.3-.7.4-.9 0-.1.1-.2.3-.2.1 0 .3-.1.3-.1v-.2s-.1-.1-.2-.1c-.1-.1-.2-.1-.2-.2l.2-.2.2-.2c.2-.6.3-1.2.4-1.9.1-.7.2-1.4.2-1.9 0-.3-.1-.5-.2-.7-.1-.2-.3-.3-.5-.4-.2-.1-.4-.1-.7-.1h-.7c-.1 0-.2.1-.5.2-.2.1-.5.3-.8.4-.3.2-.5.3-.7.4-.2.1-.3.2-.4.2 0 0 0 .1-.1.3 0 .2-.1.3-.1.3-.1 0-.1 0-.2.1h-.1-.1l-.6.6v.1c0 .1 0 .2.1.2s.1.1.1.3v.4c0 .1 0 .2-.1.3s-.1.2-.1.3-.1.3-.2.5c-.1.3-.2.5-.4.6-.2.1-.3.2-.5.3-.2.1-.3.1-.5.1-.1 0-.2.1-.2.2 0 .2.1.3.2.4.1.1.2.1.4.1.1 0 .3 0 .4.1.1 0 .2.1.3.2l-.3.3c.3.1.2.2.1.2zm1.9 1.9c-.1-.1-.2 0-.2 0 .1.1.1.1.2 0 0 .1 0 .1 0 0zm.3-.3c-.1 0-.1 0-.1.1s0 .1.1.1.1 0 .1-.1c.1 0 0-.1-.1-.1zm.2-8.3h.2V15h-.2v.1zm1.3 8.3l.2-.2s.2-.2.2-.3h-.4v.5zm1.5-11.3c0-.1 0-.1 0 0-.1-.1-.2 0-.2 0h.2zm-.1 10.9h.2v-.1h-.2v.1zm.1.4c-.1 0-.1 0-.1.1s0 .1.1.1.2 0 .2-.1c0 0-.1-.1-.2-.1zm.3-2.2c0 .1 0 .2.1.2h.6l-.2-.6c-.1 0-.2.1-.3.1-.1.1-.2.2-.2.3zm.2-9c-.1 0-.1 0-.1.1s0 .1.1.1.1 0 .1-.1c0 0 0-.1-.1-.1zm1.8 10.4h.3v-.3h-.3v.3zm25-7.6c0 .1 0 .1 0 0 .1.1.1.1.1.2h.1c.1 0 .2-.1.2-.2v-.4c.1.2.1.4.1.5v1.1c0 .2.1.5.2.9-.1 0-.2 0-.2.1v.5c0 .2.1.4.1.6.1.2.1.3.1.4v.1c0 .1.1.2.1.4.1.2.1.3.2.5s.1.3.2.5c.1.1.1.2.1.3.1.1.2.4.4.7s.5.7.7 1.1c.3.4.6.7.8 1 .3.3.5.4.7.4h.1l.2-.2c.1-.1.2-.1.2-.1h.4l.1.1c0 .1 0 .1.1.2h.2c.1-.1.1 0 .2.1v.4s.1.1.2.1.2 0 .2.1v.1l-.2.2c-.1.1-.1.1-.1.2v.8l-.2.2-.2.2s0 .1-.1.2 0 .2 0 .2c-.1 0-.2-.1-.3-.2-.1-.1-.2-.2-.3-.2h-.1s0 .1-.1.2c0 .1-.1.2-.1.2h-.1l-.2-.2-.2-.2c-.2-.1-.3-.1-.5-.1h-.5c-.2 0-.3-.1-.4-.2-.1-.1-.2-.3-.2-.7 0 0-.1 0-.2.1-.1 0-.1.1-.1.1 0-.5-.1-.7-.2-.8-.1-.1-.3-.1-.4-.1h-.4c-.1 0-.2-.2-.2-.6h-.2s-.1 0-.2.2v-.8l-.1-.1h-.1l-.3.6s0-.1-.1-.3 0-.3 0-.3V23h-.1-.1l-.4.2V23c0-.1 0-.2.1-.2 0-.1.1-.1.1-.2s-.1-.3-.3-.5l-.4-.4c0 .1-.1.3-.3.4-.1.2-.2.3-.3.3h-.2c-.1 0-.2.1-.4.1-.1 0-.3.1-.4.1h-.3c-.1 0-.2.1-.2.1 0 .1-.1.2-.1.2s-.1.2-.2.2c-.1.1-.2.1-.4.1-.1 0-.2 0-.2-.1-.1.2-.1.3-.1.3v.3h.2c0 .1-.1.2-.3.3-.2.1-.4.3-.6.4-.2.1-.5.2-.7.3-.2.1-.4.1-.5.1h-.2c-.1 0-.1-.1-.1-.1v.2l-.1.2h-.2-.2c-.1 0-.1-.1-.2-.1v.6H127.9c-.1 0-.3-.1-.4-.1-.1 0-.2-.1-.2-.3 0-.1 0-.2.1-.2s.1-.1.1-.3v-.3c0-.1-.1-.1-.2-.1s-.2.1-.3.2c-.1.1-.1.3-.1.4v.8H125.5h-.2c-.1 0-.1.1-.1.1.1-.2 0-.5-.1-.8-.2-.3-.3-.4-.6-.4 0 .3.1.6.2.8.1.2.2.5.2.8v.2c-.2-.3-.4-.5-.5-.6-.1-.1-.3-.3-.4-.6l-.1-.1-.1-.1h-.1c-.1 0-.1 0-.1.1s-.1.2-.1.2v.5c-.2 0-.3-.1-.4-.2-.1-.1-.1-.3-.1-.4 0-.1-.1-.2-.2-.3-.1-.1-.2-.1-.4 0-.1.1-.1.3-.2.5s-.1.3-.1.5h-.1s-.1-.1-.2-.3c-.1-.2-.2-.3-.3-.3h-.1s0 .1-.1.2v.2c-.2 0-.5-.2-.7-.5-.2-.3-.3-.5-.3-.8.1 0 .2 0 .3-.1.1 0 .1-.1.1-.3 0-.2-.1-.5-.2-.7-.1-.2-.2-.4-.2-.6 0-.1 0-.2.1-.3s.1-.1.1-.3c0-.2-.1-.3-.3-.3-.1 0-.2.1-.3.2 0 .1-.1.2-.3.2-.1-.4-.3-.7-.3-1s-.1-.6-.1-1v-.9c0-.2.1-.6.3-1 0-.1.1-.1.1-.1h.4c.1 0 .1-.1.1-.2h-.3c0-.3 0-.4.1-.5.1-.1.2-.1.3-.2.1 0 .2-.1.3-.2.1-.1.1-.2.1-.4v-.1-.1l-.1-.1c.1-.2.2-.3.2-.5.1-.2.2-.4.2-.5.1-.2.2-.3.3-.5.1-.1.3-.3.5-.3h.4l.2-.2c0-.1 0-.2.1-.3 0-.1.1-.2.2-.3s.3-.1.5-.1h.1l.1.1.1.1h.2l.1-.1.1-.1h.1c.1 0 .2 0 .2.1s.1.1.3.1c.2 0 .4-.1.5-.3.1-.2.2-.3.3-.3h.1s.1 0 .1.1c.1 0 .1.1.1.1s.1 0 .2-.1c.1 0 .1-.1.2-.1l.3.7c.2 0 .3-.1.3-.3 0-.2-.1-.3-.2-.4-.1-.1-.2-.2-.2-.5.2 0 .3 0 .4-.1s.2-.1.4-.1.5.1.7.2c.3.1.5.2.7.2h.1c-.1-.2-.1-.3 0-.4s.2-.2.4-.2.3-.1.5-.1H129.9c.1 0 .1.1.1.1-.1-.2 0-.3 0-.4h.3c.2 0 .4.1.5.2.1.1.3.2.5.2v-.7c0-.2 0-.4.1-.6 0 0 0-.1.1-.1l.2-.2v.2c0-.3 0-.5-.1-.7-.1-.2-.1-.5-.1-.8v-1l.2-.3v-.1l-.2-.3v-.1c0-.1 0-.3.1-.5s.1-.4.2-.6c.1-.2.1-.4.2-.6.1-.2.1-.4.1-.5 0 0 0-.1-.1-.1 0-.1-.1-.1-.1-.1v-.5c0-.6.1-1 .3-1.5.2-.4.4-.9.6-1.4.2.2.4.4.6.4 0-.2.1-.3.2-.5s.2-.2.5-.2h.1c.3.3.6.6.9 1 .3.4.5.8.7 1.2l.2.6s.1.2.1.4c.1.2.1.4.1.4s0 .1-.1.2-.1.2-.2.2c-.2 0-.3.1-.3.3s.1.4.2.6c.1.2.2.5.3.8s.1.6 0 .9c0 0-.1-.1-.3-.1 0 0-.1-.1-.1-.2v-.1s0-.1.1-.2.1-.2.1-.2v-.2c0-.1 0-.2-.1-.3s-.1-.1-.2-.1-.1.1-.2.2-.1.2-.2.3c-.1.1-.1.3-.2.4 0 .1-.1.2-.1.2 0 .1.1.2.2.2h.4l.1.9-.3.1.2.2c.1.1.1.2.1.2v.1s0 .1.1.1c0 0 0 .1.1.1l-.1.1-.1.1c0 .2 0 .4-.1.5 0 .1-.1.3-.2.4s-.1.2-.2.3c0 .1-.1.3-.1.4-.1 0-.3 0-.4-.1-.1-.1-.2 0-.2.3 0 .2 0 .3.1.4.1.1.2.2.3.2.1.1.2.1.3.2.1.1.2.2.2.3v.2s.1.2.1.4c0 .1.1.3.1.4s0 .2.1.2c0 .1 0 .1.1.1s.2-.1.2-.1l.1.3c0 .1-.2.3-.2.6zm-15.9 6.1h.1V21h-.1v.1zm.6-2.7h.2v-.3h-.2v.3zm.4 6.8h.1l-.1-.2v.2zm.6-9.1c0-.1 0-.1 0 0-.1-.1-.2 0-.2 0 .1.1.2.1.2 0zm.6 4.5c0 .2.1.4.4.5.2.1.4.3.5.4l.6.8c.1.1.3.2.6.3s.5.2.7.2h.8c.4 0 .7 0 1-.1.3 0 .5-.1.8-.2.3-.1.5-.2.8-.3.3-.1.6-.3 1-.4.1 0 .2-.1.4-.2s.3-.2.5-.3c.2-.1.3-.2.5-.3s.2-.1.3-.1l1-1h.4v.7h.4v-.1-.1l-.2-.3V20c0-.1 0-.2.1-.3.1-.1.1-.2.3-.2h.1l.1.1.4.3c.2-.1.3-.3.3-.5 0-.1-.1-.2-.2-.3-.2-.1-.3-.1-.4-.2 0 0 .1-.1.1-.2.1-.1.1-.2.1-.2v-.1-.3c0-.1 0-.3-.1-.4 0-.1-.1-.2-.1-.3-.1-.1-.1-.1-.2-.1 0 0-.1 0-.1.1s-.1.2-.2.2h-.3c0-.1-.1-.4-.1-.6s-.2-.4-.4-.4-.3.1-.4.3l-.4-.6v-.1l.1-.1c.1-.1.2-.1.3-.1.1 0 .1-.1.1-.1s.1-.1.1-.2v-.4c-.2 0-.4.1-.5.3-.1.2-.2.4-.3.5 0-.3-.1-.5-.2-.6-.1-.1-.2-.2-.4-.3-.1-.1-.2-.1-.3-.2-.1 0-.1-.1-.1-.2-.1.2-.1.3-.1.3s0 .1.1.1c0 .1.1.1.1.1v.2c-.1 0-.3 0-.4-.1-.1 0-.3-.1-.4-.1h-.2l-.1.1c-.1 0-.1.1-.1.1l-.3-.3h-.2l-.6.3c-.4.1-.8.1-1.2.1-.5 0-.9.1-1.4.1s-.9.2-1.3.4-.7.5-.9.9v.4c-.1.2-.3.4-.5.6-.2.2-.3.4-.3.7 0 .1 0 .3.1.4.1.1.1.2.1.4 0 .1 0 .2-.1.3-.2.6-.2.7-.2.8zm5.4-5.9c0 .2.1.3.3.3.1-.2 0-.3-.3-.3zm.5-.7h.2v-.1h-.2v.1zm.3 10.4v-.1h-.1l.1.1zm.1-9.5c.1 0 .1-.1.2-.2v-.2h-.2v.4zm.6 9c-.1.1 0 .1 0 .1.1 0 .1 0 0-.1.1 0 .1 0 0 0zm1-11c-.1 0-.1 0-.1.1s0 .1.1.1.1 0 .1-.1 0-.1-.1-.1zm.2 1.6c.1-.1.2-.2.2-.3h-.2v.3zm.2 9.1c-.1 0-.1 0-.1.1s0 .1.1.1.1 0 .1-.1 0-.1-.1-.1zm1.4-2.6h.2l-.2-.2v.2zm.7-9.9v.3c0 .1.1.2.2.2l.3-.3c0-.1-.1-.2-.2-.2h-.3zm.3 1.5v-.3l-.1.1.1.2zm0 9.2c-.1 0-.1 0-.1.1s0 .1.1.1.1 0 .1-.1c0 0 0-.1-.1-.1zm1.1-13.9c0 .1.1.2.2.4s.2.3.3.3h.1l.1-.1.1-.1v-.3s0-.2-.1-.4c0-.2-.1-.3-.1-.4h-.1l-.5.6zm0 4.7l.1-.2h-.1v.2zm.3-10c-.1.1 0 .2 0 .2.1-.1.1-.1 0-.2zm1.2 19.1c-.1 0-.1.1-.1.2s0 .2.1.2.1-.1.1-.2 0-.2-.1-.2zm.1-7.8c-.1 0-.2.1-.2.2v.2h.2v-.4zm0 .7c-.1 0-.1.1-.1.2s0 .2.1.2.1-.1.1-.2 0-.2-.1-.2zm.4 2.9h.1v-.1h-.1v.1zm.4-3c0 .1 0 0 0 0zm1.6 10.2v-.1h-.2l.2.1zm.2.4c0 .2.1.3.2.4.2.1.3.1.5.1.1 0 .3 0 .3-.1.1 0 .1-.1.1-.3 0-.1 0-.3-.1-.3-.1-.1-.2-.1-.3-.2-.1 0-.2-.1-.3-.1-.1-.1-.2-.1-.3-.3 0 0 0 .2-.1.4.1.2 0 .3 0 .4zm12.6 1.8s-.1.1-.1.2v.2c0-.1 0-.1-.1-.1h-.6s-.1 0-.3-.1c-.2-.1-.3-.1-.4-.2h-.1l-.1-.1h-.2l-.1.1h-.2v-.2c0-.1-.1-.2-.1-.2s-.1-.1-.3-.1c-.2 0-.3-.1-.3-.1V26l-.5.3-.1-.1c-.1-.1-.1-.1-.1-.2v-.3s0-.2-.1-.2-.2.1-.2.2v.2s0 .1-.1.2c0 .1-.1.1-.3.1-.4 0-.6-.1-.7-.2-.1-.1-.2-.2-.2-.4v-.4c0-.1-.1-.2-.2-.3 0 0-.2 0-.3-.1s-.3 0-.4 0l.2-.3c-.2 0-.4-.1-.5-.2-.1-.1-.3-.2-.4-.4-.1-.2-.2-.3-.3-.5-.1-.2-.2-.3-.3-.5l-.2-.2c-.1-.1-.1-.2-.2-.3-.3-.3-.4-.6-.5-.9-.1-.2-.1-.5-.3-.9l-.1-.1-.1-.1c0-.1 0-.3-.1-.5v-.7c0-.1 0-.3.1-.4 0-.1.1-.3.1-.4v-.2s0-.1-.1-.1c0-.1-.1-.1-.1-.1v-.6-.5c0-.2.1-.5.1-.7 0-.2.1-.5.2-.6.1-.2.2-.3.3-.3 0 .1 0 .2-.1.3 0 .1-.1.2-.1.2h.4c.2 0 .3 0 .3-.1 0 0 .1-.1.1-.3 0-.1.1-.2.1-.2h.1v.3h.4l.1-.1.1-.1h.3c.1 0 .2-.1.2-.1V15c0-.2-.1-.5-.2-.7-.1-.2-.2-.4-.2-.7.1 0 .2 0 .3.1.1 0 .2.1.3.1.1 0 .2 0 .2-.1s-.1-.2-.2-.2-.2 0-.3-.1v-.1c0-.1 0-.2.1-.3.1-.1.1-.2.2-.3h.8c.2 0 .3.1.3.2 0 0 0 .1-.1.1 0 .1-.1.1-.1.1v.1c.2 0 .4 0 .6-.1.2 0 .4-.1.5-.3 0 0 .1-.2.1-.4s.1-.3.2-.3c0 .2.1.3.3.3h.2c.1 0 .2 0 .2-.1v-.2l-.1-.1h-.4s.1 0 .1-.1v-.1-.2l-.1-.1h.2s.1 0 .2.1.2.1.2.1.1 0 .3.1c.2 0 .3.1.3.2 0 .2.1.3.1.5s.1.3.3.5h.2v-.3h.1l.1.1.1.1h.4c.2 0 .3-.1.3-.1v-.1c0-.1-.1-.2-.2-.2s-.2-.1-.3-.1v-.1s.1-.1.1-.2l.1-.1s.1 0 .3.1c.1.1.2.1.3.2.2 0 .4-.1.4-.2s.1-.3.3-.4c0 0 .1.1.2.3.1.1.1.2.2.3l.1.1c0 .1 0 .1.1.1h.1s.1 0 .1-.1h.1v-1l.2-.1v.7c.1.3.1.5.2.7l.2-.1v-1.2H152.6c.1 0 .1 0 .1.1 0 0 .1.2.1.4v.4h.1l.1-.1s.1-.1.1-.2h1.1s-.1.1-.1.3c-.1.1-.1.2-.1.3v.1l.1.1s.1.1.3.1h.3c0 .1-.1.1-.1.1h-.2c-.1 0-.2 0-.3.1-.1 0-.2.1-.2.3 0-.1 0-.2-.1-.3s-.1-.3-.1-.3v-.2c0-.1 0-.1-.1-.2l-.1-.1h-.2c0 .3 0 .5.1.7.1.1.1.4.1.6h-.2l-.1.1.4.4V14l-.1-.1v-.1-.1l.1-.1h.1c.1 0 .2.1.3.2s0 .3 0 .4c.1-.2.1-.3.3-.4.1 0 .3-.1.5-.1v.6h.5c.1 0 .2 0 .4.1h-.1c-.1 0-.1 0-.1.1v.1c0 .2.1.3.3.3.2 0 .4.1.5.1 0 0 0 .1-.1.2l-.1.1h-.1-.2l-.1-.1-.1-.1h-.1c-.1 0-.1.1-.1.1.2.2.4.5.6.8-.1.1-.2.1-.3.1h-.4v.2s.1.1.1.2c.1.1.1.1.1.2l.2.2.2.2c0 .1 0 .2-.1.3-.1.1-.1.2-.2.2 0-.1-.1-.2-.3-.2h-.1l-.1.1c.1 0 .1.1.1.2v.2c0 .1 0 .2-.1.3-.1.1-.1.1-.2.1h-.6c-.1 0-.2.1-.1.3.1.1 0 .2-.1.3-.1-.1-.1-.2-.2-.2h-.2c-.2 0-.4.1-.4.2-.1.1-.1.2-.3.2l-.3-.1s-.1-.1-.2-.1c-.1-.1-.1-.1-.2-.1l-.1.1.1.1c-.1.1-.1.2-.2.4s0 .2-.1.3c0 .1-.1.2-.1.3-.1.1-.2.2-.3.2.1-.1.1-.3 0-.4-.1-.1-.2-.2-.4-.2-.1 0-.2 0-.2.1-.1.1-.1.2-.1.3v-.1-.1-.1-.1s0-.1.1-.2.1-.2.1-.2c0-.1 0-.1-.1-.1h-.2c-.1 0-.2 0-.4.1s-.3.2-.3.3v.1s.1.1.2.1c.1.1.2.1.2.1V20.6l.1.1v.1c-.2.1-.3.2-.4.3-.1.1-.2.1-.3.2-.1 0-.2.1-.2.1 0-.2.1-.3.2-.4.1-.1.2-.2.2-.4s0-.3-.1-.3h-.3v.4c0 .1-.1.2-.2.4 0 .1-.1.2-.1.3h-.1v-.3c0-.1-.1-.2-.3-.2-.1 0-.2 0-.5.1-.2.1-.4.1-.5.1 0 0-.1 0-.1.1l-.1.1h-.2c0-.2-.1-.4-.3-.6h-.1v.6c-.1 0-.2-.1-.3-.3 0-.2-.1-.3-.3-.3v.6s0 .1.1.3c.1.1.1.2.2.2l.2.1c.1 0 .2.1.3.1.3.1.6.1.8.2.3.1.5.1.8.2.2.1.5.1.7.2.3 0 .5.1.7.2.1 0 .2.1.3.1.1.1.2.1.2.1s0 .1.1.2c0 .1 0 .2.1.2 0 0 .1 0 .2.1.1 0 .2.1.3.1h.1c.1 0 .2 0 .3-.1.1 0 .2-.1.3-.1.2 0 .4 0 .6.1.2.1.4.1.6.1 0 .2 0 .3.1.3h.3c.2 0 .3 0 .3-.1s.1-.1.2-.1.1 0 .2.1v.2s.1.1.2.1.2-.1.2-.2 0-.2.2-.2H156.1c.1 0 .1.1.1.2s.1.2.2.2l.6-.6h1.1l-.1.1c.1.1.2.2.4.2s.4.1.5.2l-.3.2v1.1c0 .1 0 .2-.1.2h-.2v.2h.3v.6h-.1-.1-.1s-.1-.1-.3-.2c-.1-.1-.2-.1-.3-.1h-.1v.2h.2v.1c0 .1 0 .2-.1.3s-.2.1-.3.1h-.2s-.1 0-.3-.1c-.2 0-.3 0-.4-.1h-.2l-.1.1v.1h-.4v-.4c-.4 0-.8.2-1.1.4v-.6h-.2s0 .1-.1.2v.2h-.4l-.2.2s0-.1-.1-.1c0 0-.1 0-.3-.1h-.2v-.2c.1-.1.1-.1.1-.2h-.4l-.1.1-.1.1h-.6V26s0 .1-.1.1c0 0 0 .1-.1.1h-.1s-.1 0-.1-.1l-.1-.1h-.1c-.1.1-.2.2-.2.3 0 .1-.1.2-.1.3 0 .1-.1.2-.1.3 0 .1-.1.1-.2.1s-.2 0-.2-.1v-.2-.2s.2.4 0 .4zm-8.6-10.7c-.1 0-.1 0-.1.1s0 .1.1.1c0 0 .1 0 .1-.1s0-.1-.1-.1zm1.2 1.1c-.1 0-.1 0-.1.1s0 .1.1.1c0 0 .1 0 .1-.1l-.1-.1zm.1-.7c-.1.1-.1.2-.1.3.1 0 .2-.1.3-.2l-.2-.1zm0 2.2c0-.1 0-.1 0 0-.1-.1-.2-.1 0 0-.1 0-.1 0 0 0-.1 0 0 0 0 0zm.5-3c-.1 0-.2.1-.2.2s-.1.2-.1.3c0 0 .1 0 .3-.1.1-.1.2-.1.2-.2v-.1s-.1-.1-.2-.1c.1 0 0 0 0 0zm.1.5s-.1 0-.1.1 0 .2.1.1l.1-.1c0-.1-.1-.1-.1-.1zm.8 3.7v.2s.1 0 .1.1l.1.1c.1 0 .1-.1.1-.2v-.3c0-.1 0-.3-.1-.4-.1-.1-.1-.2-.1-.4 0-.1 0-.2.1-.3.1-.1.1-.1.2-.1h.1s0 .1.1.1l.1.1h.2s.1 0 .1-.1l.2.2h.3s.2 0 .2-.1c0 0 0-.1.1-.2 0-.1 0-.2.1-.2 0 0 .1 0 .2-.1.1 0 .2-.1.3-.1h.1s.1 0 .2.1c.1 0 .2.1.2.1.1 0 .3-.1.5-.2s.4-.2.5-.3c0 .2.1.3.1.4.1.1.2.1.3.1h.3c.1 0 .2-.1.3-.1l.2-1c.1 0 .3-.1.5-.2s.4-.1.5-.1h.1s.1.1.2.1c.1.1.2.1.2.1h.2l.1-.1v-.1s0-.2.1-.3v-.4h.4c.2 0 .4-.1.4-.1.1 0 .2 0 .4-.1h.3v-1c0 .1 0 .1.1.1l.3.3c.1.1.1.1.2.1l.1-.1c-.2-.3-.3-.5-.3-.7-.1-.2-.2-.4-.5-.7-.1-.1-.3-.2-.5-.4s-.4-.2-.6-.2c-.2 0-.4.1-.6.2-.2.1-.3.2-.5.4-.2.1-.4.3-.6.4-.2.1-.5.2-.7.2h-.1s-.1 0-.3-.1c-.1-.1-.2-.1-.2-.1h-.2v.2c0 .1-.1.2-.1.2l-.3.3s-.1 0-.1.1h-.1l-.1.1-.1.1h-.6s0 .1-.1.2V16.1s-.1 0-.1.1l-.1-.1c-.6.4-1 .9-1.1 1.6-.1-.1-.2-.1-.3.1s-.1.2-.2.3c0 0 0 .1-.1.3 0 .1-.1.2-.1.3h-.4l-.3-.6V18.4c0 .2 0 .3.1.4.1.1.1.2.1.4v.2-.4s-.1.1-.2.1h-.2v.9h-.3v.2c.1 0 .2 0 .3-.1 0-.1.2-.1.3-.1zm-.3.7c-.1 0-.1 0 0 0-.1.1-.1.1 0 0 0 .1 0 .1 0 0zm-.1-6l.1.1h.6c0-.2-.1-.3-.2-.3h-.1-.2c-.1.1-.2.1-.2.2zm.4.3c-.1 0-.1 0-.1.1s0 .1.1.1c0 0 .1 0 .1-.1-.1 0-.1-.1-.1-.1zm0-1.8c0 .2.1.3.2.4.1.1.3.1.4.1 0-.2 0-.4-.1-.4s-.3-.1-.5-.1zm.3 8.3s-.1 0-.1.1 0 .1.1.1.1 0 .1-.1 0-.1-.1-.1zm.3-1.5c-.1 0-.1 0-.1.1s0 .1.1.1.1 0 .1-.1-.1-.1-.1-.1zm0-5.8c0 .1 0 .1.1.1s.1-.1.1-.2v-.2h-.2v.3zm0 2c0 .1 0 .1.1.1v-.1c0-.1 0-.1-.1 0V16v.2zm.5 8.9c-.1 0-.1 0-.1.1v.2c.1 0 .2-.1.3-.1.1 0 .2-.1.2-.3l-.2-.2c-.1-.1-.2-.1-.2-.1l-.1.1v.2s0 .1.1.1c-.1-.1-.1 0 0 0zm-.2.5c-.1 0-.1 0-.1.1s0 .1.1.1.1 0 .1-.1 0-.1-.1-.1zm0-10.6h.1v-.4h-.1v.4zm.2 4.5s0-.1 0 0c-.1-.1-.1 0-.1 0-.1 0 0 .1.1 0-.1.1-.1 0 0 0zm0 6.3c-.1 0-.1 0 0 0-.1.1 0 .2 0 .2.1-.1.1-.1 0-.2zm.1-11.5c0-.1 0-.1 0 0-.1-.1-.2-.1 0 0-.1 0-.1 0 0 0zm-.1 10h.2v-.1l-.2.1zm.3 1.6c-.1-.1-.1 0-.1 0 0 .1 0 .1.1 0 0 .1 0 .1 0 0zm.1-.5c-.1 0-.1 0-.1.1s0 .1.1.1.1 0 .1-.1c0 0 0-.1-.1-.1zm0-3h.1v-.1h-.1v.1zm.2-8.9c-.1 0-.1 0-.1.1s0 .1.1.1.1 0 .1-.1l-.1-.1zm.1.2c-.1 0-.1 0-.1.1s0 .1.1.1.1 0 .1-.1 0-.1-.1-.1zm.1 1.6c-.1 0-.1 0-.1.1s0 .1.1.1.1 0 .1-.1 0-.1-.1-.1zm0 9.6h.3l-.1-.1h-.2c.1 0 0 0 0 .1zm.3-11.4v.2s.1.1.1.2h.2l.4-.1v-.1c0-.1 0-.2-.1-.3-.1-.1-.2-.2-.3-.2 0 0-.1.1-.1.2s-.2.1-.2.1zm.6 11.4c-.1 0-.2 0-.3.1-.1 0-.1.1-.1.2h.4v-.3zm.2-.1v.2l.1.2h.2v-.8c-.2.1-.3.2-.3.4zm.1-11.3s-.1 0-.1.1 0 .1.1.1.1 0 .1-.1c.1 0 0-.1-.1-.1zm0 1.4s-.1 0-.1.1 0 .1.1.1.1 0 .1-.1c.1 0 0-.1-.1-.1zm.3-2c-.1 0-.2.1-.3.2h.3v-.2zm-.1 1.9c0-.1.1-.2.1-.3v-.3-.2s0-.1-.1-.2v1zm.4 6l-.2-.1.2.1zm.3 3.1c-.1 0-.1 0-.1.1s0 .1.1.1.1 0 .1-.1 0-.1-.1-.1zm.2-3.5c0-.1 0-.1 0 0-.1-.1-.1 0-.1 0 0 .1 0 .1.1 0zm0 5.8c0-.1 0-.1 0 0-.1-.1-.1 0-.1 0 0 .1 0 .1.1 0zm0-12.3c.1.1.2.2.2.3.1.1.2.1.3.1h.2c.1 0 .1 0 .1-.1l-.1-.1s0-.1-.1-.1h-.2c-.1 0-.2-.1-.2-.1l-.1-.1c0-.1 0-.1-.1-.1h-.1.1v.2zm.4 10.6s0-.1-.1-.1-.1 0-.1.1h.2zm.4.1c.1 0 .2 0 .3-.1h-.3v.1zm.4-6.3h.1v-.1h-.1v.1zm.2.8V19h-.1l.1.1zm0-1.8v.3c0 .1.1.2.1.4 0 .1.1.2.2.3s.1.1.3.1l.1-.1.1-.1v-.3-.3c-.1 0-.2 0-.3.1 0-.1-.1-.2-.2-.3s-.2-.1-.3-.1zm.5-4.3v.2l.1.2c.1 0 .1 0 .1-.1v-.1c0-.1 0-.1-.1-.2 0 .1 0 0-.1 0zm0 5.8h.1v-.2h-.1v.2zm.3 5.7c.2.1.4.3.5.4h.1l.1-.1v-.3-.3c-.1 0-.2 0-.3.1-.2.2-.3.2-.4.2zm0 2.2h.2c0-.1-.1-.2-.2-.3v.3zm.3-1.5v.3s.1.2.3.2h.1c0-.1-.1-.2-.1-.4s-.1-.1-.3-.1zm.1-6.3v.3c0 .1.1.2.2.2s.2-.1.2-.2v-.3h-.4zm.2 1v-.3l-.2.1.2.2zm0-3.2c0 .1 0 .1.1.1l.1.1c0-.2.1-.3.3-.3h.4c0-.1-.1-.1-.2-.1h-.2-.3c-.1 0-.2.1-.2.2zm1 .2s-.1 0-.2.1c-.1 0-.1.1-.1.1h.4l-.1-.2zm-.3-3.4h.2v-.1h-.2v.1zm.3 13s-.1 0-.1.1 0 .1.1.1.1 0 .1-.1c0 0 0-.1-.1-.1zm.4-7.5l.2-.1h-.3l.1.1zm0-1.5s-.1 0-.1.1 0 .1.1.1.1 0 .1-.1-.1-.1-.1-.1zm.1-.5s0-.1 0 0c-.1-.1-.2 0-.2 0 .1.1.1.1.2 0 0 .1 0 .1 0 0zm-.1 1.5h.2v-.1h-.2v.1zm.5.4c0-.1-.1-.1 0 0-.1-.1-.1 0-.1 0h.1c-.1 0 0 0 0 0zm-.2-.8h.1V18l-.1.1zm.2-1.9c-.1 0-.1 0-.1.1s0 .1.1.1.1 0 .1-.1-.1-.1-.1-.1zm.1.4c0 .2.1.4.2.6.1.1.2.3.3.5.1-.1.1-.1.1-.2v-.1-.2-.2c0-.1-.1-.3-.1-.3-.2-.1-.3-.1-.5-.1zm.4 1.8c-.1 0-.1 0-.1.1s0 .1.1.1c0 0 .1 0 .1-.1s-.1-.1-.1-.1zm.1-3.1s-.1 0-.1.1 0 .1.1.1.1-.1.1-.1l-.1-.1zm.1-.5c-.1 0-.1 0-.1.1s0 .1.1.1.1 0 .1-.1 0-.1-.1-.1zm.5 2.2v-.1h-.4l.4.1zm.2 7.8c-.2 0-.3.1-.3.3.1 0 .2-.1.3-.3zm-.1-9.7c-.1 0-.1 0-.1.1s0 .1.1.1.1 0 .1-.1c0 0 0-.1-.1-.1zm.2.2c-.1 0-.1 0-.1.1s0 .1.1.1.1 0 .1-.1-.1-.1-.1-.1zm.4 10.1s.1.1 0 0l.1.2c.1 0 .1 0 .2-.1l.2-.2-.1-.1h-.2s-.1 0-.1.1l-.1.1zm.3 1.1l-.1-.1.1.1zm.1-1.7c-.1 0-.1 0-.1.1s0 .1.1.1.1 0 .1-.1 0-.1-.1-.1zm.4.1c-.1 0-.1 0-.1.1s0 .1.1.1c0 0 .1 0 .1-.1l-.1-.1zm.9 1.8c-.1 0-.2 0-.3.1h.2c-.1 0 0 0 .1-.1zm2.6 5.9l-.7.8s-.1 0-.1-.1c-.1-.1-.1-.1-.2-.1V33v-.4-.1l.1-.1c.1-.1.1-.1.2-.3.1-.1.1-.2.1-.2s.1-.2.3-.3c.2-.2.2-.3.3-.4 0-.1.1-.2.2-.3l.2-.2c.1-.1.1-.1.1-.2s.1-.2.3-.5.3-.4.3-.4.1-.1.1-.2.1-.2.1-.4c.1-.1.1-.2.2-.3.1-.1.1-.2.1-.2s0-.1.1-.2.1-.2.1-.2c.1-.1.1-.3.2-.5s.1-.4.1-.4v-.3-.4-.4-.3-.2l-.1-.2c0-.1-.1-.2-.2-.2v-.1c0-.1.1-.2.1-.4v-.3l.2-.2c.1-.1.1-.2.2-.2v-.2c0-.1 0-.2.1-.3 0 0 .1-.1.2-.3.1-.1.2-.3.2-.3s.1-.2.1-.4 0-.4.1-.4c0-.1.1-.2.3-.4.1-.2.2-.3.3-.3H163.8l.2.2s.1.1.2.1c0 0 .1 0 .1-.1l.1-.1s0 .1.1.1l.1.1s0 .1.1.1.1.1.1.1 0 .1.1.1h.2s.1.1.3.2c.1.1.2.2.3.2l.1.1.1.1.1.1v1s-.1 0-.3.1c-.1 0-.2.1-.3.2l-.1.1c0 .1-.1.1-.1.1s-.1.1-.2.1l-.2.1V24.7c0 .1.1.1.1.2l.2.2.2.2s.1.1.2.1.2.1.3.1l-.1.1c0 .1-.1.1-.1.2V27.5l-.1.1-.1.1v.8c0 .1-.1.2-.1.3V29.1c-.1.1-.1.2-.3.3l-.2.2c-.1 0-.2 0-.3-.1-.1-.1-.2-.1-.3-.2v.5l.1-.1s0-.1.1 0c0 0 .1.1.1.2.1.1.1.2.1.2l-.1.1h-.1-.2s-.1-.1-.2-.1c0 0 0 .1-.1.3-.1.1-.1.2-.1.3 0 0-.1.1-.2.1s-.2.1-.2.1l-.3.3-.3.3s0 .1-.1.1-.1.1-.1.1-.1.1-.2 0h-.2c-.1 0-.1.1-.2.1s-.2.1-.2.1c-.1.1-.1.1-.1.2 0 0 0 .1-.1.3s-.1.2-.1.3c0 .1 0 .2-.1.3v.2l-.1.1c-.1.1-.1.1-.2.1h-.2s0-.1-.1-.2c0-.1 0-.2-.1-.3v-.1-.1l-.1-.1-.1-.1h-.6v.1zm2.5-1.9l.2.1h.2v-.1-.1l-.1-.2-.3.3zm2.2-2.2h-.1c-.1.1 0 .1 0 .2h.1v-.2zm28.1-1.1c0-.1 0-.2-.1-.3s-.1-.3-.1-.3-.1-.1-.1-.2-.1-.2-.2-.2c0 0 0 .1-.1.1l-.1.1s-.1.1-.2.1c-.1.1-.1.1-.2.1 0 0-.1 0-.2.1l-.2.2-.3-.3s-.1.1-.1.2c-.1.1-.1.1-.2.1h-.2c-.1 0-.2-.1-.3-.2-.2-.1-.3-.1-.3-.1s0-.1-.1-.2-.1-.2-.1-.2c-.1-.1-.1-.2-.2-.2l-.1.1h-.1H188.9s-.1-.1-.2-.3l-.2-.2s-.1 0-.2.1-.1.1-.2.1H187.8c-.1 0-.2 0-.3-.1-.2-.1-.3-.1-.3-.1s-.1-.1-.3-.1c-.1-.1-.2-.1-.2-.1v-.1-.3-.3-.2c0-.1-.1-.2-.3-.4s-.3-.3-.3-.4c0 0-.1 0-.1.1-.1 0-.1.1-.1.1s0 .1-.1.2-.1.2-.2.3h-.2l-.2-.2s-.2-.1-.2-.2c0 0-.1 0-.3-.1-.1 0-.2-.1-.2-.1s-.1-.1-.1-.3c-.1-.2-.1-.4-.1-.5V22.9v-.2-.2s0-.1.1-.1.1-.1.1-.1h-.3l-.3-1.1h-.2v.3c0 .2-.1.3-.1.3h-.2-.2c0-.1-.1-.3-.1-.6s-.1-.5-.1-.6c0-.1 0-.2-.1-.3 0-.2-.1-.3-.1-.3s0-.1-.1-.1h-.2v-2.1l-.2-.2c-.1-.1-.1-.1-.1-.2v-.2-.2-.3-.2s0-.2.1-.3c.1-.2.1-.3.1-.3v-.4c0-.2.1-.4.1-.4V15l.1-.1s.1-.2.1-.3c0-.2.1-.3.1-.3v-.2-.3-.3-.2c0-.1.1-.2.1-.3 0-.2.1-.3.1-.3l.1-.1v-.2s.1-.1.2-.3.2-.2.2-.3c0 0 0-.1.1-.2 0-.1.1-.2.1-.3 0 0 .1 0 .1-.1l.1-.1s0-.1.1-.2c0-.1.1-.1.1-.2s.1-.2.3-.4c.2-.2.3-.3.3-.4l.1.1s.1 0 .1.1.1 0 .1 0H185.3l.2-.2s.1-.2.1-.3c0 0 .1 0 .2-.1.1 0 .2-.1.2-.1s.1-.1.1-.2c.1-.1.1-.2.2-.2h.4s.1-.1.1-.2v-.3c.1 0 .3 0 .5-.1s.4-.2.5-.2c0 0 .1-.2.1-.4s.1-.3 0-.4h.2s.1.1.2.1.1.1.1.1v.3l.2.1V8.3l-.1.1-.1.1h-.4v1c0 .1.1.1.1.2l.1-.1.1-.1s.1-.1.1-.2c.1-.1.1-.2.2-.2v.3c.1.2.1.3.1.3s.1.1.2.1.2.1.2.1v.9l-.2.2-.1-.1v-.1s-.1-.1-.1-.3c0-.1-.1-.2-.1-.3l-.1-.1s-.1 0-.1-.1h-.1V10.3s0 .1.1.2.1.2.1.2h-.2s-.1 0-.2.1c0 0-.1.1-.1.3v.2s-.1.1-.2.3-.1.3-.1.3l-.2.2h-.4v.7h-.2s-.1-.1-.3-.2c-.1-.1-.2-.1-.2-.2h-.1v.2s.1.1.1.3.1.3.2.3c0 0 0 .1-.1.1h-.1s-.1 0-.2-.1c-.1 0-.2-.1-.3-.1h-.1-.1v.2s-.1.1-.1.3c-.1.1-.1.2-.1.3v.2s0 .1.1.1.1.1.1.1v.5s-.1.2-.1.4c-.1.2-.1.4-.1.4v.7s0 .1-.1.2c0 .1-.1.2-.1.3 0 0-.1.2-.1.5s-.1.5-.1.6v.2l.7-.3.1.3-.1.1h-.1-.1c-.1 0-.1.1-.1.1V19.2h.3v.2s-.1.1-.1.2-.1.1-.1.2v.1s.1.1.2.1.1.1.1.1 0 .1-.1.1c0 .1-.1.1-.1.2v.2s0 .1.1.1l.1.1s0-.1.1-.1.1-.1.1-.1h.1s0 .1.1.1.1.1.1.2v.1l.1.1s.1 0 .1.1c.1 0 .1.1.2.1l.2.2c.1.1.1.2.2.3v.2c0 .1.1.1.1.2 0 0 0 .1.1.1h.1v-.2c0-.1.1-.1.1-.2h.2l.2.2s.1.1.1.2v.5s0 .1.1.1h.1s0-.1.1-.2c0-.1.1-.1.1-.2h.2s.2.1.5.3c.3.1.4.2.5.2 0 0 .1 0 .3.1H191.1l.2-.1h.5l.2.2.2.2h.2s.1-.1.3-.2c.1-.1.2-.1.3-.2 0 0 .1 0 .2-.1h.2s.1 0 .2.1c.1 0 .2.1.2.1h.6l.2.2c.1.1.1.2.1.2s.1.1.2.1H195.5c.1 0 .1 0 .2-.1.1 0 .1-.1.2-.1h.5l.2.2c.1.1.1.1.2.1h.4c.2-.1.3-.1.3-.1v-.3-.3-.1s.1-.1.2-.1.1-.1.2-.1h1.2c.1 0 .2-.1.4-.1.1 0 .2-.1.3-.1.1 0 .2-.1.2-.1h1c.1 0 .1 0 .2-.1 0 0 .1 0 .1-.1h.7s.1 0 .2-.1.1-.2.2-.2c0 0 .2-.1.5-.1s.5-.1.6-.2h.2s.1 0 .1.1l.1.1v.4c0 .2.1.4.1.5V23h-.5v.4s-.1.4-.1.6c-.1.2-.1.4-.2.6-.1.2-.1.3-.1.4 0 .1-.1.2-.2.3-.1.1-.2.3-.4.4l-.4.4c-.1.1-.2.2-.3.2 0 0-.1 0-.3-.1-.2 0-.3-.1-.3-.1h-.7c-.1 0-.2.1-.3.1-.2.1-.3.2-.5.2-.2.1-.3.2-.5.3-.1.1-.3.1-.3.2v-.4c0-.2-.1-.3-.1-.4 0 0-.1-.1-.2-.1s-.2 0-.3-.1c0 0-.1 0-.1-.1s-.1-.1-.1-.1h-.1l-.1-.1h-.2v.7s-.1 0-.1-.1c-.1 0-.1-.1-.1-.1s-.1-.1-.1-.2-.1-.2-.1-.2c-.1-.1-.1-.2-.2-.2l-.6.3v1.1h-.4s-.1.1-.1.2-.1.1-.1.2-.1.2-.2.3l-.2.2-.4.2c-.2.1-.4.1-.4.1l-.2.2h-.5c-.1 0-.2-.1-.3-.1-.1 0-.2-.1-.2-.1s-.1 0-.2-.1-.1-.1-.1-.2c0 0-.1-.1-.1-.3s-.1-.2-.1-.3l-.3.2zm-8.4-10.7s.1.1 0 0l.2.2h.1l.1-.1s0-.1.1-.1l-.3-.6s-.1.1-.1.2-.1.2-.1.3v.1zm5.2-6.6s0-.1.1-.2v-.4-.3c0-.1-.1-.2-.1-.2l-.2-.2-.3-.3s-.1-.1-.1-.2-.1-.1-.1-.2c0 0 .1 0 .1-.1h.5l.1.1s0 .1.1.2c0 .1.1.1.1.1h.2c.1 0 .1-.1.1-.1v-.7l.2.2.2.2h.5s.1 0 .1-.1v-.1c0-.1.1-.2.1-.4V7l.2.2s.2.1.2.2h.2s.1-.1.3-.2.3-.2.3-.3l.2-.2s.1-.1.1-.2.1-.1.1-.2l.4.5v-1h1v.1l.1.1h.4s0 .1.1.2c0 .1.1.2.1.3 0 0 0 .1.1.1 0 .1.1.1.1.1l.2.2h.1c.1 0 .1-.1.2-.3.1-.2.1-.3.1-.3l-.2-.2c-.1-.1-.2-.1-.2-.1l-.1-.2v-.2h1.7s0 .1.1.2c0 .1.1.2.1.2s.1.1.2.3.1.2.2.2h.2v-.3l.1-.3s.1 0 .3-.1c.2 0 .3-.1.3-.1s0-.1.1-.2c0-.1.1-.1.1-.2h.2s.1.1.2.1l.2.2h.2s.1-.1.2-.1.1-.1.2-.1h.2v.9h.1c.1 0 .1.1.2.1 0 0 0 .1.1.1l.1.1h.1s.1 0 .2.1.1.1.2.1h.2s0 .1.1.3c0 .2.1.3.1.3V8l-.7-.3-.1.1V8s0 .1.1.3l.2.2v1s0 .1-.1.1h-.1s-.1 0-.2-.1l-.1-.1h-.6v.6c-.1 0-.1 0-.2-.1l-.3-.3c-.1 0-.1.1-.2.1h-.1-.1s-.1 0-.3-.1c-.1-.1-.2-.1-.3-.2 0 0 0-.1-.1-.2s0-.2-.1-.2l-.3-.3s-.3-.3-.4-.3l-.1-.1c-.1 0-.1-.1-.2-.1 0 0-.1 0-.3-.1-.2 0-.3-.1-.3-.1h-.5s-.1.1-.2.1-.2.1-.2.1h-.2c-.1 0-.1-.1-.1-.1-.1 0-.2.1-.3.2-.2.1-.3.2-.3.2s-.2.1-.3.2c-.2.1-.3.1-.3.1s-.2.1-.3.1c-.2.1-.3.1-.4.1 0 0-.1.1-.2.1s-.1.1-.2.1h-.6s-.1 0-.1.1c-.1 0-.1.1-.2.1 0 0 0 .1-.1.1s-.1.1-.1.1 0 .1-.1.1-.1.1-.2.1-.2.1-.4.3-.3.2-.4.3l-.2.2c-.1.1-.2.1-.3.1 0 0-.1.1-.2.1s-.1.1-.2.1H189.5h-.1l-.1-.1-.1-.1v-.6zm3.4 13.7c-.1 0-.1 0 0 0-.1.2 0 .2 0 .2s.1-.1 0-.2c.1.1 0 0 0 0zm.1 2.6s.1.1.2.3c.1.1.1.2.2.2h.2l.1-.1v-.1s0-.1-.1-.1-.1-.1-.2-.1h-.4zm.6-19.8V7s.1 0 .1.1c0 0 .1 0 .1.1h.2l.1-.1V7s0-.1-.1-.2l-.2-.2h-.1-.1zm.2 17.1h.2l-.2-.2v.2zm1 2.9c-.1 0-.1 0-.2.1 0 0 0 .1-.1.2s-.1.2-.1.2V27.4h.2s0-.1.1-.2.1-.3.1-.4v-.1-.1c0 .1 0 0 0 0zm-.3-1.5v.2c0 .1.1.1.1.1s.1-.1.2-.1l.2-.2V25v-.1h-.4c-.1.1-.1.2-.1.2zm.5-17.8c-.1 0-.2.1-.2.2s.1.2.2.2.1-.1.1-.2 0-.2-.1-.2zm.9 18.1c-.1 0-.1 0-.1.1s0 .1.1.1.1 0 .1-.1c.1 0 0-.1-.1-.1zm2.5-19.1c.1.1.1.2.2.2v-.2c-.1-.1-.1-.2-.2-.2v.2zm.8 19.2h-.2l-.1.1c0 .1-.1.1-.1.2v.6h.2s.1 0 .1-.1v-.1-.3c.1-.2.1-.3.1-.4zm-.4-.7c.1 0 .1 0 0 0l.2-.2v-.2l-.2.4zm.5-.5c-.1 0-.1.1-.1.2s0 .2.1.2.2-.1.2-.2c0-.2-.1-.2-.2-.2zm.2-16.9c-.1 0-.1 0 0 0-.1.1-.1.2 0 .2.1-.1.1-.2 0-.2zm.1 1c-.1 0-.1.1-.1.2s0 .2.1.2.2-.1.2-.2c0-.2-.1-.2-.2-.2zm.2 15.6s-.1 0 0 0c-.1.2-.1.2 0 .2.1-.1.1-.2 0-.2zm1.8 1.7c-.1 0-.1.1-.1.2s0 .2.1.2.2-.1.2-.2-.1-.2-.2-.2zm.6-1.2c0 .1 0 .1 0 0 0 .1 0 .1.1.2l.1.1s.1 0 .1-.1l.1-.1v-.1-.2h-.2l-.1.1s-.1 0-.1.1zm6.9 2.9h-.2s-.1 0-.2.1c0-.1 0-.2-.1-.5 0-.2-.1-.4-.2-.5V25c0-.1-.1-.2-.1-.3 0-.1-.1-.2-.1-.4 0-.1.1-.2.2-.3.2-.1.2-.2.2-.4v-.5c0-.3-.1-.4-.1-.5l-.2-.2c-.1-.1-.2-.2-.2-.3v-.3c0-.1 0-.3.1-.4v-.1s0-.1.1-.1v-.1c-.1-.3-.2-.6-.3-1-.1-.3-.1-.6-.1-1 0-.1 0-.1.1-.2 0 0 0-.1.1-.1v-.5-.5c0-.2-.1-.4-.1-.7s-.1-.4-.2-.6c-.1-.2-.2-.3-.4-.4 0 0-.1 0-.1.1h-.1-.1l-.1-.1h-.1c-.1 0-.3 0-.3.1 0-.2-.1-.4-.2-.6-.1-.2-.3-.3-.5-.2 0-.1-.1-.3-.2-.5s-.2-.4-.3-.4c.3-.2.5-.4.5-.7v-.9h-.2c-.1 0-.1 0-.1-.1v-.3-.3-.4c0-.2 0-.3.1-.4.1 0 .1.1.1.2v.6s.1.1.2.1.2 0 .3-.1l.1.4s.1 0 .2-.1l.1-.1v-.2s0-.1-.1-.2v-.4l.2-.2c.1-.1.2-.2.3-.2v.1s0 .1-.1.1v.1s.1.1.1.2.1.2.1.2c.3 0 .6-.1.8-.1.2-.1.4-.2.5-.6.1 0 .3 0 .3.1s.1.2.2.3c0 .1.1.2.1.3 0 .1.1.1.2.1s.2-.1.3-.2c0-.1.1-.2.2-.2 0 .4.1.7.2.8s.3.2.5.3c.2 0 .4.1.5.1.2 0 .3.1.3.3 0-.1.2-.2.3-.3.2-.1.3-.2.4-.2h.6c.2-.1.5-.3.7-.6.3-.3.5-.5.6-.7h.7l.2-.2c.1-.1.2-.2.2-.3h.4s.1 0 .2-.1c.1 0 .2-.1.2 0l.2.2c.1.1.1.2.2.2s.2.1.4.1h.4c0 .1 0 .2.1.3.1.1.1.2.1.4H217.9c.1 0 .2 0 .2.1.1.1.1.2.2.3.1.1.1.3.2.4l.3.3h.2s0 .1-.1.2c0 .1-.1.2-.1.2v.2l.1.1.1-.1h.2l.2.2c.1.1.2.1.2.2v1l-.1.1c-.1.1-.2 0-.4-.1s-.3-.3-.3-.3v1.1s0 .1-.1.2l-.3.3-.3.3c-.1.1-.2.1-.2.1-.1 0-.3 0-.3-.1-.1-.1-.1-.2-.2-.3-.1-.1-.1-.2-.2-.3-.1-.1-.1-.2-.2-.2 0 0-.2 0-.4.1s-.3.1-.4.1c-.1-.1-.2-.3-.2-.3v-.3-.3c0-.1.1-.2.2-.3h-.3c-.1 0-.2 0-.3.1 0 0-.1.1-.2.1s-.2 0-.3-.1c0 0-.1-.1-.3-.1-.3 0-.6.1-.7.3-.2.2-.3.5-.3.8l.1.1s0 .1.1.1v.1l-.1.1c-.1 0-.1 0-.2-.1 0-.1 0-.1-.1-.2 0-.1-.1-.1-.2-.2s-.2-.1-.4-.1c0 0-.1.1-.3.2-.2.1-.3.3-.3.4v.1l.2.2v.2h-.6s-.1 0-.1-.1-.1-.1-.1-.1h-.1c-.2 0-.3.1-.4.2s-.1.3-.1.5c0 .1.1.2.3.2h.4c-.1.2-.1.4-.2.5v1.3l.1.1.1.1-.1.1s0 .1-.1.1v.1c0 .1.1.3.2.6s.2.5.2.7v.3c0 .1 0 .2-.1.3s-.1.2-.1.3c-.1.1-.1.1-.2.1v.9c0 .3.1.7.2 1.2s.2.8.2 1.2c0 .3 0 .4-.1.5-.1.1-.2.2-.3.2-.1 0-.2.1-.3.1-.1 0-.1.1-.1.1 0 .1 0 .2.1.3.1.1.1.1.1.2 0 .2-.1.4-.2.5-.1.1-.3.2-.4.2-.2.1-.3.1-.5.2s-.3.1-.5.3c0 0 0 .1-.1.1v.1h-.2l-.2-.2h-.1-.1s-.1.1-.2.1l-.2.2v-.1-.1c0-.2.1-.3.2-.4.1 0 .1-.1.1-.3zm-2.8-13.8s-.1 0-.1.1 0 .1.1.1.1 0 .1-.1 0-.1-.1-.1zm.5-.6c-.1.1 0 .1 0 .1.1.1.1.1 0-.1.1.1.1.1 0 0zm1.8.8c-.1 0-.2.1-.3.2v.3h.2l.1-.5zm0 8.3l.1-.2h-.1v.2zm.7 4.3c-.2 0-.3 0-.3.2v.3h.2v-.2-.1-.2h.1zm-.2-5.5h.1v-.2h-.1v.2zm.6 5.3c0 .1 0 .2.1.3v-.3h-.1zm.5-4s-.1 0-.1.1 0 .1.1.1c0 0 .1 0 .1-.1s-.1-.1-.1-.1zm1.1.3c-.1 0-.1.1-.1.2v.2h.2v-.4zm.1 3.2c0 .1 0 .1 0 0 .1.1.1.1 0 0 .1 0 .1 0 0 0zm.3-3.5zm.2-7c-.1 0-.1 0-.1.1s0 .1.1.1c0 0 .1 0 .1-.1-.1 0-.1-.1-.1-.1zm2.8-.1v-.2l-.1.1.1.1zm.5-.3c.1 0 .1.1 0 0 .1.1.2.1.2.1v-.1h-.2zm2.1.1c-.1 0-.1 0 0 0-.1.2 0 .2 0 .2s.1-.1 0-.2c.1 0 0 0 0 0zm.2.8zm.3-.3h.2l-.2-.1v.1zM229 26.9s-.1.1-.1.2v.2c0-.1 0-.1-.1-.1h-.6s-.1 0-.3-.1-.3-.1-.4-.2h-.1l-.1-.1h-.3l-.1.1h-.2v-.2c0-.1-.1-.2-.1-.2s-.1-.1-.3-.1c-.2 0-.3-.1-.3-.1V26l-.5.3-.1-.1c-.1-.1-.1-.1-.1-.2v-.3c0-.1 0-.2-.1-.2s-.2.1-.2.2v.2s0 .1-.1.2c0 .1-.1.1-.3.1-.4 0-.6-.1-.7-.2-.1-.1-.2-.2-.2-.4v-.4c0-.1-.1-.2-.2-.3 0 0-.2 0-.3-.1s-.3 0-.4 0l.2-.3c-.2 0-.4-.1-.5-.2-.1-.1-.3-.2-.4-.4-.1-.2-.2-.3-.3-.5-.1-.2-.2-.3-.3-.5l-.2-.2c-.1-.1-.1-.2-.2-.3-.3-.3-.4-.6-.5-.9-.1-.2-.1-.5-.3-.9l-.1-.1-.1-.1c0-.1 0-.3-.1-.5v-.7c0-.1 0-.3.1-.4 0-.1.1-.3.1-.4v-.2s0-.1-.1-.1c0-.1-.1-.1-.1-.1v-.6-.5c0-.2.1-.5.1-.7 0-.2.1-.5.2-.6.1-.2.2-.3.3-.3 0 .1 0 .2-.1.3 0 .1-.1.2-.1.2h.4c.2 0 .3 0 .3-.1 0 0 .1-.1.1-.3 0-.1.1-.2.1-.2h.1v.3h.4l.1-.1.1-.1h.3c.1 0 .2-.1.2-.1V15c0-.2-.1-.5-.2-.7-.1-.2-.2-.4-.2-.7.1 0 .2 0 .3.1.1 0 .2.1.4.1.1 0 .2 0 .2-.1s-.1-.2-.2-.2-.2 0-.3-.1v-.1c0-.1 0-.2.1-.3.1-.1.1-.2.2-.3h.8c.2 0 .3.1.3.2 0 0 0 .1-.1.1 0 .1-.1.1-.1.1v.1c.2 0 .4 0 .6-.1.2 0 .4-.1.5-.3 0 0 .1-.2.1-.4s.1-.3.2-.3c0 .2.1.3.3.3h.2c.1 0 .2 0 .2-.1v-.2l-.1-.1h-.4s.1 0 .1-.1v-.1-.2c0-.1-.1-.1-.1-.1h.2s.1 0 .2.1.2.1.2.1.1 0 .3.1c.2 0 .3.1.3.2 0 .2.1.3.1.5s.1.3.3.5h.2v-.3h.1l.1.1.1.1h.4c.2 0 .3-.1.3-.1v-.1c0-.1-.1-.2-.2-.2s-.2-.1-.3-.1v-.1s.1-.1.1-.2l.1-.1s.1 0 .3.1.2.1.3.2c.2 0 .4-.1.4-.2 0-.2.1-.3.3-.4 0 0 .1.1.2.3.1.1.1.2.2.3l.1.1c0 .1 0 .1.1.1h.1s.1 0 .1-.1h.1v-1l.2-.1v.7c.1.3.1.5.2.7l.2-.1v-1.2H230.9c.1 0 .1 0 .1.1 0 0 .1.2.1.4v.4h.1l.1-.1c.1-.1.1-.1.1-.2h1.1s-.1.1-.1.3c-.1.1-.1.2-.1.3v.1c0 .1.1.1.1.1s.1.1.3.1h.3c0 .1-.1.1-.1.1h-.2c-.1 0-.2 0-.3.1-.1 0-.2.1-.2.3 0-.1 0-.2-.1-.3 0-.2-.1-.3-.1-.3v-.2c0-.1 0-.1-.1-.2l-.1-.1h-.2c0 .3 0 .5.1.7s.1.4.1.6h-.2l-.1.1.4.4V14l-.1-.1v-.1-.1l.1-.1h.1c.1 0 .2.1.3.2v.4c.1-.2.1-.3.3-.4.1 0 .3-.1.5-.1v.6h.5c.1 0 .2 0 .4.1h-.1c-.1 0-.1 0-.1.1v.1c0 .2.1.3.3.3.2 0 .4.1.5.1 0 0 0 .1-.1.2 0 .1-.1.1-.1.1h-.1-.1-.1l-.1-.1-.1-.1h-.1c-.1 0-.1.1-.1.1.2.2.4.5.6.8-.1.1-.2.1-.3.1h-.4v.2s.1.1.1.2.1.1.1.2l.2.2.2.2c0 .1 0 .2-.1.3-.1.1-.1.2-.2.2 0-.1-.1-.2-.3-.2h-.1l-.1.1c.1 0 .1.1.1.2v.2c0 .1 0 .2-.1.3-.1.1-.1.1-.2.1h-.6c-.1 0-.2.1-.1.3.1.1 0 .2-.1.3-.1-.1-.1-.2-.2-.2h-.2c-.2 0-.4.1-.4.2-.1.1-.1.2-.3.2l-.3-.1s-.1-.1-.2-.1-.1-.1-.2-.1l-.1.1.1.1c-.1.1-.1.2-.2.4s0 .2-.1.3c0 .1-.1.2-.1.3s-.2.2-.3.2c.1-.1.1-.3 0-.4s-.2-.2-.3-.2c-.1 0-.2 0-.2.1s-.1.2-.1.3v-.1-.1-.1-.1s0-.1.1-.2c0-.1.1-.2.1-.2 0-.1 0-.1-.1-.1h-.2c-.1 0-.2 0-.4.1s-.3.2-.3.3v.1s.1.1.2.1c.1.1.2.1.2.1V20.6l.1.1v.1c-.2.1-.3.2-.4.3-.1.1-.2.1-.3.2-.1 0-.2.1-.2.1 0-.2.1-.3.2-.4.1-.1.2-.2.2-.4s0-.3-.1-.3h-.3v.4c0 .1-.1.2-.2.4 0 .1-.1.2-.1.3h-.1v-.3c0-.1-.1-.2-.3-.2-.1 0-.2 0-.5.1-.2.1-.4.1-.5.1 0 0-.1 0-.1.1l-.1.1h-.2c0-.2-.1-.4-.3-.6h-.1v.6c-.1 0-.2-.1-.3-.3 0-.2-.1-.3-.3-.3v.6s0 .1.1.3c.1.1.1.2.2.2l.2.1c.1 0 .2.1.3.1.3.1.6.1.8.2.3.1.5.1.8.2.2.1.5.1.7.2.3 0 .5.1.7.2.1 0 .2.1.3.1.1.1.2.1.2.1s0 .1.1.2c0 .1 0 .2.1.2 0 0 .1 0 .2.1.1 0 .2.1.3.1h.1c.1 0 .2 0 .3-.1.1 0 .2-.1.3-.1.2 0 .4 0 .6.1s.4.1.6.1c0 .2 0 .3.1.3h.3c.2 0 .3 0 .3-.1s.1-.1.2-.1.1 0 .2.1v.2s.1.1.2.1.2-.1.2-.2 0-.2.2-.2H234.5c.1 0 .1.1.1.2s.1.2.2.2l.6-.6h1.1l-.1.1c.1.1.2.2.4.2s.4.1.5.2l-.3.2v1.1c0 .1 0 .2-.1.2h-.2v.2h.3v.6h-.1-.1-.1s-.1-.1-.3-.2-.2-.1-.3-.1h-.1v.2h.2v.1c0 .1 0 .2-.1.3s-.2.1-.3.1h-.2s-.1 0-.4-.1c-.2 0-.3 0-.4-.1h-.2l-.1.1v.1h-.4v-.4c-.4 0-.8.2-1.1.4v-.6h-.1.1s0 .1-.1.2v.2h-.6l-.2.2s0-.1-.1-.1c0 0-.1 0-.3-.1h-.2v-.2s.1-.1.1-.2h-.4l-.1.1-.1.1h-.6V26s0 .1-.1.1c0 0 0 .1-.1.1h-.1s-.1 0-.1-.1l-.1-.1h-.1c-.1.1-.2.2-.2.3 0 .1-.1.2-.1.3 0 .1-.1.2-.1.3 0 .1-.1.1-.2.1s-.2 0-.2-.1v-.2-.2c.3.4.2.4 0 .4zm-8.6-10.7c-.1 0-.1 0-.1.1s0 .1.1.1c0 0 .1 0 .1-.1s0-.1-.1-.1zm1.1 1.1c-.1 0-.1 0-.1.1s0 .1.1.1c0 0 .1 0 .1-.1s0-.1-.1-.1zm.1-.7c-.1.1-.1.2-.1.3.1 0 .2-.1.3-.2l-.2-.1zm0 2.2c.1-.1 0-.1 0 0-.1-.1-.1-.1 0 0zm.6-3c-.1 0-.2.1-.2.2s-.1.2-.1.3c0 0 .1 0 .3-.1.1-.1.2-.1.2-.2v-.1s-.1-.1-.2-.1zm.1.5s-.1 0-.1.1 0 .2.1.1l.1-.1-.1-.1zm.8 3.7v.2s.1 0 .1.1l.1.1c.1 0 .1-.1.1-.2v-.3c0-.1 0-.3-.1-.4-.1-.1-.1-.2-.1-.4 0-.1 0-.2.1-.3.1-.1.1-.1.2-.1h.1s0 .1.1.1.1.1.1.1h.2s.1 0 .1-.1l.1-.1h.3c.1 0 .2 0 .2-.1 0 0 0-.1.1-.2 0-.1 0-.2.1-.2 0 0 .1 0 .2-.1.1 0 .2-.1.3-.1h.1s.1 0 .2.1c.1 0 .2.1.2.1.1 0 .3-.1.5-.2s.4-.2.5-.3c0 .2.1.3.1.4.1.1.2.1.3.1h.3c.1 0 .2-.1.3-.1l.2-1c.1 0 .3-.1.5-.2s.4-.1.5-.1h.1s.1.1.2.1c.1.1.2.1.2.1h.2l.1-.1v-.1s0-.2.1-.3v-.4h.4c.2 0 .4-.1.4-.1.1 0 .2 0 .4-.1h.3v-1c0 .1 0 .1.1.1l.3.3c.1.1.1.1.2.1l.1-.1c-.2-.3-.3-.5-.3-.7-.1-.2-.2-.4-.5-.7-.1-.1-.3-.2-.5-.4s-.4-.2-.6-.2c-.2 0-.4.1-.6.2-.2.1-.3.2-.5.4-.2.1-.4.3-.6.4-.2.1-.5.2-.7.2h-.1s-.1 0-.3-.1l-.2-.1h-.3v.2c0 .1-.1.2-.1.2l-.3.3s-.1 0-.1.1h-.1l-.1.1-.1.1h-.6s0 .1-.1.2V15.8s-.1 0-.1.1l-.1-.1c-.6.4-1 .9-1.1 1.6-.1-.1-.2-.1-.3.1-.1.1-.1.2-.2.3 0 0 0 .1-.1.3 0 .1-.1.2-.1.3h-.2l-.3-.6V18.1c0 .2 0 .3.1.4.1.1.1.2.1.4v.2-.1s-.1.1-.2.1h-.2v.9h-.3v.2c.1 0 .2 0 .3-.1 0-.1.1-.1.3-.1zm-.4.7c.1 0 .1 0 0 0s-.1 0 0 0c0 .1 0 .1 0 0 0 .1 0 .1 0 0zm0-6l.1.1h.6c0-.2-.1-.3-.2-.3h-.2-.2c0 .1-.1.1-.1.2zm.3.3c-.1 0-.1 0-.1.1s0 .1.1.1c0 0 .1 0 .1-.1 0 0 0-.1-.1-.1zm.1-1.8c0 .2.1.3.2.4.1.1.3.1.4.1 0-.2 0-.4-.1-.4s-.3-.1-.5-.1zm.3 8.3s-.1 0-.1.1 0 .1.1.1.1 0 .1-.1-.1-.1-.1-.1zm.2-1.5c-.1 0-.1 0-.1.1s0 .1.1.1.1 0 .1-.1 0-.1-.1-.1zm0-5.8c0 .1 0 .1.1.1s.1-.1.1-.2v-.2h-.2c.1.1 0 .1 0 .3zm0 2c0 .1 0 .1.1.1v-.1c.1-.1 0-.1-.1 0V16v.2zm.5 8.9c-.1 0-.1 0-.1.1v.2c.1 0 .2-.1.3-.1.1 0 .2-.1.2-.3l-.2-.2c-.1-.1-.2-.1-.2-.1l-.1.1v.2s0 .1.1.1c0-.1 0 0 0 0zm-.1.5c-.1 0-.1 0-.1.1s0 .1.1.1.1 0 .1-.1 0-.1-.1-.1zm0-10.6h.1v-.4h-.1v.4zm.1 4.5c.1 0 .1-.1 0 0-.1-.1-.1 0-.1 0s0 .1.1 0c0 .1 0 0 0 0zm0 6.3c-.1.1 0 .2 0 .2.2-.1.2-.1 0-.2zm.1-11.5c.1-.1 0-.1 0 0-.1-.1-.1-.1 0 0zm-.1 10h.2v-.1l-.2.1zm.4 1.6c-.1-.1-.1 0-.1 0 0 .1 0 .1.1 0 0 .1 0 .1 0 0zm.1-.5c-.1 0-.1 0-.1.1s0 .1.1.1.1 0 .1-.1c0 0 0-.1-.1-.1zm0-3h.1v-.1h-.1v.1zm.2-8.9c-.1 0-.1 0-.1.1s0 .1.1.1.1 0 .1-.1c-.1 0-.1-.1-.1-.1zm.1.2c-.1 0-.1 0-.1.1s0 .1.1.1.1 0 .1-.1-.1-.1-.1-.1zm.1 1.6c-.1 0-.1 0-.1.1s0 .1.1.1.1 0 .1-.1 0-.1-.1-.1zm0 9.6h.3l-.1-.1h-.2v.1zm.3-11.4v.2c0 .1.1.1.1.2h.2l.4-.1v-.1c0-.1 0-.2-.1-.3s-.2-.2-.3-.2c0 0-.1.1-.1.2-.2 0-.2.1-.2.1zm.6 11.4c-.1 0-.2 0-.3.1-.1 0-.1.1-.1.2h.4v-.3zm.2-.1v.2l.1.2h.2v-.8c-.2.1-.3.2-.3.4zm.1-11.3s-.1 0-.1.1 0 .1.1.1.1 0 .1-.1c0 0 0-.1-.1-.1zm0 1.4s-.1 0-.1.1 0 .1.1.1.1 0 .1-.1c0 0 0-.1-.1-.1zm.3-2c-.1 0-.2.1-.3.2h.3v-.2zm-.1 1.9c0-.1.1-.2.1-.3v-.3-.2s0-.1-.1-.2v1zm.4 6l-.2-.1.2.1zm.3 3.1c-.1 0-.1 0-.1.1s0 .1.1.1.1 0 .1-.1 0-.1-.1-.1zm.1-3.5c.1-.1 0-.1 0 0-.1-.1-.1 0-.1 0 0 .1.1.1.1 0zm0 5.8c.1-.1 0-.1 0 0-.1-.1-.1 0-.1 0 0 .1.1.1.1 0zm0-12.3c.1.1.2.2.2.3.1.1.2.1.3.1h.2s.1 0 .1-.1l-.1-.1s0-.1-.1-.1h-.2l-.2-.1-.1-.1c0-.1 0-.1-.1-.1h-.2l.2.2zm.5 10.6s0-.1-.1-.1-.1 0-.1.1h.2zm.4.1c.1 0 .2 0 .3-.1h-.3v.1zm.4-6.3h.1v-.1h-.1v.1zm.2.8V19h-.1l.1.1zm-.1-1.8v.3c0 .1.1.2.1.4 0 .1.1.2.2.3s.1.1.3.1l.1-.1.1-.1v-.3-.3c-.1 0-.2 0-.3.1 0-.1-.1-.2-.2-.3s-.1-.1-.3-.1zm.6-4.3v.2c0 .1.1.2.1.2.1 0 .1 0 .1-.1v-.1c0-.1 0-.1-.1-.2 0 .1-.1 0-.1 0zm0 5.8h.1v-.2h-.1v.2zm.3 5.7c.2.1.4.3.5.4h.1l.1-.1v-.3-.3c-.1 0-.2 0-.3.1-.2.2-.3.2-.4.2zm0 2.2h.2c0-.1-.1-.2-.2-.3v.3zm.3-1.5v.3c0 .1.1.2.3.2h.1c0-.1-.1-.2-.1-.4 0-.1-.1-.1-.3-.1zm.1-6.3v.3c0 .1.1.2.2.2s.2-.1.2-.2v-.3h-.4zm.2 1v-.3l-.2.1.2.2zm0-3.2c0 .1 0 .1.1.1l.1.1c0-.2.1-.3.3-.3h.4c0-.1-.1-.1-.2-.1h-.2-.3c-.2 0-.2.1-.2.2zm.9.2s-.1 0-.2.1c-.1 0-.1.1-.1.1h.4l-.1-.2zm-.2-3.4h.2v-.1h-.2v.1zm.2 13s-.1 0-.1.1 0 .1.1.1.1 0 .1-.1c.1 0 0-.1-.1-.1zm.4-7.5l.2-.1h-.3l.1.1zm0-1.5s-.1 0-.1.1 0 .1.1.1.1 0 .1-.1 0-.1-.1-.1zm.2-.5s0-.1 0 0c-.1-.1-.2 0-.2 0 0 .1.1.1.2 0-.1.1 0 .1 0 0zm-.2 1.5h.2v-.1h-.2v.1zm.5.4c0-.1 0-.1 0 0-.1-.1-.1 0-.1 0h.1zm-.1-.8h.1V18l-.1.1zm.1-1.9c-.1 0-.1 0-.1.1s0 .1.1.1.1 0 .1-.1 0-.1-.1-.1zm.1.4c0 .2.1.4.2.6.1.1.2.3.3.5.1-.1.1-.1.1-.2v-.1-.2-.2c0-.1-.1-.3-.1-.3-.1-.1-.3-.1-.5-.1zm.4 1.8c-.1 0-.1 0-.1.1s0 .1.1.1c0 0 .1 0 .1-.1s0-.1-.1-.1zm.1-3.1s-.1 0-.1.1 0 .1.1.1l.1-.1s0-.1-.1-.1zm.2-.5c-.1 0-.1 0-.1.1s0 .1.1.1.1 0 .1-.1-.1-.1-.1-.1zm.5 2.2v-.1h-.4l.4.1zm.2 7.8c-.2 0-.3.1-.3.3.1 0 .2-.1.3-.3zm-.1-9.7c-.1 0-.1 0-.1.1s0 .1.1.1.1 0 .1-.1c0 0 0-.1-.1-.1zm.1.2c-.1 0-.1 0-.1.1s0 .1.1.1.1 0 .1-.1 0-.1-.1-.1zm.5 10.1s0 .1 0 0l.1.2c.1 0 .1 0 .2-.1l.2-.2-.1-.1h-.2s-.1 0-.1.1c0 0-.1 0-.1.1zm.3 1.1l-.1-.1.1.1zm.1-1.7c-.1 0-.1 0-.1.1s0 .1.1.1.1 0 .1-.1 0-.1-.1-.1zm.4.1c-.1 0-.1 0-.1.1s0 .1.1.1c0 0 .1 0 .1-.1-.1 0-.1-.1-.1-.1zm.8 1.8c-.1 0-.2 0-.3.1h.2s.1 0 .1-.1c.1 0 .1 0 0 0zm17.5-.4h-.6c-.2 0-.5-.1-.7-.2-.3-.1-.5-.2-.7-.3-.2-.1-.4-.3-.4-.4v-.2c-.1-.3-.2-.6-.3-.7-.1-.2-.3-.3-.4-.4-.1-.1-.3-.2-.4-.3s-.2-.2-.3-.4v-.2-.2c0-.1 0-.1-.1-.2h-.3s0 .1-.1.2c0 .1-.1.2-.1.2 0 .1-.1.3-.3.4l-.4.4c-.2.1-.3.3-.4.4-.1.1-.2.3-.2.4v.2s.1-.1.2-.1.2-.1.2-.1l.1.1.1.1v.1c0 .1 0 .2-.1.2h-.2s-.1.1-.1.2c0 0-.1.1-.1.2s-.1.2-.1.2-.1-.1-.2 0h-.3c-.1-.2-.2-.2-.2-.2h-.3c-.1.1-.2.2-.4.3-.2.1-.3.1-.5.2s-.3.1-.5.2c-.1.1-.2.2-.2.3h-1.8c0 .1-.1.2-.1.2h-.2c-.5 0-1-.1-1.5-.3-.5-.2-.7-.6-.7-1.1V25c0-.1.1-.3.2-.5 0 0-.1-.1-.2-.1h-.2-.2c-.1 0-.2.1-.2.1s.1.1.1.2v.4c-.3 0-.4-.1-.6-.2-.1-.1-.2-.3-.3-.5-.1-.2-.1-.4-.1-.7s0-.4-.1-.6c0 0 0-.1-.1-.2 0-.1-.1-.2-.2-.3-.1-.1-.1-.2-.2-.3s-.1-.1-.1-.2 0-.2-.1-.3c0-.1-.1-.3-.1-.5s-.1-.3-.1-.5v-.3s.1-.1.2-.1.1-.1.1-.2 0-.3-.1-.4c-.1-.1-.1-.2-.1-.3 0-.1 0-.2.1-.4.1-.1.2-.2.3-.2h.1l.1.1v.2l.3-.1-.3-.3c-.1 0-.2-.1-.4-.1-.1 0-.2-.1-.3-.1s-.1-.1-.1-.3c0-.1 0-.1.1-.2.1 0 .1-.1.2-.1s.2 0 .2-.1c.1 0 .1-.1.1-.2h1v-.3l-.8-.3V17c0-.4.1-.7.2-.9.1-.2.3-.3.5-.3.2-.1.4-.1.5-.1.2 0 .3-.1.3-.2h-.1c-.1 0-.1-.1-.1-.1v-.1c0-.2.1-.3.2-.4.1-.1.3-.1.4-.2.2 0 .3-.1.5-.1s.3-.1.4-.1v-.2-.2s.1-.1.3-.2l.2-.2v-.2l-.3-.4v-.2s.1-.1.1-.2c.1-.1.1-.1.2-.1h.2l.1.1.1.1h1.2s0 .1.1.2c0 .1.1.1.1.1.3 0 .5 0 .7-.2l.4-.4c.1-.2.3-.3.5-.4.2-.1.4-.2.8-.2.1 0 .2.1.4.2s.5.3.8.5c.3.2.5.4.8.6.3.2.4.3.5.4l.3.3c.1.1.2.3.2.5.1.2.1.3.1.5v.4c.1 0 .2.1.3.2.1.1.1.2.2.3s.1.2.2.3.2.1.3.1v.3c0 .1.1.3.1.4.1.1.1.3.2.4.1.1.1.2.1.3v.2l.1.1h.1v.2c-.2 0-.4 0-.6-.1-.2-.1-.3-.1-.5-.1 0 0 0 .1.1.4s.1.3.2.3h1.2s.1 0 0 .1c0 .1-.1.2-.1.3-.1.1-.1.2-.1.3 0 .1-.1.2 0 .2l.3 1c0 .2.1.2.3.2.1 0 .2.1.3.3 0 0 0 .1-.1.3-.1.1-.1.2-.1.3 0 .1.1.2.2.3.1.1.2.1.3.2.1.1.2.1.2.2s.1.2.1.2l-.1.7s0 .1.1.2.2.1.3.2.2.1.3.2.2.1.2.2v.1c0 .1.1.3.1.5s.1.3.1.4c0 0 .1.1.3.2.2.1.5.2.7.3.3.1.5.2.8.3s.4.2.5.3c-.2 0-.3.1-.3.2v.3c0 .1 0 .2.1.3 0 .1 0 .2-.1.3-.1.1-.3.2-.5.2-.3.1-.7.1-1.2.1-.1 0-.2 0-.3-.1l-.2-.2c0-.1-.1-.2-.1-.3-.1-.4-.1-.5-.2-.6zm-12.2-4.5c.1.1.2.3.3.6.1.3.2.4.3.5.2.1.4.1.5.2.1 0 .2.1.3.1h1.1c.1 0 .2-.1.2-.1l.2-.2c.1-.1.2-.1.4-.2 0 0 .2 0 .4-.1.2 0 .4-.1.4-.1.3-.1.5-.3.7-.7.2-.4.3-.7.4-.9 0-.1.1-.2.3-.2.1 0 .3-.1.3-.1v-.2s-.1-.1-.2-.1-.2-.1-.2-.2l.2-.2.2-.2c.2-.6.3-1.2.4-1.9s.2-1.4.2-1.9c0-.3-.1-.5-.2-.7-.1-.2-.3-.3-.5-.4-.2-.1-.4-.1-.7-.1h-.7c-.1 0-.2.1-.5.2-.2.1-.5.3-.8.4-.3.2-.5.3-.7.4s0 .3-.1.3c0 0 0 .1-.1.3 0 .2-.1.3-.1.3-.1 0-.1 0-.2.1h-.1-.1l-.6.6v.1c0 .1 0 .2.1.2s.1.1.1.3v.4s0 .2-.1.3c0 .1-.1.2-.1.3 0 .1-.1.3-.2.5-.1.3-.2.5-.4.6-.2.1-.3.2-.5.3-.2.1-.3.1-.5.1-.1 0-.2.1-.2.2 0 .2.1.3.2.4.1.1.2.1.4.1.1 0 .3 0 .4.1.1 0 .2.1.3.2l-.3.3s-.1.1-.2.1zm1.9 1.9c.1 0 0 0 0 0-.1-.1-.2 0-.2 0 .1.1.1.1.2 0 0 .1 0 .1 0 0zm.3-.3c-.1 0-.1 0-.1.1s0 .1.1.1.1 0 .1-.1c.1 0 0-.1-.1-.1zm.2-8.3h.2V15h-.2v.1zm1.3 8.3l.2-.2c.1-.1.2-.2.2-.3h-.4v.5zm1.5-11.3c0-.1 0-.1 0 0-.1-.1-.2 0-.2 0h.2zm-.1 10.9h.2v-.1h-.2v.1zm.1.4c-.1 0-.1 0-.1.1s0 .1.1.1.2 0 .2-.1c0 0-.1-.1-.2-.1zm.3-2.2c0 .1 0 .2.1.2h.6l-.2-.6c-.1 0-.2.1-.3.1s-.2.2-.2.3zm.2-9c-.1 0-.1 0-.1.1s0 .1.1.1.1 0 .1-.1c0 0 0-.1-.1-.1zm1.8 10.4h.3v-.3h-.3v.3zm12.9 3.7s-.1.1-.3.2c-.1.1-.2.1-.3.2-.2 0-.4 0-.7-.2-.2-.2-.5-.3-.7-.3-.1 0-.2 0-.2.1l-.1.1c0 .1-.1.1-.1.1-.1 0-.2.1-.4.1V26s-.1 0-.1.1c-.1 0-.1.1-.2.1s-.1-.1-.2-.2-.2-.3-.3-.4c-.1-.1-.2-.3-.2-.4s-.1-.2-.1-.3v-.2l.2-.2c-.2 0-.3 0-.5-.1s-.3-.1-.4-.2c-.1-.6-.2-1.2-.3-1.7s-.1-1.1-.1-1.7v-1.1c0-.4.1-.8.2-1.1 0 0 .1-.2.2-.3.1-.2.2-.3.2-.3v-.1c0-.2 0-.4-.1-.6-.1-.2-.1-.4-.1-.6v-.5-.6c0-.2.1-.4.1-.6 0-.2.1-.3.2-.4V5.4c.2-.2.3-.3.3-.4 0-.1 0-.3-.1-.3-.1-.2-.1-.3-.1-.4 0-.1.1-.2.3-.3s.4-.1.5-.1c.1 0 .2.1.2.2s.1.2.2.2c.2 0 .3-.1.3-.3v-.4c.2 0 .4 0 .6.1s.3.2.3.5c0 .1 0 .2-.1.3-.1.1-.1.2-.2.3v.1l.1.1s.1 0 .1-.1c.1 0 .1-.1.1-.1v.3h.4s.1-.1.1-.2v-.4c0-.1 0-.1-.1-.3 0-.1 0-.2-.1-.3s0-.2-.1-.3l-.3-.2c.1-.1.2-.1.2-.2h.1c.3 0 .5.1.5.4 0 .3.1.5 0 .7.2 0 .4 0 .4-.1.1-.1.1-.2.2-.2 0-.1.1-.2.1-.2 0-.1.1-.1.3-.1l.2.2c.1.1.2.3.3.5.1.2.2.4.2.5.1.2.1.3.1.4 0 .2-.1.5-.2.8-.1.3-.2.6-.2.9 0 .1 0 .1-.1.1h-.1-.1-.1c-.1 0-.1.1-.2.3-.1.1-.2.3-.2.5-.1.2-.1.3-.1.5v.3s0 .1.1.2.1.2.2.2v.2s-.1.1-.1.3c0 .2-.1.3-.1.3 0 .1 0 .1.1.2 0 .1.1.1.1.2 0 0-.1.1-.1.3-.1.2-.1.3-.1.4 0 .1.1.1.2.2.1 0 .2.1.3.1.1.1.2.1.2.2.1.1.1.3.1.5 0 .1 0 .3-.1.4-.1.1-.1.2-.1.4v.2c0 .1 0 .1.1.2h2c.1 0 .1-.1.1-.3h.3c.2 0 .3 0 .4.1 0 .1.1.1.2.1h.1s0-.1.1-.2.1-.1.2-.1h.1c.1 0 .3 0 .3.1s.1.1.2.2l.2.2s.2.1.3.1c.1 0 .2 0 .3-.1 0-.1.1-.1.1-.2s.1-.1.1-.2.2-.1.4-.1c0 .3 0 .5-.1.6-.1.1-.1.2-.2.2-.1.1-.1.1-.2.1s-.1.1-.1.3v.3s0 .1.1.2.1.2.2.2v.2c0 .1-.1.2-.1.3 0 .1-.1.2-.2.3-.1.1-.2.1-.3.1 0 0-.1 0-.2-.1s-.1-.2-.1-.2h-.2l-.1.1-.1.1v.1s0 .1.1.3c0 .2.1.3.1.3V16.5s-.1 0-.2-.1h-.2c-.1 0-.2 0-.3.1s-.1.2-.1.3c0 .1-.1.2-.2.3-.1.1-.2.1-.3.1-.2 0-.5-.1-.7-.2-.2-.1-.4-.2-.7-.2h-.2s-.1 0-.2.1c0 0 0-.1.1-.2 0-.1.1-.2.1-.2l.1-.3c0-.1-.1-.2-.2-.3l-.3-.3c-.1-.1-.2-.2-.2-.3-.1-.1-.1-.3-.1-.4 0-.1 0-.3.1-.5s.2-.3.3-.3l.1.1c.1 0 .1.1.2.1l.1-.1.1-.1c0-.2-.1-.3-.2-.5s-.3-.3-.5-.3h-.3s.1.1.3.1.2.1.3.2v.1c0 .1-.1.2-.3.4-.2.2-.4.3-.5.5-.1.3-.2.5-.3.6l-.3.3-.3.3c-.1.1-.1.3-.1.6-.2-.1-.4-.1-.5-.1h-.2l-.1-.1c0-.1-.1-.2-.2-.3h-.1c-.2 0-.3.1-.3.3 0 .1 0 .2.1.3l.3.3c.1.1.2.2.4.3s.3.1.4 0c-.1.3-.3.5-.5.6-.3.1-.4.2-.6.5 0 .1.1.1.1.1h.4s.1.1.2.1v.4h.2c.1.3.2.6.1.8 0 .2-.1.5-.1.9h.3v.2c0 .1-.1.2-.1.2v1.4c-.1 0-.2.1-.3.1 0 .1-.1.1-.1.2v.4c.1 0 .3 0 .4-.1s.3-.1.4-.2c0 .3.2.6.5.8.3.3.6.5.9.5h.1c.1 0 .1-.1.2-.1h2.4c.2 0 .3.1.3.3.2 0 .4 0 .6-.1.2-.1.4-.1.6-.1h.3c.2 0 .2.1.2.2 0 0 0 .1-.1.2l-.1.1v.8l-.1.1h-.1s-.2.1-.4.1-.3.1-.3.1c-.2.1-.3.2-.3.3-.1.1-.1.2-.1.2 0 .1-.1.1-.2.1h-1l-.2-.2-.3.3.2.2s-.1 0-.2.1-.2.1-.2.1h-.2c-.1 0-.2-.1-.4-.1-.1-.1-.3-.1-.4-.1-.1 0-.3-.1-.4-.1-.1 0-.2-.1-.2-.1l-.2-.2c-.2.3-.2.2-.4.2zm-4-5.7h.2v-.3l-.2.3zm.2-14.5c0 .1.1.2.3.2.1 0 .2 0 .4-.1.1-.1.2-.1.4-.1v-.5c-.2 0-.4.1-.6.2-.2.1-.4.3-.5.3zm.3 14.2v.3c0 .1 0 .1.1.2.2 0 .3 0 .3-.1v-.3-.4c0-.2-.1-.3-.2-.3s-.2.1-.2.2v.4zm.8-15.9c-.2 0-.4.1-.5.2-.2.1-.3.3-.3.5.3 0 .5 0 .6-.1s.2-.3.2-.6zm0 2.5c-.1 0-.2.1-.2.1v.2l.1.1.3-.3-.2-.1zm-.3 5.9c0 .1.1.3.2.4.1.1.3.2.4.2 0-.1-.1-.3-.2-.4 0-.2-.2-.2-.4-.2zm.3 6.9l.1-.2-.1-.2-.2.2.2.2zm0-9.7c-.1 0-.1 0 0 0-.1.1 0 .2 0 .2.1-.2.1-.2 0-.2zm.2 11.3c-.2 0-.3.1-.3.4.2 0 .3-.1.3-.4zm-.2-9.2l.1-.1h-.1v.1zm0 6.4v-.1.1zm0 1.7l.1-.2h-.1v.2zm0 4.2h.2v-1.2l-.2.1v1.1zm.2-20.4c-.1 0-.2.1-.2.2s.1.2.2.2.1-.1.1-.2 0-.2-.1-.2zm.1 2.4c.3.2.4.3.5.5.1.2.2.3.4.4l.3-.3.3.3.4-.4c0-.1-.1-.2-.3-.2-.2 0-.3.1-.3.1 0-.1 0-.2.1-.3.1-.1.1-.2.2-.3.1-.1.1-.2.2-.3.1-.1.1-.2.1-.4-.2 0-.4 0-.6.1-.2.1-.4.1-.6.1-.1 0-.2-.1-.2-.2-.1 0-.2.1-.3.3-.2.3-.3.4-.2.6zm.1 1.3c-.1 0-.1 0 0 0v.2c0-.1.1-.1 0-.2.1 0 0 0 0 0zm.2.9l.2-.2h-.4l.2.2zm-.2 13.5h.5V22l-.1-.1-.4.2zm1.5-14.2c-.1 0-.3.1-.4.2-.2.1-.3.2-.5.4l-.4.4c-.1.1-.1.3-.1.5 0 0 .1-.1.3-.2.2-.1.3-.3.5-.5l.5-.5s.2-.3.1-.3zm-1.3 2.2h.2l-.2-.2v.2zm.1 10.3c0 .1 0 .3.1.3.1.1.2.1.3.1v-.4c0-.2-.1-.3-.3-.3l-.1.1v.2zm.2-10.6l.1-.1-.1.1zm.1 2.8c.1 0 .2.1.4.2.1.1.3.1.3.1l.1-.1.1-.1c.1-.1.1-.1.1-.2.1-.1.2-.3.4-.5 0-.1 0-.3-.1-.4-.1-.1-.2-.2-.3-.2h-.3c-.1 0-.3 0-.4.1-.1 0-.3.1-.4.1-.1.1-.1.1-.1.3s0 .2.1.2l.1.1c.1 0 .1 0 .1.1 0 0 .1.1.1.2v.1l-.1.1c0-.1-.1-.1-.1-.1zm0 1.9s.1 0 .1.1H259.9l.1-.1v-.1c-.1-.1-.1-.2-.2-.2h-.1c-.1 0-.2.1-.2.2v.1zm.2.6c.1.1.1.1.1.2h.2c-.1-.2-.2-.2-.3-.2 0-.1 0 0 0 0zm.3 10.6c-.1 0-.2 0-.2.1s.1.1.2.1.2 0 .2-.1c-.1-.1-.1-.1-.2-.1zm0-9.7c-.1 0-.1 0 0 0-.1.2 0 .2 0 .1V16zm0 5.9c-.1-.1-.1-.1 0 0-.1.1 0 .1 0 .1v-.1zm.2-11.8c-.1 0-.2 0-.2.1s.1.1.2.1.1 0 .1-.1-.1-.1-.1-.1zm.2-.4s0-.1-.1-.1-.2 0-.1.1c0 0 0 .1.1.1l.1-.1zm-.1 6v-.3l-.1.1.1.2zm0-8.2c-.1 0-.1.1-.1.2s0 .2.1.2c0 0 .1-.1.1-.2s-.1-.2-.1-.2zm.1 6c0 .1 0 .2.1.3.1.2.2.3.3.3.1 0 .2-.1.3-.2v-.3c0-.1 0-.3-.1-.4 0-.1-.1-.1-.3-.1-.2.1-.3.2-.3.4zm0 10.5h.2v-.1l-.2.1zm.2-9.3s0 .1 0 0c.1.2.2.3.2.5l.1.2h.2c0-.2 0-.3-.1-.5s-.2-.3-.4-.2zm.4 10.4c-.1 0-.1 0-.1.1s0 .1.1.1.2 0 .2-.1-.1-.1-.2-.1zm.6-19.9c-.1 0-.2.1-.4.2s-.2.2-.2.4V6l.4-.4c.1-.1.2-.2.2-.4zm.5 19.4c-.1 0-.1 0-.1.1s0 .1.1.1.1 0 .1-.1 0-.1-.1-.1zm.8-9.8c0 .2.1.4.3.4V15s0-.1-.1-.2-.1-.2-.1-.2c0-.1-.1 0-.1.2zm.2 1.3h.2c0-.1-.1-.2-.2-.3v.3zm.7-1.6c-.1 0-.2 0-.2.1s.1.1.2.1.1 0 .1-.1 0-.1-.1-.1zm.5 11.4c-.2 0-.3.1-.3.3h.1c.1 0 .2 0 .2-.1v-.2zm0-1.5c-.1 0-.1.1-.1.2s0 .2.1.2.1-.1.1-.2 0-.2-.1-.2zm.1-9.2H264.7l.1-.1s0-.1-.1-.2c0-.1-.1-.2-.1-.2l-.2.5zm.5.6l.1-.2-.1-.2v.4zm.6-1.2h.1s.1-.1.1-.2h-.5l.3.2zm12 12.3s-.1.1-.1.2v.2c0-.1 0-.1-.1-.1h-.6s-.1 0-.3-.1-.3-.1-.4-.2h-.1l-.1-.1h-.2l-.1.1h-.2v-.2c0-.1-.1-.2-.1-.2s-.1-.1-.3-.1c-.2 0-.3-.1-.3-.1V26l-.5.3-.1-.1c-.1-.1-.1-.1-.1-.2v-.3c0-.1 0-.2-.1-.2s-.2.1-.2.2v.2s0 .1-.1.2c0 .1-.1.1-.3.1-.4 0-.6-.1-.7-.2-.1-.1-.2-.2-.2-.4v-.4c0-.1-.1-.2-.2-.3 0 0-.2 0-.3-.1s-.3 0-.4 0l.2-.3c-.2 0-.4-.1-.5-.2-.1-.1-.3-.2-.4-.4-.1-.2-.2-.3-.3-.5-.1-.2-.2-.3-.3-.5l-.2-.2c-.1-.1-.1-.2-.2-.3-.3-.3-.4-.6-.5-.9-.1-.2-.1-.5-.3-.9l-.1-.1-.1-.1c0-.1 0-.3-.1-.5v-.7c0-.1 0-.3.1-.4 0-.1.1-.3.1-.4v-.2s0-.1-.1-.1c0-.1-.1-.1-.1-.1v-.6-.5c0-.2.1-.5.1-.7 0-.2.1-.5.2-.6.1-.2.2-.3.3-.3 0 .1 0 .2-.1.3 0 .1-.1.2-.1.2h.4c.2 0 .3 0 .3-.1 0 0 .1-.1.1-.3 0-.1.1-.2.1-.2h.1v.3h.4l.1-.1.1-.1h.3c.1 0 .2-.1.2-.1V15c0-.2-.1-.5-.2-.7-.1-.2-.2-.4-.2-.7.1 0 .2 0 .3.1.1 0 .2.1.4.1.1 0 .2 0 .2-.1s-.1-.2-.2-.2-.2 0-.3-.1v-.1c0-.1 0-.2.1-.3.1-.1.1-.2.2-.3h.8c.2 0 .3.1.3.2 0 0 0 .1-.1.1 0 .1-.1.1-.1.1v.1c.2 0 .4 0 .6-.1.2 0 .4-.1.5-.3 0 0 .1-.2.1-.4s.1-.3.2-.3c0 .2.1.3.3.3h.2c.1 0 .2 0 .2-.1v-.2l-.1-.1h-.4s.1 0 .1-.1v-.1-.2c0-.1-.1-.1-.1-.1h.2s.1 0 .2.1.2.1.2.1.1 0 .3.1c.2 0 .3.1.3.2 0 .2.1.3.1.5s.1.3.3.5h.2v-.3h.1l.1.1.1.1h.4c.2 0 .3-.1.3-.1v-.1c0-.1-.1-.2-.2-.2s-.2-.1-.3-.1v-.1s.1-.1.1-.2l.1-.1s.1 0 .3.1.2.1.3.2c.2 0 .4-.1.4-.2 0-.2.1-.3.3-.4 0 0 .1.1.2.3.1.1.1.2.2.3l.1.1c0 .1 0 .1.1.1h.1s.1 0 .1-.1h.1v-1l.2-.1v.7c.1.3.1.5.2.7l.2-.1v-1.2H279.5c.1 0 .1 0 .1.1 0 0 .1.2.1.4v.4h.1l.1-.1c.1-.1.1-.1.1-.2h1.1s-.1.1-.1.3c-.1.1-.1.2-.1.3v.1c0 .1.1.1.1.1s.1.1.3.1h.3c0 .1-.1.1-.1.1h-.2c-.1 0-.2 0-.3.1-.1 0-.2.1-.2.3 0-.1 0-.2-.1-.3 0-.2-.1-.3-.1-.3v-.2c0-.1 0-.1-.1-.2l-.1-.1h-.2c0 .3 0 .5.1.7s.1.4.1.6h-.2l-.1.1.4.4V14l-.1-.1v-.1-.1l.1-.1h.1c.1 0 .2.1.3.2v.4c.1-.2.1-.3.3-.4.1 0 .3-.1.5-.1v.6h.5c.1 0 .2 0 .4.1h-.1c-.1 0-.1 0-.1.1v.1c0 .2.1.3.3.3.2 0 .4.1.5.1 0 0 0 .1-.1.2 0 .1-.1.1-.1.1h-.1-.1-.1l-.1-.1-.1-.1h-.1c-.1 0-.1.1-.1.1.2.2.4.5.6.8-.1.1-.2.1-.3.1h-.4v.2s.1.1.1.2.1.1.1.2l.2.2.2.2c0 .1 0 .2-.1.3-.1.1-.1.2-.2.2 0-.1-.1-.2-.3-.2h-.1l-.1.1c.1 0 .1.1.1.2v.2c0 .1 0 .2-.1.3-.1.1-.1.1-.2.1h-.6c-.1 0-.2.1-.1.3.1.1 0 .2-.1.3-.1-.1-.1-.2-.2-.2h-.2c-.2 0-.4.1-.4.2-.1.1-.1.2-.3.2l-.3-.1s-.1-.1-.2-.1-.1-.1-.2-.1l-.1.1.1.1c-.1.1-.1.2-.2.4s0 .2-.1.3c0 .1-.1.2-.1.3s-.2.2-.3.2c.1-.1.1-.3 0-.4s-.2-.2-.3-.2c-.1 0-.2 0-.2.1s-.1.2-.1.3v-.1-.1-.1-.1s0-.1.1-.2c0-.1.1-.2.1-.2 0-.1 0-.1-.1-.1h-.2c-.1 0-.2 0-.4.1s-.3.2-.3.3v.1s.1.1.2.1c.1.1.2.1.2.1V20.6l.1.1v.1c-.2.1-.3.2-.4.3-.1.1-.2.1-.3.2-.1 0-.2.1-.2.1 0-.2.1-.3.2-.4.1-.1.2-.2.2-.4s0-.3-.1-.3h-.3v.4c0 .1-.1.2-.2.4 0 .1-.1.2-.1.3h-.1v-.3c0-.1-.1-.2-.3-.2-.1 0-.2 0-.5.1-.2.1-.4.1-.5.1 0 0-.1 0-.1.1l-.1.1h-.2c0-.2-.1-.4-.3-.6h-.1v.6c-.1 0-.2-.1-.3-.3 0-.2-.1-.3-.3-.3v.6s0 .1.1.3c.1.1.1.2.2.2l.2.1c.1 0 .2.1.3.1.3.1.6.1.8.2.3.1.5.1.8.2.2.1.5.1.7.2.3 0 .5.1.7.2.1 0 .2.1.3.1.1.1.2.1.2.1s0 .1.1.2c0 .1 0 .2.1.2 0 0 .1 0 .2.1.1 0 .2.1.3.1h.1c.1 0 .2 0 .3-.1.1 0 .2-.1.3-.1.2 0 .4 0 .6.1s.4.1.6.1c0 .2 0 .3.1.3h.3c.2 0 .3 0 .3-.1s.1-.1.2-.1.1 0 .2.1v.2s.1.1.2.1.2-.1.2-.2 0-.2.2-.2H283.1c.1 0 .1.1.1.2s.1.2.2.2l.6-.6h1.1l-.1.1c.1.1.2.2.4.2s.4.1.5.2l-.3.2v1.1c0 .1 0 .2-.1.2h-.2v.2h.3v.6h-.1-.1-.1s-.1-.1-.3-.2-.2-.1-.3-.1h-.1v.2h.2v.1c0 .1 0 .2-.1.3s-.2.1-.3.1h-.2s-.1 0-.4-.1c-.2 0-.3 0-.4-.1h-.2l-.1.1v.1h-.4v-.4c-.4 0-.8.2-1.1.4v-.6h-.2s0 .1-.1.2v.2h-.6l-.2.2s0-.1-.1-.1c0 0-.1 0-.3-.1h-.2v-.2s.1-.1.1-.2h-.4l-.1.1-.1.1h-.6V26s0 .1-.1.1c0 0 0 .1-.1.1h-.1s-.1 0-.1-.1l-.1-.1h-.1c-.1.1-.2.2-.2.3 0 .1-.1.2-.1.3 0 .1-.1.2-.1.3 0 .1-.1.1-.2.1s-.2 0-.2-.1v-.2-.2c.4.4.4.4.1.4zM269 16.2c-.1 0-.1 0-.1.1s0 .1.1.1c0 0 .1 0 .1-.1s-.1-.1-.1-.1zm1.1 1.1c-.1 0-.1 0-.1.1s0 .1.1.1c0 0 .1 0 .1-.1s-.1-.1-.1-.1zm.1-.7c-.1.1-.1.2-.1.3.1 0 .2-.1.3-.2l-.2-.1zm0 2.2c0-.1 0-.1 0 0-.1-.1-.1-.1 0 0-.1 0-.1 0 0 0zm.5-3c-.1 0-.2.1-.2.2s-.1.2-.1.3c0 0 .1 0 .3-.1.1-.1.2-.1.2-.2v-.1s0-.1-.2-.1c.1 0 0 0 0 0zm.1.5s-.1 0-.1.1 0 .2.1.1l.1-.1c0-.1 0-.1-.1-.1zm.8 3.7v.2s.1 0 .1.1l.1.1c.1 0 .1-.1.1-.2v-.3c0-.1 0-.3-.1-.4-.1-.1-.1-.2-.1-.4 0-.1 0-.2.1-.3.1-.1.1-.1.2-.1h.1s0 .1.1.1.1.1.1.1h.2s.1 0 .1-.1l.1-.1h.3c.1 0 .2 0 .2-.1 0 0 0-.1.1-.2 0-.1 0-.2.1-.2 0 0 .1 0 .2-.1.1 0 .2-.1.3-.1h.1s.1 0 .2.1c.1 0 .2.1.2.1.1 0 .3-.1.5-.2s.4-.2.5-.3c0 .2.1.3.1.4.1.1.2.1.3.1h.3c.1 0 .2-.1.3-.1l.2-1c.1 0 .3-.1.5-.2s.4-.1.5-.1h.1s.1.1.2.1c.1.1.2.1.2.1h.2l.1-.1v-.1s0-.2.1-.3v-.4h.4c.2 0 .4-.1.4-.1.1 0 .2 0 .4-.1h.3v-1c0 .1 0 .1.1.1l.3.3c.1.1.1.1.2.1l.1-.1c-.2-.3-.3-.5-.3-.7-.1-.2-.2-.4-.5-.7-.1-.1-.3-.2-.5-.4s-.4-.2-.6-.2c-.2 0-.4.1-.6.2-.2.1-.3.2-.5.4-.2.1-.4.3-.6.4-.2.1-.5.2-.7.2h-.1s-.1 0-.3-.1l-.2-.1h-.2v.2c0 .1-.1.2-.1.2l-.3.3s-.1 0-.1.1h-.1l-.1.1-.1.1h-.6s0 .1-.1.2V15.8s-.1 0-.1.1l-.1-.1c-.6.4-1 .9-1.1 1.6-.1-.1-.2-.1-.3.1-.1.1-.1.2-.2.3 0 0 0 .1-.1.3 0 .1-.1.2-.1.3h-.2l-.3-.6V18.1c0 .2 0 .3.1.4.1.1.1.2.1.4v.2-.1s-.1.1-.2.1h-.2v.9h-.3v.2c.1 0 .2 0 .3-.1 0-.1.1-.1.2-.1zm-.3.7c-.1 0-.1 0 0 0-.1.1-.1.1 0 0 0 .1 0 .1 0 0zm-.1-6l.1.1h.6c0-.2-.1-.3-.2-.3h-.1-.2c-.1.1-.2.1-.2.2zm.4.3c-.1 0-.1 0-.1.1s0 .1.1.1c0 0 .1 0 .1-.1-.1 0-.1-.1-.1-.1zm0-1.8c0 .2.1.3.2.4.1.1.3.1.4.1 0-.2 0-.4-.1-.4s-.2-.1-.5-.1zm.3 8.3s-.1 0-.1.1 0 .1.1.1.1 0 .1-.1 0-.1-.1-.1zm.3-1.5c-.1 0-.1 0-.1.1s0 .1.1.1.1 0 .1-.1 0-.1-.1-.1zm0-5.8c0 .1 0 .1.1.1s.1-.1.1-.2v-.2h-.2v.3zm0 2c0 .1 0 .1.1.1v-.1c0-.1 0-.1-.1 0V16v.2zm.5 8.9c-.1 0-.1 0-.1.1v.2c.1 0 .2-.1.3-.1.1 0 .2-.1.2-.3l-.2-.2c-.1-.1-.2-.1-.2-.1l-.1.1v.2s0 .1.1.1c-.1-.1 0 0 0 0zm-.1.5c-.1 0-.1 0-.1.1s0 .1.1.1.1 0 .1-.1-.1-.1-.1-.1zm0-10.6h.1v-.4h-.1v.4zm.1 4.5s0-.1 0 0c-.1-.1-.1 0-.1 0s0 .1.1 0c0 .1 0 0 0 0zm0 6.3s-.1 0 0 0c-.1.1 0 .2 0 .2.1-.1.1-.1 0-.2zm.1-11.5c0-.1 0-.1 0 0-.1-.1-.1-.1 0 0-.1 0-.1 0 0 0zm-.1 10h.2v-.1l-.2.1zm.3 1.6c.1 0 .1 0 0 0-.1-.1-.1 0-.1 0 0 .1.1.1.1 0 0 .1 0 .1 0 0zm.2-.5c-.1 0-.1 0-.1.1s0 .1.1.1.1 0 .1-.1l-.1-.1zm0-3h.1v-.1h-.1v.1zm.1-8.9c-.1 0-.1 0-.1.1s0 .1.1.1.1 0 .1-.1c0 0 0-.1-.1-.1zm.1.2c-.1 0-.1 0-.1.1s0 .1.1.1.1 0 .1-.1 0-.1-.1-.1zm.2 1.6c-.1 0-.1 0-.1.1s0 .1.1.1.1 0 .1-.1-.1-.1-.1-.1zm0 9.6h.3l-.1-.1h-.2v.1zm.2-11.4v.2c0 .1.1.1.1.2h.2l.4-.1v-.1c0-.1 0-.2-.1-.3s-.2-.2-.3-.2c0 0-.1.1-.1.2-.2 0-.2.1-.2.1zm.6 11.4c-.1 0-.2 0-.3.1-.1 0-.1.1-.1.2h.4v-.3zm.3-.1v.2l.1.2h.2v-.8c-.2.1-.3.2-.3.4zm.1-11.3s-.1 0-.1.1 0 .1.1.1.1 0 .1-.1l-.1-.1zm0 1.4s-.1 0-.1.1 0 .1.1.1.1 0 .1-.1l-.1-.1zm.2-2c-.1 0-.2.1-.3.2h.3v-.2zm-.1 1.9c0-.1.1-.2.1-.3v-.3-.2s0-.1-.1-.2v1zm.4 6l-.2-.1.2.1zm.4 3.1c-.1 0-.1 0-.1.1s0 .1.1.1.1 0 .1-.1-.1-.1-.1-.1zm.1-3.5c0-.1 0-.1 0 0-.1-.1-.1 0-.1 0 0 .1 0 .1.1 0zm0 5.8c0-.1 0-.1 0 0-.1-.1-.1 0-.1 0 0 .1 0 .1.1 0zm0-12.3c.1.1.2.2.2.3.1.1.2.1.3.1h.2s.1 0 .1-.1l-.1-.1s0-.1-.1-.1h-.2l-.2-.1-.1-.1c0-.1 0-.1-.1-.1h.2-.1l-.1.2zm.5 10.6s0-.1-.1-.1-.1 0-.1.1h.2c-.1 0 0 0 0 0zm.3.1c.1 0 .2 0 .3-.1h-.3v.1zm.4-6.3h.1v-.1h-.1v.1zm.3.8V19h-.1l.1.1zm-.1-1.8v.3c0 .1.1.2.1.4 0 .1.1.2.2.3s.1.1.3.1l.1-.1.1-.1v-.3-.3c-.1 0-.2 0-.3.1 0-.1-.1-.2-.2-.3s-.2-.1-.3-.1zm.5-4.3v.2c0 .1.1.2.1.2.1 0 .1 0 .1-.1v-.1c0-.1 0-.1-.1-.2 0 .1 0 0-.1 0zm.1 5.8h.1v-.2h-.1v.2zm.2 5.7c.2.1.4.3.5.4h.1l.1-.1v-.3-.3c-.1 0-.2 0-.3.1-.2.2-.3.2-.4.2zm0 2.2h.2c0-.1-.1-.2-.2-.3v.3zm.4-1.5v.3c0 .1.1.2.3.2h.1c0-.1-.1-.2-.1-.4-.1-.1-.2-.1-.3-.1zm.1-6.3v.3c0 .1.1.2.2.2s.2-.1.2-.2v-.3h-.4zm.1 1v-.3l-.2.1.2.2zm0-3.2c0 .1 0 .1.1.1l.1.1c0-.2.1-.3.3-.3h.4c0-.1-.1-.1-.2-.1h-.2-.3c-.1 0-.2.1-.2.2zm1 .2s-.1 0-.2.1c-.1 0-.1.1-.1.1h.4l-.1-.2zm-.2-3.4h.2v-.1h-.2v.1zm.2 13s-.1 0-.1.1 0 .1.1.1.1 0 .1-.1c0 0 0-.1-.1-.1zm.4-7.5l.2-.1h-.3l.1.1zm0-1.5s-.1 0-.1.1 0 .1.1.1.1 0 .1-.1 0-.1-.1-.1zm.1-.5s0-.1 0 0c-.1-.1-.2 0-.2 0 .1.1.1.1.2 0 0 .1 0 .1 0 0zm-.1 1.5h.2v-.1h-.2v.1zm.5.4c0-.1 0-.1 0 0-.1-.1-.1 0-.1 0h.1zm-.1-.8h.1V18l-.1.1zm.1-1.9c-.1 0-.1 0-.1.1s0 .1.1.1.1 0 .1-.1 0-.1-.1-.1zm.1.4c0 .2.1.4.2.6.1.1.2.3.3.5.1-.1.1-.1.1-.2v-.1-.2-.2c0-.1-.1-.3-.1-.3-.2-.1-.3-.1-.5-.1zm.4 1.8c-.1 0-.1 0-.1.1s0 .1.1.1c0 0 .1 0 .1-.1s-.1-.1-.1-.1zm.1-3.1s-.1 0-.1.1 0 .1.1.1l.1-.1-.1-.1zm.1-.5c-.1 0-.1 0-.1.1s0 .1.1.1.1 0 .1-.1 0-.1-.1-.1zm.5 2.2v-.1h-.4l.4.1zm.2 7.8c-.2 0-.3.1-.3.3.1 0 .3-.1.3-.3zm0-9.7c-.1 0-.1 0-.1.1s0 .1.1.1.1 0 .1-.1l-.1-.1zm.1.2c-.1 0-.1 0-.1.1s0 .1.1.1.1 0 .1-.1-.1-.1-.1-.1zm.5 10.1s0 .1 0 0l.1.2c.1 0 .1 0 .2-.1l.2-.2-.1-.1h-.2s-.1 0-.1.1c-.1 0-.1 0-.1.1zm.2 1.1l-.1-.1.1.1zm.1-1.7c-.1 0-.1 0-.1.1s0 .1.1.1.1 0 .1-.1 0-.1-.1-.1zm.4.1c-.1 0-.1 0-.1.1s0 .1.1.1c0 0 .1 0 .1-.1 0 0 0-.1-.1-.1zm.9 1.8c-.1 0-.2 0-.3.1h.2l.1-.1s.1 0 0 0zm22.6-3.8c0-.1 0-.3.1-.3.1-.1.1-.1.1-.3 0-.1 0-.2-.1-.4 0-.1-.1-.2-.1-.3v-.3s0-.1.1-.1c0-.1.1-.1.1-.1s-.1-.1-.1-.2c-.1-.1-.1-.1-.2-.1v-.4-.4-.7c0-.3 0-.5.1-.7 0-.1.1-.3.2-.4.1-.1.1-.2.1-.4 0-.1-.1-.2-.3-.2l-.1.1h-.2c-.3 0-.4.1-.5.2-.1.1-.1.1 0 .2v.2c0 .1 0 .1-.2.1l-.2-.2c-.1-.1-.1-.2-.2-.2h-.1c0 .1 0 .2-.1.3 0 .1-.1.2-.1.3l-.1-.1h-.1s-.1 0-.1.1l-.1.1h-.2-.1s-.1-.1-.3-.2l-.2-.2h-.1c-.1 0-.2.1-.2.2s-.1.2-.2.2h-.1s-.1 0-.1-.1-.1-.1-.1-.1-.1 0-.2.1-.1.1-.2.1l-.4-.2-.4-.2-.1-.1c.1 0 .1-.1.1-.2s-.1-.2-.3-.4c-.1 0-.1.1-.2.2 0 .1-.1.2-.1.2v.5h-.1c-.1 0-.2 0-.3-.1-.1 0-.2-.1-.3-.1 0-.1.1-.2.3-.1s.2-.1.2-.2c0-.2-.1-.4-.2-.5-.1-.1-.2-.3-.2-.4v-.2c0-.1.1-.2.2-.1v.4s0-.1.1-.1v-.2-.2-.2c-.1 0-.2.1-.4.2s-.2.2-.2.3c-.1 0-.1-.2-.2-.4s-.1-.4 0-.4c0 0 0-.1.1-.1s.1-.1.1-.1l.2.2c.1 0 .1-.1.1-.1v-.2-.2s.1-.1.2-.1h.1l.1.1.1.1h.1c.1 0 .1 0 .2-.1h.1c.1 0 .2 0 .3.1.1.1.3.1.4.2.2 0 .3.1.4.1 0 0 .1.1 0 .1v.1s0 .1.1.1c0-.3.1-.4.4-.4h.7v-.1s0-.1-.1-.2c0-.1 0-.2-.1-.2V15h.2c0 .1.1.2.1.3 0 .1.1.2.2.2s.2 0 .3-.1c.1-.1.2-.1.4-.1.1 0 .2 0 .3.1 0 .1.1.1.2.1v-.2c0-.1 0-.1.1-.1h.1l.1.1.1.1c.1-.1.2-.2.2-.3v-.3-.2c0-.1-.1-.1-.2-.1 0-.1.1-.1.1-.1h.4s.1 0 .1-.1c0 0 0-.1-.1-.2 0-.1-.1-.2-.1-.3-.1-.1-.1-.2-.2-.3s-.1-.1-.2-.1v-1c.1 0 .2.1.2.3 0 .1 0 .2.1.3.1 0 .2-.1.2-.2v-.3c0-.2-.1-.3-.2-.4h.5c.2 0 .3-.1.3-.4.1-.3.2-.4.3-.5v-.7c.1.1.1.1.2.1 0 0 .1 0 .1-.1 0 0 .1-.1.1 0 .1 0 .1.1.2.2s.1.2.1.3h-.3s-.1.1-.1.3v.2l.3-.2h.1v.5H308.1c.2 0 .3.2.3.6.1.3.1.7.1 1.1 0 .4.1.8.1 1.1.1.3.2.5.3.5.1 0 .2 0 .2-.1H309.9s.1 0 .1-.1h.2l.2.2.2.2c-.1-.2-.1-.3.1-.5s.3-.2.5-.2h.2s.1 0 .1.1v.2c.1 0 .2-.1.2-.2s.1-.1.1-.2c.1.2.3.3.5.3s.4-.1.5-.2c.1-.1.3-.2.5-.2h.2l.1.2h.2v-.3c.1.1.1.1.3.1h1s0 .1-.1.1c0 0 0 .1-.1.1v.1c.1 0 .2 0 .2-.1s.1-.1.3-.1v.4h.6c.1 0 .2 0 .2-.1 0 0 .1-.1.2-.1h.1v.2l.1.1c.1 0 .1.1.1.1l-.1.2s0 .1-.1.2 0 .1-.1.2h.5c0 .1 0 .2-.1.2 0 .1-.1.1-.1.2.1 0 .1.1.2.1s.1 0 .2.1h-.1c-.1 0-.1.1-.1.1v.4c0 .2.1.3.1.3v.1s-.1.1-.2.1h-1.5s-.1-.1-.2-.1c-.1-.1-.1-.1-.2-.1H314.6s-.1 0-.1.1h-.2c-.2 0-.4 0-.5-.1-.1-.1-.3-.1-.4-.1v.1c-.3 0-.4.1-.4.4h-.1l-.1-.1-.1-.1s-.1 0-.1.1-.1.1-.1.1c-.1 0-.2 0-.3-.1-.1-.1-.1-.2-.1-.3 0-.1-.1-.2-.1-.3 0-.1-.1-.2-.2-.2h-.1v.2c0 .1.1.1.1.1h-.2s-.1 0-.2-.1-.1-.1-.2-.1l-.2.5c0-.1-.1-.2-.1-.2h-.2c-.2 0-.3 0-.5.1s-.2.2-.2.4l-.1-.1v-.1c0-.2.1-.4.3-.5s.3-.3.4-.5c0 0 0-.1-.1-.1h-.1s-.1.1-.1.2l-.1.1h-.2c-.1 0-.1.1-.1.2v.6c0 .1-.1.1-.2.1s-.1 0-.1-.1 0-.1-.1-.1-.2.1-.3.2c-.1.1-.1.3-.1.5s-.1.4-.1.6c0 .2-.1.3-.1.4l-.1.1h-.1v-.5H308.8c-.2 0-.3.1-.4.2 0 .1-.1.2-.1.4h.3c.1 0 .1.1 0 .3.1 0 .2-.1.3-.1s.2-.1.2-.2c.1.3.2.5.3.9v1.4c-.1.1-.2.2-.2.4-.1.2-.1.3-.2.5 0 .2-.1.3-.1.4 0 .1-.1.2-.1.2h-.6c-.1 0-.2.1-.2.3 0 .2-.1.3-.2.3l-.4-.4c-.1-.1-.3-.2-.4-.2v.5s-.1.1-.4.2c0-.2-.1-.3-.1-.4s.2-.1.2-.3zm-4.9-7.3c-.1-.1-.1 0-.1 0 0 .1 0 .1.1 0zm-.2.8h.1v-.2h-.1v.2zm.5.8c.1 0 .2-.1.2-.3h-.2v.3zm1.3-1.3l.1.1-.1-.1zm1.3 2.1c-.1.1-.2.2-.2.3v.1c.1-.1.2-.2.2-.4zm2.1-4.7c0 .1 0 .2.1.2h.4s.1-.1.1-.2 0-.1-.1-.2-.1-.1-.2-.1h-.1l-.2.3zm.1 8.4c0 .1.1.2.1.3.1.1.2.1.3.1v-.5c0-.2-.1-.4-.2-.5v.3c0 .2-.1.2-.2.3zm.1-1.1zm.4-9.1v.2s.1 0 .1-.1l-.1-.1zm.3-.9s.1 0 0 0c.1-.1 0-.1 0 0zm.3 2.1zm.2-.8c0 .1 0 .2.1.2l.2-.2h-.3zm.4.6c0 .1 0 .1 0 0 .1.1.1.1 0 0 .1 0 .1 0 0 0zm.1 5.7c.1 0 .1-.1.1-.2v-.2h-.1v.4zm.2-3.6s-.1 0 0 0c-.1.2 0 .2 0 .2.1 0 .1 0 0-.2.1 0 .1 0 0 0zm.4 6.5c-.1 0-.1 0 0 0-.1.1-.1.1 0 0 0 .1 0 .1 0 0zm2.6-4.8c-.1.1 0 .1 0 .1.1 0 .1-.1 0-.1zm.7-.9s-.1 0-.1.1 0 .1.1.1c0 0 .1 0 .1-.1s-.1-.1-.1-.1zm.5 1.8s-.1 0-.1.1 0 .1.1.1c0 0 .1 0 .1-.1s0-.1-.1-.1zm.2-2.2v.2s0 .2.1.2.2-.1.3-.2c.1-.1.1-.2.1-.3 0-.1-.1-.2-.2-.2h-.1s-.1 0-.1.1v.2zm1.1 1.9s-.1 0-.1.1 0 .1.1.1.1 0 .1-.1-.1-.1-.1-.1zm1.9-.9zm19.3 11.9c-.1-.2-.1-.4-.1-.6 0-.2.1-.3.2-.3.1-.1.2-.2.2-.3 0-.1 0-.3-.1-.4s-.1-.2-.2-.3h.1c.2 0 .3.1.3.2s.1.2.2.2h.1c0-.3 0-.6.1-.8.1-.2.2-.5.3-.7.1-.2.2-.4.3-.7.1-.2.1-.5.1-.8.1 0 .1 0 .2.1s.1.1.2.1c.3 0 .6 0 .9-.1l.9-.3.3 1s.1-.1.1-.2.1-.2.1-.3c0-.1.1-.2.1-.3v-.2c.2-.2.4-.3.6-.4.2-.1.4-.2.6-.2h.2l-.3.3c0 .1.1.2.1.4 0 .1.1.2.1.2.1 0 .3-.1.3-.2.1-.1.2-.2.2-.4s.1-.3.2-.5.1-.3.2-.4c.1-.1.2-.1.3-.2s.2-.1.3-.1c.1 0 .2-.1.2-.1.1-.1.1-.1.1-.3 0-.2-.1-.3-.2-.4-.2-.1-.3-.2-.5-.2-.1 0-.2 0-.2.1s-.1.1-.1.1h-.1c0-.3-.1-.6-.1-.8 0-.3-.1-.6-.2-.8h-.2-.2c-.1 0-.1.1-.1.1h-.2V19c0-.2-.1-.4-.1-.4-.1-.3-.3-.3-.5-.3s-.4.1-.6.1v.2c-.3 0-.5-.1-.8-.4-.3-.2-.4-.5-.4-.8l-.1.1c-.1 0-.1.1-.2.1l-.1-.1-.1-.1c-.1-.2-.2-.3-.2-.4v-.5c-.1.1-.2.2-.3.2s-.2.1-.4.1-.3-.1-.3-.3c0-.2.1-.4.1-.6-.1 0-.2 0-.4-.1-.2 0-.3.1-.3.3 0 0 0 .1.1.2s.1.2.1.2 0 .1-.1.2-.1.2-.2.2h-.2s-.1-.1-.1-.2 0-.2-.1-.2c0 0-.1 0-.2-.1-.1 0-.2 0-.2-.1-.3-.2-.5-.4-.6-.6-.1-.3-.2-.5-.2-.8v-.7-.3l-.4.1h-.1s0 .1-.1.1c0 .1-.1.1-.1.1h-.1c0-.3 0-.5-.1-.6-.1-.1-.2-.3-.3-.4-.1-.1-.3-.2-.4-.3-.1-.1-.2-.3-.3-.5V12v-.4c0-.6.1-1.1.3-1.5s.4-.8.7-1.1c.2-.3.5-.7.7-1 .2-.3.3-.7.3-1.1h1v-.2-.3s0-.2.1-.2c0-.1.1-.1.3-.1s.2.1.4.3.4.6.6.6v.3h.2s.1 0 .1-.1V5.8s0-.1.1-.2c0-.1.1-.1.1-.1.2 0 .3.1.4.2.1.1.2.2.2.4.1.1.1.3.1.4 0 .2.1.3.2.4.1 0 .2-.1.2-.3v-.3c0-.4-.1-.6-.2-.7-.2-.1-.4-.2-.8-.5h1.1c.1 0 .2 0 .2.1.1.1.1.2.1.3v.6h.4l.3-.7.8.4c.1-.2.2-.3.4-.3s.3.1.3.2.1.2.2.3h.2v-.7H341.9c.1 0 .2.1.2.3 0 .1 0 .2-.1.3s-.1.1-.1.3v.1l.1.1h.1c.2 0 .3-.1.3-.3v-.4c.1 0 .3.1.5.2s.3.3.4.4l.1-.1s.2-.1.2-.2c.1-.1.2-.1.2-.2l.1-.1c.2 0 .3.1.4.2.1.1.1.3.2.5v.8l.2.2.2.2v.7c0 .1-.1.2-.1.3h-.1c-.1 0-.2 0-.2-.1s-.1-.1-.1-.2-.1-.1-.2-.2-.2-.1-.5-.1c0 0 0 .1-.1.1 0 .1-.1.1 0 .1 0 0 .1 0 .2.1.1 0 .2 0 .2.1.1 0 .1.1.2.2 0 .1 0 .1.1.2 0 .1.1.1.1.2s.1.1.3.1c0 .1 0 .2-.1.2s-.2.1-.3.2c-.1.1-.2.1-.3.2-.1.1-.1.2-.1.3 0 .2.1.3.2.3.1.1.2.2.2.3v.2c0-.1-.1-.1-.2-.2s-.2-.2-.3-.2c-.1-.1-.2-.2-.4-.2-.1-.1-.2-.1-.3-.1-.1 0-.1 0-.2.1 0 .1-.1.1-.2.1h-.1s-.1-.1-.2-.1l-.3-.3-.3-.3c-.1-.1-.1-.1-.1-.2-.1-.1-.1-.1-.1-.2V9c0-.1 0-.1-.1-.2 0 0-.1-.1-.2-.1h-.6c-.3 0-.6.1-.9.1-.3 0-.6.1-.9.1s-.5 0-.6.1c-.3 0-.5.1-.7.1l-.3.3s-.1.3-.2.5-.1.4-.3.6c-.1 0-.2-.1-.1-.1s.1-.1.1-.1h-.7c-.1 0-.1.1-.2.2v.5s.1.3.3.3c.1 0 .2-.1.2-.2s.1-.2.2-.2v.5c0 .2.1.4.2.7l.3.6c.1.2.3.2.4.2 0 0-.1 0-.1.1v.1-.1c0 .1.1.2.2.3.1 0 .3.1.4.1.1.1.3.1.3.2.1.1.1.3 0 .5 0-.1.1-.1.3-.1.2 0 .3.1.3.2s.1.2.1.4c0 .1.1.2.1.4.1.1.2.2.3.2h.1c-.1-.1-.2-.2-.2-.3v-.3c0-.1 0-.2-.1-.3s-.2-.2-.4-.2h.2c.2 0 .3.1.5.2.1.1.3.2.4.3l.4.4c.1.1.3.2.5.3.1 0 .3.1.5.2s.3.1.3.1l.7 1.4v-.2c0-.1.1-.2.1-.2.2.3.3.6.4 1l.3-.2c-.1.2-.1.4-.1.7 0 .2.1.5.2.7.1.2.3.4.5.6.2.2.4.3.6.3.1.2.3.4.4.6.1.2.2.5.2.7 0 .1-.1.3-.3.5-.2.2-.4.3-.6.2.2.2.3.5.3.8 0 .1 0 .3-.1.6s-.2.4-.4.4h-.1s-.1 0-.1-.1c-.1 0-.1-.1-.2-.1V23v.1c0 .1.1.2.1.4s.1.3.1.3l.1.1-.2.2c-.1.1-.1.2-.1.2-.1.2-.2.3-.3.4-.1 0-.2.1-.3.3.1.1.2.2.3.2v.4c-.2 0-.4-.1-.5-.2-.1-.2-.3-.2-.4-.2h-.1l-.3 1.5s0 .1-.1.1h-.1c-.1 0-.1 0-.2-.1 0-.1-.1-.1-.1-.2v-.2c0-.1-.1-.1-.2-.1-.2 0-.3.1-.4.2 0 .2-.1.3-.1.5h-.2c-.2 0-.3-.1-.4-.3-.1-.2-.2-.3-.3-.4-.1 0-.2.1-.2.1v.2c0 .1 0 .2.1.2s.1.1.1.2v.3c0 .1-.1.2-.3.2h-.1-.1v-.3c0-.1-.1-.2-.1-.3h-.5c-.1 0-.2.1-.2.2v.1s.1 0 .1.1c.1 0 .1.1.1.1-.2 0-.3 0-.4.1 0 0-.1.1 0 .2v.2c0 .1 0 .2-.1.3 0 0-.1 0-.3.1-.1 0-.2 0-.3.1 0 0-.1 0-.1.1s0 .1-.1.2h-.1c-.2 0-.3-.1-.3-.2s-.2-.2-.4-.2h-.4s-.1 0-.1.1c-.1.1-.1.1-.2.1 0 0-.1 0-.2-.1s-.2-.1-.2-.1-.1 0-.2-.1c-.1 0-.2-.1-.4-.1h1.1c-.1 0-.2-.1-.3-.1zm-1.8-18.2c-.1 0-.1 0-.1.1s0 .1.1.1.1 0 .1-.1 0-.1-.1-.1zm.7 2.3c0 .1 0 .2.1.2h.3c.2 0 .3 0 .4-.1s.1-.2.1-.3v-.2s-.1-.2-.2-.2c.1.1.1.2 0 .3l-.2.2c-.1 0-.2.1-.3.1h-.2zm.3.8c.1.1.2.2.3.2v-.2h-.3zm.5-.3c.2 0 .3.1.4.4v.5c.2-.2.4-.4.4-.7v-.8-.1s-.1-.1-.2-.1c0 .2 0 .4-.2.6l-.4.2zm.4 2.5c-.1 0-.1 0-.1.1s0 .1.1.1.1 0 .1-.1 0-.1-.1-.1zm0-.4c-.1.1 0 .2 0 .2.1 0 .1-.1 0-.2.1.1.1 0 0 0zm.3 12.9h.2v-.1h-.2v.1zm.4-19.9c-.1.1-.2.2-.2.3h.2v-.3zm.2 18.8s0-.1 0 0c-.1-.1-.2 0-.2 0 .1 0 .1.1.2 0 0 .1 0 0 0 0zm0-11.2h.1V15l-.1.2zm.5 11.9c-.3 0-.4 0-.5.1s-.1.2 0 .3c.1.1.2.2.5.3.2.1.5.1.8.1l-.1-.1c-.1-.1-.1-.2-.3-.3l-.3-.3c0-.1 0-.1-.1-.1zm-.4-17.6c0 .2.1.3.3.3v-.3h-.3zm.2 18.3c-.1 0-.1 0-.1.1s0 .1.1.1.1 0 .1-.1-.1-.1-.1-.1zm.1-18.7h.3V9h-.3v.1zm.1-1.1c-.1 0-.1 0-.1.1s0 .1.1.1.1 0 .1-.1 0-.1-.1-.1zm.3 7.7v.2c0 .1.1.2.1.2.1 0 .2-.1.2-.3v-.3h-.2c0 .1-.1.2-.1.2zm0 11c0 .1 0 .2.1.3v-.1-.1c0-.1-.1-.2-.2-.3v.2zm.2-11.9c-.1 0-.1 0-.1.1s0 .1.1.1.1 0 .1-.1-.1-.1-.1-.1zm.8 9.1s-.2.1-.4.3l-.3.3 1 .3-.3-.9zM338 7.7c-.1 0-.1 0 0 0-.1.1 0 .1 0 .1v-.1zm.4 9.3h.2c0-.1-.1-.2-.2-.3v.3zm1.1-.8c0-.1-.1 0 0 0-.1.1 0 .2 0 .2.1-.2.1-.2 0-.2zm.6-10c-.1 0-.2.1-.3.2 0 .1-.1.2-.1.3v.2c.1 0 .2-.1.3-.2.1-.1.2-.2.2-.3.1-.2.1-.2-.1-.2zm-.2 10h.1V16h-.1v.2zm.4-1.4c-.1 0-.1 0-.1.1s0 .1.1.1.1 0 .1-.1 0-.1-.1-.1zm0 2.6c0 .1.1.2.2.2s.2.1.3.1l.1-.1c0-.1.1-.1 0-.2h-.6zm0 8.3l.1-.2h-.1v.2zm.2-10.5h.2l-.2-.2v.2zm.1 1.7l.1-.1h-.3l.2.1zm.1-1c-.1 0-.1 0-.1.1s0 .1.1.1.1 0 .1-.1 0-.1-.1-.1zm.2 1.9c-.1.1-.2.2-.2.3h.2v-.3zm.4 7.8c-.1 0-.2.1-.3.2h.4c0-.2 0-.2-.1-.2zm-.1-8.6h.2v-.2c0-.1-.1-.1-.2-.2v.4zm.3-1.7c-.1 0-.1 0-.1.1s-.1.2-.1.3v.5c.1 0 .2 0 .4-.1.1-.1.2-.2.2-.3v-.3c-.2-.1-.3-.2-.4-.2zm-.1 2.8h.1l-.1-.4v.4zm.2-12c-.1 0-.1 0-.1.1s0 .1.1.1.1 0 .1-.1-.1-.1-.1-.1zm.5 9.5s-.1 0-.1.1 0 .2.1.2c.1-.1.1-.2 0-.3zm0 3.6c0 .2 0 .3.1.5s.2.3.5.3h.1c.1 0 .2 0 .4-.1.2 0 .3 0 .3-.1v-.1c0-.1 0-.1-.1-.1h-.2c-.1 0-.1 0-.2-.1-.1 0-.1-.1-.1-.3-.1.1-.2.2-.3.1h-.3c0-.2 0-.3.1-.4.1-.1 0-.2-.3-.3V19.2zm.2 3.3c-.1 0-.1 0 0 0-.1.1 0 .2 0 .2v-.2zm.1-5.1s0-.1 0 0c-.1-.1-.1 0-.1 0s0 .1.1 0c0 .1 0 0 0 0zm0 4.6c-.1 0-.1 0-.1.1s0 .1.1.1.1 0 .1-.1 0-.1-.1-.1zm.1-4.2c0 .2.1.3.3.4v-.7c-.2 0-.3.1-.3.3zm.2-11.3c-.1 0-.1 0-.1.1s0 .1.1.1.1 0 .1-.1-.1-.1-.1-.1zm0 10.5c.1.1.2.2.3.2V17h-.3zm1 1.2c-.2 0-.4 0-.6.1-.2.1-.3.3-.3.5.2 0 .4-.1.6-.2.2-.1.3-.2.3-.4zm-.5-10.5h.2c0-.1-.1-.2-.2-.3v.3zm.2 10.1h.1l-.1-.1v.1zm.1 3.3h.2v-.3h-.2v.3zm1.3.8c-.1 0-.2 0-.3.1s-.2.1-.3.2h.2c.2.1.4 0 .4-.3zm-.3-.6c.1-.1.2-.1.2-.3h-.2v.3zm.1-1.6c-.1.1 0 .2 0 .2.1 0 .1 0 0-.2.1.1.1 0 0 0zm.1.6c-.1 0-.1 0-.1.1s0 .1.1.1.1 0 .1-.1c.1 0 0-.1-.1-.1zm8.2 6.8c0-.2-.1-.3-.3-.5-.1-.1-.3-.2-.4-.2-.1 0-.3.1-.4.2-.1.1-.2.2-.4.2s-.4 0-.5-.1-.2-.2-.2-.3c0-.1-.1-.3-.1-.5s0-.4-.1-.5c-.1 0-.3.1-.5.1s-.2.1-.2.4c-.1-.2-.3-.4-.6-.6-.3-.2-.6-.3-.8-.3 0-.1 0-.3-.1-.7-.1-.3-.1-.6-.1-.7v-.4c0-.2 0-.3-.1-.4 0-.1 0-.3-.1-.6v-1-1.5-1.5-1c0-.3.1-.6.1-.9s0-.6.1-.9c0 0 0-.1.1-.2s.1-.2.1-.2v-.6-.5c0-.2.1-.3.1-.5s.2-.4.4-.5l.1.1s.1 0 .1.1.1.1.1.1h.6l.5.9h.4v.4c.1-.1.3-.1.5-.1s.3 0 .5.1.3.1.4.3c.1.1.2.3.2.5 0 .1 0 .2-.2.3-.1.1-.3.2-.5.3-.2.1-.3.2-.5.3-.2.1-.2.2-.3.3-.1.1 0 .2 0 .3.1.1.2.2.4.2.2.1.3.2.4.2.1.1.2.2.2.3s0 .2-.1.3-.2.1-.3.1c-.1 0-.2 0-.3.1-.1 0-.2.1-.3.2v.3c.1.1.2.2.2.3.1.1.2.2.2.3.1.1.1.2.1.2 0 .1-.1.2-.2.2s-.2.1-.3.1c-.1 0-.2.1-.2.1s-.1.2-.1.3c0 .1 0 .2.1.3.1.1.2.1.3.1.1 0 .2-.1.2-.1 0-.1 0-.2.1-.4h.2l.1.1v.6l-.2.2-.2.2c-.1.1-.1.3 0 .5h.4c.1 0 .1 0 .3-.1 0 .3 0 .5-.1.8s-.1.5-.1.7c0 .2.1.4.1.4.1.1.2.2.5.2.2-.1.4-.2.6-.2.2 0 .5-.1.7-.1.2-.1.4-.1.6-.2.2-.1.3-.2.4-.5 0 0 .1.1.2.1s.1.1.2.1c.2 0 .3-.1.4-.1.1-.1.2-.1.3-.1h.4s.1-.1.4-.1h-.4.2s.1-.1.1-.3c.1-.1.1-.2.1-.3 0 0 .1 0 .2-.1s.2-.1.2-.1 0-.1.1-.2v-.2h.1c.2 0 .3.1.3.2v.6s-.1.1-.1.2-.1.2-.1.2v.8c0 .1 0 .2.1.3 0 .1-.1.2-.2.2s-.2.1-.3.1c-.1 0-.2.1-.2.1-.1 0-.1.1-.1.3 0 .1.1.2.3.2.1 0 .3-.1.5-.3.2-.1.3-.2.4-.3l.1.2c0 .1-.1.2-.3.4-.1.2-.3.4-.4.6-.1.2-.3.4-.4.6-.1.2-.2.3-.3.3h-.2c-.1 0-.2 0-.2-.1v-.2V25.3v-.1-.1c0-.1 0-.2-.1-.3l-.2-.2-.4.5.3.3c0 .1-.1.2-.2.2-.1.1-.2.1-.3.2-.1.2-.2.4-.2.5 0 .1-.1.2-.1.3 0 .1-.1.2-.2.2-.1.1-.3.1-.6.1-.2 0-.4.1-.5 0-.1.3-.3.2-.5.2zM350 10.7s-.1 0-.2.1-.2.1-.2.1h-.1-.1v-.1c-.2-.4-.4-.8-.6-1.3-.2-.5-.3-.9-.3-1.3 0 0 0-.2.1-.4l.3-.6c.1-.2.2-.4.4-.6.1-.2.2-.3.3-.3h.3c.2 0 .4.1.6.1.2 0 .4.1.6.1h.4l.1.1.1.1c0 .1.1.1.1.2 0-.1.1-.2.2-.2s.2 0 .3-.1c.1 0 .1 0 .2.1 0 .1.1.1.1.2s.1.1.1.2.1.1.2.1l.1-.1.1-.1h.1c0 .3 0 .5-.1.7h.3v.7c0 .1.1.2.2.3s.1.2.2.3c0 0-.1.1-.1.3 0 .1-.1.3-.2.5s-.1.3-.2.4-.2.2-.3.2H352.7s-.1 0-.3-.1h-.2c-.1.1-.3.1-.4.2s-.2.1-.3.2-.2.1-.3.2c-.1.1-.3.1-.5.1s-.3 0-.4-.1c0-.1-.1-.2-.3-.2zm-.4-3.4s-.1.1 0 .2c0 .1 0 .1.1.1s.1 0 .1-.1c-.1-.1-.1-.2-.2-.2zm1.5 6.6c.1 0 .1 0 .1.1s0 .1-.1.1-.1 0-.1-.1 0-.1.1-.1zm1.6-5.8c0-.1 0-.1 0 0-.1-.1-.1-.1 0 0-.1 0-.1.1 0 0 0 .1 0 0 0 0zm0 17.8c-.1.2 0 .2 0 .2.1-.1.1-.2 0-.2zm.2-1.8v-.2l-.2.1.2.1zm.9 2.5c-.1-.1-.2 0-.2 0 .2.2.2.2.2 0zm.7-1.7c-.2 0-.4.1-.5.2-.1.1-.2.2-.2.3 0 .1 0 .2.1.3.1.1.3.2.5.3 0 0 0-.1.1-.2 0-.1.1-.2.1-.4V25c0-.1 0-.1-.1-.1zm2.9-3.7s.1 0 0 0c.1.1.1.1 0 0 0 .1 0 .1 0 0-.1 0 0 0 0 0zm7.7 13.7h-.4v.5c0 .1-.1.2-.4.2-.1 0-.3 0-.6-.1l-.9-.3c-.3-.1-.6-.3-.8-.4-.2-.1-.4-.3-.4-.4 0 0-.1.1-.2.1s-.1.1-.2.1h-.1s-.1-.1-.1-.2-.1-.1-.1-.1c0-.1.1-.2.2-.4s.2-.3.2-.3c.2-.3.4-.4.6-.5s.4-.3.6-.5h-.1c-.1 0-.2 0-.4.1 0-.2.1-.4.3-.6.2-.2.4-.3.6-.4h.1c.1 0 .2.1.3.1.1.1.2.1.2.2l-.1.1s0 .1-.1.1v.8l.2.1.2-.3c0 .1.1.2.1.3 0 .1.1.2.3.3.1-.1.1-.2.1-.3 0-.1 0-.3.1-.4l.3-.1v.7h.1s.1.1.1 0l.2-.2.2-.2h.3c.2 0 .3 0 .3.1v.6c0 .1.1.1.3.1l.1.4s.1-.2.1-.3c.1-.2.1-.3.1-.3v-.2c0-.1.1-.2.1-.2h.2s0 .1.1.2c0 .1.1.1.1.2h.1s0-.1.1-.2v-.1c0 .1.1.2.3.2 0 0 .1-.1.1-.2.1-.1.1-.2.1-.2h.1c.1 0 .2 0 .2.1v.7c0 .1 0 .2.1.3h.1c.1 0 .2 0 .2-.1.1-.1.1-.2.2-.3l.3-.3c.1-.1.2-.1.3-.1h.1s.1.1.1.2c.1.1.1.2.1.2s.1.2.3.3l.3.3c0-.1.1-.3.1-.4 0-.1.1-.2.1-.3h.5c.2 0 .4-.1.6-.1.2-.1.4-.2.5-.3.1-.1.2-.3.2-.5l-.1-.1v-.2-1c0-.4.1-.7.2-1 .1.1.1.2.1.3 0 .1 0 .2.1.3 0 .1.1.2.1.3.1.1.2.1.3.1h.1v-.1-.1-.2c0-.1 0-.2-.1-.3 0-.1-.1-.3-.1-.4 0-.1-.1-.2-.1-.3 0-.1-.1-.2-.1-.2s0-.1-.1-.2-.1-.2-.1-.2h-.1v-.1c0-.1.1-.2.2-.2s.2-.1.2-.3c0 0 0-.1-.1-.2s-.1-.2-.2-.4c-.1-.1-.1-.3-.2-.4s-.1-.2-.1-.3v-3.6h-.1c-.1 0-.1 0-.1-.1s-.1-.2-.1-.4v-.3-.1c0-.1.1-.1.1-.1v-.2c0-.1 0-.2-.1-.3l-.2-.2-.2-.2c-.1-.1-.1-.2-.1-.3.2 0 .3.1.3.2s.1.2.2.2h.2c0-.1-.1-.2-.1-.3-.1-.1-.1-.2-.1-.3v-.1c0-.2 0-.5.1-.7s.3-.3.6-.3c-.4-.1-.7-.2-.8-.3-.1-.2-.2-.3-.3-.5 0-.2-.1-.4-.1-.5 0-.1-.1-.2-.3-.2v-.6c0-.3-.1-.6-.2-.9s-.2-.6-.2-.8-.2-.4-.3-.5h-.4l-.1-.1-.1-.1c-.1 0-.1-.1-.1-.1h-.1c-.1 0-.2 0-.2.1s-.1.1-.2.1c-.2 0-.5-.1-.7-.2-.2-.1-.5-.2-.7-.2h-.5c-.3 0-.5 0-.6-.2-.1 0-.2.1-.4.3-.2.1-.3.2-.4.3-.1 0-.1.1-.2.1h-.2c-.3-.1-.4-.2-.4-.5 0-.1 0-.2.1-.3 0-.1.1-.2.1-.3-.2 0-.3.1-.3.3 0 .2-.1.4-.1.5-.1.1-.1.3-.2.4-.1.2-.2.3-.2.3h-.1v-.7c-.1 0-.2.1-.3.3-.1.2-.1.4-.2.6-.1.2-.2.4-.2.6-.1.2-.2.3-.3.3-.1 0-.2 0-.2-.1-.1 0-.1-.1-.3-.1-.1.2-.2.3-.3.4s-.1.2-.2.3c-.1.1-.1.2-.1.2 0 .1 0 .3.2.6.1.3.3.5.5.8.2.3.4.6.6.8.2.3.3.4.4.5.2.1.4.2.7.2.2 0 .5.1.7.3l.2.2.2.2h.2c.1 0 .2 0 .4-.1.1-.1.3-.1.4-.1h.6c.2 0 .4.1.5.2 0 0 0 .1.1.2 0 .1 0 .2.1.2h.1c.1 0 .3 0 .4-.1.1-.1.3-.1.4-.2.1-.1.2-.2.4-.2.1-.1.2-.1.4-.1v.6s0 .1.1.2.1.1.1.2 0 .2-.1.3c-.1.1-.2.2-.3.2h-.4c-.1.1-.2 0-.4 0v-.1-.2-.3s0-.1.1-.2l.1-.1v-.2l-.9.8v.2c0 .2 0 .3.1.4l.3.3s-.1 0-.1.1-.1.1-.1.1v.2s.1 0 .1.1.1.1.1.1l.1.2v.4c-.4-.1-.7-.3-.8-.4-.2-.1-.3-.2-.3-.3-.1-.1-.1-.2 0-.3 0-.1.1-.2.1-.4h-.1c-.3.2-.5.3-.8.4-.2.1-.6.1-.9.1-.2 0-.4 0-.6-.1-.2-.1-.3-.2-.5-.3s-.3-.2-.4-.3-.3-.1-.4-.1h-.2s-.1 0-.2.1v-.2s.1-.1.1-.3.1-.2.1-.3v-.1c-.2 0-.3 0-.4.1-.1.1-.2.1-.4.1v-.4c-.2 0-.3.1-.4.1h-.3c-.1 0-.1-.1-.1-.2v-.1s.1-.1.1-.2c.1-.1.1-.2.1-.2s0 .1 0 0c0 0-.1 0-.2-.1s-.2-.1-.2-.1-.1.1-.1.2v.2c-.1-.1-.1-.2-.1-.3v-.2-.3-.4h-.3v.7c-.2-.1-.4-.3-.5-.5-.1-.2-.2-.5-.2-.7h-.1l-.1.1h-.2s-.1 0-.2-.1-.1-.1-.2-.1v-.3-.3-.6-.9c0-.3.1-.6.2-.8.1-.2.2-.4.3-.4h.4c.1 0 .1-.1.1-.4 0 0 0-.1-.1-.2 0-.1-.1-.2-.1-.2l.2-.2.2-.2h.2s.1.1.1.2c.1.1.1.1.1.2v-.2c0-.1.1-.2.1-.2h.4c.1-.1.2-.3.3-.6.1-.3.2-.5.3-.6 0-.1.1-.2.2-.4.1-.1.2-.3.2-.4v-.2c0-.1-.1-.1-.2-.2.2 0 .4-.1.6-.1.1 0 .2-.2.3-.4h.8v.5c.1 0 .2-.1.2-.2.1-.1.1-.2.2-.3l.1.1.1.1H365.1l.1-.1s.1 0 .1-.1l-.1-.1-.1-.1v-.1c0-.1 0-.1.1-.2s.2-.1.3-.1v.4c0 .1 0 .3-.1.4 0 .1-.1.2-.1.3.1 0 .2 0 .3-.1.1-.1.1-.2.1-.3 0-.1.1-.2.1-.3.1-.1.1-.2.3-.2h.4c.1 0 .1.1.2.2l.2.2c.1.1.2.1.3.1l.1-.1s0-.1.1-.1h.2l.2.2.1.1.1.1H368.3l.1-.1h.4v.5l.1.1c.1.1.1.1.1 0l.1-.1s0-.1.1-.1h.1c.1 0 .2.1.3.2.1.1.1.2.2.3.1-.1.1-.2.2-.3 0-.1.1-.2.2-.2 0 0 .1 0 .2-.1.1 0 .2-.1.3-.1 0 0 0-.1.1-.1 0-.1.1-.1.1-.1.1 0 .2.1.2.3V13l-.1.1v.2c0 .1.1.2.1.2l.1-.1s.1 0 .1-.1h.2s.1.1.1.2 0 .2.1.2h.2c.1 0 .2-.1.3-.2.1-.1.2-.2.2-.3v-.1c0-.1 0-.1-.1-.1h.1c.4 0 .6.1.6.4v.8c.2-.3.4-.4.7-.4v.2s0 .1-.1.1l-.1.1c0 .1 0 .2.1.2h.2c.1 0 .2 0 .2-.1s.1-.1.1-.2.1-.2.1-.2c0-.1.1-.1.1-.1.1 0 .2.1.2.2s.1.3.1.5.1.4.1.5v.3c.2 0 .4-.1.7-.1.3 0 .5.1.6.3 0 .5.1.9.3 1.3s.2.9.2 1.3c0 .2 0 .4-.1.5-.1.1-.1.2-.1.4v.7h.2s.1-.1.2-.1.1 0 .1-.1v.5c0 .1 0 .2-.1.3 0 .1-.1.1-.1.2h.4c0 .2-.1.5-.2.7-.1.2-.2.5-.2.7s0 .4.1.4.1.1.2.1.1.1.2.1.1.1.1.3c0 .2-.1.3-.2.3s-.2 0-.2.2c0 .1.1.3.3.5s.3.5.3.9c0 .3-.1.5-.2.7-.1.1-.2.2-.4.3-.1.1-.3.2-.4.3s-.2.2-.2.4v.2c0 .1.1.1.3.1-.1.1-.1.2-.1.3v1.6l-.1.1-.1.1v.2l.1.1c0 .1.1.1.1.1V30.6c0 .5-.1.9-.1 1.3 0 .1-.1.2-.3.5-.2.3-.2.4-.3.5 0 .1-.1.3-.3.5-.2.2-.3.3-.3.4-.1.1-.2.2-.3.1-.1-.1-.2 0-.3.1 0 0-.1.1-.1.3-.1.2-.1.3-.2.3h-.1c-.1 0-.1.1-.1.1h-.1s-.1 0-.1.1c-.1 0-.1.1-.2.1-.1-.1-.2-.2-.2-.4 0 0-.1 0-.2.1l-.3.3-.3.3c-.1.1-.2.1-.2.2 0 0-.2.1-.4.1-.2.1-.4.1-.4.1s0 .1-.1.1c0 .1 0 .1-.1.1 0 0-.1.1-.3.1-.1.1-.3.1-.4.2-.1.1-.3.1-.4.2-.1 0-.2.1-.2.1h-.1v-.1-.2c-.1.2-.1.3-.2.3h-1.2s-.6 0-.9-.1c-.2-.1-.3-.1-.4-.2l-.3-.3c-.1-.1-.2-.2-.4-.2-.1-.1-.4-.1-.7-.1v-.6zM360 18.4c-.1 0-.1 0-.1.1s0 .1.1.1.1 0 .1-.1-.1-.1-.1-.1zm0 15.6c0-.2 0-.3.1-.4.1-.1.2-.2.3-.4.2.1.4 0 .5-.1.1-.1.2-.2.3-.4.1-.1.2-.3.3-.4.1-.1.2-.2.4-.2v.2c0 .1-.1.3-.2.4-.1.1-.2.3-.4.4-.1.1-.2.2-.4.3-.1.1-.2.2-.3.2h.1l.1.1v.1c0 .1 0 .2-.1.3-.1.1-.2.1-.4.1-.1 0-.2 0-.2-.1-.1.1-.1 0-.1-.1zm2.2 0c0 .2.1.4.2.6 0 0 .1-.1.1-.2s.1-.1.1-.1h.1c0-.1-.1-.2-.2-.3h-.3zm.8-17.4c0 .1 0 .2.1.3 0 .1.1.1.1.2 0 0 .1 0 .1-.1v-.2c0-.1-.1-.2-.3-.2zm.6-1.7l.1.1H364c.2-.3.3-.5.3-.8-.1 0-.2.1-.4.2s-.2.2-.2.3v.2zm.2 8.3s-.1 0-.1.1 0 .1.1.1.2 0 .2-.1c-.1-.1-.1-.1-.2-.1zm.1-9.7c.2 0 .3.1.5.3s.3.3.3.5c0 0 .1-.1.1-.2s.1-.2.1-.2-.1-.2-.3-.4c-.2-.2-.3-.3-.4-.3 0 0-.1 0-.2.1s-.1.1-.1.2zm.5 21.4c.1 0 .2 0 .2-.1s0-.1.1-.2c0-.1.1-.1.1-.2.1-.1.2-.1.3-.1 0-.1 0-.2-.1-.2-.1-.1-.1-.1-.2-.1s-.2 0-.3.1c-.1.1-.2.2-.2.3-.1.1-.1.2-.3.4.1.1.3.1.4.1zm.9-21.1c-.1 0-.2 0-.2.1l.2-.1zm0 21c0 .1.1.3.2.3v-.3h-.2zm.3-22.1v.2c0 .1.1.2.2.2v-.3-.2c0-.1 0-.1-.1-.1v.2zm.5 10.5c-.1 0-.2 0-.3.1h.3v-.1zm.6-9.6c-.2 0-.3.1-.3.3v.6c.1-.1.2-.2.2-.4.1-.2.1-.4.1-.5zm0 .7c-.1 0-.1 0-.1.1s0 .1.1.1.1 0 .1-.1c0 0 0-.1-.1-.1zm.7 8.2c-.1 0-.2.1-.2.2s.1.2.2.2.1-.1.1-.2-.1-.2-.1-.2zm.2-7.7c-.2.1-.3.3-.3.6.1 0 .2 0 .3-.1.1-.1.1-.2.1-.3 0-.2 0-.2-.1-.2zm-.2-.9c0 .1 0 .2.1.3.1.1.1.1.2.1l.1-.1c0-.1.1-.1.1-.1v-.2h-.5zm.5 9.7c.3.1.6.1.9 0s.6-.3.8-.3c.1 0 .2 0 .3.1v.1c0 .1-.1.3-.3.4-.2.1-.3.2-.4.3v.2c0 .1 0 .2-.1.2-.1.1-.2.1-.3.1h-.3c-.1-.1-.2-.3-.3-.6s-.2-.4-.3-.5zm.3-8.1v-.3l-.2.2.2.1zm.1-.9v-.2h-.1l.1.2zm-.1 20.2l.1-.4h-.1v.4zm.4-20.9c-.1-.1-.1 0 0 0-.1.2 0 .2 0 .2 0-.1.1-.1 0-.2.1 0 0 0 0 0zm.2.6c0-.1 0 0 0 0v.2h.1c0-.2 0-.2-.1-.2zm.7-.1c-.1 0-.2.1-.3.2s-.1.2-.1.3c.3 0 .4-.1.4-.5zm.3.6l-.3.3c-.1.1-.1.3-.1.4.1 0 .2 0 .4-.1.1-.1.2-.2.2-.3-.1-.1-.1-.2-.2-.3zm-.4-1.5c0 .1 0 .1.1.2 0 .1.1.1.2.1h.1c0-.2-.2-.3-.4-.3zm1.4 1c0 .1-.1.1-.1.2v.1h.2v-.3zm-.1 1.2c0 .1.1.2.2.3.1.1.2.2.4.2 0-.1-.1-.3-.2-.6s-.2-.4-.3-.5c0 0 0 .1-.1.2v.4zm1.1-.8v.1s.1 0 0-.1c.1 0 0 0 0 0zm0 1.2h.1v-.2h-.1v.2zm.4 4.2h.1v-.1h-.1v.1zm.1 5c-.1 0-.1 0-.1.1s0 .1.1.1.1 0 .1-.1c.1-.1 0-.1-.1-.1zm0-8c0 .1 0 .1.1.2.1 0 .1.1.2.1V17h-.2c0 .1-.1.2-.1.3zm.3-1.4c-.1 0-.1 0-.1.1s0 .1.1.1c0 0 .1 0 .1-.1s0-.1-.1-.1zm.5 16.2c-.2 0-.3.1-.4.1s-.1.2-.1.3c.1 0 .1 0 .2-.1s.2-.1.3-.2v-.1zm-.2-7.1s0-.1 0 0c-.1-.1-.2 0-.2 0s0 .1.2 0c0 .1 0 0 0 0zm.9-9.1h.1v-.2l-.1.2zm0 2h.1l-.1-.1v.1zm.7-1.7c-.1 0-.1.1-.1.2s0 .2.1.2.2-.1.2-.2c-.1-.1-.1-.2-.2-.2zm.2 9.7s-.1 0-.1.1 0 .1.1.1.1 0 .1-.1 0-.1-.1-.1zm0-.4h.2v-.1l-.2.1zm.4-2.6v.6s0 .1.1.1c0 0 .1 0 .1.1v-.1-.1-.1-.3c-.1-.2-.1-.3-.2-.2zm.3 1.1s0 .1 0 0c0 .1.1.2.1.3 0 .1.1.2.1.2.1 0 .2-.1.3-.1.1-.1.2-.1.2-.2s-.1-.1-.3-.2c-.1-.1-.3-.1-.4-.1v.1zm0 1.3h.2V25h-.2v.3zm.2-2.3c.1.1.1.1.1.2 0 0 0-.1.1-.1l.1-.1s0-.1-.1-.1l-.1-.1h-.1v.2zm23 3.3c-.1 0-.2.1-.4.1s-.3.1-.4.2c-.1 0-.2.1-.2.3 0 .2-.1.2-.2.2 0-.4-.1-.7-.2-.8-.1-.1-.3-.2-.4-.1-.2 0-.4 0-.6.1-.2 0-.4 0-.6-.1-.1-.1-.2-.2-.2-.3v-.3-.2c0-.1-.1-.1-.3-.1s-.3.1-.4.3c-.1.2-.2.3-.5.3 0-.2.1-.3.2-.4s.2-.2.2-.4c0-.1 0-.2-.1-.2H393.6l-.2-.2-.2-.2h-.2c-.2 0-.3.1-.4.2-.1.1-.2.2-.4.2 0 0-.1-.1-.1-.2-.1-.1-.2-.3-.2-.4-.1-.2-.2-.3-.2-.5s-.1-.2-.1-.3v-.1s.1 0 .1-.1.1-.1 0-.2c0 0-.1-.1-.2-.3l-.2-.2s-.1-.1-.1-.2-.1-.2-.1-.3l-.4-3.8c0-.1-.1-.2-.1-.4s-.1-.3-.2-.4c0 0-.1 0-.3.1-.2 0-.3.1-.3.1s-.1.1-.1.3c0 .1-.1.2-.1.2h-.2c-.1-.1-.2-.1-.2-.1s0 .1.1.3c0 .2.1.3 0 .3l-.1.1H387.8c0 .1-.1.2-.2.3l-.2.2s-.1 0-.1-.1c-.1 0-.1-.1-.2-.1v.4c0 .1 0 .2.2.3-.2 0-.3.1-.4.2s-.2.1-.2.2c-.1.1-.1.2-.1.3 0 .1-.1.2-.2.4l-.1-.1c-.1 0-.1-.1-.1-.1 0 .2 0 .4.1.4h.2s.1 0 .2.1.1.2.1.5c-.2 0-.4 0-.5.1l-.3.3s-.1.3-.2.4c-.1.2-.2.3-.3.4-.1.1-.2.1-.3.1h-.6c-.1 0-.2.1-.2.2 0 .2-.1.4-.1.8s-.1.6-.2.8c-.3 0-.6 0-.7.1-.2.1-.3.2-.4.3-.1.1-.2.3-.3.5-.1.2-.2.4-.4.6-.1-.1-.1-.2-.2-.3 0-.1 0-.2-.1-.3 0-.1-.1-.2-.2-.2-.1-.1-.3-.1-.5 0 0 0-.1.1-.2.1l-.2.2.1.1.1.1h.2s0-.1.1-.1.1-.1.2-.1.1 0 .1.1l.1.1v.2s-.1.1-.2.1-.1.1-.2.2c0 .1-.1.2-.2.5-.1.2-.1.4-.1.5-.2-.1-.3-.4-.5-.8s-.3-.9-.5-1.5c-.1-.6-.2-1.1-.3-1.6-.1-.5-.1-.9-.1-1.1V22s.1 0 .1.1c.1 0 .1.1.2.1h.2l.2-.2.2-.2v-.1c-.2-.1-.3-.2-.5-.3-.3-.1-.5-.2-.5-.3-.1-.4-.1-.6-.1-.8v-.7c0-.3 0-.6.1-.9.1-.3.1-.6.1-.9 0-.3 0-.7-.1-1s-.1-.7-.1-1v-.1s0-.1.1-.2l.2-.2v-.1l-.3-.6s-.1-.3-.2-.5-.1-.4-.1-.5c0-.1 0-.3.1-.4.1-.1.1-.2.1-.3v.1s0-.1-.1-.3l-.1-.2c0-.1 0-.1.1-.1h.3c.1 0 .2-.1.3-.1.1-.1.2-.2.3-.5v-.3c0-.1-.1-.2-.1-.3h-.4c-.1 0-.2 0-.2.2v.1l.3.3v.2s-.1 0-.2.1h-.2V11c.3 0 .4-.1.6-.3.1-.2.2-.4.2-.6.1 0 .2 0 .3.1.2.1.3.1.5.3.2.1.3.2.5.3s.2.2.3.3c-.1 0-.2.1-.4.3-.1.1-.2.2-.3.2h-.1s-.1 0-.1-.1c-.1 0-.1-.1-.1-.1v.3h.2s.3 0 .4.1c.2 0 .3.1.4.1s.2.1.2.2c0 .3-.1.5-.3.7-.2.2-.3.4-.3.7 0 .1.1.2.2.3s.2.1.3.2.2.1.3.2c.1.1.2.2.2.4v.4s0 .1-.1.3c-.1.1-.1.2-.1.2 0 .2.1.4.3.4.2.1.3.1.5.1 0 .2 0 .5.1.9 0 .4.1.6.1.7 0 0 .1.1.2.3.1.2.1.3.2.3v.2s-.1.1-.2.1-.2.1-.3.1v.2c.1.5.3.8.3.9.1.1.2.2.3.2h.3c.1 0 .2.2.4.4l.2-.2c-.1-.6-.1-1.1 0-1.3.1-.2.2-.4.4-.5.2-.1.3-.2.6-.3.2-.1.4-.3.6-.6.2-.4.4-.7.5-1 .1-.3.4-.6.8-.9 0 .1.1.2.1.3 0 .1.1.2.2.3 0 0 .1-.1.1-.2.1-.1.1-.1.2-.1 0 0 .1 0 .2.1s.1.1.2.1h.6s0-.1-.1-.3c-.1-.1-.1-.2 0-.3 0 0 0-.1.1-.1s.2-.1.2-.1.1 0 .1-.1l.1-.1v-.2c0-.1-.1-.2-.1-.4 0-.1-.1-.3-.1-.4v-.3c0-.1.1-.3.2-.5s.2-.3.3-.4c.1 0 .2.1.2.2v.6c0 .1.1.2.2.2l.1-.1c0-.1.1-.1.1-.2s0-.3.1-.6c0-.3.1-.5.1-.6 0 0 0-.1.1-.1h.2c.1 0 .1.1.2.1v.1c0 .1 0 .2-.1.3 0 0-.1.2-.1.4h.2s.1-.1.1-.3c.1-.1.1-.2.1-.3h.1c.1 0 .3 0 .4.1s.3.2.4.2c.1.1.3.2.4.3.1.1.3.2.4.2h.5s0 .2.1.3c0 .2.1.3.1.3.1.1.2.3.3.4.1.1.3.2.4.3l.3.3c.1.1.1.3.1.5 0 .1 0 .2-.1.3-.1.1-.1.2-.1.3 0 .1.1.2.2.3.1 0 .2.1.2.3v.4s0 .2-.1.4c0 .2-.1.4-.1.4v.1c0 .1 0 .2.1.3 0 .1.1.1.2.1s.1.1.2.1.1.1.2.2v.6l.2.2s.1.2.1.3c0 .1.1.2.1.3 0 .1.1.3.1.5s.1.3.1.5v.3l.3.4.4 1.6.8.7.8.6.6.4.6.8.2.2v.3zm-19-12.5l.5-.5v-.1h-.5v.6zm.2 0c-.1 0-.1 0-.1.1s0 .1.1.1.2 0 .2-.1c-.1 0-.1-.1-.2-.1zm0 7h.2v-.2l-.2.2zm.3 1.7h.1v-.1l-.1.1zm.3-9.7c.1 0 0 0 0 0-.1-.1-.2 0-.2 0 .1.1.1.1.2 0 0 .1 0 .1 0 0zm0-.6c-.1.1 0 .2 0 .2.1 0 .1-.1 0-.2.1.1.1 0 0 0zm.4 12.5h.1v-.2h-.1v.2zm.2-4.3c0 .2.1.5.2.8.1.3.2.5.3.6h.1c.1 0 .2-.1.3-.4.1-.3.2-.5.4-.7v-.2s0-.1-.1-.1l-.1-.1H381zm.2-1.3c0 .2 0 .4.1.6s.2.3.4.3c.1 0 .2 0 .3-.1.1-.1.2-.1.3-.1v-.1h-.5l-.1-.4V19v-.4-.1s.1 0 .1-.1c.1 0 .1-.1.1-.1v-.2-.3c0-.1-.1-.2-.3-.2 0 .3-.1.6-.3.8 0 .1-.1.4-.1.7zm.5-2.1h.5c0-.1-.1-.2-.1-.2h-.2-.1-.1v.2zm2.5 3.8h.2v-.2h-.2v.2zm2.7-3.2s0-.1.1-.2c0-.1.1-.2.1-.2s.1-.1.1-.2.1-.1.1-.2-.1-.1-.2-.2h-.2l-.1.1-.1.1.2.8zm1.6.2c-.1 0-.1 0-.1.1s0 .1.1.1.1 0 .1-.1 0-.1-.1-.1zm.2-1.6c.1-.1.2-.2.2-.3h-.2v.3zm.4 1.1l.2-.1h-.2v.1zm.2-2c0 .1 0 .3.1.3 0 .1.1.1.3.1 0-.3-.1-.5-.4-.7v.3zm.6 1c0 .1 0 .2.1.2h.3c0-.1 0-.2-.1-.2-.1-.1-.2-.1-.3 0zm3 .5c-.1 0-.1.1-.1.2s0 .2.1.2.1-.1.1-.2 0-.2-.1-.2zm.3 4.9c-.1.1 0 .1 0 .1.1 0 .1 0 0-.1.1 0 .1 0 0 0zm.3-1.6s.1.1.2.3c.1.2.2.3.3.4l.2-.2c0-.2-.1-.3-.3-.5-.1-.1-.3-.3-.5-.4l-.1-.1-.1-.1v.5l.3.1zm0-1.2h.2v-.2h-.2v.2zm.7-.2c-.1 0-.2.1-.2.2s.1.2.2.2.1-.1.1-.2 0-.2-.1-.2zm-.1 3.5l.2.2s.1-.1.2-.1.1-.1.2-.2v-.2l-.1-.1-.1-.1s-.1 0-.2.1-.1.1-.1.2v.2h-.1zm.5.6c-.1 0-.1 0-.1.1s0 .1.1.1.2 0 .2-.1c0 0-.1-.1-.2-.1zm.2.8c-.1 0-.2 0-.2.1s.1.1.2.1.1 0 .1-.1c0 0 0-.1-.1-.1zm.8.7c0 .3.1.4.4.4 0-.2 0-.3-.1-.3 0-.1-.1-.1-.3-.1zm.2 1.4h.3c.1 0 .3 0 .5-.1.2 0 .3-.1.3-.1v-.2c-.1 0-.3-.1-.4-.1-.1 0-.2-.1-.3-.1-.1 0-.2-.1-.3-.1l.1.1h-.1s-.1 0-.1-.1v.7zM7 41.3c.1.2.2.3.3.4l.1.1c.9.4 2.5-.2 4.1-.8 1.6-.7 3.2-1.5 4-1.9.4-.2.8-.4 1.1-.6 1.4-.4 2.9-.9 4.3-1.6l-.1-.1c.3-.1.5-.1.8-.2l.1.1c.1-.1.2-.3.4-.4.8-.8 1.8-1.5 2.7-2.4h.2l.1-.1.1-.1v-.1c.1-.1.2-.2.2-.3l.3-.3.2-.2-.3-.1c-.1 0-.3-.1-.4-.1-.6-.2-1.3-.4-2-.6-.4-.4-.8-.8-1.2-1.1-.1-.1-.2-.2-.4-.3.4.1.9.2 1.3.3l.2-.4c-1.1-.8-2.3-1.2-3.6-1.4l1.2-.9c2.4-1.1 5.2-1.9 6.9-2.2 4.2-.8 7.5-.5 11 1.9l.3-.3c-.1-.1-.3-.2-.4-.4v-.1c.1 0 .2 0 .3-.1v.1l.2.2.3-.3h.1l.1.1V27c.4-.1.8-.2 1.2-.4.8-.2 1.4-.5 2-.9.1-.1.2-.1.3-.2l.2-.2c.6-.7.8-1.6.6-3-.2-1-.5-2.2-.9-3.3 0-.3-.1-.6-.1-.8-.3-1.6-1.2-3-1.4-4.6l.2-.2-.3-.3-.1-.1v-.2H41c-4.4-3.5-10.1-2.1-14.7-.3-1.4.5-2.6 1.2-3.8 1.9-4.5 2.1-9.1 5.1-12.2 8.6-.1-.1-.3-.2-.4-.3.2-.2.5-.4.7-.6l-.3-.3c-.3.2-.6.5-.9.7-.4-.2-.7-.4-1.1-.6-.1 0-.1-.1-.2-.1v.2l-.6-.3-.1-.1-.1.1c-.1-.1-.3-.1-.4-.2l-.2.3c0 .2.1.2.2.3-.6.5-1.4.9-2.1 1.4-.1 0-.1.1-.1.1l-.6.6v.1c-.3.1-.5.2-.8.3v.1l-.4.1.3.2v.2c-.5 2.4 1.1 6.6 1.8 9.2.3.9.5 2 .7 3.1.1.8.3 1.6.6 2.3.1.3.1.5.2.8 0 .2.1.3.2.5s.1.4.2.5l.1-.3zm1.4-14.2c0-.1 0-.1 0 0-.2-.1-.3-.3-.4-.4h.1c.2.1.2.2.3.4zm0-.9c-.3-.1-.5-.2-.8-.4.4-.2.8-.4 1.2-.7.3-.1.6-.1.9-.2-.5.3-1 .6-1.4 1.1 0 0 0 .1-.1.1l.2.1zm.7-.2l.1.2-.1.1h-.5c.2-.2.4-.2.5-.3zm.6-2.4c.1 0 .1.1.2.1-.1.1-.3.1-.4.2l-1.5.6.9-.6-.1-.1c.1 0 .1 0 .2-.1.3 0 .5-.1.7-.1zm-5.4 1c.6-.3 1.2-.6 1.8-1v.1l-.1.1h.1c-.4.5-.7 1-1 1.5-.4-.1-.7-.3-1.1-.4 0 0 0-.1-.1-.1.1 0 .1-.1.2-.1l.1.1c0-.1.1-.2.1-.2zM8 25l-.2.2c-.2.1-.4.2-.7.4-.1-.1-.3-.1-.4-.2l.3-.3h.4v.1c.2-.1.4-.1.6-.2zm-1.3.8c-.1 0-.2 0-.3-.1v-.1c.1.1.2.2.3.2zm.7.7c.1 0 .1 0 0 0zm-1.1-3.1c0-.1 0-.1.1-.1-.1 0-.1 0-.1.1zm1.2.3c-.4.2-.7.5-1.1.7l-.4.3c-.1 0-.1.1-.2.1h-.2c.2-.4.5-.8.8-1.1h1.1zm2.7.6c-.1 0-.3.1-.4.1.1 0 .1-.1.2-.1l.1-.1c0 .1 0 .1.1.1zm1.7-.1c0-.1.1-.1.2-.2-.1.1-.1.2-.2.2zm-.8.5c-.3.1-.5.3-.8.4-.1 0-.3.1-.4.1.3-.1.7-.3 1.2-.5-.1 0-.1 0 0 0zm-.1.9c-.1.1-.3.2-.4.2.2-.1.3-.2.4-.2zM9 28c-.2-.1-.3-.1-.5-.2-.2-.2-.5-.4-.7-.6.4.3.9.5 1.2.8zm-2-.9c-.2-.1-.5-.3-.7-.4l-.1.2c-.2-.2-.4-.3-.7-.5l.4.2c0-.1.1-.1.1-.2.1 0 .1 0 .2.1l.1.1h.1c.2.1.4.3.6.5zm-1.5-.8s0-.1 0 0c.1-.1.1-.1 0 0 .1 0 0 0 0 0zm-.7 0zm.2 3.3c0 .4 0 .9.1 1.3-.2-.8-.3-1.5-.4-2.3 0 .4.2.7.3 1zm.5 1.7c.1.3.2.6.2.8.1.4.1.8.2 1.2.1.6.1 1.4.1 2.1 0-.3-.1-.5-.1-.8v-.1c-.2-1.1-.3-2.2-.4-3.2zm.9 5.5c.1.7.2 1.5.2 2.2-.1-.7-.1-1.4-.2-2.2zm-1.8-9.7c.1.3.2.7.3 1-.1-.4-.3-.7-.5-1.1v-.7c.1.2.2.5.4.7l-.2.1zm.5-.5v.2c-.1 0-.1-.1 0-.2-.1.1 0 .1 0 0zm.9 3.6c.1.6.1 1.2.1 1.8-.2-1.2-.5-2.3-.7-3.5.2.5.4 1.1.6 1.7zm.5 1.7c.7 2.5 1 5.1.5 7-.1-1.5-.3-3.2-.6-4.8.1-.7.1-1.5.1-2.2zm-2.1-.5c.3.9.6 1.8.9 2.6v.4c0-.1 0-.2-.1-.2-.2-.9-.5-1.8-.8-2.8zm0-1.5c-.2-.7-.3-1.4-.3-2.1l.3 2.1zm-1-4.1c.1.3.3.5.4.8-.2.8-.1 1.6 0 2.5-.3-1.2-.4-2.4-.4-3.3zm.1-.7c.1 0 .1.1.2.1.1.1.1.2.2.3l.1.1c0 .1.2.4.3.6l-.3-.1c-.2-.3-.3-.7-.5-1zm5.4-2c-.1.1-.2.2-.4.3v-.1c-.4.1-.9 0-1.4 0l.5-.5-.2-.4c-.1 0-.2.1-.4.1.1-.1.2-.1.2-.2.5.3 1.1.5 1.7.8-.1-.1-.1 0 0 0zm2.1.2c.8-.4 1.6-.9 2.4-1.4-.7.6-1.3 1.2-2 1.8-.1-.1-.3-.2-.4-.3-.1 0-.1 0 0-.1-.1.1-.1.1 0 0zm3.2-.4c-.5.5-1 1-1.5 1.4l-.1-.1.1-.1c.3-.3.6-.6.9-.8.3-.2.5-.3.6-.4zm-1.3.3l-.6.3c.4-.4.8-.7 1.2-1.1-.2.2-.4.5-.6.8zm6.9-6.9c-1.6 1.2-3.2 2.5-4.8 3.7-.9.5-1.9 1-2.8 1.7 2.2-2 4.8-3.8 7.6-5.4zm-5.1 5.5c-.1.2-.2.3-.4.4.2-.2.3-.4.4-.4.5-.7 1.2-1.3 1.9-1.9.1-.1.3-.2.4-.3v.1c.3-.1.7-.3 1-.4-.3.2-.6.5-.8.7-.8.5-1.7 1.1-2.5 1.8zm7.3-5.4c-.6.3-1.3.7-1.9 1 .5-.3 1.2-.7 1.9-1zm.7-1.3c-.2.1-.4.2-.6.4l-.6.3c-.3.2-.7.4-1 .6-.1.1-.2.1-.3.2.9-.6 1.7-1.1 2.5-1.5zm1.8-.4s-.1 0 0 0c-.1 0 0 0 0 0zm.7-.9c-.3.2-.7.3-1 .5v-.1c.2-.1.3-.1.5-.2.1 0 .3-.1.5-.2zm4.4-1.3c-1.7.8-3.5 1.7-5 2.1 1.6-.9 3.3-1.6 5-2.1zm3 .5c.2.1.4.2.7.3-7.7.4-15.8 6.7-21 12.3-.3.2-.5.3-.8.6 0 0 0-.1.1-.1.1-.1.2-.1.3-.2l-.1-.2v-.1c.2-.1.3-.3.5-.4l.1-.1c.1-.1.3-.2.4-.4 1.2-1.1 2.4-2.3 3.3-3.3l.6-.6 1.5-1.2c1.3-.9 2.7-1.7 4-2.5l-.2-.3 2.7-1.5c1.6-.6 3.3-1.4 5.1-2.1 1-.2 1.9-.2 2.8-.2zm8.2 12.6c0-.1 0-.2.1-.3l.1-.2c0-.1.1-.2.1-.3h.1c.1.2.2.4.2.6-.2.1-.4.2-.6.2zm-.3-1.6l-.4.1c0 .5 0 1.1.1 1.6l-.3-1.5.3-1.2c.1.1.1.3.2.5s.1.4.2.7c0-.1 0-.2-.1-.2zm1.2-2.3c.1.2.1.4.1.7l-.3.1c.1.8.2 1.7 0 2.4-.2-.4-.3-.9-.4-1.4 0-.5-.1-.9-.1-1.3h.1l.1.1v-.5c0-.6-.1-1.1-.2-1.6.2.3.4.6.5.9.1.1.2.3.2.6zm-2-7.5l-.1-.1h.3c0 .3 0 .6.1 1-.1-.1-.2-.3-.3-.4l.2-.3c-.1-.1-.2-.1-.2-.2zm1.4-.8c0 .1-.1.1 0 0-.1 0-.1 0-.2-.1 0 .1.1.1.2.1-.1 0 0 0 0 0zm-.6.1h-.2.2zm-3.3.8c.3-.1.5-.2.8-.2-.3 0-.5.1-.8.2zm1.3-1.2s.1 0 .1.1c.1-.1.1-.1-.1-.1.1 0 .1 0 0 0zm.6 1.3V15H39c-.1-.2-.1-.3-.2-.4l-.4.1c.1.3.1.6.2.8 0-.1-.1-.1-.1-.2l-.3.2s0-.1-.1-.1l-.4.2c.3.6.5 1.5.7 2l.4-.1c-.1-.3-.2-.6-.3-1 .1.3.2.6.3.8 0 .3.1.6.3.8.1.6.3 1.1.5 1.7-.3-.7-.5-1.4-.8-2.1l-.4.1c0 .4 0 .7.1 1.1-.4-1.4-.8-2.7-1.2-4.1.4-.2.9-.3 1.4-.4.2-.1.3 0 .4 0zm-.3 9.5v-.6.6zm.6-2.2c-.1-.8-.2-1.5-.3-2.3.1.3.3.6.5.9v.2c-.2.5-.2.8-.2 1.2zm1.4.3c0 .1 0 .1 0 0 0 .1 0 .1 0 0zm-1-.7c0 .1.1.2.1.3-.1.2-.1.5-.2.7.1-.3.1-.7.1-1zm1.4-2.4c-.1-.1-.1-.2-.2-.2-.1-.3-.2-.6-.2-.9.1.3.3.6.4.9v.2zm-.2.4c.2.1.3.3.4.4v.1c-.1-.2-.3-.3-.4-.5zm-.9-.5v-.2.2zm2.1 2.6c0-.1-.1-.1-.1-.2 0-.3-.1-.5-.2-.9.1.1.2.1.2.2v.2c.1.1.1.4.1.7zm-2.6-6.2c.1.1.2.3.3.4.1.6.3 1.3.4 2-.2-.3-.3-.6-.5-.9l-.3-.9c0-.2 0-.4.1-.6zm1.9 2.7c-.1-.4-.1-.8-.2-1.2.1.5.3 1 .4 1.5-.1-.1-.2-.2-.2-.3zm1.2 1.9zm-2.8 6.4c-.1.1-.2.1-.2.2v-.3-.4c.1.2.1.3.2.5zm-.7-.4c-.1-.1-.1-.2-.2-.3v-.1l.1-.3v.2c.1.2.1.4.1.5zm-.8-1.8c-.9-2.4-1.4-5.5-1.6-8 .6 2.2 1.5 4.2 1.9 6.3-.3.6-.4 1.2-.3 1.7zm-1.6-9.6c.5 1.5.9 2.9 1.3 4.2-.5-1.4-1-2.8-1.3-4.2zm-.5 0c-.8-.2-1.6-.4-2.5-.4-2.1-.1-4.3.3-6.4 1.1 3-1.2 6-1.7 8.9-1.2v.5zm-3.2-3.1c-.9.1-1.9.3-2.8.5.9-.3 1.9-.4 2.8-.5zm1 .6v.2c-.7.2-1.5.3-2.2.4.8-.3 1.5-.5 2.2-.6zM40 13h-.5c-1-.4-2-.8-3.1-1.1h-.1l.3-.1h-.1c.4 0 .9.1 1.3.2.9.1 1.6.4 2.2 1zm1.1 1.9c0 .1.1.2.1.2l-.2.1v-.1c0-.2 0-.3-.1-.5l-.4.1c0 .2 0 .3.1.5 0 .3.1.6.1.9 0-.1-.1-.1-.1-.2-.2-.7-.3-1.4-.3-1.9.2 0 .4-.1.6-.1l.1-.1h.2c0 .3.1.6.2 1l-.3.1zm.8 10.3c.2-.4.2-.8.3-1.2.1.3.2.7.3 1l.4-.1c-.1-.3-.2-.5-.2-.8h.2c-.1-.6-.1-1.1-.1-1.7.1.4.3.9.4 1.3 0 .4.1.8.2 1.2 0 .1-.1.1-.1.2l-.1.1v-.1c-.6-.1-.9 0-1.3.1zm-3.1 1.5c.1-.2.1-.4.2-.6.1.2.2.3.3.5-.2 0-.4 0-.5.1zm-14.3-.3c1.8-.7 3.6-1 5.5-1.1-.8.1-1.6.2-2.4.4-.8.1-1.9.3-3.1.7zm-5.8 3.4c.2.1.4.3.7.4-.3-.1-.6-.2-.9-.2 0-.1.1-.1.2-.2zm-3.6 2.4c.1 0 .1.1.2.1-.4-.1-.8-.1-1.2-.2 1.1-.9 2.4-1.8 3.8-2.7-.3.2-.6.5-.8.7-.3.1-.6.4-.9.7-.2.2-.3.4-.5.7-.2 0-.4 0-.6.2-.1.1-.1.2-.1.2h.2l-.1.3zm5.9 3c-1.1-.9-2.2-1.6-3.3-2.2 0 0 .1 0 .1-.1h.1c.8.6 1.8 1 2.8 1.4.3.3.7.6 1.1.9l-.3.3c-.3-.1-.4-.2-.5-.3zm1.5.1c.1-.1.2-.1.3-.2.1 0 .1-.1.2-.1l-.5.5v-.2zm-1.9-4.8c-.2-.1-.3-.2-.5-.3.1 0 .2.1.4.1.4.2.9.5 1.3.9.2.1.3.3.5.5-.3-.1-.5-.2-.7-.4-.2-.2-.4-.3-.6-.5-.2-.1-.3-.2-.4-.3zm3.2 3h-.3l-.2-.3c.2.1.3.2.5.3zm-1.3-.6c-.2-.1-.4-.1-.6-.2v-.2c.1.1.2.2.3.2.2.1.3.1.3.2zm.9 1.1l-.2-.2h.4c-.1.1-.1.2-.2.2zm-3.7-3.2zm-.1 2.7zm-1-.9l.3.2c-.1-.1-.2-.1-.3-.2zm-.9-.3c-.1 0-.1 0-.2-.1h-.1c0-.1.1-.2.2-.3.2-.2.5-.3.8-.3l-.3.3.1.1v.1c-.1-.1-.3 0-.5.2zm.7-.7h.5s0 .1-.1.1v.1h-.1c-.1-.1-.2-.1-.3-.2.1 0 .1 0 0 0zm-.4-1.2c.5 0 1 .1 1.6.4h-.1c-.4 0-.8 0-1.2.1 0 0 0-.1.1-.1l-.3-.3c-.1.1-.3.2-.4.3.1-.2.2-.3.3-.4zm3.4 2.6c-.3-.2-.5-.4-.9-.6.1 0 .2 0 .3.1.1.1.2.2.4.3.2.2.5.4.7.5.3.3.7.6 1 .8h-.2c-.1-.1-.2-.2-.4-.3v-.1c-.2-.1-.3-.3-.5-.4 0 0-.2-.2-.4-.3zm-1.9-1.7c.1 0 .1 0 0 0 .1 0 .1 0 0 0 .1 0 .1 0 0 0zm0 .6l-.1-.2h.1c.2.1.5.1.7.2h-.7zm-.4-.7H19h.1zm-2.6 1.2c.1 0 .2-.1.2-.1.1 0 .2.1.4.1l.2.2-.2.2c-.2-.1-.4-.3-.6-.4zm7.7.8c-.1-.2-.3-.4-.5-.6.4.1.8.2 1.1.3l-.4.4c-.1 0-.2 0-.2-.1zM20 29.7c-.3 0-.6-.1-.9-.2.9.2 1.8.4 2.7.8l-1.2-.3c-.2-.2-.4-.2-.6-.3zm-.5 7c-4.2.8-8.6 1.5-12.2 3.8 0 0 0-.1-.1-.1v-.5c1.1-2.5.4-6.4-.7-9.8C6.3 29 6 28 5.5 27l-.2-.4c1.4 1.1 3.1 2.2 4.6 3l.4.4.3-.3c-.4-.3-.7-.6-1.1-.9.3.1.7.2 1 .3l.1-.4c-.3-.1-.7-.2-1-.3l.1-.1s0-.1-.1-.1l.1-.3c-.1-.1-.2-.2-.3-.2l-.6-.6c.2-.1.2-.1.3-.1l.2-.4c.2 0 .3 0 .5-.1l.2.3c.1-.1.3-.1.4-.2l-.2.2.2.3c.1 0 .2-.1.3-.1-.1.1-.2.3-.3.4l.1.1v.1l-.2.2-.1.1.3.3s0-.1.1-.1c.2-.2.3-.4.5-.6.4-.2.7-.5 1-.8.8-.6 1.6-1.3 2.2-2.1.1-.1.2-.3.3-.4l-.1-.2c5.2-4.8 13.1-10 19.3-9.9.9 0 1.8.2 2.7.5.2 3.1.8 7.9 2.3 10.8-.1.4-.2.7-.3 1.1-.5-.3-.9-.5-1.4-.7-5.6-3.3-13.2-.5-18.8 2.9-.2 0-.4-.1-.6-.1l-.1.4h.2c-1.6 1-3.1 2.1-4.2 3l.3.3c.1-.1.2-.1.3-.2v.2c.9.1 1.7.2 2.5.5.1.1.3.2.4.3 1 .8 2.1 1.4 3.2 2l.1-.1c.4.3.7.5 1.1.8l.2.2c.3-.2.5-.4.8-.5 0 0 .1 0 .1.1l.1.1-.5.5c-1.3 0-2 .2-2.7.5zm-.8.7c.3-.1.6-.2.8-.3h.1c-.2.1-.6.2-.9.3zM8.3 40.3c2.9-1.6 6.2-2.3 9.6-2.9-.5.2-.9.5-1.4.8-2.7.7-5.4 1.3-8.2 2.1zm-.7 1.1c-.1-.1-.2-.2-.3-.4 2.5-.8 5.1-1.4 7.6-2-.8.4-2.2 1.1-3.5 1.6-1.6.7-3.2 1.1-3.8.8 0 .1 0 0 0 0z"/></svg>