<svg xmlns="http://www.w3.org/2000/svg" width="169.8" height="40" viewBox="0 0 169.8 40"><path fill="#FFF" d="M47.3 23.3c-.1-.1-.1-.3-.1-.4 0-.1 0-.2.1-.2s.1-.1.1-.2 0-.2-.1-.2c0-.1-.1-.1-.1-.2h.1c.1 0 .2 0 .2.1s0 .1.1.1h.1c0-.2 0-.4.1-.5 0-.2.1-.3.2-.4.1-.1.1-.3.2-.4s.1-.3.1-.5c.1 0 .1 0 .1.1l.1.1c.2 0 .4 0 .6-.1.2-.1.4-.1.6-.2l.2.6s.1 0 .1-.1.1-.1.1-.2v-.2-.1c.1-.1.3-.2.4-.3.1-.1.2-.1.4-.1h.2-.5c0 .1.1.1.1.2s.1.1.1.1c.1 0 .2 0 .2-.1.1-.1.1-.2.1-.3 0-.1.1-.2.1-.3s.1-.2.1-.2c.1-.1.1-.1.2-.1s.1 0 .2-.1c.1 0 .1 0 .1-.1 0 0 .1-.1.1-.2s-.1-.2-.2-.3-.2-.1-.3-.1c-.1 0-.1 0-.1.1l-.1.1c0-.2-.1-.4-.1-.5 0-.2-.1-.4-.1-.5h-.1s-.1 0-.1.1v-.3c0-.1 0-.2-.1-.3-.2-.2-.3-.2-.4-.2-.1 0-.3.1-.4.1v.1c-.2 0-.4-.1-.5-.2-.2-.2-.3-.3-.3-.5l-.1.1h-.1v-.1c-.1-.1-.1-.2-.1-.3v-.3c-.1.1-.2.1-.2.1-.1 0-.1.1-.2.1-.2 0-.2-.1-.2-.2v-.4H48s-.2 0-.2.2c0 0 0 .1.1.1s.1.1.1.1 0 .1-.1.1c0 .1-.1.1-.1.1s0-.1-.1-.1v-.1h-.2c-.2-.1-.3-.2-.4-.4-.1-.2-.1-.3-.2-.5v-.4-.2h-.3l-.1.1s0 .1-.1.1c0-.2 0-.3-.1-.4-.2-.2-.3-.2-.4-.3l-.2-.2c-.1-.1-.2-.2-.2-.3v-.2-.2c0-.4.1-.7.2-1 .1-.3.3-.5.4-.7s.3-.4.4-.6c.1-.2.2-.4.2-.7h.7v-.1-.2-.1s.1-.1.2-.1.2.1.2.2c.1.1.2.2.4.2v.2h.1l.1-.1V8.9v-.1s0-.1.1-.1.2 0 .3.1c.1.1.1.1.1.2s.1.2.1.3c0 .1.1.2.1.3.1 0 .1-.1.1-.2v-.2c0-.2-.1-.4-.2-.4s-.3-.1-.5-.3h.7c.1 0 .1 0 .1.1s.1.1.1.2v.4h.3l.3-.6.5.3c.1-.1.1-.2.3-.2.1 0 .2 0 .2.1-.1.1 0 .2 0 .2h.1v-.4h.1c.1 0 .1.1.1.2s0 .1-.1.2c0 0-.1.1-.1.2l.1.1c.1 0 .2-.1.2-.2v-.3c.1 0 .2 0 .3.1l.3.3.1-.1s.1-.1.2-.1.1-.1.2-.1l.1-.1c.1 0 .2 0 .2.1s.1.2.1.3v.5l.1.1.1.1v.4c0 .1 0 .2-.1.2s-.1 0-.1-.1c0 0 0-.1-.1-.1l-.1-.1c-.1 0-.2-.1-.3-.1v.2h.2c.1 0 .1.1.1.1v.1s0 .1.1.1c0 0 .1.1.2.1 0 .1 0 .1-.1.1s-.1.1-.2.1-.1.1-.2.1-.1.1-.1.2 0 .2.1.2.1.1.1.2v.2l-.1-.1c-.1 0-.1-.1-.2-.2s-.2-.1-.2-.1c-.1 0-.1-.1-.2-.1s-.1 0-.1.1l-.1.1s-.1 0-.1-.1-.1-.1-.2-.2l-.2-.2-.1-.1-.1-.1v-.2-.1h-.5c-.2 0-.4 0-.6.1-.2 0-.4 0-.6.1h-.4c-.2 0-.3 0-.4.1-.1 0-.2.1-.2.2s-.1.2-.1.3c0 .1-.1.2-.2.4-.1 0-.1-.1-.1-.1l.1-.1h-.5s-.1 0-.1.1v.3s.1.2.2.2.1-.1.2-.2c0-.1.1-.2.1-.2v.3c0 .1.1.3.1.4 0 .1.1.3.2.4s.2.2.3.2h-.1v.1c0 .1 0 .1.1.2.1 0 .2.1.3.1.1 0 .2.1.2.2.1.1.1.2 0 .3 0-.1.1-.1.2-.1s.2 0 .2.1.1.2.1.2c0 .1.1.2.1.2 0 .1.1.1.2.1h.1c-.1-.1-.1-.1-.1-.2V14c0-.1 0-.1-.1-.2 0-.1-.1-.1-.2-.2h.2c.1 0 .2 0 .3.1.1.1.2.1.3.2.1.1.2.2.3.2.1.1.2.1.3.2.1 0 .2.1.3.1.1 0 .2.1.2.1l.5.9v-.1c0-.1 0-.1.1-.1l.3.6.2-.1c-.1.1-.1.3 0 .4 0 .2.1.3.2.4.1.1.2.3.3.4.1.1.3.2.4.2.1.1.2.3.3.4.1.1.1.3.1.4 0 .1-.1.2-.2.3-.1.8-.2.8-.3.8.1.2.2.3.2.5 0 .1 0 .2-.1.4 0 .2-.1.3-.3.3H53s-.1 0-.1-.1v.1c0 .1 0 .1.1.2v.2l.1.1-.1.1c0 .1-.1.1-.1.1-.1.1-.1.2-.2.2l-.2.2c0 .1.1.1.2.1v.3c-.1 0-.2-.1-.3-.2-.1-.1-.2-.2-.3-.2l-.2 1s0 .1-.1.1-.1 0-.1-.1v-.1-.1s0-.1-.1-.1-.2.1-.2.2 0 .2-.1.3h-.1c-.1 0-.2-.1-.3-.2s-.1-.2-.2-.3c-.1 0-.1 0-.1.1v.1c0 .1 0 .1.1.1l.1.1v.2c0 .1-.1.1-.2.1h-.1v-.2c0-.1-.1-.1-.1-.2H50.1l-.1.1.1.1s.1 0 .1.1H50V22.9s0 .1-.1.2h-.4l-.1.1v.1h-.1c-.1 0-.2 0-.2-.1s-.1-.1-.3-.1h-.2l-.1.1c0 .1-.1.1-.1.1s-.1 0-.1-.1l-.1-.1s-.1 0-.2-.1c-.1 0-.2 0-.2-.1-.1 0-.2-.1-.2-.1-.2.5-.3.5-.3.5zm-1.2-11.9c-.1 0-.1.1 0 0-.1.1-.1.2 0 .2 0 0 .1 0 0-.2.1.1 0 0 0 0zm.4 1.6c0 .1 0 .1.1.1h.2c.1 0 .2 0 .2-.1 0 0 .1-.1.1-.2v-.1s0-.1-.1-.1v.2l-.1.1c-.1 0-.1 0-.2.1s-.1 0-.2 0zm.2.5c0 .1.1.1.2.1v-.1h-.2zm.4-.2c.1 0 .2.1.2.2v.3c.2-.1.2-.3.3-.5s0-.4 0-.5v-.1l-.1-.1c0 .2 0 .3-.1.4-.1.2-.2.2-.3.3zm.2 1.6s0 .1 0 0c-.1.2 0 .2 0 .2.1 0 .1 0 0-.2.1.1.1 0 0 0zm0-.2c0-.1 0 0 0 0v.1c.1 0 .1-.1 0-.1.1 0 .1 0 0 0zm.2 8.3h.1-.1zm.3-12.9c-.1.1-.1.1-.1.2h.1v-.2zm.1 12.2h-.1s0 .1.1 0c0 .1 0 0 0 0zm0-7.3l.1-.1-.1.1zm.3 7.8c-.2 0-.3 0-.3.1v.2c.1.1.2.1.3.2.1.1.3.1.5.1v-.1l-.2-.2-.2-.2c0-.1 0-.1-.1-.1zM48 11.3c0 .1.1.2.2.2v-.2H48zm.1 11.9c-.1 0-.1.1 0 0-.1.2 0 .2 0 .2v-.2c0 .1 0 0 0 0zm.1-12.1h.2V11l-.2.1zm0-.8s0 .1 0 0c-.1.2 0 .2 0 .2.1 0 .1 0 0-.2.1.1.1 0 0 0zm.2 5.1v.1c0 .1 0 .1.1.1s.1-.1.1-.2v-.2c0 .1 0 .1-.2.2.1-.1 0-.1 0 0zm0 7.1c0 .1 0 .2.1.2v-.1-.1h-.1zm.1-7.7c-.1.1 0 .2 0 .2.1-.1.1-.1 0-.2.1 0 .1 0 0 0zm.6 5.9l-.2.2-.2.2.6.2-.2-.6zm-.3-10.5s-.1 0 0 0c-.1 0 0 .1 0 0zm.3 6h.1c0-.1 0-.1-.1-.2v.2zm.7-.5c0-.1-.1 0 0 0v0zm.4-6.5c-.1 0-.2 0-.2.1V9.6c.1 0 .1-.1.2-.1.1-.1.1-.1.1-.2s0-.1-.1-.1zm-.1 6.5zm.2-.9c-.1.1 0 .2 0 .2s.1-.1 0-.2c.1 0 .1 0 0 0zm0 1.7c0 .1 0 .1.1.1h.2s.1 0 .1-.1v-.1h-.4zm0 5.4l.1-.1h-.1v.1zm.1-6.9h.1l-.1-.1v.1zm.1 1.1l-.1-.1.1.1zm.1-.6c-.1 0-.1 0 0 0-.1.1 0 .2 0 .2s.1-.1 0-.2c.1 0 0 0 0 0zm.1 1.2c-.1.1-.1.1-.1.2h.1v-.2zm.3 5.1c-.1 0-.2 0-.2.1h.2v-.1zm-.1-5.6h.1v-.1c0-.1-.1-.1-.1-.1v.2zm.2-1.1c-.1 0-.1 0 0 0-.1.1-.1.2-.1.3V15.7c.1 0 .2 0 .2-.1.1-.1.1-.1.1-.2v-.2c-.1-.1-.1-.1-.2-.1zm-.1 1.8v-.3.3zm.1-7.8c-.1.1 0 .2 0 .2.1 0 .1-.1 0-.2.1 0 .1 0 0 0zm.4 6.2v.2c.1-.1.1-.2 0-.2zm0 2.3c0 .1 0 .2.1.4 0 .1.1.2.3.2h.5c0-.1 0-.1-.1-.1h-.1s-.1 0-.1-.1-.1-.2-.1-.3c-.1.1-.2.1-.2.1h-.2c0-.1 0-.2.1-.2 0-.1 0-.1-.2-.2v.2zm.1 2.2s-.1 0 0 0v0zm.1-3.3c0-.1 0-.1 0 0-.1-.1-.1-.1 0 0-.1 0-.1 0 0 0zm0 2.9c-.1 0-.1.1 0 0-.1.2 0 .2 0 .2v-.2c0 .1 0 0 0 0zm.1-2.7c0 .1.1.2.2.3v-.5c-.2 0-.2.1-.2.2zm.1-7.3c-.1 0-.1 0 0 0-.1.1 0 .2 0 .2v-.2zm0 6.8c0 .1.1.1.2.1v-.1h-.2zm.6.8c-.2 0-.3 0-.4.1-.1.1-.2.2-.2.3.1 0 .2 0 .4-.1.1-.1.2-.2.2-.3zm-.3-6.8h.1c0-.1 0-.1-.1-.2v.2zm.1 6.5zm.1 2.2h.1v-.2h-.1v.2zm.8.5c-.1 0-.1 0-.2.1s-.1.1-.2.1h.2c.1 0 .2 0 .2-.2zM53 19c.1 0 .1-.1.1-.2H53v.2zm.1-1v.1s.1 0 0-.1c.1 0 0 0 0 0zm.1.4s-.1 0 0 0c-.1.1 0 .2 0 .2.1-.1.1-.1 0-.2.1 0 .1 0 0 0zm7.5 4.3l-.1.1v.1c0-.1 0-.1-.1-.1h-.4s-.1 0-.2-.1c-.1 0-.2-.1-.3-.1h-.2v-.2c0-.1-.1-.1-.1-.2 0 0-.1-.1-.2-.1h-.2V22l-.3.2-.1-.1-.1-.1v-.2c0-.1 0-.1-.1-.1s-.1.1-.1.1v.2s-.1.1-.2.1c-.2 0-.4 0-.5-.1-.1-.1-.1-.2-.1-.2v-.3s0-.1-.1-.2h-.5l.1-.2c-.1 0-.3-.1-.4-.1-.1-.1-.2-.2-.2-.3-.1-.1-.1-.2-.2-.3s-.1-.2-.2-.3c0 0 0-.1-.1-.1-.1-.1-.1-.1-.1-.2-.2-.2-.3-.4-.3-.6s-.1-.3-.2-.6c0-.1 0-.2-.1-.3s0-.3 0-.3v-.1-.3-.4-.1-.5-.3c0-.1 0-.3.1-.5 0-.2.1-.3.1-.4s.1-.2.2-.2v.4h.2c.1 0 .2 0 .2-.1 0 0 0-.1.1-.2v-.1h.1v.2h.4s.1 0 .2-.1v-.1c0-.2 0-.3-.1-.4-.1-.1-.1-.3-.1-.4h.4c.1 0 .1 0 .1-.1s-.1-.1-.1-.1h-.2c0-.1 0-.1.1-.2s.1-.2.1-.2h.5c.1 0 .2.1.2.1v.2-.1h.4s.3-.1.3-.2c0 0 .1-.1.1-.2s.1-.2.1-.2c0 .1.1.2.2.2h.2c.1 0 .1 0 .1-.1v-.2h-.3l.1-.1v-.1-.1c0-.1 0-.1-.1-.1 0 0 .1 0 .1.1.1 0 .1.1.1.1s.1 0 .2.1c.1 0 .2.1.2.1 0 .1 0 .2.1.3s.1.2.2.3v-.2l.1.1.1.1h.2c.1 0 .2 0 .2-.1s0-.1-.1-.1-.1 0-.2-.1c0 0 0-.1.1-.1s.1-.1.1-.1.1 0 .2.1.1.1.2.1c.2 0 .2-.1.3-.2 0-.1.1-.2.2-.3 0 0 .1.1.1.2.1.1.1.1.1.2v.2h.1V13l.1-.1v.5c0 .2.1.3.2.5l.1-.1V13s.1 0 .1.1c0 0 .1.1.1.2v.3h.1l.1-.1.1-.1h.7s-.1.1-.1.2-.1.1-.1.2v.1s0 .1.1.1c0 0 .1 0 .2.1h.2s0 .1-.1.1h-.2c.2-.2.1-.2.1-.2-.1 0-.1.1-.1.2V14c0-.1 0-.2-.1-.2v-.1-.1c0-.1-.1-.1-.1-.1h-.1c0 .2 0 .3.1.4.1.1.1.2.1.4h-.1v.1l.2.2v-.2-.1h.1c.1 0 .2.1.2.2v.3c0-.1.1-.2.2-.2h.3v.4h.3s.1 0 .3.1h-.1-.1v.1c0 .1.1.2.2.2h.3s0 .1-.1.1c0 0 0 .1-.1.1h-.1-.1H63.9h-.1s-.1 0-.1.1c.2.1.3.3.4.5-.1-.2-.1-.2-.2-.2h-.2v.1s0 .1.1.1c0 .1.1.1.1.1l.1.1.1.1s0 .1-.1.2c0 .1-.1.1-.1.1 0-.1-.1-.1-.2-.1h-.1l-.1.1c.1 0 .1 0 .1.1v.1c0 .1 0 .2-.1.2 0 0-.1.1-.2.1h-.4c-.1 0-.1.1-.1.2s0 .1-.1.2c0-.1-.1-.1-.1-.1h-.2c-.2 0-.2 0-.3.1 0 .1-.1.1-.2.1l.1-.1s-.1 0-.1-.1-.1-.1-.1-.1l-.1.1.1.1c-.1.1-.1.2-.1.2v.2c0 .1 0 .1-.1.2 0 .1-.1.1-.2.2v-.3c0-.1-.1-.1-.2-.1s-.1 0-.2.1-.1.1-.1.2v-.1-.1-.1-.1-.1-.1c0-.1 0-.1-.1-.1h-.1c-.1 0-.2 0-.3.1-.1.1-.2.1-.2.2l.1.1c.1 0 .1.1.1.1v.6c-.1.1-.2.1-.3.2-.1 0-.1.1-.2.1h-.1c0-.1 0-.2.1-.2.1-.1.1-.1.1-.2s0-.2-.1-.2h-.2v.2c0 .1 0 .2-.1.3 0 .1 0 .1-.1.2V19c0-.1-.1-.1-.2-.1s-.2 0-.3.1c-.2 0-.3.1-.3.1H58.4c0-.2-.1-.3-.2-.4h-.1v.4c-.1 0-.2-.1-.2-.2s-.1-.2-.2-.2v.4s0 .1.1.2c0 .1.1.1.1.1H58.2c.2 0 .4.1.5.1.2 0 .3.1.5.1.2.1.3.1.5.1s.3.1.5.1c0 0 .1 0 .2.1.1 0 .1.1.1.1v.2h.8c.2 0 .3 0 .4.1.1 0 .2.1.4.1 0 .1 0 .2.1.2h.2c.1 0 .2 0 .2-.1l.1-.1h.1v.2h.1c.1 0 .1 0 .1-.1s0-.1.1-.1H63.7c.1 0 .1.1.1.1 0 .1 0 .1.1.1l.4-.4h.7l-.1.1c0 .1.1.1.3.2.1 0 .2.1.3.2l-.2.1V21.6h-.1v.1h.2v.4s-.1-.1-.2-.1-.1-.1-.2-.1v.1h.2v.1c0 .1 0 .1-.1.2s-.1.1-.2.1H64.6h-.2v-.3c-.3 0-.5.1-.7.2v-.4s0 .1-.1.1v.1h-.4l-.1.1-.1-.1H62.7V22l.1-.1h-.2-.4v-.2.1h-.1v-.1H62c-.1 0-.1.1-.1.2s-.1.2-.1.2c0 .1 0 .1-.1.2l-.1.1c-.1 0-.1 0-.1-.1v-.1-.1c-.6.6-.7.6-.8.6zm-5.6-7s-.1 0 0 0c-.1.1 0 .1 0 .1v-.1zm.7.7c-.1.1 0 .1 0 .1.1 0 .1 0 0-.1.1 0 .1 0 0 0zm.1-.4c-.1 0-.1.1-.1.2.1 0 .1 0 .2-.1l-.1-.1zm0 1.4c0-.1 0-.1 0 0-.1-.1-.1-.1 0 0-.1 0 0 0 0 0zm.3-2c-.1 0-.1 0-.1.1v.2s.1 0 .2-.1l.1-.1s-.1-.1-.2-.1c.1 0 .1 0 0 0zm.1.3v0c0 .1 0 0 0 0zm.5 2.5c-.1.1-.1.1 0 .2l.1.1.1.1c.1 0 .1-.1.1-.2v-.2c0-.1 0-.2-.1-.2 0-.1-.1-.1-.1-.2s0-.1.1-.2c0 0 .1-.1.2-.1l.1.1.1.1h.4s.1 0 .2-.1v-.2-.2h.6c.1 0 .2 0 .3-.1.1-.1.2-.2.3-.2 0 .1.1.2.1.3 0 .1.1.1.2.1h.2c.1 0 .1 0 .2-.1l.1-.6c.1 0 .2-.1.3-.1.1 0 .2-.1.3-.1 0 0 .1 0 .1.1.1 0 .1.1.1.1h.1v-.1s0-.1.1-.2v-.2h.3s.2 0 .3-.1h.4v-1c0 .1 0 .1.1.1l.2.2.1.1.1-.1c-.1-.2-.2-.3-.2-.5 0-.1-.2-.3-.3-.4-.1-.1-.2-.1-.3-.2s-.2-.2-.3-.2c-.2 0-.3 0-.4.1-.1.1-.2.2-.3.2-.1.1-.2.2-.4.2-.1.1-.3.1-.5.1h-.1s-.1 0-.2-.1-.1-.1-.2-.1v.1c0 .1 0 .1-.1.1l-.2.2h-.1-.1l-.1.1-.1.1h-.4l-.1.1v.1H58l-.1-.1c-.4.3-.6.6-.7 1.1-.1-.1-.2 0-.2 0-.1.1-.1.1-.1.2v.4h.1l-.2-.4v.2c0 .1 0 .2.1.3 0 .1.1.2.1.3v.1l-.1.1h-.1v.6h-.2v.1h.2s-.1.1 0 .1zm-.2.4c-.1 0-.1 0 0 0 0 .1 0 .1 0 0 0 .1 0 .1 0 0zm0-3.9s0 .1 0 0c.1.1.1.1.2.1h.2c0-.1 0-.2-.1-.2h-.1l-.2.1zm.2.2s-.1.1 0 0c-.1.1 0 .1 0 .1v-.1c0 .1 0 0 0 0zm0-1.1c0 .1 0 .2.1.2.1.1.2.1.2.1 0-.2 0-.2-.1-.3h-.2zm.2 5.3v.2c.1 0 .1 0 0-.2.1 0 .1 0 0 0zm.2-1s-.1.1 0 0c-.1.2 0 .2 0 .2s.1 0 0-.2c.1.1 0 0 0 0zm0-3.7c.1.1.2 0 .2 0v-.1h-.1c-.1-.1-.1 0-.1.1zm0 1.3c.1-.1.1-.1 0 0v-.1.1zm.3 5.8s-.1 0 0 0l-.1.1c.1 0 .1-.1.2-.1s.1-.1.1-.2c0 0-.1-.1-.2-.1s-.1-.1-.2-.1l-.1.1.1.1c.2.1.2.2.2.2zm-.1.3c-.1.1 0 .1 0 .1s.1 0 0-.1c.1 0 .1 0 0 0zm0-6.9l.1-.2h-.1v.2zm.1 2.9s-.1 0 0 0c-.1.1 0 .1 0 0 0 .1 0 .1 0 0zm0 4.1v.1c.1 0 .1 0 0-.1zm.1-7.5c-.1 0-.1 0 0 0-.1.1 0 .1 0 0 0 .1 0 .1 0 0zm-.1 6.6h.1v-.1l-.1.1zm.3 1c-.1 0-.1 0 0 0-.1 0-.1.1 0 0-.1.1 0 0 0 0zm0-.3c-.1.2 0 .2 0 .2.1 0 .1-.1 0-.2.1 0 .1 0 0 0zm0-1.9zm.1-5.8c-.1.1 0 .2 0 .2s.1-.1 0-.2c.1 0 .1 0 0 0zm.1 0s-.1.1 0 0c-.1.1 0 .2 0 .2s.1 0 0-.2c.1.1 0 0 0 0zm.1 1.1c-.1 0-.1 0 0 0-.1.1 0 .2 0 .2v-.2zm0 6.3h.2c-.1-.1-.1-.1-.2 0 0-.1 0-.1 0 0zm.1-7.4v.1c0 .1 0 .1.1.1l.2-.1c0-.1 0-.1-.1-.2 0-.1-.1-.1-.2-.2 0 0 0 .1-.1.1.2.1.1.1.1.2zm.4 7.3h-.2l-.1.1h.2v-.1zm.2 0s0 .1 0 0V21.6h.2v-.5c-.1 0-.2.1-.2.2zm.1-7.3c-.1 0-.1 0 0 0v.2c0-.1.1-.1 0-.2.1 0 0 0 0 0zm0 .8c-.1 0-.1.1 0 0v.1c0 .1.1.1 0-.1.1.1 0 0 0 0zm.1-1.3c-.1 0-.1 0-.2.1h.2v-.1zm0 1.3c0-.1 0-.2.1-.2v-.2-.1s0-.1-.1-.1v.6zm.2 3.9l-.1-.1.1.1zm.2 2s0 .1 0 0c-.1.1 0 .2 0 .2.1 0 .1 0 0-.2.1.1.1 0 0 0zm.1-2.3s0-.1 0 0c0-.1-.1 0 0 0 0 .1 0 .1 0 0zm0 3.8c0-.1 0-.1 0 0 0-.1-.1-.1 0 0 0 .1 0 .1 0 0zm0-8c.1.1.1.2.1.2s.1.1.2.1h.1s.1 0 .1-.1-.1 0-.1 0c-.1 0-.1 0-.1-.1v-.1-.1l-.3.1zm.3 6.9c.1-.1 0-.1 0 0h-.1.1zm.3 0c.1 0 .1 0 .2-.1l-.2.1zm.2-4.1zm.2.6zm-.1-1.2v.2c0 .1 0 .2.1.2 0 .1.1.1.1.2s.1.1.2.1v-.2-.2c-.1 0-.1 0-.2.1 0-.1-.1-.1-.1-.2s0-.2-.1-.2zm.4-2.8v.1c0 .1 0 .1.1.1s.1 0 .1-.1 0-.1-.1-.1h-.1zm0 3.8l.1-.1h-.1v.1zm.2 3.7c.2.1.3.2.3.2h.1v-.2-.2c-.1 0-.1 0-.2.1s-.2.1-.2.1zm0 1.4h.1c0-.1 0-.1-.1-.2v.2zm.2-1v.2c0 .1.1.1.2.1h.1c0-.1 0-.2-.1-.2 0 0-.1-.1-.2-.1zm.1-4.1v.2s0 .1.1.2c.1 0 .1-.1.1-.2v-.2h-.2zm.1.7v-.2l-.1.1.1.1zm0-2.1c0 .1 0 .1 0 0l.1.1c0-.1.1-.2.2-.2h.3c0-.1-.1-.1-.1-.1h-.1-.2c-.2.1-.2.1-.2.2zm.6.1s-.1 0-.1.1-.1.1-.1.1h.3l-.1-.2zm-.1-2.1h.1v-.1l-.1.1zm.1 8.4v.2c.1 0 .1 0 0-.2.1 0 .1 0 0 0zm.3-4.9l.1-.1-.1.1zm0-1c-.1 0-.1.1 0 0v0c0 .1 0 0 0 0zm.1-.3s-.1 0 0 0h-.1s0 .1.1 0c-.1.1 0 0 0 0zm-.1 1h.1v-.1l-.1.1zm.3.2c-.1 0-.1 0 0 0-.1 0-.1.1 0 0 0 .1 0 0 0 0zm-.1-.5zm.1-1.2s-.1 0 0 0c-.1.1 0 .1 0 .1s.1 0 0-.1c.1 0 0 0 0 0zm.1.2c0 .2 0 .3.1.4.1.1.1.2.2.3l.1-.1v-.1-.1c0-.1 0-.2-.1-.2-.1-.1-.2-.2-.3-.2zm.2 1.2c-.1.1 0 .1 0 .1.1 0 .1 0 0-.1.1 0 .1 0 0 0zm.1-2s-.1 0 0 0v0zm.1-.3c-.1 0-.1 0 0 0-.1.1 0 .2 0 .2v-.2zm.3 1.4l-.2-.1.2.1zm.1 5.1c-.2 0-.2.1-.2.2.1 0 .2-.1.2-.2zm0-6.3c-.1 0-.1 0 0 0-.1.2 0 .2 0 .2V15zm.1.1c-.1 0-.1 0 0 0-.1.1 0 .2 0 .2v-.2zm.3 6.6l.1.1s.1 0 .1-.1.1-.1.1-.1l-.1-.1H64c-.1.1-.1.1-.1.2zm.1.7zm.1-1.1c-.1.1 0 .1 0 .1s.1 0 0-.1c.1 0 .1 0 0 0zm.3.1c-.1 0-.1 0 0 0-.1.1-.1.2 0 .2v-.2zm.5 1.1c-.1 0-.2 0-.2.1l.2-.1c0 .1 0 .1 0 0 .1 0 .1 0 0 0zm4.5-.1c0-.1 0-.2-.1-.3-.1 0-.1-.1-.3-.1 0 0-.1-.1-.2-.1s-.1-.1-.1-.1-.1 0-.1.1c-.1.1-.1.2-.1.2s-.1-.1-.3-.1c-.1-.1-.2-.1-.3-.1-.1 0-.1 0-.1.1s-.1.1-.2.1V22v-.3-.3s0 .1-.1.2-.1.2-.1.2l-.1.1h-.2c.1-.1.2-.2.2-.4v-.2h-.2v.2l-.1.1h-.1s-.1 0-.1-.1v-.2-.1-.1s.1-.1.2-.1.2-.1.2-.2V20s0-.1-.1-.1c0 0-.1 0-.1-.1 0 0-.1 0-.1-.1l-.1-.1v-.2l.1-.2c0 .1 0 .2.1.2h.3c0-.1 0-.2-.1-.3-.1-.1-.1-.2-.2-.2-.1-.1-.2-.1-.2-.2l-.1-.1c0-.1.1-.1.2-.2h.3v.2s.1.1.1.2.1.1.1.1h.1v-.5h-.1s-.1 0-.1-.1c0 0-.1 0-.1-.1h.2c0-.1-.1-.1-.1-.2l-.1-.1H67v.4c0 .1 0 .1.1.2h-.4c-.1 0-.2-.1-.2-.1 0-.1 0-.2.1-.2s.1-.2.2-.2l.2-.2c.1-.1.1-.1.1-.2v-.1-.1h.2l.1-.1v-.5c.1 0 .1-.1.2-.1s.1-.1.1-.2c-.1 0-.2.1-.3.1-.1 0-.2.1-.3.1l.2-.2.2-.2s.1 0 .2-.1c.1 0 .2-.1.2-.1-.1.1-.2.2-.3.2h-.3c0-.1 0-.1.1-.2 0 0 .1-.1.2-.1s.1-.1.2-.1c0 0 .1-.1.1-.2s-.1-.2-.2-.3c-.2-.1-.3-.2-.3-.2h-.3l-.1-.1V15v-.2-.2s0-.1-.1-.1c0-.1-.1-.1-.1-.1v-.2h.1s0 .1.1.3c0 .1.1.2.1.2s.1 0 .1-.1c.1 0 .1-.1.1-.1s-.1 0-.1-.1l-.1-.1v-.2c0-.1 0-.1.1-.2V14.2H67.5V14v-.2c0-.1 0-.1.1-.1 0 .1 0 .1.1.1h.1v-.3H67v-.1-.1s0-.1.1-.1c0-.1.1-.1.1-.1v-.2-.2c0-.1 0-.1.1-.1s.1.1.1.2v.2l.4-.3c-.1-.1-.2-.2-.3-.2h-.4v-.1H67.7s0-.1.1-.1c0-.1.1-.1.1-.2V12h-.1s0-.1-.1-.2c0-.1-.1-.2-.1-.2s.1 0 .1-.1.1-.1.1-.1v-.2s0-.1-.1-.2-.1-.1-.1-.2v-.1-.1-.1-.2-.2h.2v-.2-.2c0-.3.1-.4.4-.4.2 0 .2.1.3.2 0 .1.1.2.2.3l.1-.1V7.9v-.1s0-.1.1-.1h.3c.1 0 .2 0 .3-.1 0 0 .1 0 .1-.1h.1c.1 0 .1 0 .1.1V8l.1.1.1.1s0 .1.1.2-.1.1-.1.2v.2h-.1s-.1 0-.1.1V10c0 .2 0 .3-.1.3-.1.1-.1.2-.1.3h.2v2l-.1.1-.1.1v.9l.1.1v.7c-.1 0-.2.1-.2.2v.3c0 .1 0 .3.1.4.1.1.1.3.1.4v.5c0 .2.1.3.1.4 0 .1.1.3.1.4V18.2s0 .2.1.3 0 .2.1.3v.2c-.1.1-.1.2-.1.3 0 .1 0 .2.1.2l.3.3c.1.1.2.2.3.2.1.1.2.1.3.1h1.5s0-.1.1-.1h.2s.1 0 .1.1v.2c0 .1 0 .1.1.1h.2-.2v-.1-.1h.2c.2-.1.4-.1.6-.2.2 0 .4-.1.6-.1 0 .1 0 .2-.1.3l-.2.2c-.1 0-.1.1-.2.1s-.1.1-.1.1c0 .1 0 .2.1.2s.1 0 .1.1v.2l-.2-.1c-.1 0-.2 0-.2-.1 0 .1-.1.2-.3.4v.7h-.1v-.2H73v.2h-.2c-.1 0-.2.1-.2.2h-.3c-.1 0-.2 0-.3.1h.1v.2h-1.3c-.1-.1-.2-.1-.2-.1s-.1.1-.1.2-.1.1-.1.2h-.1l-.1-.1c-.2-.1-.2-.2-.2-.2s-.1-.1-.2-.1h-.4zm-2-10c-.1 0-.1 0 0 0v0zm.2 4.9l-.1.1-.1.1c.1 0 .1 0 .1-.1v-.1zm.1 3.1s-.1.1 0 0c-.1.1 0 .2 0 .2v-.2c0 .1 0 0 0 0zm.2-12.1c-.1 0-.1 0 0 0-.1.2-.1.2 0 .2v-.2zm.2 13.2c0 .1 0 .2.1.2l.1-.1c0-.1-.1-.1-.2-.1zm.1-3.8s-.1.1 0 0c-.1.1 0 .2 0 .2s.1 0 0-.2c.1.1 0 0 0 0zm.1-5.4c-.1 0-.1 0 0 0-.1.1 0 .1 0 .1v-.1zm.3 7.6zm.3-1.6c-.1 0-.2.1-.2.2h.2v-.2zm0-9.7s-.1.1-.1.2v.1H69.1s0-.1-.1-.1 0-.2-.1-.2zm.1 5.5c-.1 0-.1 0 0 0l-.1.1h.3s0-.1-.1-.1H69zm-.1-5.7zm.1 1c-.1 0-.1 0 0 0-.1 0-.1.1 0 0zm0 5.4h.2v-.1l-.1-.1v.2zm0-6.6l.1.1c.1 0 .1.1.1.1.1.1.1.2.1.2 0 .1.1.1.2.1 0-.1 0-.2-.1-.4-.1-.1-.1-.2-.2-.3l-.2.2c.1-.1 0-.1 0 0zm.1 8.4l.1-.1-.1.1zm.2-6.7zm.2 7.3c.1-.1.1-.1 0 0 0-.1-.1-.1 0 0zm.2-8.2s0 .1 0 0c-.1.2 0 .2 0 .2.1 0 .1 0 0-.2.1.1.1 0 0 0zm2.7 12.9h.1v-.1l-.1-.1v.2zm.4-.6s0 .1 0 0c-.1.1 0 .2 0 .2s.1 0 0-.2c.1.1 0 0 0 0zm7.2 1.4l-.1.1v.1c0-.1 0-.1-.1-.1h-.4s-.1 0-.2-.1c-.1 0-.2-.1-.3-.1h-.2v-.2c0-.1-.1-.1-.1-.2 0 0-.1-.1-.2-.1h-.2V22l-.3.2-.1-.1-.1-.1v-.2c0-.1 0-.1-.1-.1s-.1.1-.1.1v.2s-.1.1-.2.1c-.2 0-.4 0-.5-.1-.1-.1-.1-.2-.1-.2v-.3s0-.1-.1-.2h-.5l.1-.2c-.1 0-.3-.1-.4-.1-.1-.1-.2-.2-.2-.3-.1-.1-.1-.2-.2-.3s-.1-.2-.2-.3c0 0 0-.1-.1-.1-.1-.1-.1-.1-.1-.2-.2-.2-.3-.4-.3-.6s-.1-.3-.2-.6c0-.1 0-.2-.1-.3s0-.3 0-.3v-.1-.3-.4-.1-.5-.3c0-.1 0-.3.1-.5 0-.2.1-.3.1-.4s.1-.2.2-.2v.4h.2c.1 0 .2 0 .2-.1 0 0 0-.1.1-.2v-.1h.1v.2h.4s.1 0 .2-.1v-.1c0-.2 0-.3-.1-.4-.1-.1-.1-.3-.1-.4h.4c.1 0 .1 0 .1-.1s-.1-.1-.1-.1H76c0-.1 0-.1.1-.2s.1-.2.1-.2h.5c.1 0 .2.1.2.1v.2-.1h.4s.3-.1.3-.2c0 0 .1-.1.1-.2s.1-.2.1-.2c0 .1.1.2.2.2h.2c.1 0 .1 0 .1-.1v-.2H78l.1-.1v-.1-.1c0-.1 0-.1-.1-.1 0 0 .1 0 .1.1.1 0 .1.1.1.1s.1 0 .2.1c.1 0 .2.1.2.1 0 .1 0 .2.1.3s.1.2.2.3v-.2l.1.1.1.1h.2c.1 0 .2 0 .2-.1s0-.1-.1-.1-.1 0-.2-.1c0 0 0-.1.1-.1s.1-.1.1-.1.1 0 .2.1.1.1.2.1c.2 0 .2-.1.3-.2 0-.1.1-.2.2-.3 0 0 .1.1.1.2.1.1.1.1.1.2v.2h.1V13l.1-.1v.5c0 .2.1.3.2.5l.1-.1V13s.1 0 .1.1c0 0 .1.1.1.2v.3h.1l.1-.1.1-.1h.7s-.1.1-.1.2-.1.1-.1.2v.1s0 .1.1.1c0 0 .1 0 .2.1h.2s0 .1-.1.1h-.2c-.1 0-.1 0-.2.1-.1 0-.1.1-.1.2v-.2c0-.1 0-.2-.1-.2V14v-.1c0-.1-.1-.1-.1-.1h-.1c0 .2 0 .3.1.4.3-.2.3 0 .3.2h-.1v.1l.2.2v-.2-.1h.1c.1 0 .2.1.2.2v.3c0-.1.1-.2.2-.2h.3v.4h.3s.1 0 .3.1h-.1-.1v.1c0 .1.1.2.2.2h.3s0 .1-.1.1c0 0 0 .1-.1.1h-.1-.1H83.1 83s-.1 0-.1.1c.2.1.3.3.4.5.1-.3 0-.3 0-.3h-.2v.1s0 .1.1.1c0 .1.1.1.1.1l.1.1.1.1s0 .1-.1.2l-.1.1c0-.1-.1-.1-.2-.1H83l-.1.1c.1 0 .1 0 .1.1v.1c0 .1 0 .2-.1.2 0 0-.1.1-.2.1h-.4c-.1 0-.1.1-.1.2s0 .1-.1.2c0-.1-.1-.1-.1-.1h-.2c-.2 0-.2 0-.3.1 0 .1-.1.1-.2.1l-.2-.1s-.1 0-.1-.1-.1-.1-.1-.1l.1.2.1.1c-.1 0-.1.1-.1.2v.2c0 .1 0 .1-.1.2 0 .1-.1.1-.2.2v-.3c0-.1-.1-.1-.2-.1s-.1 0-.2.1-.1.1-.1.2v-.1-.1-.1-.1-.1-.1c0-.1 0-.1-.1-.1H80c-.1 0-.2 0-.3.1-.1.1-.2.1-.2.2l.1.1c.1 0 .1.1.1.1v.6c-.1.1-.2.1-.3.2-.1 0-.1.1-.2.1h-.1c0-.1 0-.2.1-.2.1-.1.1-.1.1-.2s0-.2-.1-.2H79v.2c0 .1 0 .2-.1.3 0 .1 0 .1-.1.2v-.2c0-.1-.1-.1-.2-.1s-.2 0-.3.1c-.2 0-.3.1-.3.1h-.2.2c0-.2-.1-.3-.2-.4h-.1v.4c-.1 0-.2-.1-.2-.2s-.1-.2-.2-.2v.4s0 .1.1.2c0 .1.1.1.1.1H77.8c.2 0 .4.1.5.1.2 0 .3.1.5.1.2.1.3.1.5.1s.3.1.5.1c0 0 .1 0 .2.1.1 0 .1.1.1.1v.2h.8c.2 0 .3 0 .4.1.1 0 .2.1.4.1 0 .1 0 .2.1.2h.2c.1 0 .2 0 .2-.1l.1-.1h.1v.2h.1c.1 0 .1 0 .1-.1s0-.1.1-.1H83.3c.1 0 .1.1.1.1 0 .1 0 .1.1.1l.4-.4h.7l-.1.1c0 .1.1.1.3.2.1 0 .2.1.3.2l-.2.1V21.7h-.1v.1h.2v.4s-.1-.1-.2-.1-.1-.1-.2-.1v.1h.2v.1c0 .1 0 .1-.1.2s-.1.1-.2.1h-.1-.4-.2v-.3c-.3 0-.5.1-.7.2V22s0 .1-.1.1v.1h-.4l-.1.1-.1-.1H82.1v-.1l.1-.1H82h-.4v-.2.1h-.1v-.1h-.1c-.1 0-.1.1-.1.2s-.1.2-.1.2c0 .1 0 .1-.1.2l-.1.1c-.1 0-.1 0-.1-.1v-.1-.1c-.7.5-.7.5-.9.5zm-5.5-7c-.1 0-.1 0 0 0-.1.1 0 .1 0 .1v-.1zm.7.7s-.1 0 0 0c-.1.1 0 .1 0 .1v-.1zm.1-.4c-.1 0-.1.1-.1.2.1 0 .1 0 .2-.1l-.1-.1zm0 1.4c0-.1 0-.1 0 0-.1-.1-.1-.1 0 0-.1 0-.1 0 0 0zm.3-2c-.1 0-.1 0-.1.1v.2s.1 0 .2-.1l.1-.1c-.1 0-.1-.1-.2-.1zm.1.3c-.1 0-.1 0 0 0v0c0 .1 0 0 0 0zm.5 2.5c-.1.1-.1.1 0 .2l.1.1.1.1c.1 0 .1-.1.1-.2v-.2c0-.1 0-.2-.1-.2 0-.1-.1-.1-.1-.2s0-.1.1-.2c0 0 .1-.1.2-.1l.1.1.1.1h.4s.1 0 .2-.1v-.2-.2h.6c.1 0 .2 0 .3-.1.1-.1.2-.2.3-.2 0 .1.1.2.1.3 0 .1.1.1.2.1h.2c.1 0 .1 0 .2-.1l.1-.6c.1 0 .2-.1.3-.1.1 0 .2-.1.3-.1 0 0 .1 0 .1.1.1 0 .1.1.1.1h.1v-.1s0-.1.1-.2v-.2h.3s.2 0 .3-.1h.4v-1c0 .1 0 .1.1.1l.2.2.1.1.1-.1c-.1-.2-.2-.3-.2-.5 0-.1-.2-.3-.3-.4-.1-.1-.2-.1-.3-.2s-.2-.2-.3-.2c-.2 0-.3 0-.4.1-.1.1-.2.2-.3.2-.1.1-.2.2-.4.2-.1.1-.3.1-.5.1h-.1s-.1 0-.2-.1-.1-.1-.2-.1v.1c0 .1 0 .1-.1.1l-.2.2h-.1-.1l-.1.1-.1.1h-.4l-.1.1v.1h-.1l-.1-.1c-.4.3-.6.6-.7 1.1-.1-.1-.2 0-.2 0-.1.1-.1.1-.1.2v.4h-.1l-.2-.4v.2c0 .1 0 .2.1.3 0 .1.1.2.1.3v.1l-.1.1H76v.6h-.2v.1h.2s.1.1.2.1zm-.2.4c-.1 0-.1 0 0 0-.1.1 0 .1 0 0 0 .1 0 .1 0 0zm-.1-3.9c.1 0 .1.1 0 0 .1.1.1.1.2.1h.2c0-.1 0-.2-.1-.2h-.1c-.1.1-.1.1-.2.1zm.3.2c-.1 0-.1.1 0 0-.1.1 0 .1 0 .1v-.1c0 .1 0 0 0 0zm0-1.1c0 .1 0 .2.1.2.1.1.2.1.2.1 0-.2 0-.2-.1-.3h-.2zm.2 5.3v.2s.1 0 0-.2c.1 0 0 0 0 0zm.2-1c-.1 0-.1.1 0 0-.1.2 0 .2 0 .2v-.2c0 .1 0 0 0 0zm0-3.7c.1.1.2 0 .2 0v-.1h-.1c-.1-.1-.1 0-.1.1zm0 1.3c.1-.1 0-.1 0 0v-.1.1zm.3 5.8c-.1 0-.1 0 0 0l-.1.1c.1 0 .1-.1.2-.1s.1-.1.1-.2c0 0-.1-.1-.2-.1s-.1-.1-.2-.1l-.1.1.1.1.2.2zm-.1.3c-.1.1 0 .1 0 .1s.1 0 0-.1c.1 0 .1 0 0 0zm0-6.9l.1-.2h-.1v.2zm.1 2.9c-.1 0-.1 0 0 0-.1.1-.1.1 0 0 0 .1 0 .1 0 0zm0 4.1v.1c.1 0 .1 0 0-.1zm.1-7.5c-.1 0-.1 0 0 0-.1.1-.1.1 0 0 0 .1 0 .1 0 0zm-.1 6.6h.1v-.1l-.1.1zm.2 1s-.1 0 0 0c0 0 0 .1 0 0 0 .1 0 0 0 0zm.1-.3s-.1 0 0 0c-.1.2 0 .2 0 .2.1 0 .1-.1 0-.2.1 0 .1 0 0 0zm0-1.9zm.1-5.8s-.1 0 0 0c-.1.1 0 .2 0 .2s.1-.1 0-.2c.1 0 0 0 0 0zm.1 0c-.1 0-.1.1 0 0-.1.1 0 .2 0 .2V14c0 .1 0 0 0 0zm.1 1.1c-.1 0-.1 0 0 0-.1.1 0 .2 0 .2v-.2zm0 6.3h.2c-.1-.1-.1-.1-.2 0 0-.1 0-.1 0 0zm.1-7.4v.1c0 .1 0 .1.1.1l.2-.1c0-.1 0-.1-.1-.2 0-.1-.1-.1-.2-.2 0 0 0 .1-.1.1.1.1.1.1.1.2zm.4 7.3h-.2l-.1.1h.3v-.1zm.2 0s0 .1 0 0V21.6h.1v-.5c-.1 0-.1.1-.1.2zm0-7.3v.2c.1-.1.1-.1 0-.2.1 0 .1 0 0 0zm0 .8s0 .1 0 0v.1c.1.1.1.1 0-.1.1.1.1 0 0 0zm.2-1.3c-.1 0-.1 0-.2.1h.2v-.1zm-.1 1.3c0-.1 0-.2.1-.2v-.2-.1s0-.1-.1-.1v.6zm.3 3.9l-.1-.1.1.1zm.2 2s0 .1 0 0c-.1.1 0 .2 0 .2.1 0 .1 0 0-.2.1.1.1 0 0 0zm.1-2.3s0-.1 0 0c-.1-.1-.1 0 0 0 0 .1 0 .1 0 0zm0 3.8c0-.1 0-.1 0 0-.1-.1-.1-.1 0 0 0 .1 0 .1 0 0zm0-8c.1.1.1.2.1.2s.1.1.2.1h.1s.1 0 .1-.1-.1 0-.1 0c-.1 0-.1 0-.1-.1v-.1-.1l-.3.1zm.3 6.9c0-.1 0-.1 0 0h-.1.1zm.3 0c.1 0 .1 0 .2-.1l-.2.1zm.2-4.1zm.2.6zm-.1-1.2v.2c0 .1 0 .2.1.2 0 .1.1.1.1.2s.1.1.2.1v-.2-.2c-.1 0-.1 0-.2.1 0-.1-.1-.1-.1-.2s0-.2-.1-.2zm.4-2.8v.1c0 .1 0 .1.1.1s.1 0 .1-.1 0-.1-.1-.1h-.1zm0 3.8l.1-.1h-.1v.1zm.2 3.7c.2.1.3.2.3.2h.1v-.2-.2c-.1 0-.1 0-.2.1s-.2.1-.2.1zm0 1.4h.1c0-.1 0-.1-.1-.2v.2zm.2-1v.2c0 .1.1.1.2.1h.1c0-.1 0-.2-.1-.2s-.1-.1-.2-.1zm0-4.1v.2s0 .1.1.2c.1 0 .1-.1.1-.2v-.2h-.2zm.2.7v-.2l-.1.1.1.1zm-.1-2.1s.1 0 0 0c.1.1.1.1 0 0l.1.1c0-.1.1-.2.2-.2h.3c0-.1-.1-.1-.1-.1h-.1-.2c-.1.1-.2.1-.2.2zm.7.1s-.1 0-.1.1-.1.1-.1.1h.3l-.1-.2zm-.2-2.1h.1v-.1l-.1.1zm.2 8.4s-.1 0 0 0v.2s.1 0 0-.2c.1 0 0 0 0 0zm.2-4.9l.1-.1-.1.1zm0-1s0 .1 0 0v.2c.1 0 .1 0 0-.2.1.1.1 0 0 0zm.1-.3h-.1c.1 0 .1.1.1 0 0 .1 0 0 0 0zm-.1 1h.1v-.1l-.1.1zm.4.2c-.1 0-.1 0 0 0-.1 0-.1.1 0 0 0 .1 0 0 0 0zm-.1-.5zm.1-1.2c-.1 0-.1 0 0 0-.1.1 0 .1 0 .1v-.1zm0 .2c0 .2 0 .3.1.4.1.1.1.2.2.3l.1-.1v-.1-.1c0-.1 0-.2-.1-.2-.1-.1-.1-.2-.3-.2zm.3 1.2s-.1 0 0 0c-.1.1 0 .1 0 .1v-.1zm.1-2c-.1 0-.1 0 0 0v0zm0-.3c-.1.1 0 .2 0 .2s.1-.1 0-.2c.1 0 .1 0 0 0zm.4 1.4l-.2-.1.2.1zm.1 5.1c-.2 0-.2.1-.2.2.1 0 .2-.1.2-.2zm0-6.3c-.1 0-.1 0 0 0-.1.2 0 .2 0 .2V15zm0 .1c-.1.1 0 .2 0 .2s.1-.1 0-.2c.1 0 .1 0 0 0zm.4 6.6l.1.1s.1 0 .1-.1.1-.1.1-.1l-.1-.1h-.1c-.1.1-.1.1-.1.2zm.1.7zm.1-1.1s-.1 0 0 0c-.1.1 0 .1 0 .1s.1 0 0-.1c.1 0 0 0 0 0zm.3.1c-.1 0-.1 0 0 0-.1.1-.1.2 0 .2v-.2zm.5 1.1c-.1 0-.2 0-.2.1l.2-.1c-.1.1 0 .1 0 0 .1 0 .1 0 0 0zm8.5.2v-.2-.2c0-.1 0-.1-.1-.1h-.2s-.1 0-.1-.1c0 0-.1-.1 0-.1l-.2.2c-.1.1-.2.1-.2.2v-.3c-.1 0-.1 0-.2.1s-.1.1-.1.2-.1.1-.1.2 0 .1-.1.1-.1-.1-.1-.2 0-.2.1-.2c0-.1.1-.2.1-.3 0-.2-.1-.3-.3-.3l-.1.1-.1.1h-.4l-.1.1-.1.1-.5-.1-.1-.1h-.1-.1-.1c-.1 0-.2 0-.2.1-.1 0-.2.1-.2.1h-.1H88.8l-.1.1c-.1.1-.1.1-.1.2l-.1-.1v-.1s0-.1.1-.1c0-.1.1-.1.1-.2v-.1c0-.1 0-.2-.1-.2s-.1 0-.1.1v.2c-.1 0-.1-.1-.1-.2v-.2h-.2-.1l-.1-.1v-.2V20.9h-.1-.1c-.1 0-.2 0-.2.1 0 0 0 .1-.1.1 0 0 0 .1-.1.1 0 0-.1.1-.2.1v-.2-.1-.1c0-.1 0-.1.1-.2l.1-.1v-.1-.1h-.1-.1l-.1-.1c0-.1-.1-.1-.1-.1h-.1l-.1.1v.1c0 .1 0 .1.1.1h.2v.1h-.5c0-.2 0-.3-.1-.3 0-.1-.1-.1-.1-.2-.1 0-.1-.1-.1-.1s-.1-.1-.1-.2h.1v-.1c0-.1 0-.1-.1-.1s-.1-.1-.1-.1v-.1-.1-.1-.1s0-.1-.1-.1-.1-.1-.1-.1c0-.1 0-.2.1-.2s.1-.1.2-.1.2 0 .3-.1c.1 0 .1-.1.2-.1 0-.1-.1-.1-.1-.1s-.1 0-.1.1-.1.1-.1.1h-.1l-.1-.1H86v-.1-.1c0-.1 0-.2.1-.3s.1-.2.2-.3c.1-.1.1-.2.2-.2.1-.1.1-.1.1-.2s0-.2-.1-.3c-.1-.1-.1-.2-.1-.3 0-.1 0-.2.1-.3.1-.1.1-.2.2-.4v-.3s0-.1.1-.1h.1s.1 0 .1-.1v-.2h.1v.4l.1-.1.1-.1c.1 0 .2.1.3.1.1 0 .1.1.2.1h.1c-.1 0-.1-.1-.2-.2s-.2-.1-.3-.1V15h.2v-.1-.1c0 .1 0 .2.1.3 0 .1.1.2.2.2h.2v-.7s-.1-.1-.3-.2c-.1-.1-.2-.1-.2-.2.1-.1.1-.2.2-.3.1-.1.2-.1.4-.1h.1l.1.1v.1s.1-.1.1-.2.1-.2.2-.3.1-.2.2-.3l.1-.1v1.2h-.1c-.1 0-.1-.1-.1-.1l-.1.1c0 .1 0 .1-.1.1v.1h.4v.1h-.1v.1l.3.1v-.6h.3l.2.1c.1 0 .1.1.1.1h.1l-.1-.1s-.1-.1-.1-.2-.1-.1-.1-.2-.1-.1-.1-.1c0-.1 0-.1.1 0l.1.1h.1v-.3c0-.1 0-.2-.1-.2 0-.1-.1-.2-.1-.3h.4l.1-.1v-.1l.2-.2c.1-.1.2-.1.2-.2.1 0 .1 0 .2-.1h.5c.1 0 .2 0 .3.1v.1l-.1.1-.1.1c.1 0 .2 0 .3-.1l.2-.2c0-.1.1-.1.1-.2s.1-.1.2-.1c0 0 .1 0 .1.1l.2.2.2.2s.3.3.4.3c0 0 0-.1.1-.1v-.1-.1H93h-.1v-.1s0-.1.1-.1H93.2l.4.4h.1l.1-.1v-.1-.1h.5v.4h.1l.1-.1V12l.1.1.2 1.1.5-.4c0-.1 0-.1-.1-.1s-.2 0-.2-.1.1-.1.2-.1h.4s0 .1.1.1c0 .1.1.1.1.2s0 .1-.1.2l-.2.2c.1 0 .1-.1.1 0l.1.1s0 .1.1.1 0 .1.1.1h.1s.1 0 .1-.1v.1s.1 0 .1.1l.1.1s.1 0 .1.1V15c0 .1 0 .1.1.1h.2s.1 0 .1.1v.1l-.1.1c-.1 0-.2-.1-.3-.2-.2-.1-.2-.1-.3-.2-.1 0-.1.1-.1.1v.2c-.1 0-.2 0-.3-.1s-.2-.1-.3-.2c.1 0 .1-.1.1-.1v-.1-.1-.1l-.1-.1c-.1 0-.1-.1-.1-.1-.1 0-.2 0-.3.1l-.2.2-.1-.1-.1-.1h-.4l-.1-.1-.1-.1s-.1 0-.1.1c0 0-.1.1-.1.2s-.1.1-.1.2-.1.1-.2.1h-.2c-.1 0-.2 0-.3.1h-.5-.7c0 .1-.1.1-.1.1h-.2c-.1 0-.2 0-.2-.1s-.1-.1-.2-.1H91h-.1c-.1 0-.1 0-.1-.1l-.1-.1c0 .1 0 .2.1.3 0 .1.1.2.2.3v.1c0 .1 0 .1-.1.2 0 0-.1.1-.2.1s-.1 0-.2.1h-.2v.2h.2c-.1.2-.1.3-.2.4-.1.1-.1.2-.1.4v.7c0 .1-.1.2-.1.3 0 .1-.1.2-.1.4l-1.1-.2v.5s0 .1.1.1c0 .1.1.1.1.1.1 0 .2 0 .2-.1.1 0 .2-.1.3-.1h.1l-.1.4h.1v.4h.2v.2h.1l.2.2.2.2s0 .1.1.1c0 .1.1.1.1.1h.4s.1 0 .1.1l.1.1h.4s.1 0 .2.1h1.8v.3c.1 0 .2-.1.2-.2s.1-.2.2-.3c.2-.1.5-.2.7-.2.2 0 .4-.1.7-.1 0 0 .1 0 .2-.1.1 0 .1-.1.2-.1H96.4c.1 0 .1 0 .3.1l.2.1s.1.1.1.2.1.2.1.2h.1l-.1.1-.1.1v.2c0 .1-.1.1-.2.2-.1 0-.1.1-.2.1s0-.1.1-.1l.1-.1v.2c0-.1-.1-.2-.2-.2s-.1.1-.1.1v.2h-.6-.2V21.4c0 .1.1.1.1.1h-.2c-.1 0-.1 0-.2.1V21.9c0 .1-.1.1-.2.1s-.1.1-.1.3v-.2s0-.2-.1-.2-.1 0-.2-.1h-.1-.1v.4h-.1s-.1 0-.2.1c-.1 0-.1.1-.2.1h-.2s-.1 0-.2.1-.2.1-.2.1c-.1 0-.2 0-.3-.1-.3.1-.3.1-.4.2zm-6.4-4.2c-.1 0-.1 0 0 0-.1.1-.1.1 0 .1v-.1zm0-.7s-.1 0 0 0c-.1.1 0 .1 0 0 0 .1 0 .1 0 0zm.4.7c.1 0 .1 0 .1-.1l-.1.1zm.5.2c-.1 0-.1 0-.1.1l.1-.1c0 .1 0 .1 0 0zm0-3v.2c0 .1.1.1.2.1h.1s.1 0 .1-.1 0-.2-.1-.2h-.3zm.1.7l.1-.1h-.1v.1zm.2 2.9c-.1 0-.1 0 0 0-.1 0-.1.1 0 0 0 .1 0 0 0 0zm.3-1.3c-.1 0-.1 0-.2.1s-.1.1-.1.2h.3c.1 0 .2-.1.2-.2-.1-.1-.1-.1-.2-.1zm-.2-.8l.1-.1c0-.1 0-.1-.1-.1v.2zm.2 3.1s-.1 0 0 0c-.1.1 0 .1 0 .1s.1 0 0-.1c.1 0 0 0 0 0zm.2-3.3c-.1 0-.1 0 0 0-.1.1 0 .2 0 .2V17zm0 .4h.1v-.1l-.1.1zm.1-3.2l.1-.1-.1.1zm.2 2v.1c0 .1 0 .1-.1.1.2-.1.2-.2.1-.2.1-.1.1-.2.1-.2h-.1s-.1 0-.1.1l.1.1zm.1-.6c-.1 0-.1 0 0 0-.1.1-.1.1 0 0-.1.1-.1.1 0 0 0 .1 0 .1 0 0zm-.1 1.3v.1l.1.1.1.1s0 .1.1.1c0 .1.1.1.1.1h.2l.1.1v.1c.1 0 .1-.1.2-.1 0-.1.1-.1.1-.2s0-.3-.1-.4c0-.2-.2-.3-.3-.3h-.3c-.2.1-.3.2-.3.3zm.2 4.1c-.1 0-.1 0 0 0l-.1.1h.1V21zm.3-6l.2.1-.2-.1zm.2 1.3v.1c0 .1 0 .1.1.1l.1-.1v-.1h-.2zm1.4-2.2c.1 0 .2-.1.2-.2h-.2v.2zm.4-.7c0 .1 0 .1 0 0 .1.1.1.1.2.1 0 0 .1 0 .1-.1h-.3zm.5.2c-.1.1-.1.1-.1.2s0 .2-.1.4v.4h.1c.1-.1.1-.2.2-.4 0-.1.1-.2.1-.4v-.2h-.2zm.2-.2c0 .2.1.3.2.4.1-.1.1-.1.1-.2l.3.2s.1 0 .1-.1 0-.2-.1-.3c0-.1-.1-.1-.2-.1h-.3s-.1-.1-.1.1zm0 .9s0 .1 0 0c0 .1.1.1 0 0l.1.1v-.1-.1s.1-.1.2-.1.2-.1.2-.1l-.1-.1v-.2c0 .1-.1.2-.2.3-.1.1-.2.2-.2.3zm.2.4l.1-.1h-.1v.1zm.2-.5c-.1 0-.1.1 0 0-.1.1 0 .2 0 .2v-.2c0 .1 0 0 0 0zm.1.8zm.3-.2c.1 0 .1-.1.1-.2h-.1v.2zm.1-1.4c0 .1 0 .1 0 0 0 .1-.1.1 0 0v.1-.1zm0-.3s0 .1 0 0c0 .1 0 0 0 0zm.5.2c-.1 0-.1.1-.1.1h.1v-.1zm-.1 9.2c.1 0 .2 0 .3-.1.1 0 .2-.1.3-.1v-.1c0-.1 0-.1-.1-.2 0-.1 0-.1-.1-.2 0-.1 0-.1-.1-.1V22H93v.5zm.1-8s-.1 0 0 0c-.1.1 0 .1 0 .1s.1 0 0-.1c.1 0 0 0 0 0zm.4-1.3c-.1.1-.1.2-.1.2l-.1.1v.1s0 .1-.1.2 0 .2 0 .2v-.1l.1-.1h.6l-.2-.2c-.1-.1-.1-.2-.2-.2v-.2zm-.3 1v.2s.1.1.1.2c0 0 .1 0 .1-.1v-.2-.2h-.2c.1 0 0 .1 0 .1zm.9 8v0zm0-8.7zm.1-.6h.1v-.2l-.1.2zm1 7.8l-.1.1v.4c.1 0 .2 0 .1-.1s0-.1 0-.2v-.2c.1.1.1.1 0 0h.1-.1zm.3-7.4c-.1 0-.1.1 0 0-.1.1 0 .1 0 .1v-.1c0 .1 0 0 0 0zm.2.9c-.1 0-.2.1-.2.2.1-.1.2-.1.2-.2zm0 .7c0-.1 0-.1 0 0-.1-.1-.1-.1 0 0-.1 0 0 0 0 0zm.4 5.5s-.1 0 0 0c-.1.1 0 .2 0 .2v-.2zm4.8 1.9s-.1 0-.2.1-.1.1-.2.1-.3 0-.4-.1c-.2-.1-.3-.2-.4-.2h-.1l-.1.1-.1.1h-.2V22h-.2s-.1-.1-.1-.2c-.1-.1-.1-.2-.2-.3-.1-.1-.1-.2-.1-.3 0-.1-.1-.1-.1-.2v-.1s0-.1.1-.1c-.1 0-.2 0-.3-.1-.1 0-.2-.1-.3-.1-.1-.4-.1-.8-.2-1.1 0-.3-.1-.7-.1-1.1v-.7s0-.5.1-.7c0 0 0-.1.1-.2s.1-.2.1-.2v-.1c0-.2 0-.3-.1-.4 0-.1-.1-.2-.1-.4v-.3-.4c0-.1 0-.3.1-.4 0-.1.1-.2.1-.3V8.6c.1-.1.2-.2.2-.3 0-.1 0-.2-.1-.2-.1-.1-.1-.1-.1-.2s.1-.1.2-.2.2-.1.3-.1c.1 0 .1 0 .1.1s0 .1.1.1c.4 0 .4 0 .4-.2v-.3c.1 0 .2 0 .4.1.1.1.2.2.2.3 0 .1 0 .1-.1.2l-.2.2v.1h.2l.1-.1v.2h.2c.1 0 .1 0 .1-.2V8v-.2-.2-.2l-.2-.1.1-.1c.2 0 .3.1.3.2v.5c.1 0 .2 0 .3-.1s.1-.1.1-.2.1-.1.1-.2c0 0 .1-.1.2-.1l.1.1s.1.2.2.3c.1.1.1.2.1.4 0 .1.1.2.1.2 0 .2 0 .3-.1.5s-.1.4-.1.6c0 .1 0 .1-.1.1h-.1-.1-.1s-.1.1-.1.2c-.1.1-.1.2-.1.3s-.1.2-.1.3v.2s0 .1.1.1c0 .1.1.1.1.1v.1s-.1.1-.1.2v.2s0 .1.1.1c0 0 0 .1.1.1 0 0-.1.1-.1.2s-.1.2-.1.2c0 .1.1.1.1.1.1 0 .1.1.2.1s.1.1.1.2.1.2.1.3c0 .1 0 .2-.1.2 0 .1-.1.2-.1.2v.2s0 .1.1.2h1.3s.1-.1.1-.2h.2c.1 0 .2 0 .2.1l.1.1s0-.1.1-.1.1-.1.1-.1c.1 0 .2 0 .2.1l.1.1.1.1s.1.1.2.1.2 0 .2-.1c0 0 0-.1.1-.1s0-.1.1-.1.1-.1.3-.1c0 .2 0 .3-.1.4 0 .1-.1.1-.1.2l-.1.1s-.1.1-.1.2v.2s0 .1.1.1c0 .1.1.1.1.1v.1c0 .1 0 .1-.1.2 0 .1-.1.1-.1.2s-.1.1-.2 0c0 0-.1 0-.1-.1s-.1-.1-.1-.1h-.1V16s-.1 0-.2-.1h-.2c-.1 0-.1 0-.2.1 0 .1-.1.1-.1.2s-.1.1-.1.2-.1.1-.2.1c-.2 0-.3 0-.4-.1-.1-.1-.3-.1-.5-.1h-.1s-.1 0-.1.1v-.2c0-.1 0-.1.1-.2l.1-.2c0-.1-.1-.2-.1-.2l-.2-.2-.2-.2c0-.1-.1-.2-.1-.3 0-.1 0-.2.1-.3 0-.1.1-.2.2-.2h.2c0-.1 0-.2-.1-.3-.1-.1-.2-.2-.3-.2h-.2s.1 0 .2.1.1.1.2.1l-.2.2c-.2.1-.3.2-.3.3-.1.2-.1.3-.2.4l-.2.2c-.1 0-.1.1-.2.2 0 .1-.1.2-.1.4-.1 0-.2-.1-.3-.1h-.1s-.1 0-.1-.1-.1-.1-.1-.2c-.1 0-.2.1-.2.2s0 .1.1.2.1.2.2.2c.1.1.2.1.2.2h.2c-.1.2-.2.3-.4.4-.2.1-.3.2-.4.3 0 .1 0 .1.1.1h.2s.1 0 .1.1v.2h.1c.1.2.1.4.1.5v.6h.2v.2s0 .1-.1.2v.9c-.1 0-.2.1-.2.1v.4c.1 0 .2 0 .3-.1.1 0 .2-.1.3-.1 0 .2.1.4.4.5.2.2.4.3.6.3h.1s.1 0 .1-.1H103.1c.1 0 .2 0 .2.2.1 0 .3 0 .4-.1.1 0 .3-.1.4-.1h.2c.1 0 .2 0 .2.1v.7l-.1.1s-.1 0-.2.1c-.1 0-.2.1-.2.1-.1.1-.2.1-.2.2s-.1.1-.1.1l-.1.1h-.4H102.9l-.1-.1-.2.2.1.1s-.1 0-.1.1c-.1 0-.1.1-.1.1h-.1c-.1 0-.2 0-.2-.1-.1 0-.2-.1-.3-.1-.1 0-.2-.1-.3-.1h-.1l-.1-.1c-.4.1-.5.1-.6.1zm-2.6-3.7h.1v-.2l-.1.2zm.1-9.5c0 .1.1.1.2.1s.2 0 .2-.1c.1 0 .2-.1.3-.1v-.2c-.2 0-.3 0-.4.1s-.2.2-.3.2zm.2 9.2v.2s0 .1.1.1.2 0 .2-.1v-.2-.2c0-.1-.1-.2-.1-.2-.1 0-.1.1-.1.2s-.1.2-.1.2zM99.1 8c-.1 0-.2 0-.4.1-.1.1-.2.2-.2.3.2 0 .3 0 .4-.1.1 0 .2-.1.2-.3zM99 9.6c-.1 0-.1.1-.1.1v.2l.2-.2-.1-.1zm-.1 3.8c0 .1 0 .2.1.3s.2.1.3.1c0-.1 0-.2-.1-.3-.1 0-.2-.1-.3-.1zM99 18l.1-.1-.1-.2-.1.1.1.2zm0-6.4v.1c.1 0 .1-.1 0-.1zm.2 7.4c-.2 0-.2.1-.2.2.1.1.2 0 .2-.2zm-.2-6zm.1 4.2c0-.1 0-.1 0 0-.1-.1-.1-.1 0 0-.1 0 0 0 0 0zm-.1 1.1l.1-.1H99v.1zm.1 2.7h.1v-.8l-.1.1v.7zm.1-13.3c-.1 0-.1 0-.1.1s0 .1.1.1c0 0 .1 0 .1-.1 0 0 0-.1-.1-.1zm.1 1.6c.2.1.3.2.3.4 0 .1.1.2.3.3l.2-.2.2.2.3-.3c0-.1-.1-.1-.2-.1h-.2c0-.1 0-.2.1-.2 0-.1.1-.1.1-.2s.1-.1.1-.2.1-.1.1-.2c-.1 0-.3 0-.4.1-.1.1-.2.1-.4.1-.1 0-.1 0-.1-.1-.1 0-.1.1-.2.2-.2 0-.3.1-.2.2zm0 .8v.1s.1 0 0-.1c.1.1 0 0 0 0zm.1.6l.1-.1h-.2l.1.1zm-.1 8.8h.4v-.1l-.1-.1-.3.2zm1-9.2c-.1 0-.2.1-.3.1-.1.1-.2.1-.3.2s-.2.2-.2.3c-.1.1-.1.2-.1.3 0 0 .1 0 .2-.1l.3-.3.3-.3.1-.2zm-.9 1.4h.1l-.1-.1v.1zm.1 6.7c0 .1 0 .2.1.2s.1.1.2.1v-.3c0-.1-.1-.2-.2-.2 0 .1 0 .1-.1.2.1 0 0 0 0 0zm.1-6.9zm.1 1.8c.1 0 .2.1.2.1.1.1.2.1.2.1l.1-.1.1-.1.1-.1.3-.3c0-.1 0-.2-.1-.3-.1-.1-.1-.1-.2-.1h-.5c-.1 0-.2.1-.2.1-.1 0-.1.1-.1.2v.1s.1 0 .1.1h.1v.2h-.1c.1.1 0 .1 0 .1zm0 1.3l.1.1h.1l.1-.1v-.1c0-.1-.1-.1-.1-.1-.1 0-.1 0-.1.1v.1h-.1zm.1.4l.1.1h.2c-.1-.1-.2-.1-.3-.1.1-.1 0-.1 0 0zm.2 6.9c-.1 0-.1 0-.1.1s0 .1.1.1.1 0 .1-.1 0-.1-.1-.1zm0-6.3c0-.1 0 0 0 0 0 .1 0 .1 0 0 0 0 .1 0 0 0 .1 0 0 0 0 0zm0 3.8s0 .1 0 0c0 .1.1 0 0 0 .1 0 0 0 0 0zm.1-7.7c-.1 0-.1 0-.1.1s0 .1.1.1.1 0 0-.2c.1.1.1 0 0 0zm.2-.2c0-.1 0-.1 0 0h0zm-.1 3.8v-.2l-.1.1.1.1zm0-5.3s-.1 0-.1.1 0 .1.1.1v-.1c.1 0 .1-.1 0-.1zm.1 4s0 .1.1.2c0 .1.1.2.2.2s.2 0 .2-.1v-.2-.2s-.1-.1-.2-.1c-.2-.1-.3 0-.3.2zm0 6.7h.1v-.1l-.1.1zm.1-6c.1.1.1.2.1.3 0 .1.1.2.1.2h.1c0-.1 0-.2-.1-.3s-.1-.3-.2-.2zm.3 6.8s-.1 0 0 0c-.1.2 0 .2 0 .2.1 0 .1 0 .1-.1s0-.1-.1-.1zm.4-12.9c-.1 0-.1.1-.2.1-.1.1-.2.1-.2.3.1-.1.2-.1.2-.2l.2-.2zm.3 12.6s-.1 0 0 0c-.1.2-.1.2 0 .2s.1-.1 0-.2c.1 0 .1 0 0 0zm.5-6.5c0 .2.1.2.2.2v-.1s0-.1-.1-.1c0-.1-.1-.1-.1-.1.1 0 0 0 0 .1zm.1.9h.1c0-.1 0-.2-.1-.2v.2zm.5-1c-.1 0-.1 0-.1.1s0 .1.1.1c.1-.1.1-.1 0-.2.1 0 .1 0 0 0zm.3 7.4c-.1 0-.2.1-.2.2.1 0 .1 0 .1-.1.1 0 .1 0 .1-.1zm0-1c-.1 0-.1 0-.1.1s0 .1.1.1c0 0 .1 0 .1-.1 0 0 0-.1-.1-.1zm.1-5.9h.1v-.2c0-.1-.1-.1-.1-.2v.4zm.4.3l.1-.1-.1-.1v.2zm.3-.8h.1s0-.1.1-.1h-.3l.1.1zm16 8.3h-.4c-.1 0-.1 0-.2-.1 0-.1-.1-.2-.1-.3v-.4-.4-.7c0-.2 0-.4.1-.7l.2-.2-.1-.1-.1-.1h.2s.1 0 .2-.1c-.2-.1-.2-.3-.3-.4 0-.2-.1-.4-.1-.5 0-.3 0-.6.1-.8 0-.2.2-.5.4-.8v-.1s0-.1-.1-.1-.1 0-.2.1c0-.1-.1-.2-.1-.4s-.1-.4-.1-.6c0-.2 0-.3.1-.3s.1-.1.2-.1.1 0 .2-.1c.1 0 .1 0 .1-.1s0-.1-.1-.1-.1-.1-.1-.2v-.1h.1l.1-.1V15v-.4-.1c-.2-.1-.3-.2-.4-.3-.1-.1-.1-.2-.2-.3 0-.1-.1-.2-.1-.4V13v-.3-.3c0-.1 0-.2-.1-.3-.1-.1-.1-.1-.2-.1H118.3c-.1 0-.2 0-.4.1-.2 0-.4 0-.7.1-.2 0-.5.1-.7.1h-.4c-.1 0-.2-.1-.3-.2l-.2-.2v.4c-.1 0-.3 0-.5.1H114l.3-.1c-.1 0-.3 0-.4-.1-.1-.1-.2-.2-.2-.3 0-.1 0-.1.1-.1h.2c.1 0 .1 0 .2-.1 0 0 .1-.2.1-.3v-.3c0-.1 0-.2-.1-.4l-.2.1v-.3l-.1-.1s-.1 0-.1-.1l.2-.1v-.1-.1c0-.1 0-.2-.1-.3 0-.1-.1-.2-.1-.2s0-.1.1-.1c0-.1.1-.1.1-.1l.7-.1c0 .1 0 .2.1.3.1 0 .2.1.3.1v-.1-.1c0-.1.1-.1.2-.2l.1.1c0 .1.1.1.1.1.1 0 .1 0 .1-.1v-.1h.4v.2l-.1.1s0 .1-.1.1c.1 0 .2 0 .3-.1l.2-.2c.1 0 .1.1.1.2s0 .1-.1.1c0 0-.1.1-.1.2V10.1c.1 0 .1 0 .2-.1s0-.1 0-.2v-.1s0-.1-.1-.1c.1 0 .2 0 .2-.1v-.1c0-.1 0-.1.1-.1 0 0 .1 0 .1.1s.1.1.2.2h.2l.1.1v.4s0 .1.1.1c.2-.1.3-.3.4-.4l.3-.3c.1-.1.1-.1.2-.1s.1 0 .2.1v.8c.1-.1.2-.2.3-.2.1-.1.2-.2.3-.2.1-.1.2-.1.2-.2s.1-.2.1-.3c.1 0 .1.1.1.1s0 .1.1.2c0 .1 0 .1.1.2l.1.1h.4v-.1-.1s0-.1.1-.2.1-.2.2-.3h.1s.1 0 .1.1v.4c.1 0 .1 0 .2-.1 0-.1.1-.1.2-.1-.1.1-.1.2-.1.2v.2c.1 0 .2 0 .3-.1l.2-.2c0-.1.1-.2.1-.3v-.3c0-.3 0-.5-.1-.6-.1-.1-.2-.2-.5-.2v-.1H121.2c.1 0 .2-.1.4-.1h.1s.1 0 .1.1l-.1.1v.9c0 .1 0 .1.1.1.2 0 .3-.1.3-.2v-.4c0-.1 0-.2-.1-.3-.1 0-.1-.1-.1-.2.1 0 .3 0 .4.1s.3.2.3.2V9s0 .2.1.3c0 .1.1.2.1.3s.1.1.1.1c.1 0 .1 0 .2-.1.1 0 .1-.1.1-.2v-.5h-.1-.1c-.1 0-.2 0-.2-.1.2-.1.3-.2.3-.2.1-.1.1-.1.1-.2v-.2s0-.1.1-.1h.2c.1 0 .1.1.1.2h-.2l.1.3s0-.1.1-.1l.2-.2c.1-.1.2-.2.3-.2s.1-.1.1-.1v.6c.1 0 .2-.1.4-.2s.3-.2.4-.2c.1 0 .1 0 .2.1s.1.1.1.2-.1.2-.2.3c-.1.1-.2.1-.3.1h-.1s-.1 0-.1-.1V9c0 .1 0 .2.1.2h.1s.1 0 .1-.1v.2c0 .1.1.2.2.2.2 0 .2-.1.2-.2s0-.1-.1-.1-.1 0-.1-.1c0 0 0-.1.1-.1s.1-.1.2-.1.1-.1.2-.1.1-.1.1-.2c0 0 0-.1-.1-.1l-.1-.1s0-.1.1-.1h.2c0 .2 0 .3-.1.5s-.2.3-.4.3c.1 0 .1.1.2.1s.1.1.2.1c0 0 .1 0 .1-.1l.1-.1c.1 0 .2.1.2.2s.1.3.1.4c0 .1 0 .1.1.2.1 0 .1.1.2.1s.2.1.2.1c.1.1.1.2.1.3v.3s-.1.1-.3.1h-.2-.1c-.1 0-.2.1-.4.2-.1.1-.2.1-.4.1v-.2h-.2c-.1 0-.2 0-.4.1s-.3.1-.4.1c-.1 0-.2 0-.2.1h-.1-.1c-.1 0-.2 0-.2-.1-.1-.1-.2-.1-.2-.1-.1 0-.2.1-.2.2s-.1.2-.2.2c0 0-.1 0-.1-.1s-.1-.1-.1-.1c-.1.1-.2.2-.2.4h-.7l-.1-.1-.1-.1c-.1 0-.2.1-.3.2-.1.2-.2.3-.2.4 0 .1 0 .2.1.4 0 .1.1.2.1.4s0 .3-.1.5c0 .1-.1.3-.1.4v.2s-.1 0-.1.1c-.1 0-.1.1-.2.1s-.2.1-.2.2v.2h.1s.1 0 .1-.1c0 .1 0 .1-.1.2l-.2.2s.1 0 .1.1l.1.1c0 .1 0 .1-.1.2 0 .1 0 .1-.1.2v.2l.1.1h.1c.1 0 .1 0 .1-.1s0-.1.1-.2 0-.1 0-.3c.1 0 .1.1.1.1v.4c0 .1 0 .1.1.2l-.1.7c-.1 0-.1 0-.2-.1s-.1-.1-.2-.1c0 .2 0 .4.1.6.1.2.3.3.5.4 0 0 .1 0 .1-.1l.1-.1-.2.2c-.1.1-.1.2-.2.3s-.1.2-.2.3l-.1.1v.6s-.1 0-.1.1l-.1.1c0 .1.1.2.2.4.1.1.2.2.3.2h.2l-.6.6h-.1c-.1 0-.1 0-.1.1 0 0 0 .1-.1.2v.2c0 .1 0 .1-.1.2V22.2l.1.1.1.1v.1s0 .1-.1.2-.1.2-.2.3c-.1.1-.2.2-.2.3-.1.1-.1.2-.2.2.1 0 .1 0 .2.1 0 0 0 .1-.1.1 0 0-.1 0-.1.1-.1 0-.1 0-.2-.1l-.1-.1s-.1-.1-.2-.1c.3-.6.2-.6.1-.6zm-5.8-13.5c0 .1 0 .2.1.2s.1-.1.1-.2h-.2zm.2 1l.6.1-.1-.8-.5.7zm.3.8l.1-.1-.2-.4.1.5zm.3.4c-.1 0-.1.1-.2.2s-.1.2-.1.2c.2.1.3.1.4 0 .1-.1 0-.2-.1-.4zm-.1-1c-.1.1 0 .2 0 .3 0 .1.1.2.1.2s.1-.1.1-.2.1-.2.1-.2 0-.1-.1-.1h-.2zm.6-.6h.1c.1 0 .1 0 .2-.1.1 0 .1-.1.2-.1s.1 0 .1-.1l-.1-.1s-.1 0-.2-.1-.1 0-.2-.1l-.1.6zm.1.3c-.1 0-.1 0 0 0-.1.1 0 .2 0 .2v-.2zm.1.1c-.1 0-.1 0 0 0-.1.1 0 .1 0 .2s.1.1.1.1v-.1c-.1-.1-.1-.1-.1-.2zm.3 1.3zm.2-1.1l.1.1s0-.1-.1-.1c.1-.1.1-.1 0-.1v.1zm0 .7zm.8-.8l-.2.2c-.1.1-.1.2-.1.2.2 0 .3 0 .3-.1 0 0 .1-.1.1-.2-.1 0-.1-.1-.1-.1zm.1-.5s0 .1 0 0c-.1.1 0 .1 0 .1.1.1.1 0 0-.1.1.1.1 0 0 0zm.1.7s0 .1 0 0l.1.1c.1 0 0-.1-.1-.1.1 0 .1-.1 0 0zm.9-.2c-.1 0-.1 0 0 0-.1.1 0 .2 0 .2v-.2zm.1-.8zm1.7 8.6c-.1 0-.2 0-.3.1s-.2.2-.2.3c.1 0 .2 0 .3-.1.1 0 .2-.1.2-.3zm-.4-6.1c-.1 0-.1 0 0 0-.1 0-.1 0 0 0zm0 6.9s-.1 0 0 0c-.1 0 0 0 0 0zm.1-1.2c-.1 0-.1.1 0 0-.1.1 0 .2 0 .2v-.2c0 .1 0 0 0 0zm.2-3.8v0zm.1.5s-.1 0 0 0c-.1.1 0 .2 0 .2s.1 0 0-.2c.1 0 0 0 0 0zm0-4.4zm.1 7.1c.1 0 .1 0 .1-.1v-.1h-.2v.2zm1.2-7.1l-.2.2c-.1.1-.1.2-.1.2.2 0 .3 0 .3-.1 0 0 .1-.1.1-.2l-.1-.1c.1 0 .1 0 0 0zm-.1.5s0 .1 0 0c-.1.1 0 .2 0 .2s.1 0 0-.2c.1.1.1 0 0 0zm0 7.6zm.1-.9c0 .1 0 .1 0 0 0 .1 0 .1 0 0zm.3-.1c-.1 0-.1 0 0 0-.1.1 0 .1 0 .1v-.1zm.1-5h.1c0-.1 0-.1-.1-.2v.2zm0-.6zm.2-1.3s-.1.1-.1.2v.3c.2 0 .3-.1.3-.3v-.1c-.1-.1-.1-.1-.2-.1zm0-1.1c0 .2.1.2.2.2s.1 0 .2-.1c0-.1-.1-.1-.2-.1h-.2zm.5 1.3s-.1 0-.1.1 0 .1.1.1.1 0 0-.2c.1.1 0 0 0 0zm0-.8c0 .1 0 .1 0 0l.1.1.1-.1v-.1c0-.1 0-.2-.1-.2 0 .1-.1.1-.1.2v.1zm.3.7h-.2l-.1.1v0c0-.1 0-.1.1-.1h.2zm0-.5c-.1 0-.1.1-.1.1v.1h.2s-.1-.1-.1-.2zm1.6-.4v.4s0 .3.1.4c.1 0 .2-.1.2-.2s.1-.2.1-.2h-.2v-.4h-.2zm.1 1zm.2-1.5c0-.1 0-.1 0 0-.1-.1-.1-.1 0 0-.1 0-.1 0 0 0zm.1.6c-.1.1 0 .1 0 .1s.1 0 0-.1c.1 0 .1 0 0 0zm.2-.3c0-.1 0-.1 0 0-.1-.1-.1-.1 0 0-.1 0-.1 0 0 0zm.5-1s-.1 0 0 0c-.1.1 0 .1 0 .1 0 .1.1 0 0-.1.1 0 0 0 0 0zm.4 1.2c-.1 0-.1.1-.1.1v.1h.2l-.1-.2zm.6 0v.2c0 .1.1.1.1.1s.1 0 .1-.1v-.1c0-.1 0-.1-.1-.1h-.1c.1 0 .1 0 0 0zm.5.5c-.1 0-.2.1-.2.2v.3h.2s0-.1.1-.2c-.1-.2-.1-.3-.1-.3zm.1.1s-.1 0-.1.1 0 .1.1.1c0 0 .1 0 .1-.1l-.1-.1zm4.8 12.5l-.1.1v.1c0-.1 0-.1-.1-.1h-.4s-.1 0-.2-.1c-.1 0-.2-.1-.3-.1h-.2v-.2c0-.1-.1-.1-.1-.2 0 0-.1-.1-.2-.1h-.2V22l-.3.2-.1-.1-.1-.1v-.2c0-.1 0-.1-.1-.1s-.1.1-.1.1v.2s-.1.1-.2.1c-.2 0-.4 0-.5-.1-.1-.1-.1-.2-.1-.2v-.3s0-.1-.1-.2h-.5l.1-.2c-.1 0-.3-.1-.4-.1-.1-.1-.2-.2-.2-.3-.1-.1-.1-.2-.2-.3s-.1-.2-.2-.3c0 0 0-.1-.1-.1-.1-.1-.1-.1-.1-.2-.2-.2-.3-.4-.3-.6s-.1-.3-.2-.6c0-.1 0-.2-.1-.3s0-.3 0-.3v-.1-.3-.4-.1-.5-.3c0-.1 0-.3.1-.5 0-.2.1-.3.1-.4s.1-.2.2-.2v.4h.2c.1 0 .2 0 .2-.1 0 0 0-.1.1-.2v-.1h.1v.2h.4s.1 0 .2-.1v-.1c0-.2 0-.3-.1-.4-.1-.1-.1-.3-.1-.4h.4c.1 0 .1 0 .1-.1s-.1-.1-.1-.1h-.2c0-.1 0-.1.1-.2s.1-.2.1-.2h.5c.1 0 .2.1.2.1v.2-.1h.4s.3-.1.3-.2c0 0 .1-.1.1-.2s.1-.2.1-.2c0 .1.1.2.2.2h.2c.1 0 .1 0 .1-.1v-.2h-.3l.1-.1v-.1-.1c0-.1 0-.1-.1-.1 0 0 .1 0 .1.1.1 0 .1.1.1.1s.1 0 .2.1c.1 0 .2.1.2.1 0 .1 0 .2.1.3s.1.2.2.3v-.2l.1.1.1.1h.2c.1 0 .2 0 .2-.1s0-.1-.1-.1-.1 0-.2-.1c0 0 0-.1.1-.1s.1-.1.1-.1.1 0 .2.1.1.1.2.1c.2 0 .2-.1.3-.2 0-.1.1-.2.2-.3 0 0 .1.1.1.2.1.1.1.1.1.2v.2h.1V13l.1-.1v.5c0 .2.1.3.2.5l.1-.1V13s.1 0 .1.1c0 0 .1.1.1.2v.3h.1l.1-.1.1-.1h.7s-.1.1-.1.2-.1.1-.1.2v.1s0 .1.1.1c0 0 .1 0 .2.1h.2s0 .1-.1.1h-.2c-.1 0-.1 0-.2.1-.1 0-.1.1-.1.2v-.2c0-.1 0-.2-.1-.2V14v-.1c0-.1-.1-.1-.1-.1h-.1c0 .2 0 .3.1.4.1.1.1.2.1.4h-.1v.1l.2.2v-.2-.1h.1c.1 0 .2.1.2.2v.3c0-.1.1-.2.2-.2h.3v.4h.3s.1 0 .3.1h-.1-.1v.1c0 .1.1.2.2.2h.3s0 .1-.1.1c0 0 0 .1-.1.1h-.1-.1H134.2h-.1s-.1 0-.1.1c.2.1.3.3.4.5-.1.1-.2.1-.2.1h-.2v.1s0 .1.1.1c0 .1.1.1.1.1l.1.1.1.1s0 .1-.1.2l-.1.1c0-.1-.1-.1-.2-.1h-.1l-.1.1c.1 0 .1 0 .1.1v.1c0 .1 0 .2-.1.2 0 0-.1.1-.2.1h-.4c-.1 0-.1.1-.1.2s0 .1-.1.2c0-.1-.1-.1-.1-.1h-.2c-.2 0-.2 0-.3.1 0 .1-.1.1-.2.1l-.2-.1s-.1 0-.1-.1-.1-.1-.1-.1l-.1.1.1.1c-.1.1-.1.2-.1.2v.2c0 .1 0 .1-.1.2 0 .1-.1.1-.2.2v-.3c0-.1-.1-.1-.2-.1s-.1 0-.2.1-.1.1-.1.2v-.1-.1-.1-.1-.1-.1c0-.1 0-.1-.1-.1h-.1c-.1 0-.2 0-.3.1-.1.1-.2.1-.2.2l.1.1c.1 0 .1.1.1.1v.6c-.1.1-.2.1-.3.2-.1 0-.1.1-.2.1h-.1c0-.1 0-.2.1-.2.1-.1.1-.1.1-.2s0-.2-.1-.2h-.2v.2c0 .1 0 .2-.1.3 0 .1 0 .1-.1.2v-.2c0-.1-.1-.1-.2-.1s-.2 0-.3.1c-.2 0-.3.1-.3.1H128.4c0-.2-.1-.3-.2-.4h-.1v.4c-.1 0-.2-.1-.2-.2s-.1-.2-.2-.2v.4s0 .1.1.2c0 .1.1.1.1.1H128.2c.2 0 .4.1.5.1.2 0 .3.1.5.1.2.1.3.1.5.1s.3.1.5.1c0 0 .1 0 .2.1.1 0 .1.1.1.1v.2h.8c.2 0 .3 0 .4.1.1 0 .2.1.4.1 0 .1 0 .2.1.2h.2c.1 0 .2 0 .2-.1l.1-.1h.1v.2h.1c.1 0 .1 0 .1-.1s0-.1.1-.1H133.7c.1 0 .1.1.1.1 0 .1 0 .1.1.1l.4-.4h.7l-.1.1c0 .1.1.1.3.2.1 0 .2.1.3.2l-.2.1V22.2h-.1v.1h.2v.4s-.1-.1-.2-.1-.1-.1-.2-.1v.1h.2v.1c0 .1 0 .1-.1.2s-.1.1-.2.1h-.1-.4-.2v-.3c-.3 0-.5.1-.7.2v-.4s0 .1-.1.1v.1h-.4l-.1.1-.1-.1H132.5v-.1l.1-.1h-.2-.4v-.2.1h-.1v-.1h-.1c-.1 0-.1.1-.1.2s-.1.2-.1.2c0 .1 0 .1-.1.2l-.1.1c-.1 0-.1 0-.1-.1v-.1-.1c.2 0 .1 0 0 0zm-5.6-7c-.1.1 0 .1 0 .1s.1 0 0-.1c.1 0 0 0 0 0zm.7.7c-.1.1 0 .1 0 .1.1 0 .1 0 0-.1.1 0 .1 0 0 0zm.1-.4c-.1 0-.1.1-.1.2.1 0 .1 0 .2-.1l-.1-.1zm0 1.4c0-.1 0-.1 0 0-.1-.1-.1-.1 0 0zm.4-2c-.1 0-.1 0-.1.1v.2s.1 0 .2-.1l.1-.1c-.1 0-.2-.1-.2-.1zm0 .3v.2s.1-.1 0-.2c.1.1 0 0 0 0zm.6 2.5s-.1 0 0 0c-.1.1-.1.1 0 .2l.1.1.1.1c.1 0 .1-.1.1-.2v-.2c0-.1 0-.2-.1-.2 0-.1-.1-.1-.1-.2s0-.1.1-.2c0 0 .1-.1.2-.1l.1.1.1.1h.4s.1 0 .2-.1v-.2-.2h.6c.1 0 .2 0 .3-.1.1-.1.2-.2.3-.2 0 .1.1.2.1.3 0 .1.1.1.2.1h.2c.1 0 .1 0 .2-.1l.1-.6c.1 0 .2-.1.3-.1.1 0 .2-.1.3-.1 0 0 .1 0 .1.1.1 0 .1.1.1.1h.1v-.1s0-.1.1-.2v-.2h.3s.2 0 .3-.1h.4v-1c0 .1 0 .1.1.1l.2.2.1.1.1-.1c-.1-.2-.2-.3-.2-.5 0-.1-.2-.3-.3-.4-.1-.1-.2-.1-.3-.2s-.3-.2-.4-.2c-.2 0-.3 0-.4.1-.1.1-.2.2-.3.2-.1.1-.2.2-.4.2-.1.1-.3.1-.5.1h-.1s-.1 0-.2-.1-.1-.1-.2-.1v.1c0 .1 0 .1-.1.1l-.2.2h-.1-.1l-.1.1-.1.1h-.4l-.1.1v.1h-.1l-.1-.1c-.4.3-.6.6-.7 1.1-.1-.1-.2 0-.2 0-.1.1-.1.1-.1.2v.4h-.1l-.2-.4v.2c0 .1 0 .2.1.3 0 .1.1.2.1.3v.1l-.1.1h-.1v.6h-.2v.1h.2s.2.1.3.1zm-.3.4s-.1 0 0 0c0 .1 0 .1 0 0 0 .1 0 .1 0 0zm0-3.9s0 .1 0 0c.1.1.1.1.2.1h.2c0-.1 0-.2-.1-.2h-.1l-.2.1zm.2.2s-.1.1 0 0c-.1.1 0 .1 0 .1 0 .1.1.1 0-.1.1.1 0 0 0 0zm.1-1.1c0 .1 0 .2.1.2.1.1.2.1.2.1 0-.2 0-.2-.1-.3h-.2zm.1 5.3v.2c.1 0 .1 0 0-.2.1 0 .1 0 0 0zm.2-1s-.1.1 0 0c-.1.2 0 .2 0 .2s.1 0 0-.2c.1.1 0 0 0 0zm0-3.7c.1.1.2 0 .2 0v-.1h-.1c-.1-.1-.1 0-.1.1zm0 1.3c.1-.1.1-.1 0 0v-.1.1zm.3 5.8l-.1.1c.1 0 .1-.1.2-.1s.1-.1.1-.2c0 0-.1-.1-.2-.1s-.1-.1-.2-.1l-.1.1.1.1c.2.1.2.2.2.2zm0 .3c-.1 0-.1 0 0 0-.1.1 0 .1 0 .1v-.1zm0-6.9l.1-.2h-.1v.2zm0 2.9c0 .1 0 .1 0 0 0 .1 0 .1 0 0zm0 4.1v.1c.1 0 .1 0 0-.1zm.1-7.5c-.1 0-.1 0 0 0-.1.1 0 .1 0 0 0 .1 0 .1 0 0zm-.1 6.6h.1v-.1l-.1.1zm.3 1c-.1 0-.1 0 0 0-.1 0-.1.1 0 0 0 .1 0 0 0 0zm0-.3c-.1.2 0 .2 0 .2.1 0 .1-.1 0-.2.1 0 .1 0 0 0zm0-1.9zm.1-5.8c-.1.1 0 .2 0 .2s.1-.1 0-.2c.1 0 .1 0 0 0zm.1 0s-.1.1 0 0c-.1.1 0 .2 0 .2s.1 0 0-.2c.1.1.1 0 0 0zm.1 1.1s-.1 0 0 0c-.1.1 0 .2 0 .2 0-.1.1-.1 0-.2.1 0 0 0 0 0zm0 6.3h.2c-.1-.1-.1-.1-.2 0 0-.1 0-.1 0 0zm.2-7.4v.1c0 .1 0 .1.1.1l.2-.1c0-.1 0-.1-.1-.2 0-.1-.1-.1-.2-.2 0 0 0 .1-.1.1.1.1.1.1.1.2zm.4 7.3h-.2l-.1.1h.2v-.1zm.1 0s0 .1 0 0V21.6h.1v-.5s-.1.1-.1.2zm.1-7.3s-.1 0 0 0v.2c0-.1.1-.1 0-.2.1 0 0 0 0 0zm0 .8s-.1.1 0 0v.1c0 .1.1.1 0-.1.1.1 0 0 0 0zm.1-1.3c-.1 0-.1 0-.2.1h.2v-.1zm0 1.3c0-.1 0-.2.1-.2v-.2-.1s0-.1-.1-.1v.6zm.2 3.9l-.1-.1.1.1zm.3 2c-.1 0-.1.1 0 0-.1.1 0 .2 0 .2v-.2c0 .1 0 0 0 0zm0-2.3c.1 0 0-.1 0 0 0-.1 0 0 0 0 0 .1 0 .1 0 0zm0 3.8c.1-.1 0-.1 0 0 0-.1 0-.1 0 0s0 .1 0 0zm0-8c.1.1.1.2.1.2s.1.1.2.1h.1s.1 0 .1-.1-.1 0-.1 0c-.1 0-.1 0-.1-.1v-.1-.1l-.3.1zm.4 6.9c0-.1-.1-.1 0 0h0c-.1 0 0 0 0 0zm.2 0c.1 0 .1 0 .2-.1l-.2.1zm.2-4.1zm.2.6zm0-1.2v.2c0 .1 0 .2.1.2 0 .1.1.1.1.2s.1.1.2.1v-.2-.2c-.1 0-.1 0-.2.1 0-.1-.1-.1-.1-.2s-.1-.2-.1-.2zm.3-2.8v.1c0 .1 0 .1.1.1s.1 0 .1-.1 0-.1-.1-.1h-.1zm0 3.8l.1-.1h-.1v.1zm.2 3.7c.2.1.3.2.3.2h.1v-.2-.2c-.1 0-.1 0-.2.1s-.1.1-.2.1zm0 1.4h.1c0-.1 0-.1-.1-.2v.2zm.2-1v.2c0 .1.1.1.2.1h.1c0-.1 0-.2-.1-.2 0 0-.1-.1-.2-.1zm.1-4.1v.2s0 .1.1.2c.1 0 .1-.1.1-.2v-.2h-.2zm.1.7v-.2l-.1.1.1.1zm0-2.1c0 .1 0 .1 0 0l.1.1c0-.1.1-.2.2-.2h.3c0-.1-.1-.1-.1-.1h-.1-.2c-.2.1-.2.1-.2.2zm.6.1s-.1 0-.1.1-.1.1-.1.1h.3l-.1-.2zm-.1-2.1h.1v-.1l-.1.1zm.1 8.4v.2c.1 0 .1 0 0-.2.1 0 .1 0 0 0zm.3-4.9l.1-.1-.1.1zm0-1c-.1 0-.1.1 0 0v.2s.1 0 0-.2c.1.1 0 0 0 0zm.1-.3h-.1s0 .1.1 0c-.1.1 0 0 0 0zm-.1 1h.1v-.1l-.1.1zm.3.2c-.1 0-.1 0 0 0-.1 0 0 .1 0 0 0 .1 0 0 0 0zm-.1-.5zm.1-1.2s-.1 0 0 0c-.1.1 0 .1 0 .1s.1 0 0-.1c.1 0 0 0 0 0zm.1.2c0 .2 0 .3.1.4.1.1.1.2.2.3l.1-.1v-.1-.1c0-.1 0-.2-.1-.2-.1-.1-.2-.2-.3-.2zm.2 1.2c-.1.1 0 .1 0 .1.1 0 .1 0 0-.1.1 0 .1 0 0 0zm.1-2v0zm.1-.3c-.1 0-.1 0 0 0-.1.1 0 .2 0 .2v-.2zm.3 1.4l-.2-.1.2.1zm.1 5.1c-.2 0-.2.1-.2.2.1 0 .2-.1.2-.2zm0-6.3s-.1 0 0 0c-.1.2 0 .2 0 .2s.1-.1 0-.2c.1 0 0 0 0 0zm.1.1c-.1 0-.1 0 0 0-.1.1 0 .2 0 .2v-.2zm.3 6.6l.1.1s.1 0 .1-.1.1-.1.1-.1l-.1-.1h-.1c-.1.1-.1.1-.1.2zm.2.7zm0-1.1c-.1.1 0 .1 0 .1s.1 0 0-.1c.1 0 .1 0 0 0zm.3.1c-.1 0-.1 0 0 0-.1.1-.1.2 0 .2v-.2zm.5 1.1c-.1 0-.2 0-.2.1l.2-.1c0 .1 0 .1 0 0 .1 0 .1 0 0 0zm11.4-.2h-.4c-.2 0-.3-.1-.5-.1-.2-.1-.3-.1-.5-.2l-.3-.3v-.1c0-.2-.1-.4-.2-.5l-.3-.3c-.1-.1-.2-.1-.3-.2l-.2-.2v-.1-.1-.1h-.2s0 .1-.1.1c0 .1 0 .1-.1.1 0 .1-.1.2-.2.3l-.3.3c-.1.1-.2.2-.3.2-.1.1-.1.2-.1.3v.1s.1 0 .2-.1H143.4l.1.1v.1h-.1-.1v.2l-.1.1c0 .1-.1.1-.1.1H142.8c-.1-.1-.1-.2-.2-.1h-.2l-.2.2c-.1 0-.2.1-.3.1-.1 0-.2.1-.3.1-.1.1-.1.1-.1.2h-1.2c0 .1 0 .1-.1.1h-.2c-.3 0-.7-.1-1-.2-.3-.1-.4-.4-.4-.7v-.3c0-.1 0-.2.1-.3 0 0-.1-.1-.2-.1h-.4c-.1 0-.1 0-.2.1 0 0 0 .1.1.1V21.5c-.2 0-.3 0-.4-.1-.1-.1-.1-.2-.2-.4 0-.1-.1-.3-.1-.4v-.4-.1c0-.1-.1-.1-.1-.2s-.1-.1-.1-.2-.1-.1-.1-.1 0-.1-.1-.2c0-.1 0-.2-.1-.3 0-.1 0-.2-.1-.3v-.2s.1 0 .1-.1l.1-.1c0-.1 0-.2-.1-.2 0-.1-.1-.1-.1-.2s0-.1.1-.2.1-.1.2-.1h.1s.1 0 .1.1v.1l.2-.1c0-.1-.1-.1-.2-.2-.1 0-.2-.1-.2-.1-.1 0-.1 0-.2-.1-.1 0-.1-.1-.1-.2s0-.1.1-.1h.2s.1-.1.1-.2h.6v-.2l-.5-.2v-.1c0-.3 0-.4.1-.6.1-.1.2-.2.3-.2s.2-.1.3-.1c.1 0 .2-.1.2-.1h-.1s-.1 0-.1-.1 0-.2.1-.3.2-.1.3-.1.2 0 .3-.1c.1 0 .2-.1.2-.1v-.1-.1l.2-.2.2-.2v-.2l-.2-.3v-.1s0-.1.1-.1l.1-.1s.1 0 .1.1v.1h.8v.1l.1.1c.2 0 .3 0 .4-.1l.3-.3.3-.3c.1-.1.3-.1.5-.1 0 0 .1.1.3.2s.3.2.5.4c.2.1.4.3.5.4.2.1.3.2.4.2.1 0 .1.1.2.2s.1.2.1.3c0 .1.1.2.1.3v.2c.1 0 .1.1.2.1 0 .1.1.1.1.2s.1.1.1.2c0 0 .1.1.2.1v.2c0 .1.1.2.1.3 0 .1.1.2.1.3 0 .1.1.1.1.2v.2h.1v.2c-.1 0-.3 0-.4-.1-.1-.1-.2-.1-.4-.1 0 0 0 .1.1.2 0 .2.1.2.1.2h.8v.1s0 .1-.1.2c0 .1-.1.1-.1.2v.1l.2.7c0 .1.1.2.2.1.1 0 .2 0 .2.2 0 0 0 .1-.1.2s-.1.1-.1.2 0 .1.1.2c.1 0 .1.1.2.1s.1.1.2.1.1.1.1.2l-.1.4s0 .1.1.1.1.1.2.1.1.1.2.1.1.1.1.1v.1c0 .1.1.2.1.3 0 .1.1.2.1.2s.1.1.2.1c.1.1.3.1.5.2s.3.1.5.2.3.2.4.2c-.1 0-.2.1-.2.1v.4c0 .1 0 .1-.1.2s-.2.1-.3.2c-.2 0-.4.1-.8.1-.1 0-.1 0-.2-.1l-.1-.1s-.1-.1-.1-.2c.7-.2.7-.3.6-.3zm-7.9-3c.1.1.1.2.2.4s.1.3.2.3.2.1.3.1c.1 0 .2 0 .2.1h.8c.1 0 .1 0 .1-.1l.1-.1s.1-.1.3-.1c0 0 .1 0 .3-.1.1 0 .2 0 .3-.1.2-.1.3-.2.4-.5l.3-.6c0-.1.1-.1.2-.1s.2 0 .2-.1c0 0-.1 0-.1-.1-.1 0-.1-.1-.1-.1s0-.1.1-.2l.1-.1c.1-.4.2-.8.3-1.3.1-.5.1-.9.1-1.2 0-.2 0-.3-.1-.4-.1-.1-.2-.2-.3-.2-.1 0-.3-.1-.4-.1h-.5s-.1 0-.3.1-.3.2-.5.3c-.2.1-.3.2-.5.3-.1.1-.2.1-.2.2v.2c0 .1 0 .2-.1.2h-.1-.1l-.4.4c0 .1 0 .1.1.1 0 0 .1.1.1.2v.4c0 .1 0 .1-.1.2 0 .1-.1.2-.1.3-.1.2-.1.3-.2.4s-.2.2-.3.2c-.1 0-.2.1-.3.1-.1 0-.1.1-.1.1 0 .1 0 .2.1.2s.2.1.2.1h.3c.1 0 .1.1.2.1 0 .1-.1.1-.2.2-.4.3-.4.3-.5.3zm1.2 1.3c.1 0 0-.1 0 0h-.1.1zm.2-.2s-.1 0 0 0c-.1.2-.1.2 0 .2s.1 0 0-.2c.1 0 .1 0 0 0zm.1-5.4h.1v-.1h-.1v.1zm.9 5.4l.1-.1c.1 0 .1-.1.1-.2h-.2v.3zm1-7.4h-.1.1zm-.1 7.1h.1V20l-.1.1zm.1.3c-.1 0-.1 0 0 0-.1.2-.1.2 0 .2s.1 0 .1-.1-.1-.1-.1-.1zm.2-1.5c0 .1 0 .1.1.1h.4l-.1-.4c-.1 0-.1 0-.2.1-.2.1-.2.2-.2.2zm.1-5.8c-.1 0-.1 0 0 0-.1.2 0 .2 0 .2s.1-.1 0-.2c.1 0 0 0 0 0zm1.1 6.7h.2v-.2h-.2v.2zm6.8 1.8v-.2-.2s0-.1-.1-.2-.1-.1-.1-.2c0 0 0-.1.1-.1l.1-.1v-.2c0-.3-.1-.7-.2-1-.2-.3-.3-.7-.3-1-.1-.5-.1-.9-.2-1.4 0-.4-.1-.9-.1-1.4v-1.4c0-.2 0-.3.1-.5 0-.2.1-.3.2-.4.1.1.2.2.3.4s.2.2.3.2c0 0 .1 0 .2-.1s.1-.1.2-.1h.1c.2 0 .3 0 .4.1s.2.1.3.3v1s0 .4.1.6c0 .2.1.3.2.4h.2l.1-.1c0-.1-.1-.3-.2-.4-.1-.1-.2-.3-.2-.4 0 0 0-.1.1-.2s.1-.2.2-.2c.1-.1.1-.2.2-.2l.1-.1h.2c.1 0 .1 0 .2-.1 0-.1 0-.1.1-.2V14v-.2l.2-.2c.1-.1.2-.1.2-.2h.1c.1 0 .1 0 .1.1s.1.1.3.1c.2 0 .3-.1.5-.2.1-.1.2-.3.3-.4.1-.2.2-.3.2-.4.1-.1.1-.2.2-.2s.2 0 .3.1c.1.1.2.1.3.2s.2.1.3.2c.1.1.2.1.3.1h.6s.1 0 .2.1l.3.3.3.3c.1.1.1.1.2.1l.1 1.4-.1.1c.2.1.3.2.3.3.1.1.1.2.1.4 0 .1 0 .2-.1.3 0 0-.1.2-.1.3 0 .2 0 .3.1.5 0 .1.1.3.1.4v.1l-.1.1h-.1v.1c0 .1.1.1.1.1.1 0 .2-.1.3-.1.1 0 .1-.1.1-.2s0-.1-.1-.2c0 0-.1-.1-.1-.2l.2-.2.4-.4c.1-.1.3-.2.4-.4s.2-.2.2-.2c.1-.1.2-.2.3-.4.2-.2.3-.4.5-.5.2-.2.4-.3.6-.5.2-.1.3-.2.5-.2h.1l.1.1.1.1c.1 0 .2 0 .3-.1s.2-.1.3-.2c.1-.1.2-.2.2-.3.1-.1.1-.2.1-.3 0 0 .1.1.2.1s.2.1.3.1v.1s.1 0 .1-.1l.1-.1h-.1c0-.4 0-.6.1-.7.1-.1.3-.2.7-.3.1 0 .2.1.3.2l.3.3.3.3c.1.1.2.1.3.1 0 0 .1 0 .1-.1l.1-.1h.1c.1 0 .2.1.2.2.1.1.1.2.1.4s.1.3.1.4v.3c0 .4-.1.7-.2 1.1-.1.4-.2.7-.2 1.1 0 .1 0 .1.1.1l.2.1s-.1.1-.1.2-.1.1-.1.2c0 0 0 .1.1.1s.1.1.1.1 0 .1-.1.1c0 .1-.1.1-.1.1v1.3c0 .1 0 .2.1.3 0 .1.1.3.1.4 0 0 0 .1.1.2s.1.1.1.2c0 0 0 .1-.1.1 0 .1-.1.1-.2.1v.4c0 .2 0 .3.1.4.1.1.1.2.2.3.1.1.1.2.2.2.1.1.1.2.1.3h.4s-.1-.1-.2-.1-.2-.1-.2-.1-.1 0-.2.1-.2.1-.2.1h-.2c-.2 0-.5-.2-.6-.5-.2-.3-.3-.7-.5-1.1l-.3-1.5c-.1-.5-.2-1-.2-1.5-.1-.5-.1-.8-.2-1.1-.1-.3-.1-.5-.2-.5h-.1c0 .1-.1.2-.3.3-.2.1-.3.2-.3.3l-.2.2-.2.2h-.1c-.1 0-.2 0-.2-.1 0 0-.1-.1-.2-.1v.8s0 .2-.1.3-.1.2-.2.4h-.1s0-.1-.1-.2c0-.1 0-.2-.1-.2v-.1c0-.1 0-.1-.1-.1h-.1s-.1 0-.1.1v.5l.2.1v.1h-.1c-.1 0-.1 0-.2-.1-.1 0-.1 0-.1-.1-.1 0-.1 0-.2.1s-.1.1-.1.2h.1c.1 0 .2.1.2.1 0 .3-.1.5-.3.5-.2 0-.4.1-.6.1 0-.1 0-.2-.1-.3 0-.1-.1-.2-.2-.2-.2 0-.3.1-.4.3-.1.2-.1.3-.1.4 0 .1.1.3.2.3.1.1.2.2.2.4 0 .3-.1.6-.2.7s-.3.2-.5.2-.4.1-.6.2-.3.2-.4.5h-.2l-.1-.1-.1-.1h-.1l-.1.1-.1.1h-.1l-.1-.1v-.1-.1s0-.1.1-.1v-.1-.1-.7c0-.3 0-.5-.1-.8 0-.3-.1-.5-.1-.8 0-.3-.1-.5-.2-.6-.1-.1-.1-.3-.2-.3-.1-.1-.1-.2-.1-.3 0-.1-.1-.2-.1-.3v-.5.1s0-.1.1-.1.1-.1.1-.1c0-.1 0-.2-.1-.4l-.1-.2h-.3c.1-.1.1-.1.1-.2v-.4s-.1 0-.1.1-.1.1-.1.1c-.1 0-.1 0-.1-.1s0-.1-.1-.2c0-.1-.1-.2-.1-.2 0-.1-.1-.1-.2-.1s-.2 0-.3.1c-.1.1-.2.3-.4.5-.1.2-.2.4-.3.5-.1.2-.2.3-.2.3l-.2.2-.1.1s-.1 0-.2.1c-.1 0-.1.1-.2.1V17s.1 0 .1.1l.1.1-.4.4h.2c.1 0 .1.1.1.2s0 .2-.1.2-.1.1-.1.2 0 .2.1.2.1 0 .1.1-.1.1-.3.2c-.2.1-.2.2-.2.4 0 .1 0 .2.1.2s.1.1.1.2c0 .4-.1.7-.3.9-.2.2-.5.3-.8.3v1.5c0 .1 0 .1-.1.2l-.1.1h-.2c-.1 0-.2 0-.3.1-.1.1-.2.1-.3.2h-.1c-.3 0-.4-.1-.5-.2-.1-.2-.1-.4-.1-.6v-.4zm.2-6.4v.8c0 .3 0 .4.1.4 0 0 .1-.1.1-.2v-.5c0-.2 0-.3-.1-.4l-.1-.1zm.2 6.8v.2c0-.1.1-.1 0-.2.1 0 0 0 0 0zm.2-.6c0 .1 0 .2.1.3.1.1.1.2.3.2.1 0 .1-.1.1-.2v-.2-.1-.2s-.1.1-.2.1-.1 0-.2.1c0-.1 0-.1-.1 0zm1.5-3.2h.1V18h-.1v.2zm.3-3c0 .1 0 .3.1.5s.1.3.2.4l.2-.2.2-.2h-.2c0-.1-.1-.2-.2-.3-.1-.1-.2-.2-.3-.2zm.6-1v.2c0 .1.1.1.1.2l.1-.1.1-.1v-.1s0-.1-.1-.2c0-.1-.1-.2-.1-.2-.1 0-.1.1-.1.1v.2zm.9 0s-.1 0 0 0v.2l.1.1.1.1v-.2l-.2-.2zm.1-.1h.1V14h-.1v.1zm3.7 4.3s0 .1-.1.2c0 .1 0 .1-.1.1.2 0 .3.1.4.1.1 0 .2.1.4.1l-.5-.7h-.1v.2zm-.1-1.1v0zm.7.5c.1 0 .1 0 .1.1s0 .1-.1.1-.1 0-.1-.1c.1 0 .1-.1.1-.1zm1.9-2s-.1 0-.1.1 0 .1.1.1.1 0 .1-.1-.1-.1-.1-.1zm.2 1.2c0-.1 0-.1 0 0 0 0 0 .1 0 0zm.3-1.7c-.1 0-.1.1 0 0 0 .1 0 .2.1.3 0 .1.1.1.1.2s.1.1.1.1c.1-.1.2-.1.2-.2s0-.2-.1-.2-.1-.1-.2-.1c-.1-.1-.2-.1-.2-.1zm.2 2.1s0-.1 0 0c-.1-.1-.2-.1-.1 0 0 0 0 .1.1 0 0 .1 0 0 0 0zm1.4-1.2c-.1 0-.1 0-.1.1s0 .1.1.1.1 0 .1-.1-.1-.1-.1-.1zm.9-.1H163.2 163.5c.2.1.2 0 .3 0 0 0 .1 0 0 0zm1.8-.2h.4c.1 0 .1-.1.1-.2s0-.1-.1-.2-.2-.1-.4-.1V15.7c.1 0 .1.1 0 .2.1 0 .1 0 0 0zm.3 2.5s0 .1.1.1c0 .1.1.1.1.1v-.4l-.1.1-.1.1zm.6 3.8v-.1h-.1l.1.1zM6.3 32.5c.1.1.1.2.2.3 0 0 .1 0 .1.1.6.2 1.6-.1 2.7-.5s2.1-1 2.6-1.2c.3-.1.5-.3.7-.4.9-.3 1.9-.6 2.8-1v-.1c.2 0 .4-.1.5-.1l.1.1.2-.2c.5-.5 1.2-1 1.7-1.5h.2v-.1-.1l.2-.2.2-.2.1-.1-.2-.3c-.1 0-.2-.1-.3-.1-.4-.1-.9-.2-1.3-.4-.2-.3-.5-.5-.8-.7-.1-.1-.2-.1-.2-.2.3.1.6.1.9.2l.1-.2c-.7-.5-1.5-.8-2.4-.9.3-.2.5-.4.8-.6 1.6-.7 3.4-1.2 4.5-1.4 2.7-.5 4.9-.3 7.2 1.2l.2-.2c-.1-.1-.2-.2-.3-.2h.2l.1.1.2-.2h.1l.1.1v-.1c.3-.1.5-.1.8-.2.5-.1.9-.3 1.3-.6.1 0 .1-.1.2-.1l.1-.1c.4-.4.5-1.1.4-1.9-.1-.7-.3-1.4-.6-2.1 0-.2-.1-.4-.1-.6-.2-1.1-.8-2-.9-3l.1-.1-.2-.2v-.1h-.1c-2.9-2.3-6.6-1.3-9.6-.2-.9.3-1.7.8-2.5 1.2-2.9 1.3-5.9 3.3-7.9 5.6-.1-.1-.2-.1-.3-.2.2-.1.3-.3.4-.4l-.2-.2c-.2.2-.4.3-.6.4-.2-.1-.5-.2-.7-.4l-.1-.1v.1c-.1-.1-.3-.1-.4-.2h-.1l-.1.1c-.1 0-.2-.1-.3-.1l-.2.2c0 .1.1.1.2.2-.4.3-.9.6-1.4.9h-.1c-.2.1-.3.2-.4.4-.2.1-.3.2-.5.2l-.2.1.2.1v.1c-.3 1.6.7 4.3 1.2 6 .2.6.3 1.3.5 2 .1.5.2 1.1.4 1.5 0 .2.1.3.1.5 0-.2.1-.1.1 0s.1.2.2.3h.1zm.9-9.2s0-.1 0 0c-.1-.1-.1-.2-.2-.3h.1c0 .1.1.2.1.3zm0-.6c-.2-.1-.3-.2-.5-.2.3-.2.5-.4.8-.5.2 0 .4-.1.6-.2-.3.2-.6.4-.9.7v.2zm.5-.1l.1.1v.1h-.3c0-.1.1-.2.2-.2zm.4-1.6l.1.1c-.1 0-.2.1-.3.1-.3.1-.7.2-1 .4.2-.1.4-.3.6-.4v-.1h.1c.2-.1.3-.1.5-.1zm-3.5.6l1.2-.6-.1.1c-.2.3-.4.6-.6 1-.2-.1-.5-.2-.7-.3v-.1s.1 0 .1-.1h.1c-.1.1-.1.1 0 0zm2.4.3l-.1.1c-.1.1-.3.2-.4.2-.1 0-.2-.1-.3-.1l.1-.1h.2v.1c.2-.1.3-.1.5-.2zm-.9.6h-.2c.1-.1.2-.1.2 0zm.5.4zm-.8-2.1s.1 0 0 0c.1 0 .1 0 0 0zm.8.3c-.2.2-.5.3-.7.5l-.3.2s-.1 0-.1.1h-.2c.2-.2.3-.5.5-.7.4-.1.6-.1.8-.1zm1.8.4c-.1 0-.2.1-.3.1l.1-.1s.1-.1.2 0c-.1-.1-.1-.1 0 0zm1.1-.1c0-.1.1-.1.1-.1 0 .1 0 .1-.1.1zm-.5.3c-.2.1-.4.2-.5.3-.1 0-.2.1-.3.1.2-.1.5-.3.8-.4-.1 0-.1 0 0 0zm-.1.6c-.1.1-.2.1-.3.1.2 0 .3-.1.3-.1zm-1.3 1.6c-.1 0-.2-.1-.3-.1-.2-.1-.3-.3-.5-.4.3.1.6.3.8.5zm-1.3-.6c-.1-.1-.3-.2-.4-.3l-.1.1c-.1-.1-.3-.2-.4-.3l.2.1s0-.1.1-.1h.1v.1c.2.1.4.2.5.4zm-1-.5c0-.1 0-.1 0 0 .1-.1.1-.1 0 0 .1-.1.1 0 0 0zm-.4 0s0-.1 0 0c0-.1 0-.1 0 0zm.1 2.1c0 .3 0 .6.1.9l-.3-1.5c0 .2.1.4.2.6zm.3 1.1c.1.2.1.4.1.5 0 .3.1.5.1.8.1.4.1.9.1 1.4 0-.2-.1-.3-.1-.5v-.1c0-.7-.1-1.4-.2-2.1zm.6 3.6c.1.5.1 1 .2 1.4-.1-.4-.2-.9-.2-1.4zm-1.2-6.3c.1.2.1.4.2.7-.1-.2-.2-.5-.3-.7v-.4c.1 0 .2.2.1.4zm.4-.3c-.1.1-.1.1 0 0-.1 0-.1 0 0 0zm.6 2.3c0 .4.1.8.1 1.2-.1-.8-.3-1.5-.5-2.2.1.3.2.6.4 1zm.3 1.1c.5 1.6.7 3.3.3 4.6-.1-1-.2-2.1-.4-3.1.1-.5.1-1 .1-1.5zm-1.4-.3c.2.6.4 1.2.6 1.7V27.9c-.2-.5-.4-1.2-.6-1.8zm0-1c-.1-.5-.2-.9-.2-1.4.1.5.1.9.2 1.4zM4 22.4c.1.2.2.4.3.5-.1.5-.1 1 0 1.6-.2-.7-.4-1.5-.3-2.1zm0-.4s.1 0 .1.1.1.1.1.2h.1c.1.1.2.3.2.4h-.2c0-.3-.2-.5-.3-.7zm3.5-1.3c-.1.1-.2.1-.2.2h-.9l.3-.3-.1-.2c-.1 0-.2 0-.2.1.1 0 .1-.1.2-.1.2 0 .5.1.9.3 0-.1 0 0 0 0zm1.4.1l1.5-.9c-.4.4-.9.8-1.3 1.2l-.2-.2v-.1c0 .1 0 .1 0 0 0 .1 0 0 0 0zm2.1-.3l-.9.9-.1-.1.1-.1c.2-.2.4-.4.6-.5.1 0 .2-.1.3-.2zm-.9.2c-.1.1-.2.1-.4.2.3-.2.5-.5.8-.7-.1.2-.2.4-.4.5zm4.6-4.4c-1.1.8-2.1 1.6-3.1 2.4-.6.3-1.2.7-1.8 1.1 1.3-1.3 3-2.5 4.9-3.5zm-3.4 3.5l-.2.2c.1-.1.2-.1.2-.2.4-.5.8-.9 1.2-1.2.1-.1.2-.1.3-.2.2-.1.4-.2.7-.3-.2.2-.4.3-.5.5-.6.4-1.1.8-1.7 1.2.1 0 .1 0 0 0zm4.7-3.5c-.4.2-.8.4-1.3.7.5-.2.9-.5 1.3-.7zm.6-.8c-.1.1-.2.2-.4.2-.1.1-.2.1-.4.2s-.4.2-.6.4c-.1 0-.2.1-.2.1.5-.3 1-.7 1.6-.9zm1.1-.3zm.5-.6l-.6.3v-.1c.1 0 .2-.1.3-.1 0 0 .2 0 .3-.1zm2.8-.8c-1.1.5-2.3 1.1-3.3 1.4 1.1-.6 2.2-1.1 3.3-1.4zm2 .3c.1.1.3.1.4.2-5 .3-10.3 4.4-13.7 8-.2.1-.3.2-.5.4v-.1c.1 0 .1-.1.2-.1l-.1-.1c.1-.1.2-.2.3-.2l.1-.1c.1-.1.2-.2.3-.2.8-.7 1.5-1.5 2.1-2.1l.4-.4c.3-.2.7-.5 1-.8.9-.6 1.7-1.1 2.6-1.7l-.1-.2c.6-.3 1.2-.6 1.8-1 1-.4 2.2-.9 3.3-1.4.7-.2 1.3-.2 1.9-.2zm5.3 8.3v-.2l.1-.1c0-.1 0-.1.1-.2 0 .1.1.3.2.4-.1-.1-.2 0-.4.1zm-.1-1.1h-.3c0 .3 0 .7.1 1.1-.1-.3-.1-.6-.2-1 .1-.3.1-.5.2-.8 0 .1.1.2.1.3 0 .2.1.3.1.4zm.7-1.5c.1.1.1.2.1.4h-.2c.1.5.1 1.1 0 1.6-.1-.3-.2-.6-.2-.9 0-.3 0-.6-.1-.9l.1.1v-.3c0-.4 0-.7-.1-1.1l.3.6c.1.2.1.3.1.5zm-1.3-4.9c0-.1 0-.1.1-.1v.6c-.1-.1-.1-.2-.2-.3l.1-.2c.1.1 0 0 0 0zm.9-.5h-.1.1zm-.4 0c-.1.1-.1.1 0 0zM26 15c.2-.1.3-.1.5-.2-.2 0-.3.1-.5.2zm.9-.8zm.3.8V15.3c0-.1-.1-.2-.1-.3l-.2.1c0 .2.1.4.1.6 0 0 0-.1-.1-.1l-.2.1v-.1l-.2.1c.2.4.3 1 .4 1.3h.1c-.1-.2-.1-.4-.2-.6.1.2.1.4.2.5 0 .2.1.4.2.5.1.4.2.7.3 1.1-.2-.4-.4-.9-.5-1.4h-.3v.7c-.2-.9-.5-1.8-.8-2.7l.9-.3c.3.2.4.2.4.2zm-.2 6.2v-.4.4zm.4-1.4c-.1-.5-.1-1-.2-1.5l.3.6v.1c-.1.3-.1.5-.1.8zm.9.2zm-.6-.5c0 .1 0 .1.1.2 0 .2-.1.3-.1.5-.1-.2 0-.4 0-.7zm.9-1.5s-.1-.1-.1-.2c0-.2-.1-.4-.2-.6l.3.6v.2zm-.2.2l.2.2v.1c0-.1-.1-.2-.2-.3zm-.5-.3v-.1c-.1 0-.1.1 0 .1zm1.3 1.7s0-.1-.1-.1c0-.2 0-.3-.1-.6 0 0 .1.1.2.1v.6zm-1.7-4c.1.1.1.2.2.3 0 .4.2.9.3 1.3l-.3-.6c-.1-.2-.1-.4-.2-.6v-.4zm1.2 1.7c0-.3-.1-.5-.1-.8.1.3.2.6.2 1 0-.1 0-.1-.1-.2zm.8 1.2c0 .1 0 .1 0 0 0 .1 0 .1 0 0zm-1.8 4.2c-.1 0-.1.1-.2.1v-.2-.3c.1.2.2.3.2.4zm-.4-.3c0-.1-.1-.1-.1-.2v-.1l.1-.2v.5zm-.5-1.1c-.6-1.5-.9-3.6-1-5.2.4 1.4 1 2.7 1.2 4.1-.2.4-.3.7-.2 1.1zM25.7 15c.3 1 .6 1.9.8 2.8-.3-.9-.6-1.9-.8-2.8zm-.3 0c-.5-.2-1.1-.3-1.6-.3-1.4-.1-2.8.2-4.2.7 1.9-.8 3.9-1.1 5.8-.8v.4zm-2.1-2l-1.8.3c.6-.1 1.2-.3 1.8-.3zm.7.4v.1c-.5.1-1 .2-1.4.2.4-.1.9-.2 1.4-.3zm3.8.7h-.3c-.6-.2-1.3-.6-2-.7h-.1l.2-.1h-.1c.3 0 .6 0 .9.1.5.1 1 .4 1.4.7zm.7 1.3c0 .1 0 .1.1.2l-.1.1v-.1-.3h-.3v.3c0 .2 0 .4.1.6l-.1-.1c-.2-.5-.2-1-.2-1.3.1 0 .2 0 .4-.1h.2c0 .2.1.4.1.6l-.2.1zm.5 6.7c.1-.3.2-.5.2-.8.1.2.1.4.2.6l.3-.1c-.1-.2-.1-.3-.2-.5h.1c0-.4-.1-.7-.1-1.1l.3.9c0 .3.1.5.1.8l-.1.1-.1.1V22c-.2-.1-.4 0-.7.1zm-2 .9c0-.1.1-.2.1-.4.1.1.1.2.2.3-.1.1-.2.1-.3.1zm-9.3-.2c1.2-.4 2.4-.7 3.6-.7-.5 0-1 .1-1.5.2-.6.1-1.3.3-2.1.5zM13.9 25c.1.1.3.2.4.3-.2-.1-.4-.1-.6-.1.1-.1.2-.1.2-.2zm-2.3 1.6l.1.1c-.2 0-.5-.1-.8-.1.7-.6 1.5-1.2 2.5-1.7-.2.2-.4.3-.5.5-.2.1-.4.2-.6.4-.1.1-.2.3-.3.5-.2 0-.3 0-.4.1 0 0-.1.1-.1.2h.1zm3.8 1.9c-.7-.6-1.4-1.1-2.2-1.4h.1c.5.4 1.1.7 1.8.9.2.2.5.4.7.6l-.2.2c0-.1-.1-.2-.2-.3zm1 .1c.1 0 .1-.1.2-.1l.1-.1c-.1.1-.2.2-.3.4v-.2zm-1.3-3.1c-.1-.1-.2-.1-.3-.2.1 0 .2 0 .2.1.3.1.6.4.8.6l.3.3c-.2-.1-.3-.2-.5-.3-.1-.1-.3-.2-.4-.3.1 0 0-.1-.1-.2zm2.1 1.9H17l-.1-.2c.1.1.2.2.3.2zm-.8-.4c-.1 0-.3-.1-.4-.1v-.1l.2.2h.2zm.6.8l-.1-.1h.3c-.1 0-.2.1-.2.1zm-2.4-2.1zm-.1 1.8zm-.7-.6c.1 0 .1 0 0 0l.2.1s-.1-.1-.2-.1zm-.5-.2h-.2c0-.1.1-.1.1-.2.1-.1.3-.2.5-.2l-.2.2-.2.2zm.4-.5h.3v.1h-.1c-.1 0-.1 0-.2-.1.1 0 .1 0 0 0 .1 0 .1 0 0 0zm-.2-.8c.3 0 .7.1 1 .2h-.1c-.3 0-.5 0-.8.1v-.1l-.1-.2-.2.2.2-.2zm2.2 1.7c-.2-.1-.4-.3-.6-.4h.2c.1.1.2.1.2.2.1.1.3.2.5.4s.4.4.6.5h-.1c-.1-.1-.2-.1-.2-.2l-.3-.3c-.1 0-.2-.1-.3-.2zM14.5 26zm0 .4l-.1-.1h.1c.2 0 .3.1.5.2-.2-.1-.4-.1-.5-.1zm-.3-.4c0-.1 0-.1 0 0 0-.1 0 0 0 0zm-1.7.7c.1 0 .1-.1.2-.1s.2.1.2.1l.1.1-.1.1c-.1 0-.3-.1-.4-.2zm5 .6c-.1-.1-.2-.2-.3-.4.3.1.5.1.7.2-.1.1-.2.2-.3.2h-.1zM14.8 25c-.2 0-.4-.1-.6-.2.6.1 1.2.3 1.7.5-.3-.1-.5-.1-.8-.2-.1 0-.2-.1-.3-.1zm-.4 4.5c-2.8.5-5.6.9-8 2.5v-.1-.3c.7-1.6.3-4.2-.5-6.4-.1-.7-.3-1.4-.7-2l-.1-.2c.9.7 2 1.4 3 1.9.1.1.2.2.3.2l.2-.2c-.2-.2-.5-.4-.7-.6.2.1.5.1.7.2l.1-.3c-.3 0-.5-.1-.7-.2h.1l.1-.2c-.1 0-.2-.1-.2-.2-.1-.1-.3-.2-.4-.4 0 0 .1 0 .1.1l.1-.3c.1 0 .2 0 .3-.1l.1.2c.1 0 .2-.1.3-.1l-.1.1.1.2c.1 0 .1 0 .2-.1-.1.1-.1.2-.2.3l.1.1v.1l-.1.1v.1l.2.2V24c.1-.1.2-.2.3-.4.2-.2.4-.3.6-.5.5-.4 1-.9 1.5-1.3.1-.1.1-.2.2-.3l-.1-.1c3.4-3.1 8.5-6.5 12.5-6.4.6 0 1.2.1 1.7.3.1 2 .5 5.1 1.5 7 0 .2-.1.5-.2.7-.3-.2-.6-.3-.9-.4-3.7-2.2-8.6-.3-12.2 1.8-.1 0-.3-.1-.4-.1l-.1.3h.1c-1.1.7-2 1.4-2.8 2l.2.2c.1 0 .1-.1.2-.1v.1c.6.1 1.1.2 1.6.3.1.1.2.1.3.2.7.5 1.4.9 2.1 1.3l.1-.1c.2.2.5.3.7.5l.1.1c.2-.1.3-.2.5-.4h.1l.1.1-.3.3c-.7.1-1.2.3-1.7.4zm-.5.5c.2-.1.4-.2.5-.2h.1c-.1 0-.4.1-.6.2zm-6.8 1.9c1.9-1.1 4-1.5 6.2-1.9-.3.2-.6.3-.9.5-1.7.5-3.4.9-5.3 1.4zm-.4.7c-.1 0-.1-.1-.2-.3 1.7-.5 3.3-.9 5-1.3-.5.3-1.4.7-2.3 1.1-1.1.4-2.1.7-2.5.5z"/></svg>