<svg xmlns="http://www.w3.org/2000/svg" viewBox="0 0 167.2 41.2"><text transform="translate(.995 28.869)" fill="#FFF" font-family="'Chalkduster'" font-size="18.735">Select Team</text><path fill="#FFF" d="M161.3 1.3c-.1-.1-.2-.2-.3-.2h-.1c-.6-.1-1.6.4-2.5 1-1 .6-1.9 1.4-2.3 1.7-.2.2-.4.4-.7.5-.9.5-1.7.9-2.5 1.5l.1.1c-.2.1-.3.1-.5.2l-.1-.1c-.1.1-.1.2-.2.3-.4.6-1 1.2-1.4 1.8h-.1l-.1.1v.2c0 .1-.1.1-.1.2s-.1.2-.1.2l-.1.2h.5c.4 0 .9.1 1.3.1l.9.6c.1 0 .2.1.3.1h-.9l-.1.3c.8.4 1.6.5 2.5.5-.2.2-.4.5-.7.7-1.4 1-3.1 1.9-4.2 2.3-2.6 1-4.8 1.2-7.3.2l-.1.2c.1.1.2.1.3.2v.1c-.1 0-.1 0-.2.1l-.1-.1c0 .1-.1.1-.1.2h-.1l-.1-.1v.1c-.3.1-.5.2-.8.4-.5.2-.9.5-1.2.8-.1 0-.1.1-.2.1 0 .1-.1.1-.1.2-.3.5-.3 1.1 0 2 .2.6.6 1.3 1 2 .1.2.1.3.2.5.4 1 1.1 1.8 1.4 2.8l-.1.1c.1.1.2.1.2.1h.1v.1h.1c3.2 1.7 6.7.1 9.4-1.6.8-.5 1.5-1.1 2.2-1.6 2.6-1.9 5.2-4.4 6.7-7 .1 0 .2.1.3.1-.1.2-.2.3-.4.5l.2.2c.2-.2.3-.4.5-.5.3.1.5.1.8.2.1 0 .1 0 .2.1v-.1c.1 0 .3.1.4.1h.1v-.1c.1 0 .2.1.3.1l.1-.2c-.1 0-.1-.1-.2-.1.3-.4.8-.8 1.2-1.2 0 0 .1 0 .1-.1.1-.1.2-.3.3-.4.2-.1.3-.2.5-.3l.2-.1-.2-.1v-.1c0-1.6-1.5-4.1-2.3-5.7-.3-.6-.6-1.2-.9-1.9-.2-.5-.4-1-.6-1.4-.1-.2-.1-.3-.2-.5-.1-.1-.1-.2-.2-.3.3-.2.2-.3 0-.3zm.8 9.3s.1 0 0 0c.1.1.2.1.3.2h-.1c0-.1-.1-.1-.2-.2zm.2.6c.2.1.4.1.5.1-.2.2-.5.4-.7.6l-.6.3c.3-.2.6-.5.8-.8v-.2zm-.5.2c-.1-.1 0-.1 0-.2h.3c-.1 0-.2.1-.3.2zm-.1 1.6s-.1 0-.1-.1c.1-.1.2-.1.2-.2l.9-.6c-.2.2-.3.4-.5.5v.1s-.1 0-.1.1c-.1.1-.2.1-.4.2zm3.4-1.3c-.4.3-.7.5-1 .8l.1-.1c.2-.4.3-.7.4-1.1.2 0 .5.1.7.1l.1.1-.1.1h-.1c-.1 0-.1 0-.1.1zm-2.5.1l.1-.1c.1-.1.2-.2.4-.3.1 0 .2 0 .3.1 0 .1-.1.1-.1.2-.1 0-.2 0-.2.1v-.1c-.2 0-.3.1-.5.1zm.8-.6h.2-.2zm-.6-.4zm1.2 1.9s0 .1 0 0c-.1 0 0 0 0 0zm-.9-.1l.6-.6.2-.2s.1 0 .1-.1h.2c-.1.3-.2.5-.4.8-.2.1-.5.1-.7.1zm-1.7 0c.1 0 .2-.1.3-.1l-.1.1s-.1 0-.1.1l-.1-.1zm-1.1.2c0 .1-.1.1-.1.1l.1-.1c-.1 0-.1 0 0 0zm.4-.4c.2-.1.3-.2.5-.4.1 0 .2-.1.2-.1-.2.2-.4.4-.7.5.1 0 0 0 0 0zm-.1-.5l.2-.2c0 .1-.1.1-.2.2zm1.1-1.8c.1 0 .2 0 .3.1.2.1.3.2.5.3-.3-.2-.6-.3-.8-.4zm1.3.3c.2.1.3.1.5.2l.1-.1c.2.1.3.2.5.2l-.2-.1v.1h-.1l-.1-.1c-.3 0-.5-.1-.7-.2zm1.1.3s0 .1 0 0c0 .1 0 .1 0 0zm.4-.1c.1 0 .1.1 0 0 .1.1 0 0 0 0zm-.5-2.1c-.1-.3-.1-.6-.2-.9.2.5.4.9.6 1.4-.1-.1-.3-.3-.4-.5zm-.5-1c-.1-.2-.2-.3-.2-.5-.1-.2-.2-.5-.3-.7-.1-.4-.2-.9-.3-1.3.1.2.1.3.2.5v.1c.2.6.4 1.3.6 1.9zm-1.3-3.4c-.1-.5-.3-.9-.4-1.4.2.5.3.9.4 1.4zm2.4 6l-.3-.6c.1.2.3.4.4.7 0 .1.1.3.1.4-.1-.2-.2-.3-.2-.5zm-.3.3v-.1c0 .1.1.1 0 .1zm-1-2.1c-.1-.4-.2-.7-.3-1.1l.9 2.1c-.2-.3-.4-.7-.6-1zm-.5-1c-.8-1.5-1.3-3.2-1.2-4.4l.9 3c.1.4.2.9.3 1.4zm1.4 0c-.3-.6-.6-1.1-.9-1.6 0-.1-.1-.2-.1-.3 0 0 0 .1.1.1.2.7.5 1.2.9 1.8zm.2 1c.2.4.4.9.5 1.3-.2-.4-.4-.9-.5-1.3zm1.1 2.5c-.1-.2-.2-.3-.4-.5 0-.5-.1-1-.3-1.6.4.7.6 1.5.7 2.1zm0 .4h-.1l-.2-.2h-.1c-.1-.1-.2-.2-.3-.4h.2c.2.3.4.5.5.6zm-3.1 2l.2-.2c.2-.1.6-.1.9-.2-.1.1-.2.3-.3.4l.2.2c.1 0 .1-.1.2-.1l-.1.1c-.4-.1-.7-.1-1.1-.2zm-1.4.1c-.5.4-.9.8-1.4 1.2.3-.5.7-.9 1-1.4.1.1.2.1.3.1.1 0 .1 0 .1.1 0-.1 0-.1 0 0zm-2.1.7c.2-.4.5-.7.8-1.1l.1.1v.1c-.2.2-.3.4-.5.7-.2 0-.3.1-.4.2zm.9-.4l.3-.3-.6.9.3-.6zm-3.6 5.2c.9-1 1.7-2 2.6-3 .5-.4 1.1-.9 1.6-1.4-1.2 1.6-2.6 3.1-4.2 4.4zm2.5-4.1s.1 0 0 0c0-.1.1-.2.2-.3 0 .2-.1.3-.2.3-.3.5-.6 1-1 1.4-.1.1-.1.2-.2.2-.2.1-.4.2-.6.4.1-.2.3-.4.5-.5.5-.4.9-.9 1.3-1.5 0 .1 0 0 0 0zm-3.9 4.4c.4-.3.7-.6 1.1-.9-.4.3-.7.6-1.1.9zm-.3.9l.3-.3.3-.3c.2-.2.4-.3.6-.5l.2-.2c-.5.5-1 .9-1.4 1.3zm-1.1.5zm-.4.6c.2-.1.4-.3.6-.4v.1c-.1.1-.2.1-.3.2-.1 0-.2 0-.3.1zm-2.6 1.4c1-.7 2.1-1.5 2.9-2-.9.8-1.9 1.5-2.9 2zm-2 .1c-.2 0-.3-.1-.5-.1 4.9-1.2 9.3-6.3 11.9-10.5l.4-.4v.1c0 .1-.1.1-.1.2l.1.1-.3.3-.1.1c-.1.1-.2.2-.2.3-.7.8-1.2 1.8-1.7 2.5-.1.2-.2.3-.3.5-.3.3-.6.6-.8.9-.7.7-1.5 1.4-2.2 2.1l.1.2c-.5.4-1 .9-1.5 1.3-.9.6-1.9 1.3-3 2-.6.1-1.2.3-1.8.4zm-6.8-7.1V16.1c-.1-.1-.1-.2-.2-.4 0-.1.1-.2.2-.2zm.4 1l.2-.1c-.1-.3-.2-.7-.3-1 .1.3.2.6.4.9v.8c-.1-.1-.1-.2-.2-.3-.1-.1-.1-.3-.1-.3-.1-.1 0 0 0 0zm-.5 1.6c-.1-.1-.1-.3-.2-.4l.2-.1c-.2-.5-.3-1.1-.3-1.5.2.3.3.5.4.8.1.3.2.6.2.8l-.1-.1.1.3c.1.4.2.7.3 1-.2-.2-.3-.3-.4-.5-.1 0-.1-.2-.2-.3zm2.2 4.5s.1 0 0 0c0 .1 0 .1-.1.1 0-.2-.1-.4-.2-.6.1.1.2.2.3.2v.3c-.1 0 0 0 0 0zm-.8.7s.1 0 0 0h0c.1 0 0 0 0 0zm.4-.1c.1 0 .1 0 0 0zm2-.9c-.2.1-.3.2-.5.2.2 0 .3-.1.5-.2zm-.7.9s-.1 0 0 0c-.1 0-.1 0 0 0-.1 0 0 0 0 0zm-.5-.8v-.1c0-.1 0-.1-.1-.2.1.1.1.2.2.3l.2-.1c-.1-.2-.1-.3-.2-.5l.1.1.2-.1.1.1.2-.2c-.3-.3-.5-.9-.7-1.2l-.2.1.3.6c-.1-.2-.2-.3-.3-.5-.1-.2-.2-.3-.3-.5-.2-.3-.3-.7-.5-1 .3.4.5.8.7 1.3l.3-.1c0-.2-.1-.5-.2-.7.4.8.8 1.6 1.3 2.5-.3.2-.5.3-.9.5-.1-.2-.2-.3-.2-.3zm-1-6.1c0 .1.1.2.1.4-.1-.2-.1-.3-.1-.4zm-.1 1.5c.1.5.3.9.5 1.4-.1-.2-.3-.4-.4-.5v-.1c-.1-.3-.1-.6-.1-.8zm-.9 0c0-.1 0-.1 0 0 0-.1 0-.1 0 0zm.7.3c0-.1-.1-.1-.1-.2v-.5c0 .3 0 .5.1.7zm-.6 1.7c.1 0 .1.1.2.1.1.2.2.3.3.5-.1-.2-.2-.4-.4-.5-.1 0-.1-.1-.1-.1zm.1-.3c-.1-.1-.2-.1-.3-.2v-.1c.1.2.2.2.3.3zm.6.3zm-1.7-1.4l.1.1c.1.2.1.3.2.6-.1 0-.1-.1-.2-.1v-.1c0-.2 0-.4-.1-.5zm2.5 3.6l-.2-.2c-.1-.4-.3-.8-.5-1.2.1.2.3.3.4.5.1.2.2.4.3.5-.1.1 0 .2 0 .4zm-1.6-1.5c.1.3.2.5.3.8-.1-.3-.3-.6-.4-.9 0 0 .1 0 .1.1zm-1-1.1zm1-4.4l.1-.1v.5c0-.2 0-.3-.1-.4zm.5.2c0 .1.1.1.1.2V15.6c-.1-.3-.1-.3-.1-.4zm.7 1c.8 1.4 1.5 3.3 2 4.9-.7-1.3-1.5-2.5-2-3.8.2-.4.1-.8 0-1.1zm2.2 6c-.5-.9-.9-1.7-1.3-2.6.5.9 1 1.7 1.3 2.6zm.4-.1c.5.1 1.1 0 1.7 0 1.4-.2 2.7-.7 4-1.5-1.8 1.1-3.6 1.8-5.5 1.8-.2 0-.2-.2-.2-.3zm2.4 1.6c.6-.2 1.2-.4 1.7-.7-.5.3-1.1.5-1.7.7zm-.7-.3v-.1c.4-.2.9-.3 1.4-.5-.5.3-1 .5-1.4.6zm-3.9.1c.1 0 .2-.1.3-.1.7.1 1.4.3 2.1.3h.1l-.2.1h.1c-.3 0-.6.1-.9.1-.6 0-1.1-.2-1.5-.4zm-1-1.1l-.1-.1.1-.1v.1c0 .1.1.2.1.3l.2-.1c0-.1-.1-.2-.1-.3-.1-.2-.1-.4-.2-.6l.1.1c.2.4.4.9.4 1.2-.1 0-.2.1-.4.1l-.1.1h-.1c-.1-.2-.1-.4-.2-.6l.3-.1zm-1.7-6.5c-.1.3-.1.5 0 .8l-.3-.6-.2.1c.1.2.2.3.2.5h-.1c.1.4.2.7.3 1.1-.1-.3-.3-.5-.4-.8-.1-.3-.2-.5-.3-.8 0 0 0-.1.1-.1V16v.1c.2 0 .4-.1.7-.2zm1.8-1.3v.4l-.3-.3c.1-.1.2-.1.3-.1zM152 13c-1.1.6-2.2 1.1-3.4 1.4.5-.1 1-.3 1.5-.5.5-.3 1.1-.6 1.9-.9zm3.2-2.9c-.2-.1-.3-.1-.5-.2h.6c0 .1 0 .1-.1.2zm2-2s-.1 0-.1-.1h.8c-.6.7-1.3 1.4-2.1 2.2.2-.2.3-.4.4-.6.2-.1.4-.3.5-.5.1-.1.2-.3.2-.5.2 0 .3-.1.4-.2v-.2h-.1v-.1zm-4.1-1.2c.8.5 1.6.8 2.4 1 0 0-.1 0-.1.1h-.1c-.6-.3-1.3-.5-1.9-.5-.3-.1-.5-.3-.8-.4l.2-.2c.1-.1.2 0 .3 0zm-1 .2l-.2.2-.1.1c.1-.1.2-.3.3-.4v.1zm1.9 2.8c.1 0 .2.1.3.1h-.2c-.3-.1-.6-.2-.9-.4-.1-.1-.3-.1-.4-.2.2 0 .4.1.5.2.1.1.3.2.4.2.1-.1.2 0 .3.1zm-2.5-1.5h.2l.1.1c-.1-.1-.2-.1-.3-.1zm.9.2c.1 0 .3 0 .4.1v.1c-.1 0-.2-.1-.2-.1-.1 0-.2-.1-.2-.1zm-.7-.6s.1.1.2.1h-.3c0-.1.1-.1.1-.1zm2.7 1.6zm-.2-1.8zm.8.5s-.1 0 0 0l-.2-.1s.1 0 .2.1zm.5.1h.2c0 .1 0 .2-.1.2-.1.2-.3.3-.5.3l.2-.2c.1-.1.2-.2.2-.3zm-.3.5h-.3v-.1h.1c.1.1.1.1.2.1zm.4.7c-.3.1-.7.1-1 0h.1c.3 0 .5-.1.7-.2v.1l.2.1c0-.1.1-.2.2-.3-.1.1-.2.2-.2.3zm-2.5-1.2l.6.3h-.2c-.1-.1-.2-.1-.3-.2-.2-.1-.3-.2-.5-.3-.2-.1-.5-.3-.7-.4 0 0 .1 0 .1-.1.1 0 .2.1.3.1.1.1.2.1.4.2 0 .2.2.3.3.4zm1.4.8s0 .1 0 0c0 .1 0 0 0 0zm-.1-.3l.1.1h-.1c-.2 0-.3 0-.5-.1h.5zm.4.3c0 .1 0 .1 0 0 0 .1 0 .1 0 0zm1.5-1l-.1.1h-.3l-.1-.1c0-.1.1-.1.1-.2.1 0 .3.1.4.2zm-5 .4c.1.1.2.2.4.3-.3 0-.5 0-.8-.1.1-.1.2-.2.2-.3.1 0 .2 0 .2.1zm3.1 1.7h.6c-.6 0-1.2-.1-1.8-.2.3 0 .5 0 .8.1.1.1.3.1.4.1zm-.5-4.5c2.6-1 5.3-2 7.4-3.9V2c0 .1.1.2.1.3-.4 1.7.5 4.2 1.7 6.2.2.7.6 1.3 1 1.8l.2.2c-1.1-.5-2.3-1-3.3-1.3-.1-.1-.2-.1-.3-.2l-.1.2c.3.2.6.3.8.5-.2 0-.5-.1-.7-.1v.3c.2 0 .4 0 .7.1l-.1.1h.1v.2c.1 0 .2.1.2.1.2.1.3.2.4.3h-.2l-.1.3c-.1 0-.2.1-.3.1l-.2-.1-.2.2c0-.1.1-.1.1-.2l-.2-.2c-.1 0-.1.1-.1.1 0-.1.1-.2.1-.3l-.1-.1v-.1c0-.1.1-.1.1-.2v-.1l-.2-.1v.1c-.1.1-.2.3-.2.4-.2.2-.4.4-.5.7-.4.5-.9 1-1.2 1.6-.1.1-.1.2-.2.3l.1.1c-2.8 3.7-7.1 8-11.1 8.7-.6.1-1.2.1-1.8 0-.5-2-1.5-5-2.8-6.6 0-.2 0-.5.1-.7.3.1.7.2 1 .3 4 1.4 8.5-1.3 11.6-4.1h.4v-.3h-.1c.9-.9 1.7-1.7 2.3-2.5l-.2-.2c0 .1-.1.1-.1.2v-.1c-.6.1-1.1.1-1.7 0-.1 0-.2-.1-.3-.1-.7-.4-1.5-.6-2.3-.9V7c-.3-.1-.5-.2-.8-.4l-.1-.1c-.1.2-.3.3-.4.4h-.2c.1-.1.2-.2.2-.4.6-.3 1.1-.5 1.5-.7zm.4-.6c-.2.1-.3.2-.5.3h-.1c.2 0 .4-.2.6-.3zm6.3-3.1c-1.6 1.4-3.7 2.2-5.8 3.1.3-.2.5-.4.8-.7 1.6-.8 3.3-1.6 5-2.4zm.3-.8c.1 0 .1.1.2.2-1.5.8-3.1 1.5-4.6 2.2.5-.4 1.2-1 2-1.5 1-.6 2-1 2.4-.9z"/></svg>