<svg xmlns="http://www.w3.org/2000/svg" viewBox="0 0 169.8 40"><g fill="#FFF"><path d="M3.2 27.6c-.1-.1-.1-.3-.1-.4 0-.1 0-.2.1-.2s.1-.1.1-.2 0-.2-.1-.2c0-.1-.1-.1-.1-.2h.1c.1 0 .2 0 .2.1s0 .1.1.1h.1c0-.2 0-.4.1-.5 0-.2.1-.3.2-.4.1-.1.1-.3.2-.4s.1-.3.1-.5c.1 0 .1 0 .1.1l.1.1c.2 0 .4 0 .6-.1.2-.1.4-.1.6-.2l.2.6s.1 0 .1-.1.1-.1.1-.2v-.2-.1c.1-.1.3-.2.4-.3.1-.1.2-.1.4-.1H7l-.2.2c0 .1.1.1.1.2s.1.1.1.1c.1 0 .2 0 .2-.1-.2-.2-.2-.3-.1-.4 0-.1.1-.2.1-.3s.1-.2.1-.2c.1-.1.1-.1.2-.1s.1 0 .2-.1c.1 0 .1 0 .1-.1 0 0 .1-.1.1-.2s-.1-.2-.2-.3-.2-.1-.3-.1c-.1 0-.1 0-.1.1l-.1.1c0-.2-.1-.4-.1-.5 0-.3-.1-.5-.1-.6h-.1s-.1 0-.1.1v-.3c0-.1 0-.2-.1-.3-.1-.2-.2-.2-.3-.2-.1 0-.3.1-.4.1v.1c-.2 0-.4-.1-.5-.2-.4-.2-.5-.3-.5-.5l-.1.1h-.1v-.1c-.1-.1-.1-.2-.1-.3v-.3c-.1.1-.2.1-.2.1-.1 0-.1.1-.2.1-.2 0-.2-.1-.2-.2v-.4h-.2s-.2 0-.2.2c0 0 0 .1.1.1s.1.1.1.1 0 .1-.1.1c0 .1-.1.1-.1.1s0-.1-.1-.1v-.1h-.2c-.4-.2-.5-.4-.6-.5-.1-.2-.1-.3-.2-.5v-.4-.2h-.3l-.1.1s0 .1-.1.1c0-.2 0-.3-.1-.4-.1-.1-.1-.2-.2-.2l-.2-.2c-.1-.1-.2-.2-.2-.3v-.2-.2c0-.4.1-.7.2-1 .1-.3.3-.5.4-.7s.3-.4.4-.6c.1-.2.2-.4.2-.7h.7v-.1-.2-.1s.1-.1.2-.1.2.1.2.2c.1-.1.3 0 .4 0v.2h.1l.1-.1v-.9-.1s0-.1.1-.1.2 0 .3.1c.1.1.1.1.1.2s.1.2.1.3c0 .1.1.2.1.3.1 0 .1-.1.1-.2v-.2c0-.2-.1-.4-.2-.4s-.3-.1-.5-.3v-.1h.7c.1 0 .1 0 .1.1s.1.1.1.2v.4h.3l.3-.4.5.3c.1-.2.2-.3.3-.3.1 0 .2 0 .2.1s0 .1.1.2h.1v-.4h.1c.1 0 .1.1.1.2s0 .1-.1.2c0 0-.1.1-.1.2l.1.1c.1 0 .2-.1.2-.2v-.3c.1 0 .2 0 .3.1l.3.3.1-.1s.1-.1.2-.1.1-.1.2-.1l.1-.1c.1 0 .2 0 .2.1s.2.2.2.3v.5l.1.1.1.1v.4c0 .1 0 .2-.1.2s-.1 0-.1-.1c0 0 0-.1-.1-.1l-.1-.1c-.1 0-.2-.1-.3-.1v.2h.2c.1 0 .1.1.1.1v.1s0 .1.1.1c0 0 .1.1.2.1 0 .1 0 .1-.1.1s-.1.1-.2.1-.1.1-.2.1-.1.1-.1.2 0 .2.1.2.1.1.1.2v.2l-.1-.1c-.1 0-.1-.1-.2-.2s-.2-.1-.2-.1c0 .3-.1.3-.1.3-.1 0-.1 0-.1.1l-.1.1s-.1 0-.1-.1-.1-.1-.2-.2l-.2-.2-.1-.1-.1-.1v-.2-.1h-.5c-.2 0-.4 0-.6.1-.2 0-.4 0-.6.1h-.4c-.2 0-.3 0-.4.1-.1 0-.2.1-.2.2s-.1.2-.1.3c0 .1-.1.2-.2.4-.1 0-.1-.1-.1-.1l.1-.1h-.5s-.1 0-.1.1v.3s.1.2.2.2.1-.1.2-.2c0-.1.1-.2.1-.2v.3c0 .1.1.3.1.4 0 .1.1.3.2.4s.2.2.3.2h-.1v.1c0 .1 0 .1.1.2.1 0 .2.1.3.1.1 0 .2.1.2.2.1.1.1.2 0 .3 0-.1.1-.1.2-.1s.2 0 .2.1.1.2.1.2c0 .1.1.2.1.2 0 .1.1.1.2.1h.1c-.1.1-.1 0-.1-.1v-.2c0-.1 0-.1-.1-.2 0-.1-.1-.1-.2-.2h.2c.1 0 .2 0 .3.1.1.1.2.1.3.2.1.1.2.2.3.2.1.1.2.1.3.2.1 0 .2.1.3.1.1 0 .2.1.2.1l.4.9v-.1c0-.1.1-.1.1-.1l.3.6.2-.1c-.1.1-.1.3 0 .4 0 .2.1.3.2.4.1.1.2.3.3.4.1.1.3.2.4.2.1.1.2.3.3.4.1.1.1.3.1.4 0 .1-.1.2-.2.3-.1.1-.3.2-.4.2.1.2.2.3.2.5 0 .1 0 .2-.1.4 0 .2-.1.3-.3.3H9s-.1 0-.1-.1v.1c0 .1 0 .1.1.2v.2l.1.2-.1.1c0 .1-.1.1-.1.1-.1.1-.1.2-.2.2l-.2.2c0 .1.1.1.2.1v.3c-.1 0-.2-.1-.3-.2-.1-.1-.2-.2-.3-.2l-.2 1s0 .1-.1.1-.1 0-.1-.1v-.1-.1s0-.1-.1-.1-.2.1-.2.2 0 .2-.1.3h-.2c-.1.2-.2.2-.3 0s-.1-.2-.2-.3c-.1 0-.1 0-.1.1v.1c0 .1 0 .1.1.1l.1.1v.2c0 .1-.1.1-.2.1h-.1V27c0-.1-.1-.1-.1-.2H6l-.1.1.1.1s.1 0 .1.1h-.2V27.4s0 .1-.1.2h-.4l-.1.1v.1h-.1c-.1 0-.2 0-.2-.1s-.1-.1-.3-.1h-.2l-.1.1c0 .1-.1.1-.1.1s-.1 0-.1-.1c-.1.2-.2.2-.2.2s-.1 0-.2-.1c-.1 0-.2 0-.2-.1-.1 0-.2-.1-.2-.1-.1.1-.1 0-.2 0zM2.1 15.8c-.1 0-.1 0 0 0-.1.1-.1.2 0 .2v-.2zm.4 1.5c0 .1 0 .1.1.1h.2c.1 0 .2 0 .2-.1 0 0 .1-.1.1-.2V17s0-.1-.1-.1v.2l-.1.1c-.1 0-.1 0-.2.1s-.2 0-.2 0zm.2.5c0 .1.1.1.2.1v-.1h-.2zm.3-.2c.1 0 .2.1.2.2v.3c.2-.1.2-.3.3-.5s0-.4 0-.5V17l-.1-.1c0 .2 0 .3-.1.4 0 .2-.1.2-.3.3zm.3 1.6s-.1.1 0 0c-.1.2 0 .2 0 .2s.1 0 0-.2c.1.1 0 0 0 0zm0-.2v0zm.2 8.4h.1v-.1l-.1.1zm.2-13c-.1.1-.1.1-.1.2h.1v-.2zm.2 12.2h-.1c0 .1 0 .1.1 0-.1.1 0 .1 0 0zm0-7.2l.1-.1-.1.1zm.3 7.7c-.2 0-.3 0-.3.1v.2c.1.1.2.1.3.2.1.1.3.1.5.1v-.1l-.2-.2-.2-.2c0-.1-.1-.1-.1-.1zm-.3-11.5c0 .1.1.2.2.2v-.2h-.2zm.1 12c-.1.2 0 .2 0 .2.1-.1.1-.1 0-.2.1 0 .1 0 0 0zm.1-12.2h.2v-.1l-.2.1zm.1-.7s-.1 0 0 0c-.1.2 0 .2 0 .2 0-.1.1-.1 0-.2.1 0 0 0 0 0zm.2 5v.1c0 .1 0 .1.1.1s.1-.1.1-.2v-.2c0 .1-.1.1-.2.2 0-.1 0 0 0 0zm0 7.1c0 .1 0 .2.1.2v-.1-.1h-.1zm.1-7.7c-.1 0-.1 0 0 0-.1.1 0 .2 0 .2v-.2zM5 25l-.2.2-.2.2.6.2L5 25zm-.3-10.5c0 .1 0 .1 0 0 .1.1.1 0 0 0 .1 0 .1 0 0 0zm.3 6h.1c0-.1 0-.1-.1-.2v.2zm.7-.5v.1c.1-.1.1-.1 0-.1zm.4-6.5c-.1 0-.2 0-.2.1V13.9c.1 0 .1-.1.2-.1.1-.1.1-.1.1-.2.1-.1 0-.1-.1-.1zM6 20zm.3-.9c-.1 0-.1 0 0 0-.1.1 0 .2 0 .2v-.2zm-.1 1.7c0 .1 0 .1.1.1h.2s.1 0 .1-.1v-.1h-.4zm.1 5.4l.1-.1h-.1v.1zm.1-6.8h.1l-.1-.1v.1zm.1 1l-.1-.1.1.1zm0-.6c-.1.1 0 .2 0 .2.1 0 .1-.1 0-.2.1 0 .1 0 0 0zm.1 1.2c-.1.1-.1.1-.1.2h.1V21zm.3 5.1c-.1 0-.2 0-.2.1H7c0-.1 0-.1-.1-.1zm-.1-5.6H7v-.1c0-.1-.1-.1-.1-.1v.2zm.2-1.1c-.1.1-.1.2-.1.3V20c.1 0 .1 0 .2-.1s.1-.1.1-.2v-.2s-.1-.1-.2-.1zm0 1.8V21v.2zm.1-7.8c-.1 0-.1 0 0 0-.1.1 0 .2 0 .2s.1-.1 0-.2c.1 0 0 0 0 0zm.4 6.2c-.1 0-.1 0 0 0v0zM7.4 22c0 .1 0 .2.1.4 0 .1.1.2.3.2h.5c0-.1 0-.1-.1-.1h-.1s-.1 0-.1-.1V22c-.1.1-.2.1-.2.1h-.2c0-.1 0-.2.1-.2 0-.1 0-.1-.2-.2v.1s-.1.1-.1.2zm.1 2.1v.1c.1 0 .1 0 0-.1.1 0 .1 0 0 0zm.1-3.3s0-.1 0 0c0-.1-.1 0 0 0-.1 0 0 0 0 0zm0 3c-.1.2 0 .2 0 .2.1-.1.1-.1 0-.2.1 0 .1 0 0 0zm.1-2.8c0 .1.1.2.2.3v-.5c-.1.1-.2.1-.2.2zm.1-7.3s-.1 0 0 0c-.1.1 0 .2 0 .2 0-.1.1-.1 0-.2.1 0 0 0 0 0zm0 6.8c0 .1.1.1.2.1v-.1h-.2zm.7.8c-.2 0-.3 0-.4.1-.1.1-.2.2-.2.3.1 0 .2 0 .4-.1.1-.1.2-.2.2-.3zm-.3-6.8h.1c0-.1 0-.1-.1-.2v.2zm.1 6.5zm0 2.2h.1V23h-.1v.2zm.9.5c-.1 0-.1 0-.2.1s-.1.1-.2.1h.1c.2 0 .3 0 .3-.2zm-.2-.4c.1 0 .1-.1.1-.2H9v.2zm.1-1c-.1 0-.1 0 0 0v0zm.1.4c-.1 0-.1 0 0 0-.1.1 0 .2 0 .2v-.2zM16.6 27l-.1.1v.1c0-.1 0-.1-.1-.1H16s-.1 0-.2-.1c-.1 0-.2-.1-.3-.1h-.2v-.2c0-.1-.1-.1-.1-.2 0 0-.1-.1-.2-.1h-.2v-.2l-.3.2-.1-.1-.1-.1V26c0-.1 0-.1-.1-.1s-.1.1-.1.1v.2s-.1.1-.2.1c-.2 0-.4 0-.5-.1-.1-.1-.1-.2-.1-.2v-.3s0-.1-.1-.2h-.5l.1-.2c-.1 0-.3-.1-.4-.1-.1-.1-.2-.2-.2-.3-.1-.1-.1-.2-.2-.3s-.1-.2-.2-.3c0 0 0-.1-.1-.1-.1-.1-.1-.1-.1-.2-.2-.2-.3-.4-.3-.6s-.3-.2-.3-.4c0-.1 0-.2-.1-.3s0-.3 0-.3v-.1-.3-.4-.1-.5-.3c0-.1 0-.3.1-.5 0-.2.1-.3.1-.4s.1-.2.2-.2v.4h.2c.1 0 .2 0 .2-.1 0 0 0-.1.1-.2v-.1h.1v.2h.4s.1 0 .2-.1v-.1c0-.2 0-.3-.1-.4-.1-.1-.1-.3-.1-.4h.4c.1 0 .1 0 .1-.1s-.1-.1-.1-.1h-.2c0-.1 0-.1.1-.2s.1-.2.1-.2h.5c.1 0 .2.1.2.1V18.6h.4s.3-.1.3-.2c0 0 .1-.1.1-.2s.1-.2.1-.2c0 .1.1.2.2.2h.2c.1 0 .1 0 .1-.1v-.2h-.3l.1-.1v-.1-.1c0-.1 0-.1-.1-.1 0 0 .1 0 .1.1.1 0 .1.1.1.1s.1 0 .2.1c.1 0 .2.1.2.1 0 .1 0 .2.1.3s.1.2.2.3V18l.1.1.1.1h.2c.1 0 .2 0 .2-.1s0-.1-.1-.1-.1 0-.2-.1c0 0 0-.1.1-.1s.1-.1.1-.1.1 0 .2.1.1.1.2.1c.2 0 .2-.1.3-.2 0-.1.1-.2.2-.3 0 0 .1.1.1.2.1.1.1.1.1.2v.2h.1v-.7l.1-.1v.5c0 .2.1.3.2.5l.1-.1v-.8s.1 0 .1.1c0 0 .1.1.1.2v.3h.1l.1-.1.1-.1h1s-.1.1-.1.2-.1.1-.1.2v.1s0 .1.1.1c0 0 .1 0 .2.1h.2s0 .1-.1.1H19c-.1 0-.1 0-.2.1-.1 0-.1.1-.1.2v-.2c0-.1 0-.2-.1-.2v-.1-.1c0-.1-.1-.1-.1-.1h-.1c0 .2 0 .3.1.4.1.1.1.2.1.4h-.1v.1l.2.2V19v-.1h.1c.1 0 .2.1.2.2v.3c0-.1.1-.2.2-.2h.3v.4h.3s.1 0 .3.1H20h-.1v.1c0 .1.1.2.2.2h.3s0 .1-.1.1c0 0 0 .1-.1.1h-.1-.1H19.7h-.1s-.1 0-.1.1c.2.1.3.3.4.5-.1.1-.2.1-.2.1h-.2v.1s0 .1.1.1c0 .1.1.1.1.1l.1.1.1.1s0 .1-.1.2l-.1.1c0-.1-.1-.1-.2-.1h-.1l-.1.1c.1 0 .1 0 .1.1v.1c0 .1 0 .2-.1.2 0 0-.1.1-.2.1h-.4c-.1 0-.1.1-.1.2s0 .1-.1.2c0-.1-.1-.1-.1-.1h-.2c-.2 0-.2 0-.3.1 0 .1-.1.1-.2.1l-.2-.1s-.1 0-.1-.1-.1-.1-.1-.1l.3-.4.1.1c-.1.1-.1.2-.1.2v.2c0 .1 0 .1-.1.2 0 .1-.1.1-.2.2v-.3c0-.1-.1-.1-.2-.1s-.1 0-.2.1-.1.1-.1.2v-.1-.1-.1-.1-.1-.1c0-.1 0-.1-.1-.1h-.1c-.1 0-.2 0-.3.1-.1.1-.2.1-.2.2l.1.1c.1 0 .1.1.1.1v.6c-.1.1-.2.1-.3.2-.1 0-.1.1-.2.1h-.1c0-.1 0-.2.1-.2.1-.1.1-.1.1-.2s0-.2-.1-.2h-.2v.2c0 .1 0 .2-.1.3 0 .1 0 .1-.1.2v-.2c0-.1-.1-.1-.2-.1s-.2 0-.3.1c-.2 0-.3.1-.3.1H14.3c0-.2-.1-.3-.2-.4H14v.4c-.1 0-.2-.1-.2-.2s-.1-.2-.2-.2v.4s0 .1.1.2c.3.2.3.3.3.3H14.3c.2 0 .4.1.5.1.2 0 .3.1.5.1.2.1.3.1.5.1s.3.1.5.1c0 0 .1 0 .2.1.1 0 .1.1.1.1v.2h.8c.2 0 .3 0 .4.1.1 0 .2.1.4.1 0 .1 0 .2.1.2h.2c.1 0 .2 0 .2-.1l.1-.1h.1v.2h.1c.1 0 .1 0 .1-.1s0-.1.1-.1H19.8c.1 0 .1.1.1.1 0 .1 0 .1.1.1l.4-.4h.7l-.1.1c0 .1.1.1.3.2.1 0 .2.1.3.2l-.2.1V26.2h-.1v.1h.2v.7s-.1-.1-.2-.1-.1-.1-.2-.1v.1h.2v.1c0 .1 0 .1-.1.2s-.1.1-.2.1h-.4-.2V27c-.3 0-.5.1-.7.2v-.4s0 .1-.1.1v.1h-.4l-.1.1-.1-.1H18.7v-.1l.1-.1h-.2-.4v-.2.1h-.1v-.1H18c-.1 0-.1.1-.1.2s-.1.2-.1.2c0 .1 0 .1-.1.2l-.1.1c-.1 0-.1 0-.1-.1v-.1-.1h-.9zm-5.5-7c-.1 0-.1 0 0 0-.1.1 0 .1 0 .1V20zm.7.7c-.1 0-.1 0 0 0-.1.1 0 .1 0 .1v-.1zm0-.4c-.1 0-.1.1-.1.2.1 0 .1 0 .2-.1l-.1-.1zm0 1.4c.1-.1 0-.1 0 0 0-.1 0-.1 0 0zm.4-2c-.1 0-.1 0-.1.1v.2s.1 0 .2-.1l.1-.1c-.1 0-.1 0-.2-.1zm.1.3c-.1 0-.1.1 0 0v0c0 .1 0 .1 0 0zm.5 2.5c-.1.1-.1.1 0 .2l.1.1.1.1c.1 0 .1-.1.1-.2v-.2c0-.1 0-.2-.1-.2 0-.1-.1-.1-.1-.2s0-.1.1-.2c0 0 .1-.1.2-.1l.1.1.1.1h.4s.1 0 .2-.1v-.2-.2h.6c.1 0 .2 0 .3-.1.1-.1.2-.2.3-.2 0 .1.1.2.1.3 0 .1.1.1.2.1h.2c.1 0 .1 0 .2-.1l.1-.6c.1 0 .2-.1.3-.1.1 0 .2-.1.3-.1 0 0 .1 0 .1.1.1 0 .1.1.1.1h.1v-.1s0-.1.1-.2v-.2h.3s.2 0 .3-.1h.4v-.7c0 .1 0 .1.1.1l.2.2.1.1.1-.1c-.1-.2-.2-.3-.2-.5 0-.1-.2-.3-.3-.4-.1-.1-.2-.1-.3-.2s-.3-.2-.4-.2c-.2 0-.3 0-.4.1-.1.1-.2.2-.3.2-.1.1-.2.2-.4.2 0-.1-.2-.1-.4-.1h-.1s-.1 0-.2-.1-.1-.1-.2-.1v.1c0 .1 0 .1-.1.1l-.2.2h-.1-.1l-.1.1-.1.1h-.4l-.1.1v.1H14l-.1-.1c-.4.3-.6.6-.7 1.1-.1-.1-.2 0-.2 0-.1.1-.1.1-.1.2v.4h-.1l-.2-.4v.2c0 .1 0 .2.1.3 0 .1.1.2.1.3v.1l-.1.1h-.1v.6h-.2v.1h.4zm-.2.5c0-.1 0-.1 0 0-.1-.1-.1-.1 0 0-.1 0-.1 0 0 0zm-.1-4c.1.1.1.1 0 0 .1.1.1.1.2.1h.2c0-.1 0-.2-.1-.2h-.1c-.1.1-.2.1-.2.1zm.3.2c-.1 0-.1.1 0 0-.1.1 0 .1 0 .1v-.1c0 .1 0 0 0 0zm0-1.1c0 .1 0 .2.1.2.1.1.2.1.2.1 0-.2 0-.2-.1-.3h-.2zm.2 5.3s-.1.1 0 0v0c0 .1 0 0 0 0zm.1-.9c-.1.2 0 .2 0 .2s.1-.1 0-.2c.1 0 .1 0 0 0zm0-3.8s.1.1 0 0c.1.1.2 0 .2 0v-.1h-.1s-.1 0-.1.1zm0 1.3s.1 0 0 0c.1 0 .1-.1 0 0v-.1.1zm.4 5.8c-.1 0-.1 0 0 0l-.1.1c.1 0 .1-.1.2-.1s.1-.1.1-.2c0 0-.1-.1-.2-.1s-.1-.1-.2-.1l-.1.1.1.1c.1.1.1.2.2.2zm-.1.3s-.1 0 0 0c-.1.1 0 .1 0 .1s.1 0 0-.1c.1 0 0 0 0 0zm0-6.9l.1-.2h-.1v.2zm.1 2.9c-.1 0-.1 0 0 0-.1.1-.1.1 0 0-.1.1 0 .1 0 0zm0 4.1c-.1 0-.1.1 0 0v0zm0-7.4c.1-.1 0-.1 0 0 0-.1 0-.1 0 0zm0 6.5h.1v-.1l-.1.1zm.2 1c-.1 0-.1 0 0 0-.1.1 0 .1 0 0 0 .1 0 .1 0 0zm.1-.3c-.1 0-.1 0 0 0-.1.2 0 .2 0 .2s.1 0 0-.2c.1 0 0 0 0 0zm0-1.9zm.1-5.8c-.1 0-.1 0 0 0-.1.1 0 .2 0 .2v-.2zm.1.1c-.1 0-.1 0 0 0-.1.1 0 .2 0 .2v-.2zm0 1c-.1.1 0 .2 0 .2.1 0 .1-.1 0-.2.1 0 .1 0 0 0zm0 6.3h.2c-.1-.1-.1-.1-.2 0 .1-.1 0-.1 0 0zm.2-7.4v.1c0 .1 0 .1.1.1l.2-.1c0-.1 0-.1-.1-.2 0-.1-.1-.1-.2-.2 0 0 0 .1-.1.1.1.1.1.1.1.2zm.4 7.4h-.2l-.1.1h.2v-.1zm.2-.1c0 .1 0 .1 0 0V25.9h.1v-.5c-.1 0-.1.1-.1.2zm0-7.3v.2c.1-.1.1-.1 0-.2.1 0 .1 0 0 0zm0 .9v.1c.1 0 .1 0 0-.1.1 0 .1 0 0 0zm.2-1.4c-.1 0-.1 0-.2.1h.2v-.1zm-.1 1.3c0-.1 0-.2.1-.2v-.2-.1s0-.1-.1-.1v.6zm.3 3.9h-.1.1zm.2 2s-.1.1 0 0c-.1.1 0 .2 0 .2s.1 0 0-.2c.1.1 0 0 0 0zm.1-2.3c-.1 0-.1 0 0 0-.1.1 0 .1 0 0zm0 3.8c-.1 0-.1 0 0 0-.1.1 0 .1 0 0zm0-8c.1.1.1.2.1.2s.1.1.2.1h.1s.1 0 .1-.1-.1 0-.1 0c-.1 0-.1 0-.1-.1v-.1-.1l-.3.1zm.3 6.9c0-.1 0-.1 0 0h-.1.1zm.2.1c.1 0 .1 0 .2-.1l-.2.1zm.3-4.2zm.2.6zm-.1-1.2v.2c0 .1 0 .2.1.2 0 .1.1.1.1.2s.1.1.2.1v-.2-.2c-.1 0-.1 0-.2.1 0-.1-.1-.1-.1-.2s0-.2-.1-.2zm.3-2.8v.1c0 .1 0 .1.1.1s.1 0 .1-.1 0-.1-.1-.1c0 .1 0 0-.1 0zm.1 3.8l.1-.1h-.1v.1zm.1 3.7c.2.1.3.2.3.2h.1v-.2-.2c-.1 0-.1 0-.2.1 0 .1-.1.1-.2.1zm0 1.4h.1c0-.1 0-.1-.1-.2v.2zm.3-1v.2c0 .1.1.1.2.1h.1c0-.1 0-.2-.1-.2s-.1-.1-.2-.1zm0-4.1v.2s0 .1.1.2c.1 0 .1-.1.1-.2v-.2h-.2zm.1.7v-.2l-.1.1.1.1zm0-2.1s0 .1 0 0c0 .1.1.1 0 0l.1.1c0-.1.1-.2.2-.2h.3c0-.1-.1-.1-.1-.1h-.1-.2l-.2.2zm.7.1s-.1 0-.1.1-.1.1-.1.1h.3l-.1-.2zm-.2-2.1h.2v-.1l-.2.1zm.2 8.4c-.1 0-.1.1 0 0v.2s.1 0 0-.2c.1.1 0 0 0 0zm.2-4.9l.1-.1-.1.1zm0-1s0 .1 0 0v.2c.1 0 .1 0 0-.2.1.1.1 0 0 0zm.1-.3h-.1c0 .1 0 .1.1 0 0 .1 0 .1 0 0zm-.1 1h.1v-.1l-.1.1zm.3.2c0 .1 0 .1 0 0 0 .1 0 .1 0 0zm0-.4zm0-1.3c-.1.1 0 .1 0 .1.1 0 .1 0 0-.1.1 0 .1 0 0 0zm.1.3c0 .2 0 .3.1.4.1.1.1.2.2.3l.1-.1v-.1-.1c0-.1 0-.2-.1-.2-.1-.2-.2-.2-.3-.2zm.3 1.1c-.1 0-.1 0 0 0-.1.1 0 .1 0 .1v-.1zm0-2v.2c.1-.1.1-.1 0-.2.1 0 .1 0 0 0zm.1-.3c-.1.1 0 .2 0 .2s.1-.1 0-.2c.1 0 .1 0 0 0zm.4 1.4l-.2-.1.2.1zm.1 5.1c-.2 0-.2.1-.2.2l.2-.2zm-.1-6.3c-.1.2 0 .2 0 .2.1 0 .1 0 0-.2.1 0 .1 0 0 0zm.1.1c-.1.1 0 .2 0 .2s.1-.1 0-.2c.1 0 .1 0 0 0zm.3 6.6l.1.1s.1 0 .1-.1.1-.1.1-.1l-.1-.1h-.1c0 .1-.1.1-.1.2zm.2.7zm.1-1.1c-.1 0-.1 0 0 0-.1.1 0 .1 0 .1v-.1zm.2.1s-.1 0 0 0c-.1.1-.1.2 0 .2s.1-.1 0-.2c.1 0 .1 0 0 0zm.6 1.1c-.1 0-.2 0-.2.1l.2-.1c-.1.1-.1.1 0 0 0 .1.1 0 0 0zM25.4 26.8c0-.1 0-.2-.1-.3-.1 0-.1-.1-.3-.1 0 0-.1-.1-.2-.1s-.1-.1-.1-.1-.1 0-.1.1c-.1.1-.1.2-.1.2s-.1-.1-.3-.1c-.1-.1-.2-.1-.3-.1-.1 0-.1 0-.1.1s-.1.1-.2.1v-.1-.3-.3s0 .1-.1.2-.1.2-.1.2l-.1.1h-.2c.1-.1.2-.2.2-.4v-.2h-.2v.2l-.1.1h-.1s-.1 0-.1-.1v-.2-.1-.1s.1-.1.2-.1.2-.1.2-.2v-.7s0-.1-.1-.1c0 0-.1 0-.1-.1 0 0-.1 0-.1-.1l-.1-.1v-.2l.1-.2c0 .1 0 .2.1.2h.3c0-.1 0-.2-.1-.3-.1-.1-.1-.2-.2-.2-.1-.1-.2-.1-.2-.2.2 0 .2-.1.2-.1 0-.1.1-.1.2-.2h.3v.2s.1.1.1.2.1.1.1.1h.1v-.5h-.1s-.1 0-.1-.1c0 0-.1 0-.1-.1h.2c0-.1-.1-.1-.1-.2l-.1-.1h-.2v.4c0 .1 0 .1.1.2H23c-.1 0-.2-.1-.2-.1 0-.1 0-.2.1-.2s.1-.2.2-.2l.2-.2c.1-.1.1-.1.1-.2V22v-.1h.2l.1-.1v-.5c.1 0 .1-.1.2-.1s.1-.1.1-.2c-.1 0-.2.1-.3.1-.1 0-.2.1-.3.1l.2-.2.2-.2s.1 0 .2-.1c.1 0 .2-.1.2-.1-.1.1-.2.2-.3.2h-.3c0-.1 0-.1.1-.2 0 0 .1-.1.2-.1s.1-.1.2-.1c0 0 .1-.1.1-.2s-.1-.2-.2-.3c-.2-.1-.3-.2-.3-.2h-.3l-.1-.1v-.1-.2-.2s0-.1-.1-.1c0-.1-.1-.1-.1-.1V18h.1s0 .1.1.3c0 .1.1.2.1.2s.1 0 .1-.1c.1 0 .1-.1.1-.1s-.1 0-.1-.1l-.1-.1v-.2c0-.1 0-.1.1-.2V18H23.8v-.2-.2c0-.1 0-.1.1-.1 0 .1 0 .1.1.1h.1v-.3h-.9v-.1-.1s0-.1.1-.1c0-.1.1-.1.1-.1v-.2-.2c0-.1 0-.1.1-.1s.1.1.1.2v.2l.4-.3c-.1-.1-.2-.2-.3-.2h-.4v-.1H23.9s0-.1.1-.1c0-.1.1-.1.1-.2v-.1H24s0-.1-.1-.2c0-.1-.1-.2-.1-.2s.1 0 .1-.1.1-.1.1-.1V15s0-.1-.1-.2-.1-.1-.1-.2v-.1-.1-.1-.2-.2h.2v-.2-.2c0-.3.1-.4.4-.4.2 0 .2.1.3.2 0 .1.1.2.2.3l.1-.1v-.7-.1s0-.1.1-.1h.3c.1 0 .2 0 .3-.1 0 0 .1 0 .1-.1h.1c.1 0 .1 0 .1.1v.4l.1.1.1.1s0 .1.1.2.1.2.1.2v.2h-.1s-.1 0-.1.1v1.1c0 .2 0 .3-.1.3-.1.1-.1.2-.1.3h.2v2l-.1.1-.1.1v.5-.2l.1.1v.7c-.1 0-.2.1-.2.2v.3c0 .1 0 .3.1.4.1.1.1.3.1.4v.5c0 .2.1.3.1.4 0 .1.1.3.1.4v1s0 .2.1.3 0 .2.1.3v.2c-.1.1-.1.2-.1.3 0 .1 0 .2.1.2l.3.3c.1.1.2.2.3.2.1.1.2.1.3.1h1.5s0-.1.1-.1h.2s.1 0 .1.1v.2c0 .1 0 .1.1.1h.2-.6v-.1-.1h.2c.2-.1.4-.1.6-.2.2 0 .4-.1.6-.1 0 .1 0 .2-.1.3l-.2.2c-.1 0-.1.1-.2.1s-.1.1-.1.1c0 .1 0 .2.1.2s.1 0 .1.1v.2l-.1.1c-.1 0-.2 0-.2-.1 0 .1-.1.2-.3.4v.7h-.1v-.2H29v.2h-.2c-.1 0-.2.1-.2.2h-.3c-.1 0-.2 0-.3.1h.1v.2h-1.3c-.1-.1-.2-.1-.2-.1s-.1.1-.1.2-.1.1-.1.2h-.1l-.1-.1-.1-.1s-.1-.1-.2-.1c-.4-.1-.5-.2-.5-.1zm-2.1-10.1v.1c.1.1.1 0 0-.1.1 0 .1 0 0 0zm.3 5l-.1.1-.1.1c.1 0 .1 0 .1-.1v-.1zm.1 3.1c-.1 0-.1 0 0 0-.1.1 0 .2 0 .2v-.2zm.1-12.2s-.1 0 0 0c-.1.2-.1.2 0 .2s.1 0 0-.2c.1 0 .1 0 0 0zm.3 13.2c0 .1 0 .2.1.2l.1-.1c-.1 0-.1-.1-.2-.1zm.1-3.7c-.1 0-.1 0 0 0-.1.1 0 .2 0 .2v-.2zm0-5.5s0 .1 0 0c-.1.1 0 .1 0 .1.1.1.1.1 0-.1.1.1.1 0 0 0zm.3 7.7zm.3-1.7c-.1 0-.2.1-.2.2h.2v-.2zm0-9.7s-.1.1-.1.2v.1H25s0-.1-.1-.1 0-.2-.1-.2zm.1 5.5l-.1.1h.3s0-.1-.1-.1h-.1zm-.1-5.7zm.1 1c0 .1 0 .1 0 0 .1.1.1.1 0 0 .1 0 .1 0 0 0zm0 5.4h.2V19H25v.1zm.1-6.6l.1.1c.1 0 .1.1.1.1.1.1.1.2.1.2 0 .1.1.1.2.1 0-.1 0-.2-.1-.4-.1-.1-.1-.2-.2-.3-.2.1-.2.1-.2.2zm.1 8.5l.1-.1-.1.1zm.2-6.8zm.2 7.3s0-.1 0 0c-.1-.1-.1 0 0 0-.1 0-.1 0 0 0zm.2-8.2c-.1 0-.1.1 0 0-.1.2 0 .2 0 .2v-.2c0 .1 0 0 0 0zm2.7 13h.1v-.1l-.1-.1v.2zm.4-.6c-.1 0-.1 0 0 0-.1.1 0 .2 0 .2v-.2zM36 27l-.1.1v.1c0-.1 0-.1-.1-.1h-.4s-.1 0-.2-.1h-.3-.2v-.2c0-.1-.1-.1-.1-.2 0 0-.1-.1-.2-.1h-.2v-.2l-.3.2-.1-.1-.1-.1v-.2c0-.1 0-.1-.1-.1s-.1.1-.1.1v.2s-.1.1-.2.1c-.2 0-.4 0-.5-.1-.1-.1-.1-.2-.1-.2v-.3s0-.1-.1-.2h-.5l.1-.2c-.1 0-.3-.1-.4-.1-.1-.1-.2-.2-.2-.3-.1-.1-.1-.2-.2-.3s-.1-.2-.2-.3c0 0 0-.1-.1-.1-.1-.1-.1-.1-.1-.2-.2-.2-.3-.4-.3-.6s-.1-.3-.2-.6c0-.1 0-.2-.1-.3s0-.3 0-.3v-.1-.3-.4-.1-.5-.3c0-.1 0-.3.1-.5 0-.2.1-.3.1-.4s.1-.2.2-.2v.4h.2c.1 0 .2 0 .2-.1 0 0 0-.1.1-.2v-.1h.1v.2h.4s.1 0 .2-.1v-.1c0-.2 0-.3-.1-.4-.1-.1-.1-.3-.1-.4h.4c.1 0 .1 0 .1-.1s-.1-.1-.1-.1H32c0-.1 0-.1.1-.2S32 18 32 18h.5c.1 0 .2.1.2.1V18.4h.4s.3-.1.3-.2c0 0 .1-.1.1-.2s.1-.2.1-.2c0 .1.1.2.2.2h.2c.1 0 .1 0 .1-.1v-.2h-.3l.1-.1v-.1-.1c0-.1 0-.1-.1-.1 0 0 .1 0 .1.1.1 0 .1.1.1.1s.1 0 .2.1c.1 0 .2.1.2.1 0 .1 0 .2.1.3s.1.2.2.3V18l.1.1.1.1h.2c.1 0 .2 0 .2-.1s0-.1-.1-.1-.1 0-.2-.1c0 0 0-.1.1-.1s.1-.1.1-.1.1 0 .2.1.1.1.2.1c.2 0 .2-.1.3-.2 0-.1.1-.2.2-.3 0 0 .1.1.1.2.1.1.1.1.1.2v.2h.1v-.7l.1-.1v.5c0 .2.1.3.2.5l.1-.1v-.8s.1 0 .1.1c0 0 .1.1.1.2v.3h.1l.1-.1.1-.1h.7s-.1.1-.1.2-.1.1-.1.2v.1s0 .1.1.1c0 0 .1 0 .2.1h.2s0 .1-.1.1H38c-.1 0-.1 0-.2.1-.1 0-.1.1-.1.2v-.2c0-.1 0-.2-.1-.2v-.1-.1c0-.1-.1-.1-.1-.1h-.1c0 .2 0 .3.1.4.1.1.1.2.1.4h-.1v.1h.5v-.2-.1h.1c.1 0 .2.1.2.2v.3c0-.1.1-.2.2-.2h.3v.4h.3s.1 0 .3.1h-.1-.1v.1c0 .1.1.2.2.2h.3s0 .1-.1.1c0 0 0 .1-.1.1h-.1-.1H39h-.1s-.1 0-.1.1c.2.1.3.3.4.5-.1.1-.2.1-.2.1h-.2v.1s0 .1.1.1c0 .1.1.1.1.1l.1.1.1.1s0 .1-.1.2l-.1.1c0-.1-.1-.1-.2-.1h-.1l-.1.1c.1 0 .1 0 .1.1v.1c0 .1 0 .2-.1.2 0 0-.1.1-.2.1H38c-.1 0-.1.1-.1.2s0 .1-.1.2c0-.1-.1-.1-.1-.1h-.2c-.2 0-.2 0-.3.1 0 .1-.1.1-.2.1l-.2-.1s-.1 0-.1-.1-.1-.1-.1-.1l.4-.2.1.1c-.1.1-.1.2-.1.2v.2c0 .1 0 .1-.1.2 0 .1-.1.1-.2.2v-.3c0-.1-.1-.1-.2-.1s-.1 0-.2.1-.1.1-.1.2v-.1-.1-.1-.1-.1-.1c0-.1 0-.1-.1-.1H36c-.1 0-.2 0-.3.1-.1.1-.2.1-.2.2l.1.1c.1 0 .1.1.1.1v.6c-.1.1-.2.1-.3.2-.1 0-.1.1-.2.1h-.1c0-.1 0-.2.1-.2.1-.1.1-.1.1-.2s0-.2-.1-.2H35v.2c0 .1 0 .2-.1.3 0 .1 0 .1-.1.2v-.2c0-.1-.1-.1-.2-.1s-.2 0-.3.1c-.2 0-.3.1-.3.1H33.7c0-.2-.1-.3-.2-.4h-.1v.4c-.1 0-.2-.1-.2-.2s-.1-.2-.2-.2v.4s0 .1.1.2c0 .1.1.1.1.1H33.5c.2 0 .4.1.5.1.2 0 .3.1.5.1.2.1.3.1.5.1s.3.1.5.1c0 0 .1 0 .2.1.1 0 .1.1.1.1v.2h.8c.2 0 .3 0 .4.1.1 0 .2.1.4.1 0 .1 0 .2.1.2h.2c.1 0 .2 0 .2-.1l.1-.1h.1v.2h.1c.1 0 .1 0 .1-.1s0-.1.1-.1H39c.1 0 .1.1.1.1 0 .1 0 .1.1.1l.4-.4h.7l-.1.1c0 .1.1.1.3.2.1 0 .2.1.3.2l-.2.1V26h-.1v.1h.2v.9s-.1-.1-.2-.1-.1-.1-.2-.1v.1h.2v.1c0 .1 0 .1-.1.2s-.1.1-.2.1h-.1-.4-.2V27c-.3 0-.5.1-.7.2v-.4s0 .1-.1.1v.1h-.4l-.1.1-.1-.1H37.8v-.1l.1-.1h-.2-.4v-.2.1h-.1v-.1h-.1c-.1 0-.1.1-.1.2s-.1.2-.1.2c0 .1 0 .1-.1.2l-.1.1c-.1 0-.1 0-.1-.1v-.1-.1H36zm-5.6-7c-.1.1 0 .1 0 .1.1 0 .1 0 0-.1.1 0 .1 0 0 0zm.8.7c-.1 0-.1 0 0 0-.1.1 0 .1 0 .1v-.1zm0-.4c-.1 0-.1.1-.1.2.1 0 .1 0 .2-.1l-.1-.1zm0 1.4c0-.1 0-.1 0 0 0-.1-.1-.1 0 0zm.4-2c-.1 0-.1 0-.1.1v.2s.1 0 .2-.1l.1-.1c-.1 0-.1 0-.2-.1zm0 .3s0 .1 0 0v.2c.1 0 .1 0 0-.2.1.1.1.1 0 0zm.6 2.5c-.1.1-.1.1 0 .2l.1.1.1.1c.1 0 .1-.1.1-.2v-.2c0-.1 0-.2-.1-.2 0-.1-.1-.1-.1-.2s0-.1.1-.2c0 0 .1-.1.2-.1l.1.1.1.1h.4s.1 0 .2-.1v-.2-.2h.6c.1 0 .2 0 .3-.1.1-.1.2-.2.3-.2 0 .1.1.2.1.3 0 .1.1.1.2.1h.2c.1 0 .1 0 .2-.1l.1-.6c.1 0 .2-.1.3-.1.1 0 .2-.1.3-.1 0 0 .1 0 .1.1.1 0 .1.1.1.1h.1v-.1s0-.1.1-.2v-.2h.3s.2 0 .3-.1h.4v-.7c0 .1 0 .1.1.1l.2.2.1.1.1-.1c-.1-.2-.2-.3-.2-.5 0-.1-.2-.3-.3-.4-.1-.1-.2-.1-.3-.2s-.3-.2-.4-.2c-.2 0-.3 0-.4.1-.1.1-.2.2-.3.2-.1.1-.2.2-.4.2-.1-.1-.2-.1-.4-.1h-.1s-.1 0-.2-.1-.1-.1-.2-.1v.1c0 .1 0 .1-.1.1l-.2.2h-.1-.1l-.1.1-.1.1h-.4l-.1.1v.1h-.1l-.1-.1c-.4.3-.6.6-.7 1.1-.1-.1-.2 0-.2 0-.1.1-.1.1-.1.2v.4h-.1l-.2-.4v.2c0 .1 0 .2.1.3 0 .1.1.2.1.3v.1l-.1.1H32v.6h-.2v.1h.4zm-.3.5c.1-.1 0-.1 0 0 0-.1 0-.1 0 0zm0-4c0 .1 0 .1 0 0 .1.1.1.1.2.1h.2c0-.1 0-.2-.1-.2h-.1l-.2.1zm.2.2s0 .1 0 0c-.1.1 0 .1 0 .1.1.1.1.1 0-.1.1.1.1 0 0 0zm.1-1.1c0 .1 0 .2.1.2.1.1.2.1.2.1 0-.2 0-.2-.1-.3h-.2zm.2 5.3c-.1 0-.1.1 0 0v0c0 .1 0 0 0 0zm.1-.9c-.1.2 0 .2 0 .2s.1-.1 0-.2c.1 0 .1 0 0 0zm0-3.8s0 .1 0 0c.1.1.2 0 .2 0v-.1h-.1c-.1 0-.1 0-.1.1zm0 1.3c.1 0 .1-.1 0 0v-.1.1zm.4 5.8c-.1 0-.1 0 0 0l-.1.1c.1 0 .1-.1.2-.1s.1-.1.1-.2c0 0-.1-.1-.2-.1s-.1-.1-.2-.1l-.1.1.1.1c.1.1.1.2.2.2zm-.1.3c-.1 0-.1 0 0 0-.1.1 0 .1 0 .1v-.1zm0-6.9l.1-.2h-.1v.2zm.1 2.9c-.1 0-.1 0 0 0-.1.1-.1.1 0 0-.1.1-.1.1 0 0zm0 4.1c-.1 0-.1.1 0 0v0zm0-7.4c0-.1 0-.1 0 0-.1-.1-.1-.1 0 0zm0 6.5h.1v-.1l-.1.1zm.2 1c-.1 0-.1 0 0 0-.1.1-.1.1 0 0 0 .1 0 .1 0 0zm.1-.3c-.1 0-.1 0 0 0-.1.2 0 .2 0 .2V26zm0-1.9zm0-5.8c-.1.1 0 .2 0 .2s.1-.1 0-.2c.1 0 .1 0 0 0zm.1.1c-.1.1 0 .2 0 .2s.1-.1 0-.2c.1 0 .1 0 0 0zm.1 1c-.1.1 0 .2 0 .2.1 0 .1-.1 0-.2.1 0 .1 0 0 0zm0 6.3h.2c-.1-.1-.1-.1-.2 0 0-.1 0-.1 0 0zm.2-7.4v.1c0 .1 0 .1.1.1l.2-.1c0-.1 0-.1-.1-.2 0-.1-.1-.1-.2-.2 0 0 0 .1-.1.1.1.1.1.1.1.2zm.4 7.4h-.2l-.1.1h.3v-.1zm.1-.1c0 .1 0 .1 0 0V25.9h.1v-.5s-.1.1-.1.2zm.1-7.3v.2c.1-.1.1-.1 0-.2.1 0 .1 0 0 0zm0 .9v.1c.1 0 .1 0 0-.1.1 0 .1 0 0 0zm.2-1.4c-.1 0-.1 0-.2.1h.2v-.1zm-.1 1.3c0-.1 0-.2.1-.2v-.2-.1s0-.1-.1-.1v.6zm.3 3.9h-.2.2zm.2 2c-.1 0-.1.1 0 0-.1.1 0 .2 0 .2V25c0 .1 0 0 0 0zm.1-2.3c-.1 0-.1 0 0 0-.1.1-.1.1 0 0zm0 3.8c-.1 0-.1 0 0 0-.1.1-.1.1 0 0zm0-8c.1.1.1.2.1.2s.1.1.2.1h.1s.1 0 .1-.1-.1 0-.1 0c-.1 0-.1 0-.1-.1v-.1-.1l-.3.1zm.3 6.9c0-.1 0-.1 0 0h0zm.2.1c.1 0 .1 0 .2-.1l-.2.1zm.3-4.2zm.1.6zm0-1.2v.2c0 .1 0 .2.1.2 0 .1.1.1.1.2s.1.1.2.1v-.2-.2c-.1 0-.1 0-.2.1 0-.1-.1-.1-.1-.2s0-.2-.1-.2zm.3-2.8v.1c0 .1 0 .1.1.1s.1 0 .1-.1 0-.1-.1-.1c0 .1 0 0-.1 0zm0 3.8l.1-.1h-.1v.1zm.2 3.7c.2.1.3.2.3.2h.1v-.2-.2c-.1 0-.1 0-.2.1 0 .1-.1.1-.2.1zm0 1.4h.1c0-.1 0-.1-.1-.2v.2zm.2-1v.2c0 .1.1.1.2.1h.1c0-.1 0-.2-.1-.2 0 0-.1-.1-.2-.1zm.1-4.1v.2s0 .1.1.2c.1 0 .1-.1.1-.2v-.2h-.2zm.1.7v-.2l-.1.1.1.1zm0-2.1s0 .1 0 0c0 .1 0 .1 0 0l.1.1c0-.1.1-.2.2-.2h.3c0-.1-.1-.1-.1-.1h-.1-.2l-.2.2zm.6.1s-.1 0-.1.1-.1.1-.1.1h.3l-.1-.2zm-.1-2.1h.1v-.1l-.1.1zm.1 8.4s0 .1 0 0v.2c.1 0 .1 0 0-.2.1.1.1 0 0 0zm.3-4.9l.1-.1-.1.1zm0-1s0 .1 0 0v.2s.1 0 0-.2c.1.1 0 0 0 0zm.1-.3h-.1c0 .1 0 .1.1 0 0 .1 0 .1 0 0zm-.1 1h.1v-.1l-.1.1zm.3.2c-.1 0-.1 0 0 0 0 .1 0 .1 0 0 0 .1 0 .1 0 0zm-.1-.4zm.1-1.3c-.1.1 0 .1 0 .1.1 0 .1 0 0-.1.1 0 .1 0 0 0zm.1.3c0 .2 0 .3.1.4.1.1.1.2.2.3l.1-.1v-.1-.1c0-.1 0-.2-.1-.2-.1-.2-.2-.2-.3-.2zm.3 1.1c-.1 0-.1 0 0 0-.1.1 0 .1 0 .1v-.1zm0-2v.2c0-.1.1-.1 0-.2.1 0 0 0 0 0zm.1-.3s-.1 0 0 0c-.1.1 0 .2 0 .2s.1-.1 0-.2c.1 0 0 0 0 0zm.3 1.4l-.2-.1.2.1zm.2 5.1c-.2 0-.2.1-.2.2l.2-.2zm-.1-6.3c-.1.2 0 .2 0 .2.1 0 .1 0 0-.2.1 0 .1 0 0 0zm.1.1s-.1 0 0 0c-.1.1 0 .2 0 .2s.1-.1 0-.2c.1 0 0 0 0 0zm.3 6.6l.1.1s.1 0 .1-.1.1-.1.1-.1l-.1-.1h-.1c-.1.1-.1.1-.1.2zm.2.7zm.1-1.1c-.1 0-.1 0 0 0-.1.1 0 .1 0 .1v-.1zm.2.1c-.1 0-.1 0 0 0-.1.1-.1.2 0 .2v-.2zm.6 1.1c-.1 0-.2 0-.2.1l.2-.1c-.1.1-.1.1 0 0 0 .1 0 0 0 0zM48.7 27v-.2-.2c0-.1 0-.1-.1-.1h-.2s-.1 0-.1-.1c0 0-.1-.1 0-.1l-.2.2c-.1.1-.2.1-.2.2v-.3c-.1 0-.1 0-.2.1s-.1.1-.1.2-.1.1-.1.2 0 .1-.1.1-.1-.1-.1-.2 0-.2.1-.2c0-.1.1-.2.1-.3 0-.2-.1-.3-.3-.3l-.1.1-.1.1h-.4l-.1.1-.1.1-.4-.1-.1-.1h-.1-.1-.1c-.1 0-.2 0-.2.1-.1 0-.2.1-.2.1h-.1H44.8l-.1.1c-.1.1-.1.1-.1.2l-.1-.1v-.1s0-.1.1-.1c0-.1.1-.1.1-.2v-.1c0-.1 0-.2-.1-.2s-.1 0-.1.1v.2c-.1 0-.1-.1-.1-.2v-.2h-.2-.1l-.1-.1v-.2V25.2h-.1-.1c-.1 0-.2 0-.2.1 0 0 0 .1-.1.1 0 0 0 .1-.1.1 0 0-.1.1-.2.1V25v-.1-.1c0-.1 0-.1.1-.2l.1-.1v-.1-.1h-.1-.1l-.1-.1c0-.1-.1-.1-.1-.1h-.2l-.1.1v.1c0 .1 0 .1.1.1h.2v.1h-.5c0-.2 0-.3-.1-.3 0-.1-.1-.1-.1-.2-.1 0-.1-.1-.1-.1s-.1-.1-.1-.2h.1v-.1c0-.1 0-.1-.1-.1s-.1-.1-.1-.1v-.1-.1-.1-.1s0-.1-.1-.1l.1.1c0-.1 0-.2.1-.2s.1-.1.2-.1.2 0 .3-.1c.1 0 .1-.1.2-.1 0-.1-.1-.1-.1-.1s-.1 0-.1.1-.1.1-.1.1h-.1l-.1-.1h-.2v-.1-.1c0-.1 0-.2.1-.3s.1-.2.2-.3c.1-.1.1-.2.2-.2.1-.1.1-.1.1-.2s0-.2-.1-.3c-.1-.1-.1-.2-.1-.3 0-.1 0-.2.1-.3.1-.1.1-.2.2-.4 0 0 0-.1.1-.1h.1s.1 0 .1-.1v-.2h.1v.4l.1-.1.1-.1c.1 0 .2.1.3.1.1 0 .1.1.2.1h.1c-.1 0-.1-.1-.2-.2s-.2-.1-.3-.1v-.3h.2v-.1-.1c0 .1 0 .2.1.3 0 .1.1.2.2.2h.2V19s-.1-.1-.3-.2c-.1-.1-.2-.1-.2-.2.1-.1.1-.2.2-.3.1-.1.2-.1.4-.1h.1l.1.1v.1s.1-.1.1-.2.1-.2.2-.3.1-.2.2-.3l.1-.1v1.2H45c-.1 0-.1-.1-.1-.1l-.1.1c0 .1 0 .1-.1.1v.1h.4v.1H45v.1l.3.1v-.7h.3l.2.1c.1 0 .1.1.1.1h.1l-.1-.1s-.1-.1-.1-.2-.1-.1-.1-.2-.1-.1-.1-.1c0-.1 0-.1.1 0l.1.1h.1v-.3c0-.1 0-.2-.1-.2 0-.1-.1-.2-.1-.3h.4l.1-.1v-.1l.2-.2c.1-.1.2-.1.2-.2.1 0 .1 0 .2-.1h.5c.1 0 .2 0 .3.1v.1l-.1.1-.1.1c.1 0 .2 0 .3-.1l.2-.2c0-.1.1-.1.1-.2s.1-.1.2-.1c0 0 .1 0 .1.1l.2.2.2.2.1.1s0-.1.1-.1v-.1-.1h-.1-.1v-.1s0-.1.1-.1H49l.4.4h.1l.1-.1v-.1-.1h.5v.4h.1l.1-.1v-.9l.1.1.2 1.1.5-.4c0-.1 0-.1-.1-.1s-.2 0-.2-.1.1-.1.2-.1h.4s0 .1.1.1c0 .1.1.1.1.2s0 .1-.1.2l-.2.2c.1 0 .1-.1.1 0l.1.1s0 .1.1.1 0 .1.1.1h.1s.1 0 .1-.1v.1s.1 0 .1.1l.1.1s.1 0 .1.1v1c0 .1 0 .1.1.1h.2s.1 0 .1.1v.1l-.1.1c-.1 0-.2-.1-.3-.2-.2-.1-.2-.1-.3-.2-.1 0-.1.1-.1.1v.2c-.1 0-.2 0-.3-.1s-.2-.1-.3-.2c.1 0 .1-.1.1-.1v-.1-.1-.1l-.1-.1c-.1 0-.1-.1-.1-.1-.1 0-.2 0-.3.1l-.2.2-.1-.1-.1-.1H50l-.1-.1-.1-.1s-.1 0-.1.1c0 0-.1.1-.1.2s-.1.1-.1.2-.1.1-.2.1h-.2c-.1 0-.2 0-.3.1h-.5-.7c0 .1-.1.1-.1.1h-.2c-.1 0-.2 0-.2-.1s-.1-.1-.2-.1h-.1-.1c-.1 0-.1 0-.1-.1l-.1-.1c0 .1 0 .2.1.3 0 .1.1.2.2.3v.1c0 .1 0 .1-.1.2 0 0-.1.1-.2.1s-.1 0-.2.1h-.2v.2h.2c-.1.2-.1.3-.2.4-.1.1-.1.2-.1.4v.7c0 .1-.1.2-.1.3 0 .1-.1.2-.1.4l-.5-.4v.5s0 .1.1.1c0 .1.1.1.1.1.1 0 .2 0 .2-.1.1 0 .2-.1.3-.1h.1l-.1.4h.1V24h.2v.2h.1l.2.2.2.2s0 .1.1.1c0 .1.1.1.1.1h.4s.1 0 .1.1l-.5.1h.4s.1 0 .2.1h1.8v.3c.1 0 .2-.1.2-.2s.1-.2.2-.3c.2-.1.5-.2.7-.2.2 0 .4-.1.7-.1 0 0 .1 0 .2-.1.1 0 .1-.1.2-.1h.4c.1 0 .1 0 .3.1l.2.1s.1.1.1.2.1.2.1.2h.1l-.1.1-.1.1v.2c0 .1-.1.1-.2.2-.1 0-.1.1-.2.1s0-.1.1-.1l.1-.1v-.1c0-.1-.1-.2-.2-.2s-.1.1-.1.1v.2h-.6-.2V25.8c0 .1.1.1.1.1h-.2c-.1 0-.1 0-.2.1V26.3c0 .1-.1.1-.2.1s-.1.1-.1.3v-.2s0-.2-.1-.2-.1 0-.2-.1h-.1-.1v.4h-.1s-.1 0-.2.1c-.1 0-.1.1-.2.1h-.2s-.1 0-.2.1 0 .1 0 .1c-.1 0-.2 0-.3-.1-.1.1-.2.1-.3.1zm-6.4-4.2c-.1.1-.1.1 0 .1.1.1.1 0 0-.1.1 0 .1 0 0 0zm0-.7c0 .1 0 .1 0 0 .1.1.1.1 0 0 .1 0 .1 0 0 0zm.5.7c.1 0 .1 0 .1-.1l-.1.1zm.4.2c-.1 0-.1 0-.1.1l.1-.1c0 .1.1.1 0 0zm.1-3v.2c0 .1.1.1.2.1h.1s.1 0 .1-.1 0-.2-.1-.2h-.3zm0 .7l.1-.1h-.1v.1zm.3 2.9c-.1 0-.1 0 0 0-.1.1-.1.1 0 0-.1.1 0 .1 0 0zm.3-1.3c-.1 0-.1 0-.2.1s-.1.1-.1.2h.3c.1 0 .2-.1.2-.2-.1-.1-.2-.1-.2-.1zm-.3-.7c.1 0 .1 0 0 0l.1-.1c0-.1 0-.1-.1-.1v.2zm.3 3c-.1 0-.1 0 0 0-.1.1 0 .1 0 .1v-.1zm.1-3.3s-.1.1 0 0c-.1.1 0 .2 0 .2.1 0 .1 0 0-.2.1.1.1 0 0 0zm0 .4h.1v-.1l-.1.1zm.2-3.2l.1-.1-.1.1zm.1 2v.1c0 .1 0 .1-.1.1.2-.1.2-.2.1-.2.1-.1.1-.2.1-.2h-.1s-.1 0-.1.1l.1.1zm.1-.5c0-.1 0-.1 0 0-.1 0-.1 0 0 0zm0 1.2s0 .1 0 0v.1l.1.1.1.1s0 .1.1.1c0 .1.1.1.1.1h.2l.1.1v.1c.1 0 .1-.1.2-.1 0-.1.1-.1.1-.2s0-.3-.1-.4c0-.2-.2-.3-.3-.3h-.3c-.3.2-.3.2-.3.3zm.1 4.1l-.1.1h.1v-.1zm.4-5.9l.2.1-.2-.1zm.2 1.2v.1c0 .1 0 .1.1.1l.1-.1v-.1h-.2zm1.4-2.2c.1 0 .2-.1.2-.2h-.2v.2zm.4-.7c0 .1 0 .1 0 0 .1.1.1.1.2.1 0 0 .1 0 .1-.1h-.3zm.4.2v.1c0 .1 0 .2-.1.4v.4h.1c.1-.1.1-.2.2-.4 0-.1.1-.2.1-.4v-.2c-.1.2-.2.1-.3.1zm.3-.2c0 .2.1.3.2.4.1-.1.1-.1.1-.2l.3.2s.1 0 .1-.1 0-.2-.1-.3c0-.1-.1-.1-.2-.1h-.3s-.1 0-.1.1zm0 .9c0 .1 0 .1 0 0 0 .1 0 .1 0 0l.1.1v-.1-.1s.1-.1.2-.1.2-.1.2-.1l-.1-.1s0-.1-.1-.2c0 .1-.1.2-.2.3-.1.1-.1.2-.1.3zm.1.4l.1-.1h-.1v.1zm.2-.4c-.1.1 0 .2 0 .2.1-.1.1-.1 0-.2.1 0 .1 0 0 0zm.1.8zm.3-.3c.1 0 .1-.1.1-.2h-.1v.2zm.1-1.3v.1-.1c.1-.1.1-.1 0 0zm.1-.4c-.1 0-.1 0 0 0-.1.1-.1.1 0 0 0 .1 0 .1 0 0zm.5.3c-.1 0-.1.1-.1.1h.1v-.1zm-.1 9.1c.1 0 .2 0 .3-.1.1 0 .2-.1.3-.1v-.1c0-.1 0-.1-.1-.2 0-.1 0-.1-.1-.2 0-.1 0-.1-.1-.1V26.3H49v.5zm.1-8c-.1 0-.1 0 0 0-.1.1 0 .1 0 .1v-.1zm.4-1.3c-.1.1-.1.2-.1.2l-.1.1v.1s0 .1-.1.2 0 .2 0 .2v-.1l.1-.1h.6l-.2-.2c-.1-.1-.1-.2-.2-.2v-.2zm-.3 1.1v.2s.1.1.1.2c0 0 .1 0 .1-.1v-.2-.2h-.2v.1zm.8 7.9v.1c.1 0 .1 0 0-.1.1 0 .1 0 0 0zm0-8.7zm.1-.5h.1v-.2l-.1.2zm1.1 7.7l-.1.1c0 .1-.1.1-.1.2v.2c.1 0 .2 0 .1-.1s0-.1 0-.2V25c.2.1.2.1.1 0h.1-.1zm.2-7.3c-.1.1 0 .1 0 .1.1 0 .1 0 0-.1.1 0 .1 0 0 0zm.2.8c-.1 0-.2.1-.2.2.1 0 .2-.1.2-.2zm.1.7s0-.1 0 0c-.1-.1-.1 0 0 0-.1 0-.1 0 0 0zm.4 5.5c-.1 0-.1 0 0 0-.1.1 0 .2 0 .2v-.2zM56.8 26.6s-.1 0-.2.1-.1.1-.2.1-.3 0-.4-.1c-.2-.1-.3-.2-.4-.2h-.1l-.1.1-.1.1h-.2v-.4h-.2s-.1-.1-.1-.2c-.1-.1-.1-.2-.2-.3-.1-.1-.1-.2-.1-.3 0-.1-.1-.1-.1-.2v-.1s0-.1.1-.1c-.1 0-.2 0-.3-.1-.1 0-.2-.1-.3-.1-.1-.4-.1-.8-.2-1.1 0-.3-.1-.7-.1-1.1V22s0-.5.1-.7c0 0 0-.1.1-.2s.1-.2.1-.2v.1c0-.2 0-.3-.1-.4 0-.1-.1-.2-.1-.4v-.3-.4c0-.1 0-.3.1-.4 0-.1.1-.2.1-.3V13c.1-.1.2-.2.2-.3 0-.1 0-.2-.1-.2-.1-.1-.1-.1-.1-.2s.1-.1.2-.2.2-.1.3-.1c.1 0 .1 0 .1.1s0 .1.1.1.2-.1.2-.2v-.3c.1 0 .2 0 .4.1.1.1.2.2.2.3 0 .1 0 .1-.1.2l-.2.2v.1h.2l.1-.1v.2h.2c.1 0 .1 0 .1-.2v-.1-.2-.2-.2l-.2-.1.1-.1c.2 0 .3.1.3.2v.5c.1 0 .2 0 .3-.1s.1-.1.1-.2.1-.1.1-.2c0 0 .1-.1.2-.1l.1.1s.1.2.2.3c.1.1.1.2.1.4 0 .1.1.2.1.2 0 .2 0 .3-.1.5s-.1.4-.1.6l.1.2h-.1-.1-.1s-.1.1-.1.2c-.1.1-.1.2-.1.3s-.1.2-.1.3v.2s0 .1.1.1c0 .1.1.1.1.1v.1s-.1.1-.1.2v.2s0 .1.1.1c0 0 0 .1.1.1 0 0-.1.1-.1.2s-.1.2-.1.2c0 .1.1.1.1.1.1 0 .1.1.2.1s.1.1.1.2.1.2.1.3c0 .1 0 .2-.1.2 0 .1-.1.2-.1.2v.2s0 .1.1.2h1.3s.1-.1.1-.2h.2c.1 0 .2 0 .2.1l.1.1s0-.1.1-.1.1-.1.1-.1c.1 0 .2 0 .2.1l.1.1.1.1s.1.1.2.1.2 0 .2-.1c0 0 0-.1.1-.1s0-.1.1-.1.1-.1.3-.1c0 .2 0 .3-.1.4 0 .1-.1.1-.1.2l-.1.1s-.1.1-.1.2v.2s0 .1.1.1c0 .1.1.1.1.1v.1c0 .1 0 .1-.1.2 0 .1-.1.1-.1.2s-.1.1-.2 0c0 0-.1 0-.1-.1s-.1-.1-.1-.1h-.1V20.1s-.1 0-.2-.1H59c-.1 0-.1 0-.2.1 0 .1-.1.1-.1.2s-.1.1-.1.2-.1.1-.2.1c-.2 0-.3 0-.4-.1-.1-.1-.3-.1-.5-.1h-.1s-.1 0-.1.1v-.2c0-.1 0-.1.1-.2l.1-.2c0-.1-.1-.2-.1-.2l-.2-.2-.2-.2c0-.1-.1-.2-.1-.3 0-.1 0-.2.1-.3 0-.1.1-.2.2-.2h.2c0-.1 0-.2-.1-.3-.1-.1-.2-.2-.3-.2h-.2s.1 0 .2.1.1.1.2.1l-.2.2c-.2.1-.3.2-.3.3-.1.2-.1.3-.2.4l-.2.2c-.1 0-.1.1-.2.2 0 .1-.1.2-.1.4-.1 0-.2-.1-.3-.1h-.1s-.1 0-.1-.1-.1-.1-.1-.2c-.1 0-.2.1-.2.2s0 .1.1.2.1.2.2.2c.1.1.2.1.2.2h.2c-.1.2-.2.3-.4.4-.2.1-.3.2-.4.3 0 .1 0 .1.1.1h.2s.1 0 .1.1v.2h.1c.1.2.1.4.1.5v.6h.2v.2s0 .1-.1.2v.9c-.1 0-.2.1-.2.1v.4c.1 0 .2 0 .3-.1.1 0 .2-.1.3-.1 0 .2.1.4.4.5.2.2.4.3.6.3h.1s.1 0 .1-.1H59.1c.1 0 .2 0 .2.2.1 0 .3 0 .4-.1.1 0 .3-.1.4-.1h.2c.1 0 .2 0 .2.1v.7l-.1.1s-.1 0-.2.1c-.1 0-.2.1-.2.1-.1.1-.2.1-.2.2s-.1.1-.1.1l-.1.1h-.4H58.9l-.1-.1-.4.8.1.1s-.1 0-.1.1c-.1 0-.1.1-.1.1h-.1c-.1 0-.2 0-.2-.1-.1 0-.2-.1-.3-.1-.1 0-.2-.1-.3-.1h-.1l-.1-.1c-.3-.2-.3-.3-.4-.3zm-2.6-3.7h.1v-.2l-.1.2zm.1-9.4c0 .1.1.1.2.1s.2 0 .2-.1c.1 0 .2-.1.3-.1V13c-.2 0-.3 0-.4.1s-.2.3-.3.4zm.2 9.2v.2s0 .1.1.1.2 0 .2-.1v-.2-.2c0-.1-.1-.2-.1-.2-.1 0-.1.1-.1.2s-.1.1-.1.2zm.5-10.4c-.1 0-.2 0-.4.1-.1.1-.2.2-.2.3.2 0 .3 0 .4-.1.2 0 .2-.1.2-.3zm0 1.6c-.1 0-.1.1-.1.1v.2l.2-.2-.1-.1zm-.2 3.9c0 .1 0 .2.1.3s.2.1.3.1c0-.1 0-.2-.1-.3 0-.1-.1-.1-.3-.1zm.2 4.5l.1-.1-.1-.1-.1.1.1.1zm0-6.3c0-.1-.1 0 0 0v.1c.1-.1.1-.1 0-.1zm.2 7.3c-.2 0-.2.1-.2.2.1.1.2 0 .2-.2zm-.2-6zm0 4.2c.1-.1.1-.1 0 0 0-.1 0-.1 0 0zm0 1.1l.1-.1H55v.1zm0 2.8h.1v-.8l-.1.1v.7zm.2-13.3c-.1 0-.1 0-.1.1s0 .1.1.1c0 0 .1 0 .1-.1l-.1-.1zm0 1.5c.2.1.3.2.3.4 0 .1.1.2.3.3l.2-.2.2.2.3-.3c0-.1-.1-.1-.2-.1h-.2c0-.1 0-.2.1-.2 0-.1.1-.1.1-.2s.1-.1.1-.2.1-.1.1-.2c-.1 0-.3 0-.4.1-.1.1-.2.1-.4.1-.1 0-.1 0-.1-.1-.1 0-.1.1-.2.2-.2 0-.2.1-.2.2zm.1.9c-.1-.1-.1-.1 0 0v0zm.1.6l.1-.1h-.2l.1.1zm-.1 8.8h.4v-.1l-.1-.1-.3.2zm.9-9.3c-.1 0-.2.1-.3.1-.1.1-.2.1-.3.2s-.2.2-.2.3c-.1.1-.1.2-.1.3 0 0 .1 0 .2-.1l.3-.3.3-.3s.2-.2.1-.2zm-.8 1.5h.1l-.1-.1v.1zm.1 6.7c0 .1 0 .2.1.2s.1.1.2.1v-.3c0-.1-.1-.2-.2-.2 0 0-.1 0-.1.2 0-.1 0 0 0 0zm.1-6.9zm0 1.8c.1 0 .2.1.2.1.1.1.2.1.2.1l.1-.1.1-.1.1-.1.3-.3c0-.1 0-.2-.1-.3-.1-.1-.1-.1-.2-.1h-.5c-.1 0-.2.1-.2.1-.1 0-.1.1-.1.2v.1s.1 0 .1.1h.1v.2h-.1c.1 0 .1.1 0 .1zm0 1.2c.1 0 .1 0 0 0l.1.1h.1l.1-.1v-.1c0-.1-.1-.1-.1-.1-.1 0-.1 0-.1.1v.1h-.1zm.2.4l.1.1h.1c-.1-.1-.1-.1-.2-.1 0-.1 0 0 0 0zm.2 6.9c-.1 0-.1 0-.1.1s0 .1.1.1.1 0 .1-.1-.1-.1-.1-.1zm0-6.3c-.1 0-.1 0 0 0-.1.1-.1.1 0 0zm0 3.8c-.1 0-.1 0 0 0-.1.1-.1.1 0 0 0 .1 0 .1 0 0zm.1-7.6c-.1 0-.1 0-.1.1s0 .1.1.1c0-.1.1-.1 0-.2.1 0 0 0 0 0zm.1-.3c.1-.1 0-.1 0 0h-.1.1zm0 3.9v-.2l-.1.1.1.1zm0-5.3s-.1 0-.1.1 0 .1.1.1v-.1-.1zm0 3.9s0 .1.1.2c0 .1.1.2.2.2s.2 0 .2-.1v-.2-.2s-.1-.2-.2-.2c-.2 0-.3.1-.3.3zm0 6.8h.1V25l-.1.1zm.1-6.1s.1.1 0 0c.1.1.1.2.1.3 0 .1.1.2.1.2h.1c0-.1 0-.2-.1-.3s0-.2-.2-.2zm.4 6.8c-.1 0-.1 0 0 0-.1.2 0 .2 0 .2.1 0 .1 0 .1-.1s-.1-.1-.1-.1zm.4-12.9c-.1 0-.1.1-.2.1-.1.1-.2.1-.2.3v.1c.1-.1.2-.1.2-.2.1-.2.1-.2.2-.3zm.3 12.6c-.1 0-.1 0 0 0-.1.2-.1.2 0 .2s.1-.1 0-.2c.1 0 0 0 0 0zm.5-6.4c0 .2.1.2.2.2v-.1s0-.1-.1-.1c0-.1-.1-.1-.1-.1v.1zm.1.9h.1c0-.1 0-.2-.1-.2v.2zm.5-1.1c-.1 0-.1 0-.1.1s0 .1.1.1c0 0 .1-.1 0-.2.1 0 0 0 0 0zm.3 7.4c-.1 0-.2.1-.2.2.1 0 .1 0 .1-.1.1.1.1 0 .1-.1zm0-.9c-.1 0-.1 0-.1.1s0 .1.1.1c0 0 .1 0 .1-.1s-.1-.1-.1-.1zm.1-6h.1v-.2-.2l-.1.4zm.3.4l.1-.1-.1-.1v.2zm.4-.8h.1s0-.1.1-.1h-.3l.1.1zM75.6 27.2h-.4c-.1 0-.1 0-.2-.1 0-.1-.1-.2-.1-.3v-.4-.4-.7c0-.2 0-.4.1-.7l.2-.2-.1-.1-.1-.1h.2s.1 0 .2-.1c-.2-.1-.2-.3-.3-.4 0-.2-.1-.4-.1-.5 0-.3 0-.6.1-.8 0-.2.2-.5.4-.8v-.1s0-.1-.1-.1-.1 0-.2.1c0-.1-.1-.2-.1-.4s-.1-.4-.1-.6c0-.2 0-.3.1-.3s-.2-.2-.1-.2.1 0 .2-.1c.1 0 .1 0 .1-.1s0-.1-.1-.1-.1-.1-.1-.2v-.1h.1l.1-.1v-.1-.4-.1c-.2-.1-.3-.2-.4-.3-.1-.1-.1-.2-.2-.3 0-.1-.1-.2-.1-.4v-.5-.3-.3c0-.1 0-.2-.1-.3-.1-.1-.1-.1-.2-.1H74c-.1 0-.2 0-.4.1-.2 0-.4 0-.7.1-.2 0-.5.1-.7.1h-.4c-.1 0-.2-.1-.3-.2l-.2-.2v.4c-.1 0-.3 0-.5.1h-1.1l.3-.1c-.1 0-.3 0-.4-.1-.1-.1-.2-.2-.2-.3 0-.1 0-.1.1-.1h.2c.1 0 .1 0 .2-.1 0 0 .1-.2.1-.3v-.3c0-.1 0-.2-.1-.4l-.2.1v-.3l-.1-.1s-.1 0-.1-.1l.2-.1v-.1-.1c0-.1 0-.2-.1-.3 0-.1-.1-.2-.1-.2s0-.1.1-.1c0-.1.1-.1.1-.1l.7-.1c0 .1 0 .2.1.3.1 0 .2.1.3.1v-.1-.1c0-.1.1-.1.2-.2l.1.1c0 .1.1.1.1.1.1 0 .1 0 .1-.1v-.1h.4v.2l-.1.1s0 .1-.1.1c.1 0 .2 0 .3-.1l.2-.2c.1 0 .1.1.1.2s0 .1-.1.1c0 0-.1.1-.1.2V14.3c.1 0 .1 0 .2-.1s0-.1 0-.2v-.1s0-.1-.1-.1c.1 0 .2 0 .2-.1v-.1c0-.1 0-.1.1-.1 0 0 .1 0 .1.1s.1.1.2.2h.2l.1.1v.4s0 .1.1.1c.2-.1.3-.3.4-.4l.3-.3c.1-.1.1-.1.2-.1s.1 0 .2.1v.8c.1-.1.2-.2.3-.2.1-.1.2-.2.3-.2.1-.1.2-.1.2-.2s.1-.2.1-.3c.1 0 .1.1.1.1s0 .1.1.2c0 .1 0 .1.1.2l.1.1h.4v-.1-.1s0-.1.1-.2.1-.2.2-.3h.1s.1 0 .1.1v.4c.1 0 .1 0 .2-.1 0-.1.1-.1.2-.1-.1.1-.1.2-.1.2v.2c.1 0 .2 0 .3-.1l.2-.2c0-.1.1-.2.1-.3v-.3c0-.3 0-.5-.1-.6-.1-.1-.2-.2-.5-.2v-.1H76.9c.1 0 .2-.1.4-.1h.1s.1 0 .1.1l-.1.1v.9c0 .1 0 .1.1.1.2 0 .3-.1.3-.2v-.4c0-.1 0-.2-.1-.3-.1 0-.1-.1-.1-.2.1 0 .3 0 .4.1s.3.2.3.2v.5s0 .2.1.3c0 .1.1.2.1.3s.1.1.1.1c.1 0 .1 0 .2-.1.1 0 .1-.1.1-.2v-.7h-.1-.1c-.1 0-.2 0-.2-.1.2-.1.3-.2.3-.2.1-.1.1-.1.1-.2v-.2s0-.1.1-.1h.2c.1 0 .1.1.1.2h-.2l.1.3s0-.1.1-.1l.2-.2c.1-.1.2-.2.3-.2s.1-.1.1-.1v.6c.1 0 .2-.1.4-.2s.3-.2.4-.2c.1 0 .1 0 .2.1s.1.1.1.2-.1.2-.2.3c-.1.1-.2.1-.3.1h-.1s-.1 0-.1-.1v.2c0 .1 0 .2.1.2h.1s.1 0 .1-.1v.2c0 .1.1.2.2.2.2 0 .2-.1.2-.2s0-.1-.1-.1-.1 0-.1-.1c0 0 0-.1.1-.1s.1-.1.2-.1.1-.1.2-.1.1-.1.1-.2c0 0 0-.1-.1-.1l-.1-.1s0-.1.1-.1h.2c0 .2 0 .3-.1.5s-.2.3-.4.3c.1 0 .1.1.2.1s.1.1.2.1c0 0 .1 0 .1-.1l.1-.1c.1 0 .2.1.2.2s.1.3.1.4c0 .1 0 .1.1.2.1 0 .1.1.2.1s.2.1.2.1c.1.1.1.2.1.3v.3s-.1.1-.3.1H82h-.1c-.1 0-.2.1-.4.2-.1.1-.2.1-.4.1V15h-.2c-.1 0-.2 0-.4.1s-.3.1-.4.1c-.1 0-.2 0-.2.1h-.1-.1c-.1 0-.2 0-.2-.1-.1-.1-.2-.1-.2-.1-.1 0-.2.1-.2.2s-.1.2-.2.2c0 0-.1 0-.1-.1s-.1-.1-.1-.1c-.1.1-.2.2-.2.4H78l-.1-.1-.1-.1c-.1 0-.2.1-.3.2-.1.2-.2.3-.2.4 0 .1 0 .2.1.4 0 .1.1.2.1.4s0 .3-.1.5c0 .1-.1.3-.1.4v.2s-.1 0-.1.1c-.1 0-.1.1-.2.1s-.2.1-.2.2v.2h.1s.1 0 .1-.1c0 .1 0 .1-.1.2l-.2.2s.1 0 .1.1l.1.1c0 .1 0 .1-.1.2 0 .1 0 .1-.1.2v.2l.1.1h.1c.1 0 .1 0 .1-.1s0-.1.1-.2 0-.1 0-.3c.1 0 .1.1.1.1v.4c0 .1 0 .1.1.2l-.1.7c-.1 0-.1 0-.2-.1s-.1-.1-.2-.1c0 .2 0 .4.1.6.1.2.3.3.5.4 0 0 .1 0 .1-.1l.1-.1-.2.2c-.1.1-.1.2-.2.3s-.1.2-.2.3l-.1.1v.6s-.1 0-.1.1l-.1.1c0 .1.1.2.2.4.1.1.2.2.3.2h.2l-.4.6h-.1c-.1 0-.1 0-.1.1 0 0 0 .1-.1.2v.2c0 .1 0 .1-.1.2V26.3l.1.1.1.1v.1s0 .1-.1.2-.1.2-.2.3c-.1.1-.2.2-.2.3-.1.1-.1.2-.2.2.1 0 .1 0 .2.1 0 0 0 .1-.1.1 0 0-.1 0-.1.1-.1 0-.1 0-.2-.1l-.1-.1s-.1-.1-.2-.1c.1-.4.1-.4 0-.4zm-5.8-13.4c0 .1 0 .2.1.2s.1-.1.1-.2h-.2zm.2.9l.6.1-.1-.8-.5.7zm.2.8l.1-.1-.2-.4.1.5zm.3.4c-.1 0-.1.1-.2.2s-.1.2-.1.2c.2.1.3.1.4 0 .1 0 .1-.2-.1-.4zm0-1c-.1 0-.1 0 0 0-.1.1 0 .2 0 .3 0 .1.1.2.1.2s.1-.1.1-.2.1-.2.1-.2 0-.1-.1-.1h-.2zm.5-.6h.1c.1 0 .1 0 .2-.1.1 0 .1-.1.2-.1s.1 0 .1-.1l-.1-.1s-.1 0-.2-.1-.1 0-.2-.1l-.1.6zm.1.3c-.1.1 0 .2 0 .2.1-.1.1-.1 0-.2.1 0 .1 0 0 0zm.1.1c-.1.1 0 .1 0 .2s.1.1.1.1v-.1c0-.1 0-.1-.1-.2.1 0 .1 0 0 0zm.3 1.3zm.2-1.1c.1 0 .1 0 0 0l.1.1s0-.1-.1-.1c.1-.1.1-.1 0-.1v.1zm.1.7zm.7-.8l-.2.2c-.1.1-.1.2-.1.2.2 0 .3 0 .3-.1 0 0 .1-.1.1-.2l-.1-.1c.1 0 0 0 0 0zm.2-.5s-.1.1 0 0c-.1.1 0 .1 0 .1 0 .1.1.1 0-.1.1.1 0 0 0 0zm.1.7s0 .1 0 0l.1.1-.1-.1c.1 0 0 0 0 0zm.8-.2c-.1.1 0 .2 0 .2.1 0 .1 0 0-.2.1 0 .1 0 0 0zm.2-.8zm1.6 8.7c-.1 0-.2 0-.3.1s-.2.2-.2.3c.1 0 .2 0 .3-.1.2-.1.2-.2.2-.3zm-.4-6.2s0 .1 0 0c0 .1 0 0 0 0zm0 6.9s0 .1 0 0c.1.1.1 0 0 0 .1 0 .1 0 0 0zm.1-1.1c-.1.1 0 .2 0 .2s.1-.1 0-.2c.1 0 .1 0 0 0zm.3-3.9c-.1 0-.1.1 0 0v0c0 .1 0 0 0 0zm.1.5c-.1 0-.1.1 0 0-.1.1 0 .2 0 .2v-.2c0 .1 0 0 0 0zm0-4.4zm0 7.2c.1 0 .1 0 .1-.1v-.1h-.2v.2zm1.3-7.2l-.2.2c-.1.1-.1.2-.1.2.2 0 .3 0 .3-.1 0 0 .1-.1.1-.2l-.1-.1zm-.1.5s-.1.1 0 0c-.1.1 0 .2 0 .2s.1 0 0-.2c.1.1 0 0 0 0zm0 7.6zm.1-.8s-.1 0 0 0c-.1 0 0 0 0 0zm.2-.2c-.1.1 0 .1 0 .1s.1 0 0-.1c.1 0 .1 0 0 0zm.1-5h.1c0-.1 0-.1-.1-.2v.2zm.1-.6zm.2-1.3s-.1.1-.1.2v.3c.2 0 .3-.1.3-.3v-.1c-.1-.1-.2-.1-.2-.1zm-.1-1.1c0 .2.1.2.2.2s.1 0 .2-.1c0-.1-.1-.1-.2-.1h-.2zm.6 1.4s-.1 0-.1.1 0 .1.1.1 0-.1 0-.2zm0-.8l.1.1.1-.1v-.1c0-.1 0-.2-.1-.2 0 .1-.1.1-.1.2v.1zm.2.6h-.2l-.1.1v0c0-.1 0-.1.1-.1h.2zm0-.5c-.1 0-.1.1-.1.1v.1h.2s0-.1-.1-.2zm1.7-.4v.4s0 .3.1.4c.1 0 .2-.1.2-.2s.1-.2.1-.2h-.3v-.4h-.1zm.1 1c-.1 0-.1 0 0 0-.1.1-.1.1 0 0 0 .1 0 .1 0 0zm.1-1.5c0-.1 0-.1 0 0 0-.1-.1-.1 0 0-.1 0 0 0 0 0zm.2.6s-.1 0 0 0c-.1.1 0 .1 0 .1s.1 0 0-.1c.1 0 0 0 0 0zm.2-.3s-.1 0 0 0c-.1 0-.1 0 0 0-.1 0-.1 0 0 0-.1 0 0 0 0 0zm.5-1c-.1 0-.1.1 0 0-.1.1 0 .1 0 .1v-.1c0 .1 0 0 0 0zm.4 1.2c-.1 0-.1.1-.1.1v.1h.2l-.1-.2zm.6 0v.2c0 .1.1.1.1.1s.1 0 .1-.1V14c0-.1 0-.1-.1-.1h-.1zm.4.5c-.1 0-.2.1-.2.2v.3h.2s0-.1.1-.2c-.1-.2-.1-.2-.1-.3zm.1.1s-.1 0-.1.1 0 .1.1.1c0 0 .1 0 .1-.1s0-.1-.1-.1zM87.2 27l-.1.1v.1c0-.1 0-.1-.1-.1h-.4s-.1 0-.2-.1c-.1 0-.2-.1-.3-.1h-.2v-.2c0-.1-.1-.1-.1-.2 0 0-.1-.1-.2-.1h-.2v-.2l-.4.4-.1-.1-.1-.1v-.2c0-.1 0-.1-.1-.1s-.1.1-.1.1v.2s-.1.1-.2.1c-.2 0-.4 0-.5-.1-.1-.1-.1-.2-.1-.2v-.3s0-.1-.1-.2h-.5l.1-.2c-.1 0-.3-.1-.4-.1-.1-.1-.2-.2-.2-.3-.1-.1-.1-.2-.2-.3s-.1-.2-.2-.3c0 0 0-.1-.1-.1-.1-.1-.1-.1-.1-.2-.2-.2-.3-.4-.3-.6s-.1-.3-.2-.6c0-.1 0-.2-.1-.3s0-.3 0-.3v-.1-.3-.4-.1-.5-.3c0-.1 0-.3.1-.5 0-.2.1-.3.1-.4s.1-.2.2-.2v.4h.2c.1 0 .2 0 .2-.1 0 0 0-.1.1-.2v-.1h.1v.2h.4s.1 0 .2-.1v-.1c0-.2 0-.3-.1-.4-.1-.1-.1-.3-.1-.4h.4c.1 0 .1 0 .1-.1s-.1-.1-.1-.1h-.2c0-.1 0-.1.1-.2s.1-.2.1-.2h.5c.1 0 .2.1.2.1V18.6h.4s.3-.1.3-.2c0 0 .1-.1.1-.2s.1-.2.1-.2c0 .1.1.2.2.2h.2c.1 0 .1 0 .1-.1v-.2H85l.1-.1v-.1-.1c0-.1 0-.1-.1-.1 0 0 .1 0 .1.1.1 0 .1.1.1.1s.1 0 .2.1c.1 0 .2.1.2.1 0 .1 0 .2.1.3s.1.2.2.3V18l.1.1.1.1h.2c.1 0 .2 0 .2-.1s0-.1-.1-.1-.1 0-.2-.1c0 0 0-.1.1-.1s.1-.1.1-.1.1 0 .2.1.1.1.2.1c.2 0 .2-.1.3-.2 0-.1.1-.2.2-.3 0 0 .1.1.1.2.1.1.1.1.1.2v.2h.1v-.7l.1-.1v.5c0 .2.1.3.2.5l.1-.1v-.8s.1 0 .1.1c0 0 .1.1.1.2v.3h.1l.1-.1.1-.1h.7s-.1.1-.1.2-.1.1-.1.2v.1s0 .1.1.1c0 0 .1 0 .2.1h.2s0 .1-.1.1h-.2c-.1 0-.1 0-.2.1-.1 0-.1.1-.1.2v-.2c0-.1 0-.2-.1-.2v-.1-.1c0-.1-.1-.1-.1-.1h-.1c0 .2 0 .3.1.4.1.1.1.2.1.4h.2v.1l.2.2V19v-.1h.1c.1 0 .2.1.2.2v.3c0-.1.1-.2.2-.2h.3v.4h.3s.1 0 .3.1h-.1-.1v.1c0 .1.1.2.2.2h.3s0 .1-.1.1c0 0 0 .1-.1.1h-.1-.1H90.2h-.1s-.1 0-.1.1c.2.1.3.3.4.5-.1.1-.2.1-.2.1H90v.1s0 .1.1.1c0 .1.1.1.1.1l.1.1.1.1s0 .1-.1.2l-.1.1c0-.1-.1-.1-.2-.1h-.1l-.1.1c.1 0 .1 0 .1.1v.1c0 .1 0 .2-.1.2 0 0-.1.1-.2.1h-.4c-.1 0-.1.1-.1.2s0 .1-.1.2c0-.1-.1-.1-.1-.1h-.2c-.2 0-.2 0-.3.1 0 .1-.1.1-.2.1l-.2-.1s-.1 0-.1-.1-.1-.1-.1-.1l.4-.4.1.1c-.1.1-.1.2-.1.2v.2c0 .1 0 .1-.1.2 0 .1-.1.1-.2.2v-.3c0-.1-.1-.1-.2-.1s-.1 0-.2.1-.1.1-.1.2v-.1-.1-.1-.1-.1-.1c0-.1 0-.1-.1-.1h-.1c-.1 0-.2 0-.3.1-.1.1-.2.1-.2.2l.1.1c.1 0 .1.1.1.1v.6c-.1.1-.2.1-.3.2-.1 0-.1.1-.2.1h-.1c0-.1 0-.2.1-.2.1-.1.1-.1.1-.2s0-.2-.1-.2h-.2v.2c0 .1 0 .2-.1.3 0 .1 0 .1-.1.2v-.2c0-.1-.1-.1-.2-.1s-.2 0-.3.1c-.2 0-.3.1-.3.1H84.9c0-.2-.1-.3-.2-.4h-.1v.4c-.1 0-.2-.1-.2-.2s-.1-.2-.2-.2v.4s0 .1.1.2c0 .1.1.1.1.1H84.7c.2 0 .4.1.5.1.2 0 .3.1.5.1.2.1.3.1.5.1s.3.1.5.1c0 0 .1 0 .2.1.1 0 .1.1.1.1v.2h.8c.2 0 .3 0 .4.1.1 0 .2.1.4.1 0 .1 0 .2.1.2h.2c.1 0 .2 0 .2-.1l.1-.1h.1v.2h.1c.1 0 .1 0 .1-.1s0-.1.1-.1H90.2c.1 0 .1.1.1.1 0 .1 0 .1.1.1l.4-.4H92l-.1.1c0 .1.1.1.3.2.1 0 .2.1.3.2l-.2.1V26h-.1v.1h.2v.9s-.1-.1-.2-.1-.1-.1-.2-.1v.1h.2v.1c0 .1 0 .1-.1.2s-.1.1-.2.1h-.1-.4-.2V27c-.3 0-.5.1-.7.2v-.4s0 .1-.1.1v.1H90l-.1.1-.1-.1H89.5v-.1l.1-.1h-.2-.4v-.2.1h-.1v-.1H88c-.1 0-.1.1-.1.2s-.1.2-.1.2c0 .1 0 .1-.1.2l-.1.1c-.1 0-.1 0-.1-.1v-.1-.1h-.3zm-5.5-7c-.1 0-.1 0 0 0-.1.1 0 .1 0 .1V20zm.7.7c-.1 0-.1 0 0 0-.1.1 0 .1 0 .1v-.1zm.1-.4c-.1 0-.1.1-.1.2.1 0 .1 0 .2-.1l-.1-.1zm0 1.4c0-.1 0-.1 0 0-.1-.1-.1-.1 0 0-.1 0-.1 0 0 0-.1 0 0 0 0 0zm.3-2c-.1 0-.1 0-.1.1v.2s.1 0 .2-.1l.1-.1c-.1 0-.1 0-.2-.1zm.1.3c-.1 0-.1.1 0 0v0c0 .1 0 .1 0 0zm.5 2.5c-.1.1-.1.1 0 .2l.1.1.1.1c.1 0 .1-.1.1-.2v-.2c0-.1 0-.2-.1-.2 0-.1-.1-.1-.1-.2s0-.1.1-.2c0 0 .1-.1.2-.1l.1.1.1.1h.4s.1 0 .2-.1v-.2-.2h.6c.1 0 .2 0 .3-.1.1-.1.2-.2.3-.2 0 .1.1.2.1.3 0 .1.1.1.2.1h.2c.1 0 .1 0 .2-.1l.1-.6c.1 0 .2-.1.3-.1.1 0 .2-.1.3-.1 0 0 .1 0 .1.1.1 0 .1.1.1.1h.1v-.1s0-.1.1-.2v-.2h.3s.2 0 .3-.1h.4v-.7c0 .1 0 .1.1.1l.2.2.1.1.1-.1c-.1-.2-.2-.3-.2-.5 0-.1-.2-.3-.3-.4-.1-.1-.2-.1-.3-.2s-.3-.2-.4-.2c-.2 0-.3 0-.4.1-.1.1-.2.2-.3.2-.1.1-.2.2-.4.2 0-.1-.2-.1-.4-.1h-.1s-.1 0-.2-.1l-.1-.1v.1c0 .1 0 .1-.1.1l-.2.2h-.1-.1l-.1.1-.1.1h-.4l-.1.1v.1h-.1l-.1-.1c-.4.3-.6.6-.7 1.1-.1-.1-.2 0-.2 0-.1.1-.1.1-.1.2v.4h-.1l-.2-.4v.2c0 .1 0 .2.1.3 0 .1.1.2.1.3v.1l-.1.1h-.1v.6H83v.1h.4zm-.2.5c0-.1 0-.1 0 0-.1-.1-.1-.1 0 0-.1 0-.1 0 0 0zm-.1-4c.1.1.1.1 0 0 .1.1.1.1.2.1h.2c0-.1 0-.2-.1-.2h-.1c-.1.1-.2.1-.2.1zm.3.2c-.1 0-.1.1 0 0-.1.1 0 .1 0 .1v-.1c0 .1 0 0 0 0zm0-1.1c0 .1 0 .2.1.2.1.1.2.1.2.1 0-.2 0-.2-.1-.3h-.2zm.2 5.3s0 .1 0 0v.2s.1 0 0-.2c.1.1 0 0 0 0zm.2-.9c-.1 0-.1 0 0 0-.1.2 0 .2 0 .2v-.2zm0-3.8s0 .1 0 0c.1.1.2 0 .2 0v-.1h-.1c-.1 0-.1 0-.1.1zm0 1.3s0-.1 0 0v-.1.1zm.3 5.8c-.1 0-.1 0 0 0l-.1.1c.1 0 .1-.1.2-.1s.1-.1.1-.2c0 0-.1-.1-.2-.1s-.1-.1-.2-.1l-.1.1.1.1.2.2zm-.1.3s-.1 0 0 0c-.1.1 0 .1 0 .1s.1 0 0-.1c.1 0 0 0 0 0zm0-6.9l.1-.2H84v.2zm.1 2.9c-.1 0-.1 0 0 0-.1.1-.1.1 0 0 0 .1 0 .1 0 0zm0 4.1s-.1.1 0 0v.1c.1 0 .1 0 0-.1zm.1-7.4c0-.1 0-.1 0 0-.1-.1-.1-.1 0 0-.1 0-.1 0 0 0-.1 0 0 0 0 0zm-.1 6.5h.1v-.1l-.1.1zm.2 1s-.1 0 0 0c-.1.1 0 .1 0 0 0 .1 0 .1 0 0zm.1-.3s-.1 0 0 0c-.1.2 0 .2 0 .2s.1 0 0-.2c.1 0 0 0 0 0zm0-1.9zm.1-5.8c-.1 0-.1 0 0 0-.1.1 0 .2 0 .2v-.2zm.1.1c-.1 0-.1 0 0 0-.1.1 0 .2 0 .2v-.2zm0 1c-.1.1 0 .2 0 .2.1 0 .1-.1 0-.2.1 0 .1 0 0 0zm0 6.3h.2c0-.1-.1-.1-.2 0 .1-.1.1-.1 0 0zm.2-7.4v.1c0 .1 0 .1.1.1l.2-.1c0-.1 0-.1-.1-.2 0-.1-.1-.1-.2-.2 0 0 0 .1-.1.1.1.1.1.1.1.2zm.4 7.4H85l-.1.1h.2v-.1zm.2-.1c0 .1 0 .1 0 0V25.9h.1v-.5c-.1 0-.1.1-.1.2zm0-7.3v.2c.1-.1.1-.1 0-.2.1 0 .1 0 0 0zm0 .9v.1c.1 0 .1 0 0-.1.1 0 .1 0 0 0zm.2-1.4c-.1 0-.1 0-.2.1h.2v-.1zm-.1 1.3c0-.1 0-.2.1-.2v-.2-.1s0-.1-.1-.1v.6zm.3 3.9h-.1.1zm.2 2s0 .1 0 0c-.1.1 0 .2 0 .2.1 0 .1 0 0-.2.1.1.1 0 0 0zm.1-2.3c-.1 0-.1 0 0 0-.1.1 0 .1 0 0zm0 3.8c-.1 0-.1 0 0 0-.1.1 0 .1 0 0zm0-8c.1.1.1.2.1.2s.1.1.2.1h.1s.1 0 .1-.1-.1 0-.1 0c-.1 0-.1 0-.1-.1v-.1-.1l-.3.1zm.3 6.9c0-.1 0-.1 0 0h-.1.1zm.3.1c.1 0 .1 0 .2-.1l-.2.1zm.2-4.2zm.2.6zm-.1-1.2v.2c0 .1 0 .2.1.2 0 .1.1.1.1.2s.1.1.2.1v-.2-.2c-.1 0-.1 0-.2.1 0-.1-.1-.1-.1-.2s0-.2-.1-.2zm.4-2.8v.1c0 .1 0 .1.1.1s.1 0 .1-.1 0-.1-.1-.1c-.1.1-.1 0-.1 0zm0 3.8l.1-.1h-.1v.1zm.1 3.7c.2.1.3.2.3.2h.1v-.2-.2c-.1 0-.1 0-.2.1 0 .1-.1.1-.2.1zm0 1.4h.1c0-.1 0-.1-.1-.2v.2zm.3-1v.2c0 .1.1.1.2.1 0-.1 0-.2-.1-.2 0 0 0-.1-.1-.1zm0-4.1v.2s0 .1.1.2c.1 0 .1-.1.1-.2v-.2h-.2zm.2.7v-.2l-.1.1.1.1zm-.1-2.1s0 .1 0 0c.1.1.1.1 0 0l.1.1c0-.1.1-.2.2-.2h.3c0-.1-.1-.1-.1-.1h-.1-.2l-.2.2zm.7.1s-.1 0-.1.1-.1.1-.1.1h.3l-.1-.2zm-.2-2.1h.1v-.1l-.1.1zm.2 8.4s-.1.1 0 0v.2s.1 0 0-.2c.1.1 0 0 0 0zm.2-4.9l.1-.1-.1.1zm0-1s0 .1 0 0v.2c.1 0 .1 0 0-.2.1.1.1 0 0 0zm.1-.3h-.1c0 .1.1.1.1 0 0 .1 0 .1 0 0zm-.1 1h.1v-.1l-.1.1zm.4.2s-.1 0 0 0c-.1 0-.1 0 0 0-.1.1-.1.1 0 0-.1.1 0 .1 0 0zm-.1-.4zm.1-1.3c-.1 0-.1 0 0 0-.1.1 0 .1 0 .1V20zm0 .3c0 .2 0 .3.1.4.1.1.1.2.2.3l.1-.1v-.1-.1c0-.1 0-.2-.1-.2-.1-.2-.1-.2-.3-.2zm.3 1.1s-.1 0 0 0c-.1.1 0 .1 0 .1v-.1zm.1-2c-.1 0-.1 0 0 0v0zm0-.3c-.1.1 0 .2 0 .2s.1-.1 0-.2c.1 0 .1 0 0 0zm.4 1.4l-.2-.1.2.1zm.1 5.1c-.2 0-.2.1-.2.2.1 0 .2-.1.2-.2zm0-6.3c-.1 0-.1 0 0 0-.1.2 0 .2 0 .2v-.2zm0 .1c-.1.1 0 .2 0 .2s.1-.1 0-.2c.1 0 .1 0 0 0zm.3 6.6s.1 0 0 0l.1.1s.1 0 .1-.1.1-.1.1-.1l-.1-.1h-.1c0 .1 0 .1-.1.2zm.2.7zm.1-1.1s-.1 0 0 0c-.1.1 0 .1 0 .1s.1 0 0-.1c.1 0 0 0 0 0zm.2.1c-.1.1-.1.2 0 .2s.1-.1 0-.2c.1 0 .1 0 0 0zm.6 1.1c-.1 0-.2 0-.2.1l.2-.1c-.1.1 0 .1 0 0 0 .1.1 0 0 0zM102.9 26.6h-.4c-.2 0-.3-.1-.5-.1-.2-.1-.3-.1-.5-.2l-.3-.3v-.1c0-.2-.1-.4-.2-.5l-.3-.3c-.1-.1-.2-.1-.3-.2l-.2-.2v-.1-.1-.1h-.2s0 .1-.1.1c0 .1 0 .1-.1.1 0 .1-.1.2-.2.3l-.3.3c-.1.1-.2.2-.3.2-.1.1-.1.2-.1.3v.1s.1 0 .2-.1H99.4l.1.1v.1h-.1-.1v.2l-.1.1c0 .1-.1.1-.1.1H98.8c-.1-.1-.1-.2-.2-.1h-.2l-.2.2c-.1 0-.2.1-.3.1-.1 0-.2.1-.3.1-.1.1-.1.1-.1.2h-1.2c0 .1 0 .1-.1.1H96c-.3 0-.7-.1-1-.2-.3-.1-.4-.4-.4-.7v-.3c0-.1 0-.2.1-.3 0 0-.1-.1-.2-.1h-.4c-.1 0-.1 0-.2.1 0 0 0 .1.1.1V25.8c-.2 0-.3 0-.4-.1-.1-.1-.1-.2-.2-.4 0-.1-.1-.3-.1-.4v-.4-.1c0-.1-.1-.1-.1-.2s-.1-.1-.1-.2-.1-.1-.1-.1 0-.1-.1-.2c0-.1 0-.2-.1-.3 0-.1 0-.2-.1-.3v-.2s.1 0 .1-.1l.1-.1c0-.1 0-.2-.1-.2 0-.1-.1-.1-.1-.2s0-.1.1-.2.1-.1.2-.1h.1s.1 0 .1.1v.1l.2-.1c0-.1-.1-.1-.2-.2-.1 0-.2-.1-.2-.1-.1 0-.1 0-.2-.1-.1 0-.1-.1-.1-.2s0-.1.1-.1h.2s.1-.1.1-.2h.6V21l-.5-.2v-.1c0-.3 0-.4.1-.6.1-.1.2-.2.3-.2s.2-.1.3-.1c.1 0 .2-.1.2-.1H94s-.1 0-.1-.1 0-.2.1-.3.2-.1.3-.1.2 0 .3-.1c.1 0 .2-.1.2-.1v-.1-.1l.2-.2.2-.2v-.2l-.2-.3v-.1s0-.1.1-.1l.1-.1s.1 0 .1.1v.1h.8v.1l.1.1c.2 0 .3 0 .4-.1l.3-.3.3-.3c.1-.1.3-.1.5-.1 0 0 .1.1.3.2s.3.2.5.4c.2.1.4.3.5.4.2.1.3.2.4.2.1 0 .1.1.2.2s.1.2.1.3c0 .1.1.2.1.3v.2c.1 0 .1.1.2.1 0 .1.1.1.1.2s.1.1.1.2c0 0 .1.1.2.1v.2c0 .1.1.2.1.3 0 .1.1.2.1.3 0 .1.1.1.1.2v.2h.1V21v.1c-.1 0-.3 0-.4-.1-.1-.1-.2-.1-.4-.1 0 0 0 .1.1.2 0 .2.1.2.1.2h.8v.1s0 .1-.1.2c0 .1-.1.1-.1.2v.1l.2.7c0 .1.1.2.2.1.1 0 .2 0 .2.2 0 0 0 .1-.1.2s-.1.1-.1.2 0 .1.1.2c.1 0 .1.1.2.1s.1.1.2.1.1.1.1.2l-.1.4s0 .1.1.1.1.1.2.1.1.1.2.1.1.1.1.1v.1c0 .1.1.2.1.3 0 .1.1.2.1.2s.1.1.2.1c.1.1.3.1.5.2s.3.1.5.2.3.2.4.2c-.1 0-.2.1-.2.1v.4c0 .1 0 .1-.1.2s-.2.1-.3.2c-.2 0-.4.1-.8.1-.1 0-.1 0-.2-.1l-.1-.1s-.1-.1-.1-.2c.7.1.6 0 .6 0zm-8-2.9c.1.1.1.2.2.4s.1.3.2.3.2.1.3.1c.1 0 .2 0 .2.1h.8c.1 0 .1 0 .1-.1l.1-.1s.1-.1.3-.1c0 0 .1 0 .3-.1.1 0 .2 0 .3-.1.2-.1.3-.2.4-.5l.3-.6c0-.1.1-.1.2-.1s.2 0 .2-.1c0 0-.1 0-.1-.1-.1 0-.1-.1-.1-.1s0-.1.1-.2l.1-.1c.1-.4.2-.8.3-1.3.1-.5.1-.9.1-1.2 0-.2 0-.3-.1-.4-.1-.1-.2-.2-.3-.2-.1 0-.3-.1-.4-.1h-.5s-.1 0-.3.1-.3.2-.5.3c-.2.1-.3.2-.5.3-.1.1-.2.1-.2.2v.2c0 .1 0 .2-.1.2h-.1-.1l-.4.4c0 .1 0 .1.1.1 0 0 .1.1.1.2v.4c0 .1 0 .1-.1.2 0 .1-.1.2-.1.3-.1.2-.1.3-.2.4s-.2.2-.3.2c-.1 0-.2.1-.3.1-.1 0-.1.1-.1.1 0 .1 0 .2.1.2s.2.1.2.1h.3c.1 0 .1.1.2.1 0 .1-.1.1-.2.2-.3.2-.4.2-.5.3zm1.3 1.2h-.1.1zm.2-.2c-.1 0-.1 0 0 0-.1.2-.1.2 0 .2 0 0 .1 0 0-.2.1 0 0 0 0 0zm.1-5.4h.1v-.1h-.1v.1zm.8 5.4l.1-.1c.1 0 .1-.1.1-.2h-.2v.3zm1-7.4h-.1c.1.1.1.1.1 0 0 .1 0 .1 0 0zm-.1 7.1h.1v-.1l-.1.1zm.1.3s-.1 0 0 0c-.1.2-.1.2 0 .2s.1 0 .1-.1 0-.1-.1-.1zm.2-1.5c0 .1 0 .1.1.1h.4l-.1-.3c-.1 0-.1 0-.2.1-.1 0-.2.1-.2.1zm.1-5.8c-.1.2 0 .2 0 .2.1 0 .1 0 0-.2.1 0 .1 0 0 0zm1.2 6.8h.2V24h-.2v.2zM106.5 25.9v-.2-.2s0-.1-.1-.2-.1-.1-.1-.2c0 0 0-.1.1-.1l.1-.1v-.2c0-.3-.1-.7-.2-1-.2-.3-.3-.7-.3-1-.1-.5-.1-.9-.2-1.4 0-.4-.1-.9-.1-1.4v-1.4c0-.2 0-.3.1-.5 0-.2.1-.3.2-.4.1.1.2.2.3.4s.2.2.3.2c0 0 .1 0 .2-.1s.1-.1.2-.1h.1c.2 0 .3 0 .4.1s.2.1.3.3v1s0 .4.1.6c0 .2.1.3.2.4h.2l.1-.1c0-.1-.1-.3-.2-.4-.1-.1-.2-.3-.2-.4 0 0 0-.1.1-.2s.1-.2.2-.2c.1-.1.1-.2.2-.2l.1-.1h.2c.1 0 .1 0 .2-.1 0-.1 0-.1.1-.2v-.2-.2l.2-.2c.1-.1.2-.1.2-.2h.1c.1 0 .1 0 .1.1s.1.1.3.1c.2 0 .3-.1.5-.2.1-.1.2-.3.3-.4.1-.2.2-.3.2-.4.1-.1.1-.2.2-.2s.2 0 .3.1c.1.1.2.1.3.2s.2.1.3.2c.1.1.2.1.3.1h.6s.1 0 .2.1l.3.3.3.3c.1.1.1.1.2.1l.1 1.4-.1.1c.2.1.3.2.3.3.1.1.1.2.1.4 0 .1 0 .2-.1.3 0 0-.1.2-.1.3 0 .2 0 .3.1.5 0 .1.1.3.1.4v.1l-.1.1h-.1v.1c0 .1.1.1.1.1.1 0 .2-.1.3-.1.1 0 .1-.1.1-.2s0-.1-.1-.2c0 0-.1-.1-.1-.2l.2-.2.4-.4c.1-.1.3-.2.4-.4s.2-.2.2-.2c.1-.1.2-.2.3-.4.2-.2.3-.4.5-.5.2-.2.4-.3.6-.5.2-.1.3-.2.5-.2h.1l.1.1.1.1c.1 0 .2 0 .3-.1s.2-.1.3-.2c.1-.1.2-.2.2-.3.1-.1.1-.2.1-.3 0 0 .1.1.2.1s.2.1.3.1v.1s.1 0 .1-.1l.1-.1h-.1c0-.4 0-.6.1-.7.1-.1.3-.2.7-.3.1 0 .2.1.3.2l.3.3.3.3c.1.1.2.1.3.1 0 0 .1 0 .1-.1l.1-.1h.1c.1 0 .2.1.2.2.1.1.1.2.1.4s.1.3.1.4v.3c0 .4-.1.7-.2 1.1-.1.4-.2.7-.2 1.1 0 .1 0 .1.1.1l.2.1s-.1.1-.1.2-.1.1-.1.2c0 0 0 .1.1.1s.1.1.1.1 0 .1-.1.1c0 .1-.1.1-.1.1v1.3c0 .1 0 .2.1.3 0 .1.1.3.1.4 0 0 0 .1.1.2s.1.1.1.2c0 0 0 .1-.1.1 0 .1-.1.1-.2.1v.4c0 .2 0 .3.1.4.1.1.1.2.2.3.1.1.1.2.2.2.1.1.1.2.1.3h.5s-.1-.1-.2-.1-.2-.1-.2-.1-.1 0-.2.1-.2.1-.2.1h-.2c-.2 0-.5-.2-.6-.5-.2-.3-.3-.7-.5-1.1l-.3-1.5c-.1-.5-.2-1-.2-1.5-.1-.5-.1-.8-.2-1.1-.1-.3-.1-.5-.2-.5h-.1c0 .1-.1.2-.3.3-.2.1-.3.2-.3.3l-.2.2-.2.2h-.1c-.1 0-.2 0-.2-.1 0 0-.1-.1-.2-.1v.8s0 .2-.1.3-.1.2-.2.4h-.1s0-.1-.1-.2c0-.1 0-.2-.1-.2v-.1c0-.1 0-.1-.1-.1h-.1s-.1 0-.1.1v.5l.2.1v.1h-.1c-.1 0-.1 0-.2-.1-.1 0-.1 0-.1-.1-.1 0-.1 0-.2.1s-.1.1-.1.2h.1c.1 0 .2.1.2.1 0 .3-.1.5-.3.5-.2 0-.4.1-.6.1 0-.1 0-.2-.1-.3 0-.1-.1-.2-.2-.2-.2 0-.3.1-.4.3-.1.2-.1.3-.1.4 0 .1.1.3.2.3.1.1.2.2.2.4 0 .3-.1.6-.2.7s-.3.2-.5.2-.4.1-.6.2-.3.2-.4.5H114l-.1-.1-.1-.1h-.1l-.1.1-.1.1h-.1l-.1-.1v-.1-.1s0-.1.1-.1v-.1-.1-.7c0-.3 0-.5-.1-.8 0-.3-.1-.5-.1-.8 0-.3-.1-.5-.2-.6-.1-.1-.1-.3-.2-.3-.1-.1-.1-.2-.1-.3 0-.1-.1-.2-.1-.3v-1.1s0-.1.1-.1.1-.1.1-.1c0-.1 0-.2-.1-.4l-.1-.2h-.3c.1-.1.1-.1.1-.2v-.4s-.1 0-.1.1-.1.1-.1.1c-.1 0-.1 0-.1-.1s0-.1-.1-.2c0-.1-.1-.2-.1-.2 0-.1-.1-.1-.2-.1s-.2 0-.3.1c-.1.1-.2.3-.4.5-.1.2-.2.4-.3.5-.1.2-.2.3-.2.3l-.2.2-.1.1s-.1 0-.2.1c-.1 0-.1.1-.2.1v.1s.1 0 .1.1l.1.1-.4.4h.2c.1 0 .1.1.1.2s0 .2-.1.2-.1.1-.1.2 0 .2.1.2.1 0 .1.1-.1.1-.3.2c-.2.1-.2.2-.2.4 0 .1 0 .2.1.2s.1.1.1.2c0 .4-.1.7-.3.9-.2.2-.5.3-.8.3V26c0 .1 0 .1-.1.2l-.1.1h-.2c-.1 0-.2 0-.3.1-.1.1-.2.1-.3.2h-.1c-.3 0-.4-.1-.5-.2-.1-.2-.1-.4-.1-.6v.1zm.3-6.3v.8c0 .3 0 .4.1.4 0 0 .1-.1.1-.2v-.5c0-.2 0-.3-.1-.4-.1-.1-.1-.2-.1-.1zm.1 6.7v.2c.1 0 .1-.1 0-.2.1 0 .1 0 0 0zm.3-.6c0 .1 0 .2.1.3.1.1.1.2.3.2.1 0 .1-.1.1-.2v-.2-.1-.2s-.1.1-.2.1-.1 0-.2.1c0-.1-.1-.1-.1 0zm1.5-3.2h.1v-.2h-.1v.2zm.3-3c0 .1 0 .3.1.5s.1.3.2.4l.2-.2.2-.2h-.2c0-.1-.1-.2-.2-.3-.1-.1-.2-.2-.3-.2zm.6-.9v.2c0 .1.1.1.1.2l.1-.1.1-.1v-.1s0-.1-.1-.2c0-.1-.1-.2-.1-.2-.1 0-.1.1-.1.1v.2zm.9-.1c-.1 0-.1.1 0 0v.2l.1.1.1.1v-.2l-.2-.2zm0-.1h.1v-.1h-.1v.1zm3.7 4.3s0 .1-.1.2c0 .1 0 .1-.1.1.2 0 .3.1.4.1.1 0 .2.1.4.1l-.5-.7h-.1v.2zm0-1.1c-.1 0-.1 0 0 0v0zm.7.5c.1 0 .1 0 .1.1s0 .1-.1.1-.1 0-.1-.1c0 0 0-.1.1-.1zm1.8-2s-.1 0-.1.1 0 .1.1.1.1 0 .1-.1 0-.1-.1-.1zm.2 1.2c0 .1 0 .1 0 0 .1 0 .1 0 0 0 .1 0 .1 0 0 0zm.3-1.7s0 .1 0 0c0 .1 0 .2.1.3 0 .1.1.1.1.2s.1.1.1.1c.1-.1.2-.1.2-.2s0-.2-.1-.2-.1-.1-.2-.1c0-.1-.1-.1-.2-.1zm.2 2.1c.1 0 0 0 0 0-.1-.1-.2-.1-.1 0 0 .1 0 .1.1 0 0 .1 0 .1 0 0zm1.4-1.2c-.1 0-.1 0-.1.1s0 .1.1.1.1 0 .1-.1 0-.1-.1-.1zm1-.1H119.2 119.5c.1.1.2.1.3 0zm1.8-.2h.4c.1 0 .1-.1.1-.2s0-.1-.1-.2-.2-.1-.4-.1v.5zm.2 2.5s0 .1.1.1c0 .1.1.1.1.1v-.4l-.1.1-.1.1zm.6 3.8v-.1h-.1l.1.1z"/></g><path fill="#FFF" d="M164.1 1.3c-.1-.1-.2-.2-.3-.2h-.1c-.6-.1-1.6.4-2.5 1-1 .6-1.9 1.4-2.3 1.7-.2.2-.4.4-.7.5-.9.5-1.7.9-2.5 1.5l.1.1c-.2.1-.3.1-.5.2l-.2-.1c-.1.1-.1.2-.2.3-.4.6-1 1.2-1.4 1.8h-.1l-.1.1v.2c0 .1-.1.1-.1.2s-.1.2-.1.2l-.1.2h.5c.4 0 .9.1 1.3.1l.9.6c.1 0 .2.1.3.1h-.9l-.1.3c.8.4 1.6.5 2.5.5-.2.2-.4.5-.7.7-1.4 1-3.1 1.9-4.2 2.3-2.6 1-4.8 1.2-7.3.2l-.1.2c.1.1.2.1.3.2v.1c-.1 0-.1 0-.2.1l-.1-.1c0 .1-.1.1-.1.2h-.1l-.1-.1v.1c-.3.1-.5.2-.8.4-.5.2-.9.5-1.2.8-.1 0-.1.1-.2.1 0 .1-.1.1-.1.2-.3.5-.3 1.1 0 2 .2.6.6 1.3 1 2 .1.2.1.3.2.5.4 1 1.1 1.8 1.4 2.8l-.1.1c.1.1.2.1.2.1h.1v.1h.1c3.2 1.7 6.7.1 9.4-1.6.8-.5 1.5-1.1 2.2-1.6 2.6-1.9 5.2-4.4 6.7-7 .1 0 .2.1.3.1-.1.2-.2.3-.4.5l.2.2c.2-.2.3-.4.5-.5.3.1.5.1.8.2.1 0 .1 0 .2.1v-.1c.1 0 .3.1.4.1h.1v-.1c.1 0 .2.1.3.1l.1-.2c-.1 0-.1-.1-.2-.1.3-.4.8-.8 1.2-1.2 0 0 .1 0 .1-.1.1-.1.2-.3.3-.4.2-.1.3-.2.5-.3l.2-.1-.2-.1v-.1c0-1.6-1.5-4.1-2.3-5.7-.3-.6-.6-1.2-.9-1.9-.2-.5-.4-1-.6-1.4-.1-.2-.1-.3-.2-.5-.1-.1-.1-.2-.2-.3.3-.2.2-.3.1-.3zm.8 9.3c.1.1.2.1.3.2h-.1c-.1-.1-.2-.1-.2-.2zm.1.6c.2.1.4.1.5.1-.2.2-.5.4-.7.6l-.6.3c.3-.2.6-.5.8-.8v-.2zm-.4.2c-.1-.1 0-.1 0-.2h.3c-.2 0-.3.1-.3.2zm-.1 1.6s-.1 0-.1-.1c.1-.1.2-.1.2-.2l.9-.6c-.2.2-.3.4-.5.5v.1s-.1 0-.1.1c-.2.1-.3.1-.4.2zm3.3-1.3c-.4.3-.7.5-1 .8l.1-.1c.2-.4.3-.7.4-1.1.2 0 .5.1.7.1l.1.1-.1.1h-.1s-.1 0-.1.1zm-2.4.1l.1-.1c.1-.1.2-.2.4-.3.1 0 .2 0 .3.1 0 .1-.1.1-.1.2-.1 0-.2 0-.2.1v-.1c-.3 0-.4.1-.5.1zm.7-.6h.2-.2zm-.5-.4zm1.1 1.9s0 .1 0 0zm-.8-.1l.6-.6.2-.2s.1 0 .1-.1h.2c-.1.3-.2.5-.4.8-.3.1-.5.1-.7.1zm-1.8 0c.1 0 .2-.1.3-.1l-.1.1s-.1 0-.1.1c0-.1-.1-.1-.1-.1zm-1.1.2c0 .1-.1.1-.1.1l.1-.1zm.5-.4c.2-.1.3-.2.5-.4.1 0 .2-.1.2-.1-.2.2-.5.4-.7.5zm-.1-.5l.2-.2-.2.2zm1-1.8c.1 0 .2 0 .3.1.2.1.3.2.5.3-.3-.2-.6-.3-.8-.4zm1.4.3c.2.1.3.1.5.2l.1-.1c.2.1.3.2.5.2l-.2-.1v.1h-.1l-.1-.1c-.4 0-.6-.1-.7-.2zm1 .3s0 .1 0 0c0 .1 0 .1 0 0zm.5-.1s0 .1 0 0c0 .1 0 0 0 0zm-.5-2.1c-.1-.3-.1-.6-.2-.9.2.5.4.9.6 1.4-.2-.1-.3-.3-.4-.5zm-.6-1c-.1-.2-.2-.3-.2-.5-.1-.2-.2-.5-.3-.7-.1-.4-.2-.9-.3-1.3.1.2.1.3.2.5v.1c.2.6.4 1.3.6 1.9zm-1.3-3.4c-.1-.5-.3-.9-.4-1.4.2.5.3.9.4 1.4zm2.4 6l-.3-.6c.1.2.3.4.4.7 0 .1.1.3.1.4-.1-.2-.2-.3-.2-.5zm-.2.3v-.1.1zM166 8.3c-.1-.4-.2-.7-.3-1.1l.9 2.1c-.2-.3-.4-.7-.6-1zm-.5-1c-.8-1.5-1.3-3.2-1.2-4.4l.9 3c.1.4.2.9.3 1.4zm1.4 0c-.3-.6-.6-1.1-.9-1.6 0-.1-.1-.2-.1-.3 0 0 0 .1.1.1.3.7.6 1.2.9 1.8zm.2 1c.2.4.4.9.5 1.3-.2-.4-.3-.9-.5-1.3zm1.1 2.5c-.1-.2-.2-.3-.4-.5 0-.5-.1-1-.3-1.6.4.7.7 1.5.7 2.1zm.1.4h-.1l-.2-.2h-.1c-.1-.1-.2-.2-.3-.4h.2c.2.3.3.5.5.6zm-3.2 2l.2-.2c.2-.1.6-.1.9-.2-.1.1-.2.3-.3.4l.2.2c.1 0 .1-.1.2-.1l-.1.1c-.3-.1-.7-.1-1.1-.2zm-1.4.1c-.5.4-.9.8-1.4 1.2.3-.5.7-.9 1-1.4.1.1.2.1.3.1.1 0 .1 0 .1.1 0-.1 0-.1 0 0zm-2 .7c.2-.4.5-.7.8-1.1l.1.1v.1c-.2.2-.3.4-.5.7-.2 0-.3.1-.4.2zm.8-.4l.3-.3-.6.9.3-.6zm-3.6 5.2c.9-1 1.7-2 2.6-3 .5-.4 1.1-.9 1.6-1.4-1.1 1.6-2.6 3.1-4.2 4.4zm2.6-4.1c0-.1.1-.2.2-.3-.1.2-.1.3-.2.3-.3.5-.6 1-1 1.4-.1.1-.1.2-.2.2-.2.1-.4.2-.6.4.1-.2.3-.4.5-.5.4-.4.8-.9 1.3-1.5 0 .1 0 0 0 0zm-4 4.4c.4-.3.7-.6 1.1-.9-.3.3-.7.6-1.1.9zm-.3.9l.3-.3.3-.3c.2-.2.4-.3.6-.5l.2-.2c-.5.5-.9.9-1.4 1.3zm-1.1.5zm-.4.6c.2-.1.4-.3.6-.4v.1c-.1.1-.2.1-.3.2 0 0-.1 0-.3.1zm-2.6 1.4c1-.7 2.1-1.5 2.9-2-.9.8-1.9 1.5-2.9 2zm-2 .1c-.2 0-.3-.1-.5-.1 4.9-1.2 9.3-6.3 11.9-10.5l.4-.4v.1c0 .1-.1.1-.1.2l.1.1-.3.3-.1.1c-.1.1-.2.2-.2.3-.7.8-1.2 1.8-1.7 2.5-.1.2-.2.3-.3.5-.3.3-.6.6-.8.9-.7.7-1.5 1.4-2.2 2.1l.1.2c-.5.4-1 .9-1.5 1.3-.9.6-1.9 1.3-3 2-.6.1-1.2.3-1.8.4zm-6.8-7.1V16.1c-.1-.1-.1-.2-.2-.4 0-.1.1-.2.2-.2zm.4 1l.2-.1c-.1-.3-.2-.7-.3-1 .1.3.2.6.4.9v.8c-.1-.1-.1-.2-.2-.3 0-.1-.1-.3-.1-.3 0-.1 0 0 0 0zm-.5 1.6c-.1-.1-.1-.3-.2-.4l.2-.1c-.2-.5-.3-1.1-.3-1.5.2.3.3.5.4.8.1.3.2.6.2.8l-.1-.1.1.3c.1.4.2.7.3 1-.2-.2-.3-.3-.4-.5-.1 0-.1-.2-.2-.3zm2.2 4.5c.1 0 .1 0 0 0 0 .1 0 .1-.1.1 0-.2-.1-.4-.2-.6.1.1.2.2.3.2v.3zm-.8.7c.1 0 .1 0 0 0h0c.1 0 .1 0 0 0zm.4-.1s.1 0 0 0c.1 0 .1 0 0 0 .1 0 .1 0 0 0zm2-.9c-.2.1-.3.2-.5.2.2 0 .4-.1.5-.2zm-.7.9c-.1 0-.1 0 0 0zm-.5-.8v-.1c0-.1 0-.1-.1-.2.1.1.1.2.2.3l.2-.1c-.1-.2-.1-.3-.2-.5l.1.1.2-.1.1.1.2-.2c-.3-.3-.5-.9-.7-1.2l-.2.1.3.6c-.1-.2-.2-.3-.3-.5-.1-.2-.2-.3-.3-.5-.2-.3-.3-.7-.5-1 .3.4.5.8.7 1.3l.3-.1c0-.2-.1-.5-.2-.7.4.8.8 1.6 1.3 2.5-.3.2-.5.3-.9.5-.1-.2-.1-.3-.2-.3zm-1-6.1c0 .1.1.2.1.4 0-.2-.1-.3-.1-.4zm-.1 1.5c.1.5.3.9.5 1.4-.1-.2-.3-.4-.4-.5v-.1c0-.3 0-.6-.1-.8zm-.9 0c0-.1 0-.1 0 0 0-.1 0-.1 0 0zm.7.3c0-.1-.1-.1-.1-.2v-.5c0 .3.1.5.1.7zm-.6 1.7c.1 0 .1.1.2.1.1.2.2.3.3.5-.1-.2-.2-.4-.4-.5-.1 0-.1-.1-.1-.1zm.1-.3c-.1-.1-.2-.1-.3-.2v-.1c.1.2.2.2.3.3zm.6.3c.1 0 .1 0 0 0 .1 0 .1 0 0 0 .1 0 0 0 0 0zm-1.6-1.4l.1.1c.1.2.1.3.2.6-.1 0-.1-.1-.2-.1v-.1c-.1-.2-.1-.4-.1-.5zm2.4 3.6l-.2-.2c-.1-.4-.3-.8-.5-1.2.1.2.3.3.4.5.1.2.2.4.3.5v.4zm-1.5-1.5c.1.3.2.5.3.8-.1-.3-.3-.6-.4-.9l.1.1zm-1-1.1s-.1 0 0 0c-.1 0 0 0 0 0zm.9-4.4l.1-.1v.5c.1-.2 0-.3-.1-.4zm.5.2c0 .1.1.1.1.2V15.6c0-.3-.1-.3-.1-.4zm.8 1c.8 1.4 1.5 3.3 2 4.9-.7-1.3-1.5-2.5-2-3.8.1-.4.1-.8 0-1.1zm2.2 6c-.5-.9-.9-1.7-1.3-2.6.4.9.9 1.7 1.3 2.6zm.3-.1c.5.1 1.1 0 1.7 0 1.4-.2 2.7-.7 4-1.5-1.8 1.1-3.6 1.8-5.5 1.8-.1 0-.2-.2-.2-.3zm2.4 1.6c.6-.2 1.2-.4 1.7-.7-.5.3-1.1.5-1.7.7zm-.7-.3v-.1c.4-.2.9-.3 1.4-.5-.5.3-1 .5-1.4.6zm-3.9.1c.1 0 .2-.1.3-.1.7.1 1.4.3 2.1.3h.1l-.2.1h.1c-.3 0-.6.1-.9.1-.5 0-1-.2-1.5-.4zm-.9-1.1l-.1-.1.1-.1v.1c0 .1.1.2.1.3l.2-.1c0-.1-.1-.2-.1-.3-.1-.2-.1-.4-.2-.6l.1.1c.2.4.4.9.4 1.2-.1 0-.2.1-.4.1l-.1.1h-.1c-.1-.2-.1-.4-.2-.6l.3-.1zm-1.8-6.5c-.1.3-.1.5 0 .8l-.3-.6-.2.1c.1.2.2.3.2.5h-.1c.1.4.2.7.3 1.1-.1-.3-.3-.5-.4-.8-.1-.3-.2-.5-.3-.8 0 0 0-.1.1-.1V16v.1c.2 0 .5-.1.7-.2zm1.8-1.3v.4l-.3-.3c.1-.1.2-.1.3-.1zm9.2-1.6c-1.1.6-2.2 1.1-3.4 1.4.5-.1 1-.3 1.5-.5.5-.3 1.2-.6 1.9-.9zm3.3-2.9c-.2-.1-.3-.1-.5-.2h.6c0 .1-.1.1-.1.2zm2-2s-.1 0-.1-.1h.8c-.6.7-1.3 1.4-2.1 2.2.2-.2.3-.4.4-.6.2-.1.4-.3.5-.5.1-.1.2-.3.2-.5.2 0 .3-.1.4-.2v-.2h-.1v-.1zm-4.2-1.2c.8.5 1.6.8 2.4 1 0 0-.1 0-.1.1h-.1c-.6-.3-1.3-.5-1.9-.5-.3-.1-.5-.3-.8-.4l.2-.2c.2-.1.2 0 .3 0zm-.9.2l-.2.2-.1.1c.1-.1.2-.3.3-.4-.1 0-.1 0 0 .1zm1.8 2.8c.1 0 .2.1.3.1h-.2c-.3-.1-.6-.2-.9-.4-.1-.1-.3-.1-.4-.2.2 0 .4.1.5.2.1.1.3.2.4.2.1-.1.2 0 .3.1zm-2.4-1.5h.2l.1.1c-.1-.1-.2-.1-.3-.1zm.8.2c.1 0 .3 0 .4.1v.1c-.1 0-.2-.1-.2-.1-.1 0-.1-.1-.2-.1zm-.7-.6s.1.1.2.1h-.3l.1-.1zm2.8 1.6zm-.3-1.8zm.8.5l-.2-.1s.1 0 .2.1zm.6.1h.2c0 .1 0 .2-.1.2-.1.2-.3.3-.5.3l.2-.2c0-.1.1-.2.2-.3zm-.4.5h-.3v-.1h.1c.1.1.1.1.2.1zm.4.7c-.3.1-.7.1-1 0h.1c.3 0 .5-.1.7-.2v.1l.2.1c0-.1.1-.2.2-.3-.1.1-.1.2-.2.3zm-2.5-1.2l.6.3h-.2c-.1-.1-.2-.1-.3-.2-.2-.1-.3-.2-.5-.3-.2-.1-.5-.3-.7-.4 0 0 .1 0 .1-.1.1 0 .2.1.3.1.1.1.2.1.4.2.1.2.2.3.3.4zm1.4.8s0 .1 0 0c0 .1 0 0 0 0zm0-.3l.1.1h-.1c-.2 0-.3 0-.5-.1h.5zm.3.3s.1 0 0 0c.1.1 0 .1 0 0 0 .1 0 .1 0 0zm1.5-1l-.1.1h-.3l-.1-.1c0-.1.1-.1.1-.2.1 0 .3.1.4.2zm-5 .4c.1.1.2.2.4.3-.3 0-.5 0-.8-.1.1-.1.2-.2.2-.3.1 0 .2 0 .2.1zm3.2 1.7h.6c-.6 0-1.2-.1-1.8-.2.3 0 .5 0 .8.1.1.1.2.1.4.1zm-.6-4.5c2.6-1 5.3-2 7.4-3.9V2c0 .1.1.2.1.3-.4 1.7.5 4.2 1.7 6.2.2.7.6 1.3 1 1.8l.2.2c-1.1-.5-2.3-1-3.3-1.3-.1-.1-.2-.1-.3-.2l-.1.2c.3.2.6.3.8.5-.2 0-.5-.1-.7-.1v.3c.2 0 .4 0 .7.1l-.1.1h.1v.2c.1 0 .2.1.2.1.2.1.3.2.4.3h-.2l-.1.3c-.1 0-.2.1-.3.1l-.2-.1-.2.2c0-.1.1-.1.1-.2l-.2-.2c-.1 0-.1.1-.1.1 0-.1.1-.2.1-.3l-.1-.1v-.1c0-.1.1-.1.1-.2v-.1l-.2-.1v.1c-.1.1-.2.3-.2.4-.2.2-.4.4-.5.7-.4.5-.9 1-1.2 1.6-.1.1-.1.2-.2.3l.1.1c-2.8 3.7-7.1 8-11.1 8.7-.6.1-1.2.1-1.8 0-.5-2-1.5-5-2.8-6.6 0-.2 0-.5.1-.7.3.1.7.2 1 .3 4 1.4 8.5-1.3 11.6-4.1h.4v-.3h-.1c.9-.9 1.7-1.7 2.3-2.5l-.2-.2c0 .1-.1.1-.1.2v-.1c-.6.1-1.1.1-1.7 0-.1 0-.2-.1-.3-.1-.7-.4-1.5-.6-2.3-.9V7c-.3-.1-.5-.2-.8-.4l-.1-.1c-.1.2-.3.3-.4.4h-.2c.1-.1.2-.2.2-.4.6-.3 1.1-.5 1.5-.7zm.4-.6c-.2.1-.3.2-.5.3h-.1c.2 0 .4-.2.6-.3zm6.3-3.1c-1.6 1.4-3.7 2.2-5.8 3.1.3-.2.5-.4.8-.7 1.7-.8 3.4-1.6 5-2.4zm.4-.8c.1 0 .1.1.2.2-1.5.8-3.1 1.5-4.6 2.2.5-.4 1.2-1 2-1.5.9-.6 1.9-1 2.4-.9-.1 0-.1 0 0 0z"/></svg>